<svg xmlns="http://www.w3.org/2000/svg" width="145.631" height="97.299" viewBox="0 0 145.631 97.299">
  <g id="Grupo_1213134" data-name="Grupo 1213134" transform="translate(-312.781 -3860.707)">
    <g id="Grupo_1201016" data-name="Grupo 1201016">
      <g id="Rectángulo_410589" data-name="Rectángulo 410589" transform="translate(312.781 3886.804)" fill="#93795a" stroke="#695640" stroke-width="1">
        <rect width="145.631" height="48.544" rx="8" stroke="none"/>
        <rect x="0.5" y="0.5" width="144.631" height="47.544" rx="7.5" fill="none"/>
      </g>
    </g>
    <g id="delay_18537852" transform="translate(328.093 3851.707)">
      <g id="Grupo_1213953" data-name="Grupo 1213953" transform="translate(10.331 10.323)">
        <path id="Trazado_1248999" data-name="Trazado 1248999" d="M0,0H10.326V21.755H0Z" transform="translate(57.853 17.521) rotate(-45)" fill="#d6853a"/>
        <rect id="Rectángulo_411670" data-name="Rectángulo 411670" width="61.522" height="61.522" rx="30.761" transform="translate(14.609 14.609)" fill="#cacdfb"/>
        <rect id="Rectángulo_411671" data-name="Rectángulo 411671" width="49.654" height="49.654" rx="24.827" transform="translate(20.543 20.543)" fill="#00ade6"/>
        <g id="Grupo_1213952" data-name="Grupo 1213952" transform="translate(0)">
          <path id="Trazado_1249000" data-name="Trazado 1249000" d="M165.116,174.506a24.825,24.825,0,0,0,0-49.543,24.825,24.825,0,0,0,0,49.543Z" transform="translate(-118.115 -104.364)" fill="#11bef7" fill-rule="evenodd"/>
          <path id="Trazado_1249001" data-name="Trazado 1249001" d="M163.98,136.883a1.323,1.323,0,0,1-1.871-1.871l3.959-3.959a25.228,25.228,0,0,1,1.871,1.871ZM149.5,174.324q.666,0,1.323-.036v-5.63a1.323,1.323,0,1,0-2.647,0v5.63Q148.829,174.323,149.5,174.324Zm16.573-6.383a25.222,25.222,0,0,0,1.871-1.871l-3.959-3.959a1.323,1.323,0,1,0-1.871,1.871Zm8.218-17.121q.035-.658.036-1.323t-.036-1.323h-5.63a1.323,1.323,0,1,0,0,2.647Zm-23.468-26.115q-.658-.035-1.323-.036t-1.323.036v5.629a1.323,1.323,0,1,0,2.647,0ZM124.7,148.174q-.035.658-.036,1.323t.036,1.323h5.63a1.323,1.323,0,1,0,0-2.647Zm6.347,17.9a25.207,25.207,0,0,0,1.871,1.871l3.959-3.959a1.323,1.323,0,1,0-1.871-1.871Z" transform="translate(-104.125 -104.127)" fill="#fff" fill-rule="evenodd"/>
          <path id="Trazado_1249002" data-name="Trazado 1249002" d="M234.021,224.438a5.135,5.135,0,1,1-3.619,1.5A5.108,5.108,0,0,1,234.021,224.438Zm0,2.647a2.488,2.488,0,1,0,1.748.729A2.468,2.468,0,0,0,234.021,227.085Z" transform="translate(-188.651 -185.034)" fill="#fff" fill-rule="evenodd"/>
          <path id="Trazado_1249003" data-name="Trazado 1249003" d="M251.647,274.027a1.323,1.323,0,1,1-2.647,0v-8.063a1.323,1.323,0,0,1,2.647,0Z" transform="translate(-204.953 -217.637)" fill="#fff" fill-rule="evenodd"/>
          <path id="Trazado_1249004" data-name="Trazado 1249004" d="M36.655,17.2,52.829,45.213a2.4,2.4,0,0,1-2.076,3.6H18.4a2.4,2.4,0,0,1-2.076-3.6L32.5,17.2a2.4,2.4,0,0,1,4.151,0Z" transform="translate(-15.999 -16)" fill="#faa845" fill-rule="evenodd"/>
          <path id="Trazado_1249005" data-name="Trazado 1249005" d="M47.3,18.639,63.474,46.653a2.4,2.4,0,0,1-2.076,3.6H31.531a2.4,2.4,0,0,1-2.076-3.6L45.629,18.639a2.4,2.4,0,0,1,.835-.863,2.393,2.393,0,0,1,.835.863Z" transform="translate(-26.644 -17.44)" fill="#f7b84e" fill-rule="evenodd"/>
          <path id="Trazado_1249006" data-name="Trazado 1249006" d="M107.285,62.454a1.323,1.323,0,1,1,2.647,0V75.559a1.323,1.323,0,0,1-2.647,0Zm0,17.409a1.323,1.323,0,1,1,2.647,0v.9a1.323,1.323,0,0,1-2.647,0Z" transform="translate(-90.028 -52.599)" fill="#666" fill-rule="evenodd"/>
          <path id="Trazado_1249007" data-name="Trazado 1249007" d="M380.16,78.148l7.884,7.884,1.871-1.871a2.654,2.654,0,0,0,0-3.742l-4.142-4.142a2.654,2.654,0,0,0-3.742,0Z" transform="translate(-311.318 -64.256)" fill="#b06328" fill-rule="evenodd"/>
          <path id="Trazado_1249008" data-name="Trazado 1249008" d="M272.9,195.434a1.323,1.323,0,0,1,1.871,1.871l-7.1,7.1a1.323,1.323,0,1,1-1.871-1.871Z" transform="translate(-218.27 -161.199)" fill="#fff" fill-rule="evenodd"/>
        </g>
        <circle id="Elipse_12432" data-name="Elipse 12432" cx="17.104" cy="17.104" r="17.104" transform="translate(51.316 64.369) rotate(-22.514)" fill="#ccc"/>
        <circle id="Elipse_12433" data-name="Elipse 12433" cx="12.167" cy="12.167" r="12.167" transform="translate(57.768 67.039) rotate(-22.514)" fill="#cd212d"/>
        <path id="Trazado_1249009" data-name="Trazado 1249009" d="M363.178,341.395a12.167,12.167,0,1,1-11.139,12.124A12.168,12.168,0,0,1,363.178,341.395Z" transform="translate(-288.513 -279.881)" fill="#ee2b39" fill-rule="evenodd"/>
        <path id="Trazado_1249010" data-name="Trazado 1249010" d="M373.9,384.87a2.1,2.1,0,0,1,0-2.954l2.53-2.53-2.53-2.53a2.089,2.089,0,0,1,2.954-2.954l2.53,2.53,2.53-2.53a2.089,2.089,0,0,1,2.954,2.954l-2.53,2.53,2.53,2.53a2.089,2.089,0,0,1-2.954,2.954l-2.53-2.53-2.53,2.53A2.1,2.1,0,0,1,373.9,384.87Z" transform="translate(-305.747 -305.748)" fill="#fff" fill-rule="evenodd"/>
      </g>
      <g id="Grupo_1213954" data-name="Grupo 1213954" transform="translate(9.009 9)">
        <path id="Trazado_1249011" data-name="Trazado 1249011" d="M332.643,88.2a1.323,1.323,0,0,1-.936-2.259l6.208-6.208L324.4,66.221l-6.2,6.2a1.323,1.323,0,0,1-1.872-1.872l7.137-7.136a1.321,1.321,0,0,1,1.871,0L340.721,78.8a1.321,1.321,0,0,1,0,1.872l-7.142,7.144a1.317,1.317,0,0,1-.936.388Z" transform="translate(-257.92 -52.812)" fill-rule="evenodd"/>
        <path id="Trazado_1249012" data-name="Trazado 1249012" d="M147.008,130.856a1.327,1.327,0,0,1-1.233-1.809,29.055,29.055,0,0,0,2.019-10.683,29.4,29.4,0,0,0-43.572-25.8,1.324,1.324,0,0,1-1.28-2.318,32.057,32.057,0,0,1,45.3,39.765,1.327,1.327,0,0,1-1.232.841Zm-28.651,19.592a31.759,31.759,0,0,0,11.651-2.2,1.323,1.323,0,1,0-.968-2.463,29.108,29.108,0,0,1-10.683,2.017A29.471,29.471,0,0,1,88.92,118.364a29.037,29.037,0,0,1,2.58-12.017,1.323,1.323,0,0,0-2.412-1.089,32.118,32.118,0,0,0,29.27,45.191Z" transform="translate(-71.667 -71.671)" fill-rule="evenodd"/>
        <path id="Trazado_1249013" data-name="Trazado 1249013" d="M165.171,157.758a1.324,1.324,0,0,1-1.138-2,23.473,23.473,0,0,0-31.4-32.595,1.323,1.323,0,0,1-1.267-2.323,26.12,26.12,0,0,1,34.941,36.272,1.322,1.322,0,0,1-1.137.647Zm-21.36,12.212a26.028,26.028,0,0,0,13.291-3.652,1.323,1.323,0,1,0-1.353-2.274,23.474,23.474,0,0,1-32.19-32.113,1.323,1.323,0,1,0-2.278-1.346,26.119,26.119,0,0,0,22.53,39.385Z" transform="translate(-97.12 -97.127)" fill-rule="evenodd"/>
        <path id="Trazado_1249014" data-name="Trazado 1249014" d="M250.314,358.672a1.322,1.322,0,0,1-1.323-1.323v-5.666a1.323,1.323,0,1,1,2.646,0v5.666a1.323,1.323,0,0,1-1.324,1.323Z" transform="translate(-203.624 -285.828)" fill-rule="evenodd"/>
        <path id="Trazado_1249015" data-name="Trazado 1249015" d="M124.649,251.647h-5.666a1.323,1.323,0,1,1,0-2.647h5.666a1.323,1.323,0,0,1,0,2.647Z" transform="translate(-97.12 -203.63)" fill-rule="evenodd"/>
        <path id="Trazado_1249016" data-name="Trazado 1249016" d="M321.988,162.788a1.323,1.323,0,0,1-.934-2.259l4.006-4.006a1.322,1.322,0,1,1,1.869,1.872l-4.005,4.006a1.321,1.321,0,0,1-.936.388Z" transform="translate(-261.749 -128.32)" fill-rule="evenodd"/>
        <path id="Trazado_1249017" data-name="Trazado 1249017" d="M250.314,125.982a1.324,1.324,0,0,1-1.323-1.323v-5.666a1.323,1.323,0,1,1,2.646,0v5.666a1.324,1.324,0,0,1-1.324,1.323Z" transform="translate(-203.624 -97.127)" fill-rule="evenodd"/>
        <path id="Trazado_1249018" data-name="Trazado 1249018" d="M357.34,251.647h-5.666a1.323,1.323,0,1,1,0-2.647h5.666a1.323,1.323,0,0,1,0,2.647Z" transform="translate(-285.822 -203.63)" fill-rule="evenodd"/>
        <path id="Trazado_1249019" data-name="Trazado 1249019" d="M324.612,325.945a1.319,1.319,0,0,1-.936-.388l-2.622-2.624a1.322,1.322,0,1,1,1.869-1.87l2.624,2.622a1.323,1.323,0,0,1-.936,2.259Z" transform="translate(-261.75 -261.755)" fill-rule="evenodd"/>
        <path id="Trazado_1249020" data-name="Trazado 1249020" d="M157.451,327.328a1.324,1.324,0,0,1-.936-2.259l4.007-4.006a1.322,1.322,0,0,1,1.871,1.87l-4.008,4.006A1.312,1.312,0,0,1,157.451,327.328Z" transform="translate(-128.315 -261.755)" fill-rule="evenodd"/>
        <path id="Trazado_1249021" data-name="Trazado 1249021" d="M234.013,227.087a2.476,2.476,0,1,0,2.476,2.476A2.48,2.48,0,0,0,234.013,227.087Zm0,7.6a5.123,5.123,0,1,1,5.123-5.123A5.13,5.13,0,0,1,234.013,234.686Z" transform="translate(-187.323 -183.713)" fill-rule="evenodd"/>
        <path id="Trazado_1249022" data-name="Trazado 1249022" d="M250.314,275.349a1.322,1.322,0,0,1-1.323-1.323v-8.063a1.323,1.323,0,1,1,2.646,0v8.063a1.323,1.323,0,0,1-1.324,1.323Z" transform="translate(-203.624 -216.313)" fill-rule="evenodd"/>
        <path id="Trazado_1249023" data-name="Trazado 1249023" d="M28.909,11.647a1.021,1.021,0,0,0-.929.537L11.806,40.2a1.074,1.074,0,0,0,.93,1.611H45.083a1.074,1.074,0,0,0,.93-1.611L29.839,12.183A1.022,1.022,0,0,0,28.909,11.647ZM45.083,44.455H12.736a3.719,3.719,0,0,1-3.222-5.581L25.687,10.86a3.721,3.721,0,0,1,6.444,0L48.306,38.874a3.721,3.721,0,0,1-3.223,5.581Z" transform="translate(-9.009 -9)" fill-rule="evenodd"/>
        <path id="Trazado_1249024" data-name="Trazado 1249024" d="M108.6,76.881a1.323,1.323,0,0,1-1.324-1.323v-13.1a1.323,1.323,0,0,1,2.647,0v13.1a1.324,1.324,0,0,1-1.324,1.323Zm0,5.2a1.323,1.323,0,0,1-1.324-1.323v-.9a1.323,1.323,0,1,1,2.647,0v.9a1.324,1.324,0,0,1-1.324,1.323Z" transform="translate(-88.703 -51.275)" fill-rule="evenodd"/>
        <path id="Trazado_1249025" data-name="Trazado 1249025" d="M382.36,81.682a1.324,1.324,0,0,1-.936-2.259l1.872-1.872a1.322,1.322,0,0,0,0-1.87l-4.142-4.142a1.331,1.331,0,0,0-1.87,0l-1.871,1.872a1.323,1.323,0,0,1-1.872-1.872l1.872-1.872a3.977,3.977,0,0,1,5.612,0l4.142,4.142a3.972,3.972,0,0,1,0,5.613L383.3,81.295a1.319,1.319,0,0,1-.937.388Z" transform="translate(-304.315 -57.26)" fill-rule="evenodd"/>
        <path id="Trazado_1249026" data-name="Trazado 1249026" d="M266.736,204.787a1.323,1.323,0,0,1-.936-2.259l7.1-7.095a1.323,1.323,0,0,1,1.871,1.87l-7.1,7.1a1.318,1.318,0,0,1-.936.388Z" transform="translate(-216.941 -159.875)" fill-rule="evenodd"/>
        <path id="Trazado_1249027" data-name="Trazado 1249027" d="M326.468,310.7a15.78,15.78,0,1,0,15.779,15.781A15.8,15.8,0,0,0,326.468,310.7Zm0,34.207a18.427,18.427,0,1,1,18.426-18.426A18.449,18.449,0,0,1,326.468,344.9Z" transform="translate(-251.51 -251.517)" fill-rule="evenodd"/>
        <path id="Trazado_1249028" data-name="Trazado 1249028" d="M347.642,336.807a10.844,10.844,0,1,0,10.843,10.845A10.859,10.859,0,0,0,347.642,336.807Zm0,24.335a13.491,13.491,0,1,1,13.49-13.49A13.508,13.508,0,0,1,347.642,361.142Z" transform="translate(-272.685 -272.691)" fill-rule="evenodd"/>
        <path id="Trazado_1249029" data-name="Trazado 1249029" d="M373.7,375.333a1.322,1.322,0,0,1,.933.388l2.531,2.531a.766.766,0,1,0,1.083-1.083l-2.531-2.529a1.324,1.324,0,0,1,0-1.871l2.532-2.531a.766.766,0,0,0-1.084-1.083l-2.531,2.531a1.323,1.323,0,0,1-1.87,0l-2.53-2.531a.766.766,0,0,0-1.084,1.083l2.532,2.531a1.325,1.325,0,0,1,0,1.871l-2.531,2.529a.778.778,0,0,0,0,1.083h0a.777.777,0,0,0,1.083,0l2.53-2.531A1.33,1.33,0,0,1,373.7,375.333Zm-4.008,5.789a3.414,3.414,0,0,1-2.415-5.824l1.6-1.594-1.6-1.6a3.413,3.413,0,0,1,4.826-4.826l1.6,1.6,1.593-1.6a3.413,3.413,0,1,1,4.826,4.826l-1.6,1.6,1.6,1.594a3.413,3.413,0,0,1-4.827,4.826l-1.593-1.6-1.6,1.6a3.4,3.4,0,0,1-2.413,1Z" transform="translate(-298.74 -298.742)" fill-rule="evenodd"/>
      </g>
    </g>
  </g>
</svg>
