<svg xmlns="http://www.w3.org/2000/svg" width="127" height="193.146" viewBox="0 0 127 193.146">
  <g id="Grupo_1213882" data-name="Grupo 1213882" transform="translate(-602.051 -5169)">
    <rect id="Rectángulo_408528" data-name="Rectángulo 408528" width="127" height="193.146" transform="translate(602.051 5169)" fill="#4d9686"/>
    <g id="optimization_17756837" transform="translate(611.739 5201.099)">
      <g id="Grupo_1213881" data-name="Grupo 1213881" transform="translate(18.8 30.306)">
        <path id="Trazado_1248945" data-name="Trazado 1248945" d="M25.58,96.72H76.269v59.7H25.58V96.72Z" transform="translate(-25.58 -87.457)" fill="#fedc97" fill-rule="evenodd"/>
        <path id="Trazado_1248946" data-name="Trazado 1248946" d="M140.335,41.921h-2.263c.263-6.787-8.356-6.8-8.361,0h-2.258a3.653,3.653,0,0,0-3.723,3.556v1.24a3.649,3.649,0,0,0,3.723,3.551h12.88a3.648,3.648,0,0,0,3.718-3.551v-1.24A3.649,3.649,0,0,0,140.335,41.921Z" transform="translate(-108.55 -36.826)" fill="#99f" fill-rule="evenodd"/>
        <path id="Trazado_1248947" data-name="Trazado 1248947" d="M56.16,254.53H69.351v8.089H56.16Z" transform="translate(-51.43 -220.859)" fill="#9ff" fill-rule="evenodd"/>
        <path id="Trazado_1248948" data-name="Trazado 1248948" d="M56.16,151.2H69.351v8.089H56.16Z" transform="translate(-51.43 -133.511)" fill="#9ff" fill-rule="evenodd"/>
        <path id="Trazado_1248949" data-name="Trazado 1248949" d="M224,248.5V246.7a1.869,1.869,0,0,1,1.868-1.864h.258a1.846,1.846,0,0,0,1.793-1.35,14.853,14.853,0,0,1,1.236-2.985,1.839,1.839,0,0,0-.311-2.218l-.184-.184a1.866,1.866,0,0,1,0-2.639l1.262-1.267a1.866,1.866,0,0,1,2.639,0l.184.184a1.844,1.844,0,0,0,2.223.316,14.815,14.815,0,0,1,2.985-1.24,1.838,1.838,0,0,0,1.346-1.793V231.4a1.872,1.872,0,0,1,1.868-1.864h1.789a1.869,1.869,0,0,1,1.868,1.864v.258a1.838,1.838,0,0,0,1.346,1.793,14.818,14.818,0,0,1,2.99,1.24,1.84,1.84,0,0,0,2.218-.316l.184-.184a1.866,1.866,0,0,1,2.639,0l1.267,1.267a1.871,1.871,0,0,1,0,2.635l-.184.189a1.837,1.837,0,0,0-.315,2.218,14.539,14.539,0,0,1,1.236,2.985,1.85,1.85,0,0,0,1.793,1.35h.258a1.869,1.869,0,0,1,1.868,1.864V248.5a1.869,1.869,0,0,1-1.868,1.864h-.258A1.851,1.851,0,0,0,256.2,251.7a14.522,14.522,0,0,1-1.236,2.99,1.84,1.84,0,0,0,.315,2.218l.184.184a1.87,1.87,0,0,1,0,2.639L254.2,261a1.866,1.866,0,0,1-2.639,0l-.184-.184a1.841,1.841,0,0,0-2.218-.315,14.856,14.856,0,0,1-2.99,1.24,1.837,1.837,0,0,0-1.346,1.789v.263a1.869,1.869,0,0,1-1.868,1.864h-1.789a1.872,1.872,0,0,1-1.868-1.864v-.263a1.839,1.839,0,0,0-1.346-1.789,14.779,14.779,0,0,1-2.985-1.24,1.846,1.846,0,0,0-2.223.315l-.184.184a1.866,1.866,0,0,1-2.639,0l-1.262-1.267a1.866,1.866,0,0,1,0-2.639l.184-.184a1.838,1.838,0,0,0,.311-2.218,14.643,14.643,0,0,1-1.236-2.99,1.849,1.849,0,0,0-1.793-1.346h-.258A1.87,1.87,0,0,1,224,248.5Z" transform="translate(-193.312 -199.734)" fill="#fbb13c" fill-rule="evenodd"/>
        <path id="Trazado_1248950" data-name="Trazado 1248950" d="M286.181,281.68a9.991,9.991,0,1,1-9.991,9.991A9.992,9.992,0,0,1,286.181,281.68Z" transform="translate(-237.43 -243.81)" fill="#fff" fill-rule="evenodd"/>
        <path id="Trazado_1248951" data-name="Trazado 1248951" d="M297.27,227.983l-6.449,7.728-4.674-4.306-5.515,6.739a10.008,10.008,0,0,1-2.521-4.524l7.642-9.08,4.822,4.45,4.055-5.095,4.954-6.225-3.381-2.722,12.447-4.818L306.6,223.318l-3.253-2.617Z" transform="translate(-239.053 -183.326)" fill="#3c6" fill-rule="evenodd"/>
        <path id="Trazado_1248952" data-name="Trazado 1248952" d="M107.89,392.49h16.8v8.089h-16.8Z" transform="translate(-95.16 -337.482)" fill="#9ff" fill-rule="evenodd"/>
      </g>
      <path id="Trazado_1248953" data-name="Trazado 1248953" d="M47.1,86.589H32.768V92.2H47.1ZM31.531,84.112h7.164V79.667h-8.54a1.233,1.233,0,0,1-1.236-1.341L28.9,73.336H23.53A1.237,1.237,0,0,1,22.294,72.1V64.012a1.234,1.234,0,0,1,1.236-1.236h5.358V57.357H23.53a1.234,1.234,0,0,1-1.236-1.236V48.032A1.234,1.234,0,0,1,23.53,46.8H36.721a1.234,1.234,0,0,1,1.236,1.236v8.089a1.234,1.234,0,0,1-1.236,1.236H31.364v5.419h5.358a1.234,1.234,0,0,1,1.236,1.236V72.1a1.237,1.237,0,0,1-1.236,1.236H31.364l.014,3.857H39.93a1.238,1.238,0,0,1,1.24,1.236v5.682h7.164a1.237,1.237,0,0,1,1.236,1.236v8.089a1.234,1.234,0,0,1-1.236,1.236h-16.8a1.234,1.234,0,0,1-1.236-1.236V85.347a1.237,1.237,0,0,1,1.236-1.236ZM76.3,77.786l-4.784,5.73a1.233,1.233,0,0,1-1.78.119l0,0L66.02,80.22,62.08,85.038A8.755,8.755,0,0,0,76.3,77.786Zm-17.48-.206,5.74-6.818a1.235,1.235,0,0,1,1.776-.114l3.85,3.546,2.478-3.109A8.764,8.764,0,0,0,58.818,77.58Zm15.375-8.423,1.947-2.447a3.06,3.06,0,0,1-2.086-.329,13.79,13.79,0,0,0-2.736-1.14,3.085,3.085,0,0,1-2.244-2.973c0-.3.031-.578-.28-.784a.626.626,0,0,0-.346-.105H66.658a.633.633,0,0,0-.631.626,3.164,3.164,0,0,1-.619,2.127,3.1,3.1,0,0,1-1.622,1.109,13.714,13.714,0,0,0-2.736,1.14,3.094,3.094,0,0,1-3.692-.521c-.193-.2-.325-.368-.626-.368a.627.627,0,0,0-.442.179l-1.267,1.267a.628.628,0,0,0,0,.889l0,0a3.115,3.115,0,0,1,1.07,1.943,3.068,3.068,0,0,1-.359,1.929,13.585,13.585,0,0,0-1.135,2.736,3.084,3.084,0,0,1-2.977,2.241c-.272,0-.49-.031-.705.184a.626.626,0,0,0-.184.442V79.1a.633.633,0,0,0,.631.626,3.155,3.155,0,0,1,2.122.623,3.09,3.09,0,0,1,1.114,1.618,13.934,13.934,0,0,0,.49,1.4l.645,1.341a3.088,3.088,0,0,1-.521,3.687c-.193.193-.368.325-.368.626a.631.631,0,0,0,.184.447l1.267,1.267a.633.633,0,0,0,.886,0h0a3.159,3.159,0,0,1,1.943-1.07,3.126,3.126,0,0,1,1.929.359,13.338,13.338,0,0,0,2.736,1.14,3.084,3.084,0,0,1,2.241,2.977.834.834,0,0,0,.189.7.618.618,0,0,0,.442.184H68.45a.629.629,0,0,0,.626-.626,3.168,3.168,0,0,1,.623-2.127,3.1,3.1,0,0,1,1.622-1.109,13.829,13.829,0,0,0,2.736-1.14,3.081,3.081,0,0,1,3.687.526.845.845,0,0,0,.631.363.636.636,0,0,0,.442-.179l1.267-1.267a.637.637,0,0,0,0-.889v0A3.131,3.131,0,0,1,79.02,86.63c-.2-1.394.526-2.034.977-3.2l.517-1.46a3.089,3.089,0,0,1,2.977-2.241c.272,0,.49.031.7-.184a.632.632,0,0,0,.193-.442h0V77.3a.633.633,0,0,0-.631-.626,3.148,3.148,0,0,1-2.122-.623c-1.039-.781-1.061-1.653-1.53-2.827l-1.706,2.043a11.336,11.336,0,1,1-4.2-6.114Zm2.091-5.334-1.109-.894a1.237,1.237,0,0,1,.373-2.131L87.95,56a1.233,1.233,0,0,1,1.656,1.386L87.563,70.521a1.24,1.24,0,0,1-1.991.776l-2.315-1.864-1.4,1.684a15.6,15.6,0,0,1,1.021,2.635c.141.478.526.456.868.456a3.106,3.106,0,0,1,3.1,3.1V79.1h0a3.1,3.1,0,0,1-3.1,3.1c-.342,0-.728-.026-.868.452a15.954,15.954,0,0,1-1.338,3.24c-.237.43.036.684.285.934h0a3.107,3.107,0,0,1,0,4.388L80.56,92.487a3.1,3.1,0,0,1-4.45-.07l-.119-.119,0,0a.6.6,0,0,0-.75-.11A15.585,15.585,0,0,1,72,93.534c-.478.136-.452.526-.452.868a3.108,3.108,0,0,1-.824,2.1v2.8a1.24,1.24,0,0,1-1.236,1.236H18.8a1.24,1.24,0,0,1-1.236-1.236V39.6A1.237,1.237,0,0,1,18.8,38.369H32.79A4.922,4.922,0,0,1,37.7,34.2h1.114c.994-6.8,9.926-6.76,10.693,0h1.07a4.923,4.923,0,0,1,4.915,4.17H69.491A1.237,1.237,0,0,1,70.727,39.6V59.9a3.111,3.111,0,0,1,.824,2.1c0,.342-.026.732.452.868a15.564,15.564,0,0,1,3.24,1.341c.43.237.688-.04.939-.289l0,0c.032-.034.073-.07.107-.1Zm-5.831,17.12,5.559-6.668a1.618,1.618,0,0,1,.114-.136L79.4,70.215c.834-1.047,1.907-2.232,2.727-3.274a1.238,1.238,0,0,1,1.737-.189l1.591,1.285,1.394-8.97-8.466,3.279L80.1,63.723a1.235,1.235,0,0,1,.2,1.737l-9,11.315a1.239,1.239,0,0,1-1.806.141l-3.876-3.577-6.383,7.585a8.638,8.638,0,0,0,1.149,2.3l4.564-5.582a1.236,1.236,0,0,1,1.793-.122Zm-2.2,16.563H66.658a3.109,3.109,0,0,1-3.1-3.1c0-.342.026-.732-.452-.868a15.564,15.564,0,0,1-3.24-1.341c-.43-.237-.688.04-.939.289l0,0a3.107,3.107,0,0,1-4.388,0L53.273,91.22a3.107,3.107,0,0,1,0-4.388c.241-.241.53-.495.289-.934a17.4,17.4,0,0,1-.758-1.582,15.329,15.329,0,0,1-.578-1.656c-.141-.478-.526-.452-.868-.452a3.107,3.107,0,0,1-3.1-3.1V77.311a3.1,3.1,0,0,1,3.1-3.1c.342,0,.728.022.868-.456a15.659,15.659,0,0,1,1.338-3.24c.237-.43-.04-.684-.289-.934a3.107,3.107,0,0,1,0-4.388l1.267-1.267a3.107,3.107,0,0,1,4.388,0c.241.241.495.535.934.294A15.481,15.481,0,0,1,63.1,62.88c.478-.136.452-.526.452-.868a3.108,3.108,0,0,1,3.1-3.1h1.591V40.84H55.5a4.926,4.926,0,0,1-4.918,4.182H37.708A4.926,4.926,0,0,1,32.79,40.84H20.036V98.067H68.249ZM41.493,67.15a1.236,1.236,0,1,1,0-2.472h7.159a1.236,1.236,0,0,1,0,2.472Zm0,4.283a1.236,1.236,0,1,1,0-2.471h7.159a1.236,1.236,0,0,1,0,2.471Zm0-20.262a1.236,1.236,0,0,1,0-2.472h7.159a1.236,1.236,0,0,1,0,2.472Zm0,4.283a1.236,1.236,0,0,1,0-2.472h7.159a1.236,1.236,0,0,1,0,2.472ZM30.128,65.247H24.767v5.611h10.72V65.247Zm5.358-15.981H24.767v5.616h10.72V49.266Zm15.1-12.591H48.322A1.233,1.233,0,0,1,47.094,35.3c.131-2.911-2.086-4.4-4.06-3.451a3.714,3.714,0,0,0-1.842,3.587,1.231,1.231,0,0,1-1.233,1.233v.009H37.7a2.408,2.408,0,0,0-2.485,2.315v1.239A2.409,2.409,0,0,0,37.7,42.546H50.577a2.408,2.408,0,0,0,2.485-2.315V38.99a2.4,2.4,0,0,0-2.482-2.315Z"/>
    </g>
  </g>
</svg>
