<svg xmlns="http://www.w3.org/2000/svg" width="127" height="227.679" viewBox="0 0 127 227.679">
  <g id="Grupo_1213956" data-name="Grupo 1213956" transform="translate(-180.051 -8549.729)">
    <rect id="Rectángulo_411007" data-name="Rectángulo 411007" width="127" height="227.678" transform="translate(180.051 8549.729)" fill="#9f9d93"/>
    <g id="trophy_14504140" transform="translate(199.327 8619.276)">
      <g id="Color" transform="translate(2.973 5.92)">
        <path id="Trazado_1249034" data-name="Trazado 1249034" d="M45.357,41.679H10a17.514,17.514,0,0,1,5.186-12.493,17,17,0,0,1,6.6-4.155,17.354,17.354,0,0,1,11.786,0,17,17,0,0,1,6.6,4.155A17.514,17.514,0,0,1,45.357,41.679Z" transform="translate(13.572 37.876)" fill="#43b3ff"/>
        <path id="Trazado_1249035" data-name="Trazado 1249035" d="M66.822,11.952V6H56.775a15.048,15.048,0,0,1,1.208,5.893,14.732,14.732,0,1,1-29.465,0A15.048,15.048,0,0,1,29.726,6H19.679v5.952A19.152,19.152,0,1,0,31.612,47.1a23.98,23.98,0,0,0,5.746,2.328V60.067a17.354,17.354,0,0,1,11.786,0V49.431A23.98,23.98,0,0,0,54.889,47.1,19.157,19.157,0,1,0,66.822,11.952ZM21.152,44.3a13.256,13.256,0,0,1-1.473-26.43v8.751a23.337,23.337,0,0,0,6.836,16.559,13.431,13.431,0,0,1-5.363,1.12Zm44.2,0a13.431,13.431,0,0,1-5.363-1.12,23.337,23.337,0,0,0,6.836-16.559V17.874A13.256,13.256,0,0,1,65.349,44.3Z" transform="translate(-2 2.839)" fill="#ffc943"/>
        <path id="Trazado_1249036" data-name="Trazado 1249036" d="M39.257,11.839A15.118,15.118,0,0,0,36.163,7.3a14.778,14.778,0,0,0-23.955,4.538A15.048,15.048,0,0,0,11,17.732a14.732,14.732,0,1,0,29.465,0,15.048,15.048,0,0,0-1.208-5.893ZM25.732,23.625a5.893,5.893,0,1,1,0-11.786,5.936,5.936,0,0,1,5.893,5.893,5.91,5.91,0,0,1-5.893,5.893Z" transform="translate(15.518 -3)" fill="#f45151"/>
        <path id="Trazado_1249037" data-name="Trazado 1249037" d="M25.786,11.893A5.893,5.893,0,1,1,19.893,6a5.936,5.936,0,0,1,5.893,5.893Z" transform="translate(21.357 2.839)" fill="#f2f2f2"/>
      </g>
      <g id="Line" transform="translate(1.5 1.5)">
        <path id="Trazado_1249038" data-name="Trazado 1249038" d="M22.125,52.643a20.646,20.646,0,0,0,10.469-2.894,24.979,24.979,0,0,0,4.263,1.771v8.475a19.245,19.245,0,0,0-11.714,16.22H23.6a1.473,1.473,0,1,0,0,2.946H38.331a1.473,1.473,0,1,0,0-2.946H28.084a16.2,16.2,0,0,1,27.6-9.974,15.953,15.953,0,0,1,4.682,9.974H50.117a1.473,1.473,0,0,0,0,2.946H64.849a1.473,1.473,0,1,0,0-2.946H63.3A19.23,19.23,0,0,0,51.59,60V51.52a24.978,24.978,0,0,0,4.263-1.771A20.6,20.6,0,1,0,69.269,11.625V6.973A1.472,1.472,0,0,0,67.8,5.5H64.849a1.473,1.473,0,0,0,0,2.946h1.473V27.6A22.08,22.08,0,0,1,49.748,48.977a1.475,1.475,0,0,0-1.1,1.427v8.661a18.727,18.727,0,0,0-8.839,0V50.4a1.475,1.475,0,0,0-1.1-1.427A22.08,22.08,0,0,1,22.125,27.6V8.446H23.6a1.473,1.473,0,0,0,0-2.946H20.652a1.472,1.472,0,0,0-1.473,1.473v4.651a20.614,20.614,0,0,0,2.946,41.019ZM69.269,27.6V20.649A11.762,11.762,0,0,1,66.322,43.8a11.869,11.869,0,0,1-2.744-.348A24.964,24.964,0,0,0,69.268,27.6Zm-7.9,18.228a14.672,14.672,0,1,0,7.9-28.173V14.59a17.676,17.676,0,1,1-10.518,33.4A25,25,0,0,0,61.365,45.826Zm-36.5-2.37a11.7,11.7,0,0,1-14.53-11.437,11.736,11.736,0,0,1,8.839-11.369V27.6a24.964,24.964,0,0,0,5.69,15.857ZM19.179,14.59v3.063a14.682,14.682,0,1,0,7.9,28.173A25,25,0,0,0,29.7,47.988a17.675,17.675,0,1,1-10.518-33.4Z" transform="translate(-1.5 6.286)"/>
        <path id="Trazado_1249039" data-name="Trazado 1249039" d="M44.384,7.393a1.473,1.473,0,0,0,0-2.946H42.911V2.973a1.473,1.473,0,0,0-2.946,0V5.31l-2.9,2.9a16.229,16.229,0,1,0,2.083,2.083l2.9-2.9h2.336Zm-4.42,13.259A13.259,13.259,0,1,1,26.706,7.393a13.126,13.126,0,0,1,8.23,2.946l-4.174,4.174A7.388,7.388,0,1,0,32.845,16.6l4.174-4.174a13.126,13.126,0,0,1,2.946,8.23Zm-8.839,0a4.42,4.42,0,1,1-4.42-4.42,4.368,4.368,0,0,1,1.894.443L25.664,19.61a1.473,1.473,0,1,0,2.083,2.083l2.935-2.935a4.368,4.368,0,0,1,.443,1.894Z" transform="translate(16.018 -1.5)"/>
        <circle id="Elipse_12436" data-name="Elipse 12436" cx="1.5" cy="1.5" r="1.5" transform="translate(41.224 82.224)"/>
      </g>
    </g>
  </g>
</svg>
