<svg xmlns="http://www.w3.org/2000/svg" width="129.063" height="88.186" viewBox="0 0 129.063 88.186">
  <g id="Grupo_1213142" data-name="Grupo 1213142" transform="translate(-787.781 -2572.907)">
    <g id="Grupo_1201005" data-name="Grupo 1201005" transform="translate(0 26)">
      <g id="Rectángulo_410589" data-name="Rectángulo 410589" transform="translate(787.781 2575.623)" fill="#70d9c1" stroke="#4d9686" stroke-width="1">
        <rect width="129.063" height="43.021" rx="8" stroke="none"/>
        <rect x="0.5" y="0.5" width="128.063" height="42.021" rx="7.5" fill="none"/>
      </g>
    </g>
    <g id="horse_4276219" transform="translate(776.388 2544.907)">
      <circle id="Elipse_12373" data-name="Elipse 12373" cx="28.184" cy="28.184" r="28.184" transform="translate(57.428 42.147)" fill="#eaeaea"/>
      <g id="Grupo_1201391" data-name="Grupo 1201391" transform="translate(62.965 29.756)">
        <circle id="Elipse_12374" data-name="Elipse 12374" cx="1.545" cy="1.545" r="1.545" transform="translate(38.444 21.526)" fill="#4c241d"/>
        <path id="Trazado_1247250" data-name="Trazado 1247250" d="M232.583,58.627a1.446,1.446,0,0,1-1.022-2.468l4.6-4.6A1.445,1.445,0,1,1,238.2,53.6l-4.6,4.6A1.442,1.442,0,0,1,232.583,58.627Z" transform="translate(-188.854 -44.53)" fill="#4c241d"/>
        <path id="Trazado_1247251" data-name="Trazado 1247251" d="M237.182,58.627a1.441,1.441,0,0,1-1.022-.424l-4.6-4.6A1.445,1.445,0,0,1,233.6,51.56l4.6,4.6a1.446,1.446,0,0,1-1.022,2.468Z" transform="translate(-188.853 -44.53)" fill="#4c241d"/>
        <path id="Trazado_1247252" data-name="Trazado 1247252" d="M182.337,48.673a4.337,4.337,0,1,1,4.337-4.337A4.342,4.342,0,0,1,182.337,48.673Zm0-5.783a1.446,1.446,0,1,0,1.446,1.446A1.448,1.448,0,0,0,182.337,42.89Z" transform="translate(-154.921 -37.418)" fill="#4c241d"/>
        <path id="Trazado_1247253" data-name="Trazado 1247253" d="M115.589,41.007h-.014a1.44,1.44,0,0,1-1.432-1.438,7.672,7.672,0,0,1,4.31-6.559,1.446,1.446,0,0,1,1.293,2.586,4.786,4.786,0,0,0-2.712,3.986A1.453,1.453,0,0,1,115.589,41.007Z" transform="translate(-114.143 -32.857)" fill="#4c241d"/>
      </g>
      <g id="Grupo_1201392" data-name="Grupo 1201392" transform="translate(72.813 79.734)">
        <path id="Trazado_1247254" data-name="Trazado 1247254" d="M149.73,208.7l4.853-10.739,2.566-3.849a5.628,5.628,0,0,0,.945-3.122V187.43l5.266-7.022-7.022-5.266-5.266,3.511,1.755,12.288-1.755,8.777-5.679,8.984Z" transform="translate(-143.947 -173.697)" fill="#bf7e68"/>
        <path id="Trazado_1247255" data-name="Trazado 1247255" d="M147.176,207.594h-4.337a1.445,1.445,0,0,1-1.222-2.218l5.536-8.758,1.655-8.272-1.72-12.042a1.446,1.446,0,0,1,.629-1.408l5.266-3.511a1.446,1.446,0,0,1,1.669.047l7.022,5.267a1.446,1.446,0,0,1,.289,2.024l-4.977,6.636v3.08a7.049,7.049,0,0,1-1.188,3.923l-2.5,3.75-4.8,10.631a1.443,1.443,0,0,1-1.317.851Zm-1.713-2.891h.779l1.955-4.325Zm4.615-27.906,1.626,11.386a1.441,1.441,0,0,1-.013.489l-1.426,7.131.447-.989a1.435,1.435,0,0,1,.114-.207l2.565-3.848a4.167,4.167,0,0,0,.7-2.32v-3.562a1.445,1.445,0,0,1,.289-.867l4.4-5.865-5.048-3.786Z" transform="translate(-141.393 -171.143)" fill="#4c241d"/>
      </g>
      <g id="Grupo_1201393" data-name="Grupo 1201393" transform="translate(50.78 81.489)">
        <path id="Trazado_1247256" data-name="Trazado 1247256" d="M88.766,206.95l1.755-21.375L84.429,180l3.046,26.217L84.429,211.8h3.157Z" transform="translate(-82.983 -178.554)" fill="#bf7e68"/>
        <path id="Trazado_1247257" data-name="Trazado 1247257" d="M85.031,210.7H81.874a1.445,1.445,0,0,1-1.269-2.137l2.827-5.185-2.994-25.761a1.446,1.446,0,0,1,2.412-1.233l6.092,5.576a1.446,1.446,0,0,1,.464,1.185l-1.755,21.376a1.509,1.509,0,0,1-.036.223l-1.18,4.853A1.444,1.444,0,0,1,85.031,210.7Zm1.18-6.3h.014Zm-2.454-23.268,1.708,14.692,1-12.212Z" transform="translate(-80.428 -176)" fill="#4c241d"/>
      </g>
      <g id="Grupo_1201394" data-name="Grupo 1201394" transform="translate(95.244 64.141)">
        <path id="Trazado_1247258" data-name="Trazado 1247258" d="M207.457,132H213.5a5.874,5.874,0,0,1,5.874,5.874v22.317l1.136,6.712-4.136-5.17a13.17,13.17,0,0,1-2.886-8.226V137.219a4.34,4.34,0,0,0-2.871-4.084Z" transform="translate(-206.011 -130.553)" fill="#bf7e68"/>
        <path id="Trazado_1247259" data-name="Trazado 1247259" d="M217.956,165.793a1.444,1.444,0,0,1-1.129-.543l-4.136-5.171a14.665,14.665,0,0,1-3.2-9.129V134.664a2.9,2.9,0,0,0-1.914-2.723l-3.159-1.136A1.446,1.446,0,0,1,204.9,128h6.042a7.328,7.328,0,0,1,7.319,7.319v22.2l1.116,6.592a1.447,1.447,0,0,1-1.425,1.687Zm-6.981-34.9a5.79,5.79,0,0,1,1.4,3.774V150.95a11.767,11.767,0,0,0,2.569,7.324l.651.813-.2-1.211a1.457,1.457,0,0,1-.021-.241V135.318A4.434,4.434,0,0,0,210.975,130.89Z" transform="translate(-203.457 -127.999)" fill="#4c241d"/>
      </g>
      <g id="Grupo_1201395" data-name="Grupo 1201395" transform="translate(46.442 28)">
        <path id="Trazado_1247260" data-name="Trazado 1247260" d="M121.636,91.992A8.431,8.431,0,0,1,123,87.528c1.727-2.793,4.7-11.946.747-17.219-5.267-7.022-15.8-3.511-15.8-3.511s-11.829,2.824-17.77-2.926a6.374,6.374,0,0,1-1.85-4.6V51l7.641,3.511c.908.908,3.866.759,4.578-.31l1.208-1.812a2.035,2.035,0,0,0-.254-2.568l-7.288-7.288v-.508a4.435,4.435,0,0,0-2.788-4.118l-2.478-.991V32a6.222,6.222,0,0,0-3.431,4.55,5.672,5.672,0,0,0-2.82,1.51c-3.621,3.559-10.27,11.288-10.27,18.516V71.148c0,4.031,1.2,10.861,3.456,14.2L85.44,99.533l2.045,10.99-.6,2.434-2.891,4.337h4.337l1.446-4.337s.124-9.275.121-17c0-3.751-.032-6.8-.121-7.572,0,0,11.152,2.375,18.174-1.136l10.976,12.544a5.241,5.241,0,0,1,1.3,3.492l-.042,5.339h-.046l-4.337,8.674h4.337l2.368-8.674,2.124-5.187a3.962,3.962,0,0,0-.412-3.756A13.979,13.979,0,0,1,121.636,91.992Z" transform="translate(-70.982 -30.554)" fill="#bf7e68"/>
        <path id="Trazado_1247261" data-name="Trazado 1247261" d="M117.579,116.185h-4.337a1.446,1.446,0,0,1-1.293-2.092l4.234-8.467.038-4.911a3.787,3.787,0,0,0-.939-2.529L105.013,86.449c-5.6,2.3-12.909,1.612-16.269,1.109.025,1.137.042,2.936.044,5.839,0,7.65-.12,16.932-.121,17.024a1.447,1.447,0,0,1-.074.438L87.146,115.2a1.445,1.445,0,0,1-1.372.988H81.437a1.445,1.445,0,0,1-1.2-2.247l2.751-4.127.464-1.885L81.516,97.537,72.129,83.6c-2.554-3.791-3.7-11.06-3.7-15.011V54.022c0-8.146,7.485-16.384,10.7-19.547a7.121,7.121,0,0,1,2.628-1.64,7.584,7.584,0,0,1,3.99-4.682,1.446,1.446,0,0,1,2.092,1.293v3.936l1.569.627a5.855,5.855,0,0,1,3.7,5.37l6.865,6.865a3.491,3.491,0,0,1,.435,4.392L99.2,52.448a4.184,4.184,0,0,1-3.076,1.517,5.208,5.208,0,0,1-3.5-.783l-5.4-2.482v6.021a4.942,4.942,0,0,0,1.41,3.557c5.295,5.126,16.321,2.586,16.43,2.56.347-.123,11.465-3.717,17.289,4.05,4.538,6.049,1.043,16.073-.673,18.846a7.018,7.018,0,0,0-1.151,3.692,12.487,12.487,0,0,0,2.323,6.876,5.4,5.4,0,0,1,.559,5.124l-2.089,5.1-2.345,8.589A1.445,1.445,0,0,1,117.579,116.185Zm-2-2.891h.894l1.076-3.939Zm-31.442,0h.594l.594-1.782Zm.81-80.609a4.913,4.913,0,0,0-.561,1.562,1.446,1.446,0,0,1-1.129,1.164,4.225,4.225,0,0,0-2.1,1.126c-2.308,2.269-9.838,10.235-9.838,17.485V68.593c0,4.169,1.29,10.547,3.209,13.4L84.082,96.17a1.43,1.43,0,0,1,.222.543l1.53,8.224c.032-3.311.063-7.638.061-11.539,0-5.622-.071-7.053-.112-7.407a1.446,1.446,0,0,1,1.736-1.58c.106.022,10.747,2.225,17.227-1.015a1.444,1.444,0,0,1,1.734.341l10.976,12.544a6.682,6.682,0,0,1,1.654,4.456l-.028,3.621,1.649-4.028a2.516,2.516,0,0,0-.264-2.387,15.369,15.369,0,0,1-2.834-8.493,9.891,9.891,0,0,1,1.583-5.236c1.609-2.6,4.216-11.062.82-15.591-4.568-6.091-14.092-3.039-14.187-3.006-.634.157-12.795,2.97-19.23-3.26a7.842,7.842,0,0,1-2.291-5.634V48.445a1.446,1.446,0,0,1,2.049-1.314l7.642,3.511a1.449,1.449,0,0,1,.419.292,3.088,3.088,0,0,0,2.387-.133L98,49.032a.592.592,0,0,0-.073-.744L90.639,41a1.446,1.446,0,0,1-.424-1.022V39.47a2.978,2.978,0,0,0-1.88-2.776l-2.477-.99a1.445,1.445,0,0,1-.909-1.343Z" transform="translate(-68.426 -28)" fill="#4c241d"/>
      </g>
      <path id="Trazado_1247262" data-name="Trazado 1247262" d="M76.093,93.833a18.367,18.367,0,0,1-6.746-1.26A1.446,1.446,0,1,1,70.4,89.88c10.585,4.141,21.533-5.42,21.643-5.517a1.446,1.446,0,0,1,1.923,2.159C93.559,86.886,85.63,93.833,76.093,93.833Z" transform="translate(-21.985 -35.759)" fill="#4c241d"/>
      <path id="Trazado_1247263" data-name="Trazado 1247263" d="M117.874,179.227a1.446,1.446,0,0,1-1.446-1.446v-4.337a1.446,1.446,0,1,1,2.891,0v4.337A1.446,1.446,0,0,1,117.874,179.227Z" transform="translate(-52.637 -91.956)" fill="#4c241d"/>
      <path id="Trazado_1247264" data-name="Trazado 1247264" d="M164.291,179.973a1.444,1.444,0,0,1-1.01-.411l-2.19-2.137a1.446,1.446,0,1,1,2.02-2.069l2.19,2.137a1.446,1.446,0,0,1-1.01,2.48Z" transform="translate(-80.881 -93.837)" fill="#4c241d"/>
      <path id="Trazado_1247265" data-name="Trazado 1247265" d="M87.446,124.238A1.446,1.446,0,0,1,86,122.793V105.445a1.446,1.446,0,1,1,2.891,0v17.348A1.446,1.446,0,0,1,87.446,124.238Z" transform="translate(-33.206 -48.532)" fill="#4c241d"/>
      <path id="Trazado_1247266" data-name="Trazado 1247266" d="M38,200h80.957v4.337H38Z" transform="translate(-2.554 -109.836)" fill="#6b4f5b"/>
      <path id="Trazado_1247267" data-name="Trazado 1247267" d="M116.4,198.89H35.446a1.446,1.446,0,1,1,0-2.891H116.4a1.446,1.446,0,1,1,0,2.891Z" transform="translate(0 -107.282)" fill="#4c241d"/>
      <path id="Trazado_1247268" data-name="Trazado 1247268" d="M116.4,210.89H35.446a1.446,1.446,0,1,1,0-2.891H116.4a1.446,1.446,0,1,1,0,2.891Z" transform="translate(0 -114.945)" fill="#4c241d"/>
      <path id="Trazado_1247269" data-name="Trazado 1247269" d="M38,228h80.957v4.337H38Z" transform="translate(-2.554 -127.716)" fill="#6b4f5b"/>
      <path id="Trazado_1247270" data-name="Trazado 1247270" d="M116.4,226.89H35.446a1.446,1.446,0,1,1,0-2.891H116.4a1.446,1.446,0,1,1,0,2.891Z" transform="translate(0 -125.162)" fill="#4c241d"/>
      <path id="Trazado_1247271" data-name="Trazado 1247271" d="M116.4,238.89H35.446a1.446,1.446,0,1,1,0-2.891H116.4a1.446,1.446,0,1,1,0,2.891Z" transform="translate(0 -132.825)" fill="#4c241d"/>
      <path id="Trazado_1247272" data-name="Trazado 1247272" d="M38,256h80.957v4.337H38Z" transform="translate(-2.554 -145.597)" fill="#6b4f5b"/>
      <path id="Trazado_1247273" data-name="Trazado 1247273" d="M116.4,254.89H35.446a1.446,1.446,0,1,1,0-2.891H116.4a1.446,1.446,0,1,1,0,2.891Z" transform="translate(0 -143.042)" fill="#4c241d"/>
      <path id="Trazado_1247274" data-name="Trazado 1247274" d="M116.4,266.89H35.446a1.446,1.446,0,0,1,0-2.891H116.4a1.446,1.446,0,0,1,0,2.891Z" transform="translate(0 -150.706)" fill="#4c241d"/>
      <circle id="Elipse_12375" data-name="Elipse 12375" cx="1.545" cy="1.545" r="1.545" transform="translate(62.376 38.27)" fill="#4c241d"/>
    </g>
  </g>
</svg>
