<svg xmlns="http://www.w3.org/2000/svg" width="145.631" height="82.428" viewBox="0 0 145.631 82.428">
  <g id="Grupo_1213955" data-name="Grupo 1213955" transform="translate(-1148.051 -7909)">
    <g id="Grupo_1213135" data-name="Grupo 1213135" transform="translate(835.27 4039.196)">
      <g id="Grupo_1201016" data-name="Grupo 1201016">
        <g id="Rectángulo_410589" data-name="Rectángulo 410589" transform="translate(312.781 3886.804)" fill="#93795a" stroke="#695640" stroke-width="1">
          <rect width="145.631" height="48.544" rx="8" stroke="none"/>
          <rect x="0.5" y="0.5" width="144.631" height="47.544" rx="7.5" fill="none"/>
        </g>
      </g>
    </g>
    <g id="integration_6672432" transform="translate(1164.051 7893)">
      <path id="Trazado_1249030" data-name="Trazado 1249030" d="M103.681,72.083V55.6H94.349A31.4,31.4,0,0,0,91.5,48.549l6.69-6.69L85.821,29.5l-6.69,6.69a31.4,31.4,0,0,0-7.048-2.854V24H55.6v9.331a31.4,31.4,0,0,0-7.048,2.854l-6.69-6.69L29.5,41.859l6.69,6.69A31.4,31.4,0,0,0,33.331,55.6H24V72.083h9.331a31.4,31.4,0,0,0,2.854,7.048l-6.69,6.69L41.859,98.185l6.69-6.69A31.4,31.4,0,0,0,55.6,94.349v9.331H72.083V94.349A31.4,31.4,0,0,0,79.131,91.5l6.69,6.69L98.185,85.821l-6.69-6.69a31.4,31.4,0,0,0,2.854-7.048Z" transform="translate(-6.626 -6.626)" fill="#3397e8"/>
      <circle id="Elipse_12434" data-name="Elipse 12434" cx="25.611" cy="25.611" r="25.611" transform="translate(31.603 31.603)" fill="#2978b8"/>
      <circle id="Elipse_12435" data-name="Elipse 12435" cx="20.219" cy="20.219" r="20.219" transform="translate(36.994 36.995)" fill="#e9eef2"/>
      <path id="Trazado_1249031" data-name="Trazado 1249031" d="M189.5,184l-5.5,8.243h2.748v16.486h5.5V192.243h2.748Z" transform="translate(-139.15 -139.15)" fill="#eb423f"/>
      <path id="Trazado_1249032" data-name="Trazado 1249032" d="M269.5,208.728l5.5-8.243h-2.748V184h-5.5v16.486H264Z" transform="translate(-205.412 -139.15)" fill="#eb423f"/>
      <path id="Trazado_1249033" data-name="Trazado 1249033" d="M97.054,47.6h-8.3a32.825,32.825,0,0,0-2.2-5.423l5.97-5.97a1.374,1.374,0,0,0,0-1.943L80.166,21.9a1.374,1.374,0,0,0-1.943,0l-5.97,5.97a32.84,32.84,0,0,0-5.423-2.2v-8.3A1.374,1.374,0,0,0,65.457,16H48.971A1.374,1.374,0,0,0,47.6,17.374v8.3a32.826,32.826,0,0,0-5.423,2.2L36.2,21.9a1.374,1.374,0,0,0-1.943,0L21.9,34.262a1.374,1.374,0,0,0,0,1.943l5.97,5.97a32.834,32.834,0,0,0-2.2,5.423h-8.3A1.374,1.374,0,0,0,16,48.971V65.457a1.374,1.374,0,0,0,1.374,1.374h8.3a32.834,32.834,0,0,0,2.2,5.423l-5.97,5.97a1.374,1.374,0,0,0,0,1.943L34.262,92.531a1.374,1.374,0,0,0,1.943,0l5.97-5.97a32.84,32.84,0,0,0,5.423,2.2v8.3a1.374,1.374,0,0,0,1.374,1.374H65.457a1.374,1.374,0,0,0,1.374-1.374v-8.3a32.824,32.824,0,0,0,5.423-2.2l5.97,5.97a1.374,1.374,0,0,0,1.943,0L92.531,80.167a1.374,1.374,0,0,0,0-1.943l-5.97-5.97a32.838,32.838,0,0,0,2.2-5.423h8.3a1.374,1.374,0,0,0,1.374-1.374V48.971A1.374,1.374,0,0,0,97.054,47.6ZM95.681,64.083H87.723A1.374,1.374,0,0,0,86.4,65.1a30.044,30.044,0,0,1-2.729,6.74,1.374,1.374,0,0,0,.23,1.637l5.718,5.718L79.195,89.616,73.477,83.9a1.374,1.374,0,0,0-1.637-.23A30.052,30.052,0,0,1,65.1,86.4a1.374,1.374,0,0,0-1.016,1.327v7.957H50.345V87.723A1.374,1.374,0,0,0,49.329,86.4a30.051,30.051,0,0,1-6.74-2.729,1.375,1.375,0,0,0-1.637.23l-5.718,5.718L24.812,79.195l5.718-5.718a1.374,1.374,0,0,0,.23-1.637,30.064,30.064,0,0,1-2.729-6.74A1.374,1.374,0,0,0,26.7,64.083H18.748V50.345h7.957a1.374,1.374,0,0,0,1.326-1.016,30.056,30.056,0,0,1,2.729-6.74,1.374,1.374,0,0,0-.23-1.637l-5.718-5.718L35.233,24.812l5.718,5.718a1.374,1.374,0,0,0,1.637.23,30.059,30.059,0,0,1,6.74-2.729A1.374,1.374,0,0,0,50.345,26.7V18.748H64.083v7.957A1.374,1.374,0,0,0,65.1,28.032a30.044,30.044,0,0,1,6.74,2.729,1.374,1.374,0,0,0,1.637-.23l5.718-5.719L89.616,35.233,83.9,40.952a1.374,1.374,0,0,0-.23,1.637,30.053,30.053,0,0,1,2.729,6.74,1.374,1.374,0,0,0,1.327,1.016h7.957ZM57.214,29.738A27.476,27.476,0,1,0,84.69,57.214,27.507,27.507,0,0,0,57.214,29.738Zm0,52.2A24.728,24.728,0,1,1,81.943,57.214,24.756,24.756,0,0,1,57.214,81.943Zm0-46.709A21.981,21.981,0,1,0,79.195,57.214,22.006,22.006,0,0,0,57.214,35.233Zm0,41.214A19.233,19.233,0,1,1,76.447,57.214,19.255,19.255,0,0,1,57.214,76.447Zm-5.726-32.36a1.374,1.374,0,0,0-2.286,0l-5.5,8.243a1.374,1.374,0,0,0,1.143,2.136h1.374V69.578A1.374,1.374,0,0,0,47.6,70.952h5.5a1.374,1.374,0,0,0,1.374-1.374V54.467H55.84a1.374,1.374,0,0,0,1.143-2.136Zm1.6,7.631a1.374,1.374,0,0,0-1.374,1.374V68.2H48.971V53.093A1.374,1.374,0,0,0,47.6,51.719h-.181l2.928-4.392,2.928,4.392Zm16.486,8.243H68.2V44.85a1.374,1.374,0,0,0-1.374-1.374h-5.5a1.374,1.374,0,0,0-1.374,1.374V59.962H58.588A1.374,1.374,0,0,0,57.445,62.1l5.5,8.243a1.374,1.374,0,0,0,2.286,0l5.5-8.243a1.374,1.374,0,0,0-1.143-2.136Zm-5.5,7.14-2.928-4.392h.181a1.374,1.374,0,0,0,1.374-1.374V46.224h2.748V61.336a1.374,1.374,0,0,0,1.374,1.374h.181Z"/>
    </g>
  </g>
</svg>
