<svg xmlns="http://www.w3.org/2000/svg" width="127" height="207.796" viewBox="0 0 127 207.796">
  <g id="Grupo_1213964" data-name="Grupo 1213964" transform="translate(-181.051 -13539)">
    <rect id="Rect치ngulo_410993" data-name="Rect치ngulo 410993" width="127" height="207.796" transform="translate(181.051 13539)" fill="#93795a"/>
    <g id="Grupo_1213963" data-name="Grupo 1213963" transform="translate(-122.73 9746.442)">
      <g id="Grupo_1201016" data-name="Grupo 1201016" transform="translate(312.781 3880.837)">
        <g id="Rect치ngulo_410589" data-name="Rect치ngulo 410589" fill="#9f8668" stroke="#695640" stroke-width="1">
          <rect width="108.251" height="36.084" rx="8" stroke="none"/>
          <rect x="0.5" y="0.5" width="107.251" height="35.084" rx="7.5" fill="none"/>
        </g>
      </g>
      <g id="horse_3689331" transform="translate(326.905 3863.557)">
        <g id="Grupo_1201400" data-name="Grupo 1201400" transform="translate(1.268 6.319)">
          <path id="Trazado_1247275" data-name="Trazado 1247275" d="M12.116,25h7.6a8.851,8.851,0,0,0-8.85,8.849v13.9A10.1,10.1,0,0,1,1,57.859a2.525,2.525,0,0,0,2.263-2.516V33.85A8.851,8.851,0,0,1,12.115,25Z" transform="translate(-1.003 -7.3)" fill="#656d78"/>
          <path id="Trazado_1247276" data-name="Trazado 1247276" d="M43.688,11.038,34.85,28.7H29.793L38.643,11h4.969Z" transform="translate(6.606 -11)" fill="#656d78"/>
          <path id="Trazado_1247277" data-name="Trazado 1247277" d="M35.793,54H40.85v3.793H35.793Z" transform="translate(8.192 0.365)" fill="#656d78"/>
        </g>
        <path id="Trazado_1247278" data-name="Trazado 1247278" d="M63.965,44.99,61.436,60.174H51.322L48.793,44.99Z" transform="translate(12.896 4.303)" fill="#da4453"/>
        <path id="Trazado_1247279" data-name="Trazado 1247279" d="M61.436,35.539a2.536,2.536,0,0,0,2.529-2.529v3.768a2.536,2.536,0,0,1-2.529,2.529H51.322a2.536,2.536,0,0,1-2.529-2.529V33.01a2.536,2.536,0,0,0,2.529,2.529Z" transform="translate(12.896 1.137)" fill="#f6bb42"/>
        <path id="Trazado_1247280" data-name="Trazado 1247280" d="M63.965,32.77v1.3A2.536,2.536,0,0,1,61.436,36.6H51.322a2.536,2.536,0,0,1-2.529-2.529V31.519a2.536,2.536,0,0,1,2.529-2.529H61.436a2.536,2.536,0,0,1,2.529,2.529Z" transform="translate(12.896 0.074)" fill="#ffce54"/>
        <path id="Trazado_1247281" data-name="Trazado 1247281" d="M47.793,42h17.7v3.78h-17.7Z" transform="translate(12.632 3.513)" fill="#ed5565"/>
        <path id="Trazado_1247282" data-name="Trazado 1247282" d="M11.793,54h5.07v3.793h-5.07Z" transform="translate(3.117 6.684)" fill="#656d78"/>
        <path id="Trazado_1247283" data-name="Trazado 1247283" d="M20.182,29.757H40.4L49.235,12.1,51.777,7l2.529,5.057L69.477,15.85l-2.529,6.322H54.293L53.041,43.665a5.056,5.056,0,0,1-5.057,5.057v17.7H42.926v-17.7H23.646L17.64,58.874l.013,7.548h-5.07V49.986A3.785,3.785,0,0,1,8.8,46.193V38.608a8.851,8.851,0,0,1,8.849-8.85Z" transform="translate(2.327 -5.738)" fill="#965353"/>
        <path id="Trazado_1247284" data-name="Trazado 1247284" d="M9.271,35.381a1.264,1.264,0,0,1-1.264-1.264A10.126,10.126,0,0,1,18.121,24a1.264,1.264,0,0,1,0,2.529,7.594,7.594,0,0,0-7.586,7.586,1.264,1.264,0,0,1-1.264,1.264Z" transform="translate(2.116 -1.244)"/>
        <path id="Trazado_1247285" data-name="Trazado 1247285" d="M21.018,42.584A1.264,1.264,0,0,1,19.981,40.6a7.542,7.542,0,0,0,1.356-4.328,1.264,1.264,0,1,1,2.529,0,10.06,10.06,0,0,1-1.808,5.772A1.264,1.264,0,0,1,21.018,42.584Z" transform="translate(5.221 1.664)"/>
        <path id="Trazado_1247286" data-name="Trazado 1247286" d="M3.265,35.381A1.264,1.264,0,0,1,2,34.116,10.126,10.126,0,0,1,12.115,24a1.264,1.264,0,0,1,0,2.529A7.594,7.594,0,0,0,4.53,34.116a1.264,1.264,0,0,1-1.264,1.264Z" transform="translate(0.529 -1.244)"/>
        <path id="Trazado_1247287" data-name="Trazado 1247287" d="M3.269,55.019A1.264,1.264,0,0,1,2,53.755V32.265a1.264,1.264,0,0,1,2.529,0V53.755a1.264,1.264,0,0,1-1.264,1.264Z" transform="translate(0.53 0.606)"/>
        <path id="Trazado_1247288" data-name="Trazado 1247288" d="M9.271,47.426a1.264,1.264,0,0,1-1.264-1.264v-13.9a1.264,1.264,0,0,1,2.529,0v13.9a1.264,1.264,0,0,1-1.264,1.264Z" transform="translate(2.116 0.605)"/>
        <path id="Trazado_1247289" data-name="Trazado 1247289" d="M20.386,26.531H10.269a1.264,1.264,0,0,1,0-2.529H20.386a1.264,1.264,0,0,1,0,2.529Z" transform="translate(2.38 -1.244)"/>
        <path id="Trazado_1247290" data-name="Trazado 1247290" d="M1.267,54.64a1.264,1.264,0,0,1,0-2.529,8.865,8.865,0,0,0,8.855-8.855,1.264,1.264,0,1,1,2.529,0A11.4,11.4,0,0,1,1.267,54.64Z" transform="translate(0.001 3.511)"/>
        <path id="Trazado_1247291" data-name="Trazado 1247291" d="M1.267,53.058a1.264,1.264,0,1,1,0-2.529,1.268,1.268,0,0,0,1.267-1.267,1.264,1.264,0,0,1,2.529,0,3.8,3.8,0,0,1-3.8,3.8Z" transform="translate(0.001 5.098)"/>
        <path id="Trazado_1247292" data-name="Trazado 1247292" d="M16.278,63.015a1.265,1.265,0,0,1-1.264-1.263L15,50.421a1.259,1.259,0,0,1,.177-.644l6.008-10.155a1.264,1.264,0,0,1,2.175,1.287l-5.831,9.858.011,10.985a1.264,1.264,0,0,1-1.263,1.266Z" transform="translate(3.965 2.72)"/>
        <path id="Trazado_1247293" data-name="Trazado 1247293" d="M12.268,62.751A1.264,1.264,0,0,1,11,61.487l0-20.221A1.264,1.264,0,0,1,12.262,40h0a1.264,1.264,0,0,1,1.264,1.263l0,20.224a1.264,1.264,0,0,1-1.264,1.264Z" transform="translate(2.907 2.984)"/>
        <path id="Trazado_1247294" data-name="Trazado 1247294" d="M17.336,55.524H12.267a1.264,1.264,0,0,1,0-2.529h5.068a1.264,1.264,0,0,1,0,2.529Z" transform="translate(2.908 6.419)"/>
        <path id="Trazado_1247295" data-name="Trazado 1247295" d="M38.486,26.531H18.271a1.264,1.264,0,1,1,0-2.529H38.486a1.264,1.264,0,1,1,0,2.529Z" transform="translate(4.495 -1.244)"/>
        <path id="Trazado_1247296" data-name="Trazado 1247296" d="M34.259,31.288a1.264,1.264,0,0,1-1.13-1.83L44.511,6.7a1.264,1.264,0,0,1,2.262,1.131L35.391,30.589A1.264,1.264,0,0,1,34.259,31.288Z" transform="translate(8.721 -6.002)"/>
        <path id="Trazado_1247297" data-name="Trazado 1247297" d="M30.261,30.231a1.264,1.264,0,0,1-1.13-1.83l8.853-17.7a1.264,1.264,0,1,1,2.262,1.131l-8.853,17.7a1.264,1.264,0,0,1-1.132.7Z" transform="translate(7.664 -4.944)"/>
        <path id="Trazado_1247298" data-name="Trazado 1247298" d="M45.788,13.588a1.262,1.262,0,0,1-1.132-.7L42.131,7.831A1.264,1.264,0,0,1,44.393,6.7l2.525,5.057a1.265,1.265,0,0,1-1.13,1.829Z" transform="translate(11.1 -6.002)"/>
        <path id="Trazado_1247299" data-name="Trazado 1247299" d="M60.435,16.327a1.265,1.265,0,0,1-.309-.038l-15.174-3.8a1.264,1.264,0,0,1,.615-2.452l15.174,3.8a1.264,1.264,0,0,1-.306,2.49Z" transform="translate(11.628 -4.944)"/>
        <path id="Trazado_1247300" data-name="Trazado 1247300" d="M55.262,21.855a1.264,1.264,0,0,1-1.174-1.733L56.616,13.8a1.264,1.264,0,0,1,2.348.938L56.437,21.06a1.264,1.264,0,0,1-1.174.8Z" transform="translate(14.272 -4.151)"/>
        <path id="Trazado_1247301" data-name="Trazado 1247301" d="M57.906,20.534H45.259a1.264,1.264,0,1,1,0-2.529H57.906a1.264,1.264,0,0,1,0,2.529Z" transform="translate(11.628 -2.829)"/>
        <path id="Trazado_1247302" data-name="Trazado 1247302" d="M44.267,42.021l-.075,0A1.264,1.264,0,0,1,43,40.682L44.259,19.2A1.251,1.251,0,0,1,45.6,18.007a1.264,1.264,0,0,1,1.188,1.336L45.527,40.83a1.264,1.264,0,0,1-1.261,1.19Z" transform="translate(11.365 -2.829)"/>
        <path id="Trazado_1247303" data-name="Trazado 1247303" d="M40.265,42.586a1.264,1.264,0,1,1,0-2.529,3.8,3.8,0,0,0,3.793-3.793,1.264,1.264,0,0,1,2.529,0,6.329,6.329,0,0,1-6.322,6.322Z" transform="translate(10.308 1.663)"/>
        <path id="Trazado_1247304" data-name="Trazado 1247304" d="M40.262,63.019A1.264,1.264,0,0,1,39,61.755V40.264a1.264,1.264,0,1,1,2.529,0V61.755a1.264,1.264,0,0,1-1.264,1.264Z" transform="translate(10.307 2.72)"/>
        <path id="Trazado_1247305" data-name="Trazado 1247305" d="M36.261,63.019A1.264,1.264,0,0,1,35,61.755V40.264a1.264,1.264,0,1,1,2.529,0V61.755a1.264,1.264,0,0,1-1.264,1.264Z" transform="translate(9.25 2.72)"/>
        <path id="Trazado_1247306" data-name="Trazado 1247306" d="M41.32,55.526H36.261a1.264,1.264,0,0,1,0-2.529H41.32a1.264,1.264,0,0,1,0,2.529Z" transform="translate(9.25 6.419)"/>
        <path id="Trazado_1247307" data-name="Trazado 1247307" d="M40.29,41.529H21.019a1.264,1.264,0,1,1,0-2.529H40.29a1.264,1.264,0,1,1,0,2.529Z" transform="translate(5.221 2.72)"/>
        <path id="Trazado_1247308" data-name="Trazado 1247308" d="M42.231,12.531H37.264a1.264,1.264,0,1,1,0-2.529h4.967a1.264,1.264,0,1,1,0,2.529Z" transform="translate(9.515 -4.944)"/>
        <path id="Trazado_1247309" data-name="Trazado 1247309" d="M13.06,43.321a5.059,5.059,0,0,1-5.054-5.054,1.264,1.264,0,1,1,2.529,0,2.527,2.527,0,0,0,2.525,2.525,1.264,1.264,0,1,1,0,2.529Z" transform="translate(2.116 2.192)"/>
        <path id="Trazado_1247310" data-name="Trazado 1247310" d="M79.651,58.524H1.264a1.264,1.264,0,1,1,0-2.529H79.651a1.264,1.264,0,1,1,0,2.529Z" transform="translate(0 7.212)"/>
        <path id="Trazado_1247311" data-name="Trazado 1247311" d="M61.908,61.7H51.794a1.264,1.264,0,0,1-1.247-1.057L48.018,45.466a1.264,1.264,0,0,1,1.247-1.472H64.437a1.264,1.264,0,0,1,1.247,1.472L63.155,60.643A1.264,1.264,0,0,1,61.908,61.7Zm-9.043-2.529h7.971l2.108-12.648H50.758Z" transform="translate(12.687 4.04)"/>
        <path id="Trazado_1247312" data-name="Trazado 1247312" d="M65.966,47.313h-17.7A1.264,1.264,0,0,1,47,46.049V42.267A1.264,1.264,0,0,1,48.265,41h17.7a1.264,1.264,0,0,1,1.264,1.264v3.782a1.264,1.264,0,0,1-1.264,1.264ZM49.53,44.785H64.7V43.531H49.53Z" transform="translate(12.423 3.249)"/>
        <path id="Trazado_1247313" data-name="Trazado 1247313" d="M61.908,38.123H51.794A3.8,3.8,0,0,1,48,34.331V31.787a3.8,3.8,0,0,1,3.793-3.793H61.908A3.8,3.8,0,0,1,65.7,31.787v2.543A3.8,3.8,0,0,1,61.908,38.123Zm-10.114-7.6a1.265,1.265,0,0,0-1.264,1.264v2.543a1.265,1.265,0,0,0,1.264,1.264H61.908a1.265,1.265,0,0,0,1.264-1.264V31.787a1.265,1.265,0,0,0-1.264-1.264Z" transform="translate(12.687 -0.189)"/>
        <path id="Trazado_1247314" data-name="Trazado 1247314" d="M61.908,41.112H51.794A3.8,3.8,0,0,1,48,37.319V32.247a1.264,1.264,0,0,1,2.529,0v5.072a1.265,1.265,0,0,0,1.264,1.264H61.908a1.265,1.265,0,0,0,1.264-1.264V32.247a1.264,1.264,0,0,1,2.529,0v5.072A3.8,3.8,0,0,1,61.908,41.112Z" transform="translate(12.687 0.601)"/>
        <path id="Trazado_1247315" data-name="Trazado 1247315" d="M22.286,46.523a1.264,1.264,0,1,1-.012-2.529h.012a1.264,1.264,0,1,1,0,2.529Z" transform="translate(5.555 4.04)"/>
        <path id="Trazado_1247316" data-name="Trazado 1247316" d="M27.286,22.523a1.264,1.264,0,1,1-.012-2.529h.012a1.264,1.264,0,1,1,0,2.529Z" transform="translate(6.876 -2.303)"/>
        <path id="Trazado_1247317" data-name="Trazado 1247317" d="M15.286,13.523a1.264,1.264,0,0,1-.012-2.529h.012a1.264,1.264,0,0,1,0,2.529Z" transform="translate(3.704 -4.682)"/>
        <path id="Trazado_1247318" data-name="Trazado 1247318" d="M33.286,46.523a1.264,1.264,0,1,1-.012-2.529h.012a1.264,1.264,0,1,1,0,2.529Z" transform="translate(8.462 4.04)"/>
        <path id="Trazado_1247319" data-name="Trazado 1247319" d="M27.265,54.58A1.264,1.264,0,0,1,26,53.316V48.258a1.264,1.264,0,1,1,2.529,0v5.057a1.264,1.264,0,0,1-1.264,1.264Z" transform="translate(6.872 4.833)"/>
        <path id="Trazado_1247320" data-name="Trazado 1247320" d="M28.794,51.523H26.265a1.264,1.264,0,0,1,0-2.529h2.529a1.264,1.264,0,0,1,0,2.529Z" transform="translate(6.608 5.361)"/>
        <path id="Trazado_1247321" data-name="Trazado 1247321" d="M11.265,23.587A1.264,1.264,0,0,1,10,22.323V17.265a1.264,1.264,0,0,1,2.529,0v5.057a1.264,1.264,0,0,1-1.264,1.264Z" transform="translate(2.643 -3.359)"/>
        <path id="Trazado_1247322" data-name="Trazado 1247322" d="M12.794,20.53H10.265a1.264,1.264,0,0,1,0-2.529h2.529a1.264,1.264,0,1,1,0,2.529Z" transform="translate(2.379 -2.83)"/>
        <path id="Trazado_1247323" data-name="Trazado 1247323" d="M23.265,17.58A1.264,1.264,0,0,1,22,16.316V11.258a1.264,1.264,0,1,1,2.529,0v5.057a1.264,1.264,0,0,1-1.264,1.264Z" transform="translate(5.815 -4.946)"/>
        <path id="Trazado_1247324" data-name="Trazado 1247324" d="M24.794,14.523H22.265a1.264,1.264,0,1,1,0-2.529h2.529a1.264,1.264,0,1,1,0,2.529Z" transform="translate(5.551 -4.418)"/>
      </g>
    </g>
  </g>
</svg>
