<svg xmlns="http://www.w3.org/2000/svg" width="145.631" height="85.032" viewBox="0 0 145.631 85.032">
  <g id="Grupo_1213230" data-name="Grupo 1213230" transform="translate(-312.832 -3866.648)">
    <g id="Grupo_1201016" data-name="Grupo 1201016" transform="translate(0.051 -1.155)">
      <g id="Rectángulo_410589" data-name="Rectángulo 410589" transform="translate(312.781 3886.804)" fill="#93795a" stroke="#695640" stroke-width="1">
        <rect width="145.631" height="48.544" rx="8" stroke="none"/>
        <rect x="0.5" y="0.5" width="144.631" height="47.544" rx="7.5" fill="none"/>
      </g>
    </g>
    <g id="pet-care_11442816_1_" data-name="pet-care_11442816 (1)" transform="translate(326.892 3865.665)">
      <g id="Grupo_1213974" data-name="Grupo 1213974" transform="translate(20.274 2.321)">
        <g id="Grupo_1213971" data-name="Grupo 1213971" transform="translate(25.817 0)">
          <path id="Trazado_1249067" data-name="Trazado 1249067" d="M232.356,17.516c-19.136-11.353-31.424-11.353-50.56,0V39.336a21.123,21.123,0,0,0,9.117,17.781l16.163,11.617,16.163-11.617a21.123,21.123,0,0,0,9.117-17.781V17.516Z" transform="translate(-181.796 -9.002)" fill="#3cbe52" fill-rule="evenodd"/>
          <path id="Trazado_1249068" data-name="Trazado 1249068" d="M251.02,43.583c-15.55-8.712-25.674-8.712-41.224,0V62.707a16.466,16.466,0,0,0,7.173,13.99l13.439,9.659L243.846,76.7a16.466,16.466,0,0,0,7.174-13.99Z" transform="translate(-205.128 -32.373)" fill="#72d561" fill-rule="evenodd"/>
        </g>
        <g id="Grupo_1213972" data-name="Grupo 1213972" transform="translate(34.268 11.9)">
          <path id="Trazado_1249069" data-name="Trazado 1249069" d="M276.489,172.947c-5.287,1.429-6.543-4.674-3.748-6.522,5.927-3.919,4.4-7.777,8.912-7.777s2.985,3.858,8.912,7.777c2.795,1.848,1.539,7.951-3.748,6.522a16.748,16.748,0,0,0-10.327,0Z" transform="translate(-264.823 -145.598)" fill="#fc685b" fill-rule="evenodd"/>
          <ellipse id="Elipse_12444" data-name="Elipse 12444" cx="3.298" cy="4.763" rx="3.298" ry="4.763" transform="translate(6.859 1.708) rotate(-15.009)" fill="#fc685b"/>
          <path id="Trazado_1249070" data-name="Trazado 1249070" d="M233.291,138.485c-1.3,1.3-.995,3.711.681,5.387s4.087,1.98,5.387.681.995-3.711-.681-5.387S234.591,137.185,233.291,138.485Z" transform="translate(-232.485 -128.125)" fill="#fc685b" fill-rule="evenodd"/>
          <path id="Trazado_1249071" data-name="Trazado 1249071" d="M350.922,85.153c1.759.471,2.633,2.913,1.952,5.454s-2.659,4.219-4.418,3.747-2.633-2.913-1.952-5.454S349.163,84.682,350.922,85.153Z" transform="translate(-327.302 -84.291)" fill="#fc685b" fill-rule="evenodd"/>
          <path id="Trazado_1249072" data-name="Trazado 1249072" d="M395.181,138.485c1.3,1.3.995,3.711-.681,5.387s-4.087,1.98-5.387.681-.995-3.711.681-5.387S393.882,137.185,395.181,138.485Z" transform="translate(-362.329 -128.125)" fill="#fc685b" fill-rule="evenodd"/>
        </g>
        <g id="Grupo_1213973" data-name="Grupo 1213973" transform="translate(0 48.274)">
          <path id="Trazado_1249073" data-name="Trazado 1249073" d="M56.541,303.919v22.687a36.549,36.549,0,0,1,4.482-1.774,12.082,12.082,0,0,1,4.638-.694,11.119,11.119,0,0,1,4.778,1.413l.005,0,10.805,5.724a10.193,10.193,0,0,0,7.677,1.011l33.244-8.907a5.584,5.584,0,0,0-2.89-10.787l-23.151,6.2c.029-.046.057-.093.084-.14a6.2,6.2,0,0,0-2.228-8.447L75.351,299.354a9.773,9.773,0,0,0-7.743-.007Z" transform="translate(-51.606 -298.551)" fill="#ffd6bd" fill-rule="evenodd"/>
          <path id="Trazado_1249074" data-name="Trazado 1249074" d="M187.2,385.341a6.2,6.2,0,0,0,7.607-1.1,6.117,6.117,0,0,1-.576,1.328,6.193,6.193,0,0,1-8.447,2.228c-3.626-2.116-7.268-4.2-10.9-6.3a1.421,1.421,0,1,1,1.421-2.461C179.927,381.132,183.554,383.22,187.2,385.341Z" transform="translate(-149.622 -365.46)" fill="#f9c6aa" fill-rule="evenodd"/>
          <path id="Trazado_1249075" data-name="Trazado 1249075" d="M34.527,300.035v27.733A1.233,1.233,0,0,1,33.3,329H28.172a1.233,1.233,0,0,1-1.23-1.23V300.035a1.233,1.233,0,0,1,1.23-1.23H33.3A1.233,1.233,0,0,1,34.527,300.035Z" transform="translate(-26.942 -298.763)" fill="#64b5f6" fill-rule="evenodd"/>
        </g>
      </g>
      <path id="Trazado_1249076" data-name="Trazado 1249076" d="M82.95,26.2a3.53,3.53,0,0,1,2.37-1.1,1.553,1.553,0,0,1,1.131.421c.766.763.454,2.367-.68,3.5s-2.735,1.445-3.5.682S81.818,27.335,82.95,26.2Zm-2.566,5.386A4.191,4.191,0,0,0,83.4,32.775a6.129,6.129,0,0,0,4.258-1.867c2.194-2.192,2.5-5.455.68-7.274s-5.08-1.512-7.273.682S78.567,29.77,80.385,31.587ZM75.033,19.172a4.675,4.675,0,0,1,1.379-2.331,1.911,1.911,0,0,1,1.143-.507.941.941,0,0,1,.262.035,1.672,1.672,0,0,1,.98,1.112,4.663,4.663,0,0,1,.028,2.708c-.521,1.952-1.885,3.044-2.784,2.8s-1.532-1.869-1.009-3.821Zm.318,6.4a3.644,3.644,0,0,0,.962.127c2.2,0,4.318-1.936,5.089-4.816a7.308,7.308,0,0,0-.093-4.3,3.97,3.97,0,0,0-6.624-1.774,7.306,7.306,0,0,0-2.231,3.675C71.572,21.784,72.844,24.9,75.352,25.569ZM55.9,26.963a1.737,1.737,0,0,1,.4-1.442,1.558,1.558,0,0,1,1.132-.421,3.524,3.524,0,0,1,2.369,1.1c1.133,1.134,1.445,2.736.68,3.5a1.737,1.737,0,0,1-1.442.395A3.885,3.885,0,0,1,55.9,26.963Zm3.435,5.82a4.235,4.235,0,0,0,3.028-1.2c1.817-1.817,1.512-5.08-.681-7.273s-5.456-2.5-7.273-.682A4.349,4.349,0,0,0,53.25,27.3,6.538,6.538,0,0,0,58.7,32.743,5.119,5.119,0,0,0,59.331,32.783Zm4.614-15.3a1.676,1.676,0,0,1,.981-1.112h0a1,1,0,0,1,.262-.034,1.92,1.92,0,0,1,1.144.507,4.691,4.691,0,0,1,1.378,2.331c.524,1.952-.112,3.58-1.008,3.821s-2.263-.852-2.786-2.8a4.692,4.692,0,0,1,.028-2.708ZM66.429,25.7a3.646,3.646,0,0,0,.963-.127c2.508-.671,3.78-3.785,2.894-7.087a7.293,7.293,0,0,0-2.229-3.675,3.969,3.969,0,0,0-6.623,1.774,7.3,7.3,0,0,0-.094,4.3c.772,2.883,2.894,4.818,5.088,4.816ZM71.372,28.6c1.666,0,2,.525,2.979,2.089a16.177,16.177,0,0,0,5.2,5.467,2.494,2.494,0,0,1,.605,3c-.521,1.155-1.682,1.554-3.269,1.125a17.96,17.96,0,0,0-11.024,0c-1.587.428-2.748.03-3.269-1.125a2.5,2.5,0,0,1,.605-3,16.172,16.172,0,0,0,5.2-5.467c.982-1.564,1.314-2.089,2.979-2.089Zm-5.239.669a13.613,13.613,0,0,1-4.409,4.662,5.139,5.139,0,0,0-1.565,6.32,4.8,4.8,0,0,0,4.521,2.866,7.166,7.166,0,0,0,1.876-.265,15.506,15.506,0,0,1,9.63,0c3.433.928,5.555-.735,6.4-2.6a5.14,5.14,0,0,0-1.564-6.32,13.606,13.606,0,0,1-4.41-4.662c-1.08-1.716-2.1-3.337-5.239-3.337s-4.158,1.621-5.238,3.337ZM52.094,14.314V32.651a15.138,15.138,0,0,0,6.618,12.908l12.66,9.1,12.66-9.1A15.135,15.135,0,0,0,90.65,32.651V14.314C76.154,6.353,66.59,6.353,52.094,14.314Zm-2.668-.785V32.651a17.9,17.9,0,0,0,7.729,15.073l13.439,9.66a1.338,1.338,0,0,0,1.558,0l13.437-9.66a17.9,17.9,0,0,0,7.729-15.073V13.529a1.332,1.332,0,0,0-.682-1.164c-8.277-4.636-14.834-6.7-21.264-6.7s-12.988,2.067-21.264,6.7A1.332,1.332,0,0,0,49.426,13.529ZM95.318,32.651V11.595C77.283,1.06,65.46,1.06,47.426,11.595V32.651a19.828,19.828,0,0,0,8.561,16.7L71.372,60.407,86.755,49.35a19.826,19.826,0,0,0,8.563-16.7ZM97.332,9.686C87.189,3.669,79.183.984,71.372.984s-15.818,2.685-25.961,8.7a1.334,1.334,0,0,0-.653,1.147V32.651A22.4,22.4,0,0,0,54.43,51.516L70.593,63.134a1.341,1.341,0,0,0,1.558,0L88.312,51.516a22.4,22.4,0,0,0,9.674-18.864V10.833a1.333,1.333,0,0,0-.654-1.147ZM90.493,74.135,57.248,83.041a8.885,8.885,0,0,1-6.707-.9L39.736,76.417a12.462,12.462,0,0,0-10.544-.782V55.757l7.593-3.136a8.387,8.387,0,0,1,6.642-.028L61.981,63.4a4.843,4.843,0,1,1-4.876,8.369l-9.953-5.8a1.333,1.333,0,0,0-1.343,2.3l9.954,5.8A7.514,7.514,0,0,0,65.618,72l22.674-6.075a4.266,4.266,0,0,1,5.2,3A4.257,4.257,0,0,1,90.493,74.135ZM21.607,79.493V51.968h4.918V79.493H21.607Zm71.241-15.45a6.912,6.912,0,0,1-1.664,12.667L57.939,85.618a11.324,11.324,0,0,1-2.947.4,12.051,12.051,0,0,1-5.7-1.519L38.488,78.773a10.131,10.131,0,0,0-9.3-.29V79.6a2.566,2.566,0,0,1-2.563,2.562H21.5A2.566,2.566,0,0,1,18.94,79.6V51.865A2.566,2.566,0,0,1,21.5,49.3h5.126a2.566,2.566,0,0,1,2.563,2.565v1.006l6.575-2.716a11.079,11.079,0,0,1,8.763.008,1.262,1.262,0,0,1,.16.079L63.324,61.1a7.52,7.52,0,0,1,3.617,7.784L87.6,63.347a6.875,6.875,0,0,1,5.245.7Z" fill-rule="evenodd"/>
    </g>
  </g>
</svg>
