<svg xmlns="http://www.w3.org/2000/svg" width="127" height="253.471" viewBox="0 0 127 253.471">
  <g id="Grupo_1214061" data-name="Grupo 1214061" transform="translate(-180.051 -17832.428)">
    <rect id="Rect치ngulo_411038" data-name="Rect치ngulo 411038" width="127" height="253.471" transform="translate(180.051 17832.428)" fill="#9f9d93"/>
    <g id="Grupo_1213977" data-name="Grupo 1213977">
      <g id="Grupo_1213976" data-name="Grupo 1213976" transform="translate(191.051 17955)">
        <g id="Rect치ngulo_410589" data-name="Rect치ngulo 410589" fill="#727069" stroke="#615f56" stroke-width="1">
          <rect width="104.598" height="34.866" rx="8" stroke="none"/>
          <rect x="0.5" y="0.5" width="103.598" height="33.866" rx="7.5" fill="none"/>
        </g>
      </g>
      <g id="check_16057724" transform="translate(216.555 17943.021)">
        <path id="Trazado_1248497" data-name="Trazado 1248497" d="M55.751,46.268l-2.111,4.222H46.25L45.195,64.235A14.8,14.8,0,0,1,31.82,55.79l1.763-.011,3.167-.011,5.806-11.612,1.583-3.167,2.111,3.167Z" transform="translate(1.52 2.281)" fill="#965353"/>
        <path id="Trazado_1248498" data-name="Trazado 1248498" d="M33.49,55.6,39.3,43.99h3.167L36.657,55.6l-3.167.011Z" transform="translate(1.612 2.448)" fill="#656d78"/>
        <path id="Trazado_1248499" data-name="Trazado 1248499" d="M45.281,34.97a14.8,14.8,0,1,1-.011,29.6l1.056-13.744h7.389L55.826,46.6l-9.5-2.111-2.111-3.167-1.583,3.167H39.464L33.658,56.1v.011l-1.763.011A14.8,14.8,0,0,1,45.27,34.97Z" transform="translate(1.444 1.946)" fill="#87bcf4"/>
        <path id="Trazado_1248500" data-name="Trazado 1248500" d="M45.251.99V36.86H45.24a14.753,14.753,0,0,0-3.156.338V4.157H31L32.583.99Z" transform="translate(1.474 0.056)" fill="#656d78"/>
        <path id="Trazado_1248501" data-name="Trazado 1248501" d="M33.334.99,31.751,4.157l-.528,1.056H19.611l-.528-1.056L17.5.99Z" transform="translate(0.723 0.056)" fill="#ffce54"/>
        <path id="Trazado_1248502" data-name="Trazado 1248502" d="M8.667,48.493H32.2a14.926,14.926,0,0,0-.338,3.167H5.5V.99H18.167l1.583,3.167H8.667Z" transform="translate(0.056 0.056)" fill="#656d78"/>
        <path id="Trazado_1248503" data-name="Trazado 1248503" d="M20.112,5.046H31.723l.528-1.056H43.335V37.031a14.813,14.813,0,0,0-11.306,11.3H8.5V3.99H19.584Z" transform="translate(0.223 0.223)" fill="#e6e9ed"/>
        <path id="Trazado_1248504" data-name="Trazado 1248504" d="M19.664,6.313a1.056,1.056,0,0,1-.945-.583L16.607,1.507A1.056,1.056,0,0,1,18.5.563l2.111,4.222a1.056,1.056,0,0,1-.943,1.528Z" transform="translate(0.667 0)"/>
        <path id="Trazado_1248505" data-name="Trazado 1248505" d="M30.551,6.313a1.056,1.056,0,0,1-.943-1.528L31.719.563a1.056,1.056,0,1,1,1.889.944L31.5,5.73a1.056,1.056,0,0,1-.945.583Z" transform="translate(1.39 0)"/>
        <path id="Trazado_1248506" data-name="Trazado 1248506" d="M31.163,6.091H19.552a1.056,1.056,0,1,1,0-2.111H31.163a1.056,1.056,0,0,1,0,2.111Z" transform="translate(0.779 0.222)"/>
        <path id="Trazado_1248507" data-name="Trazado 1248507" d="M42.136,5.091H31.052a1.056,1.056,0,0,1,0-2.111H42.136a1.056,1.056,0,1,1,0,2.111Z" transform="translate(1.418 0.167)"/>
        <path id="Trazado_1248508" data-name="Trazado 1248508" d="M19.636,5.091H8.552a1.056,1.056,0,1,1,0-2.111H19.636a1.056,1.056,0,0,1,0,2.111Z" transform="translate(0.167 0.167)"/>
        <path id="Trazado_1248509" data-name="Trazado 1248509" d="M31.942,52.76H5.552A1.055,1.055,0,0,1,4.5,51.7V1.035A1.055,1.055,0,0,1,5.552-.021H46.721a1.055,1.055,0,0,1,1.056,1.056V36.926a1.056,1.056,0,1,1-2.111,0V2.091H6.607V50.649H31.942a1.056,1.056,0,0,1,0,2.111Z" transform="translate(0 0)"/>
        <path id="Trazado_1248510" data-name="Trazado 1248510" d="M32.117,49.426H8.552A1.055,1.055,0,0,1,7.5,48.371V4.035a1.056,1.056,0,0,1,2.111,0v43.28h22.51a1.056,1.056,0,1,1,0,2.111Z" transform="translate(0.167 0.167)"/>
        <path id="Trazado_1248511" data-name="Trazado 1248511" d="M41.552,38.156A1.055,1.055,0,0,1,40.5,37.1V4.035a1.056,1.056,0,0,1,2.111,0V37.1a1.055,1.055,0,0,1-1.056,1.056Z" transform="translate(2.002 0.167)"/>
        <path id="Trazado_1248512" data-name="Trazado 1248512" d="M15.6,40.147a1.051,1.051,0,0,1-.765-.329l-1-1.055a1.055,1.055,0,0,1,1.53-1.454l1,1.055a1.056,1.056,0,0,1-.765,1.782Z" transform="translate(0.503 2.058)"/>
        <path id="Trazado_1248513" data-name="Trazado 1248513" d="M15.55,40.259a1.056,1.056,0,0,1-.746-1.8l3.169-3.168a1.056,1.056,0,1,1,1.493,1.493L16.3,39.949a1.052,1.052,0,0,1-.746.309Z" transform="translate(0.556 1.946)"/>
        <path id="Trazado_1248514" data-name="Trazado 1248514" d="M33.052,37.093h-9.5a1.056,1.056,0,1,1,0-2.111h9.5a1.056,1.056,0,1,1,0,2.111Z" transform="translate(1.001 1.947)"/>
        <path id="Trazado_1248515" data-name="Trazado 1248515" d="M28.828,40.092H23.552a1.056,1.056,0,0,1,0-2.111h5.276a1.056,1.056,0,0,1,0,2.111Z" transform="translate(1.001 2.113)"/>
        <path id="Trazado_1248516" data-name="Trazado 1248516" d="M15.6,32.151a1.051,1.051,0,0,1-.765-.329l-1-1.055a1.055,1.055,0,0,1,1.53-1.454l1,1.055a1.056,1.056,0,0,1-.765,1.782Z" transform="translate(0.503 1.613)"/>
        <path id="Trazado_1248517" data-name="Trazado 1248517" d="M15.55,32.263a1.056,1.056,0,0,1-.746-1.8l3.169-3.168a1.056,1.056,0,1,1,1.493,1.493L16.3,31.953a1.052,1.052,0,0,1-.746.309Z" transform="translate(0.556 1.502)"/>
        <path id="Trazado_1248518" data-name="Trazado 1248518" d="M37.275,29.1H23.552a1.056,1.056,0,0,1,0-2.111H37.275a1.056,1.056,0,1,1,0,2.111Z" transform="translate(1.001 1.502)"/>
        <path id="Trazado_1248519" data-name="Trazado 1248519" d="M28.828,32.1H23.552a1.056,1.056,0,0,1,0-2.111h5.276a1.056,1.056,0,0,1,0,2.111Z" transform="translate(1.001 1.669)"/>
        <path id="Trazado_1248520" data-name="Trazado 1248520" d="M15.6,16.147a1.051,1.051,0,0,1-.765-.329l-1-1.055a1.055,1.055,0,1,1,1.53-1.454l1,1.055a1.056,1.056,0,0,1-.765,1.782Z" transform="translate(0.503 0.723)"/>
        <path id="Trazado_1248521" data-name="Trazado 1248521" d="M15.55,16.259a1.056,1.056,0,0,1-.746-1.8l3.169-3.168a1.056,1.056,0,0,1,1.493,1.493L16.3,15.949A1.052,1.052,0,0,1,15.55,16.259Z" transform="translate(0.556 0.612)"/>
        <path id="Trazado_1248522" data-name="Trazado 1248522" d="M37.275,13.093H23.552a1.056,1.056,0,0,1,0-2.111H37.275a1.056,1.056,0,1,1,0,2.111Z" transform="translate(1.001 0.612)"/>
        <path id="Trazado_1248523" data-name="Trazado 1248523" d="M28.828,16.092H23.552a1.056,1.056,0,0,1,0-2.111h5.276a1.056,1.056,0,0,1,0,2.111Z" transform="translate(1.001 0.779)"/>
        <path id="Trazado_1248524" data-name="Trazado 1248524" d="M15.6,24.155a1.051,1.051,0,0,1-.765-.329l-1-1.055a1.055,1.055,0,0,1,1.53-1.454l1,1.055a1.056,1.056,0,0,1-.765,1.782Z" transform="translate(0.503 1.168)"/>
        <path id="Trazado_1248525" data-name="Trazado 1248525" d="M15.55,24.266a1.056,1.056,0,0,1-.746-1.8L17.972,19.3a1.056,1.056,0,1,1,1.493,1.493L16.3,23.957a1.052,1.052,0,0,1-.746.309Z" transform="translate(0.556 1.057)"/>
        <path id="Trazado_1248526" data-name="Trazado 1248526" d="M37.275,21.1H23.552a1.056,1.056,0,1,1,0-2.111H37.275a1.056,1.056,0,1,1,0,2.111Z" transform="translate(1.001 1.057)"/>
        <path id="Trazado_1248527" data-name="Trazado 1248527" d="M28.828,24.1H23.552a1.056,1.056,0,0,1,0-2.111h5.276a1.056,1.056,0,0,1,0,2.111Z" transform="translate(1.001 1.224)"/>
        <path id="Trazado_1248528" data-name="Trazado 1248528" d="M45.321,65.667A15.853,15.853,0,1,1,61.174,49.815,15.853,15.853,0,0,1,45.321,65.667Zm0-29.594A13.742,13.742,0,1,0,59.063,49.815,13.742,13.742,0,0,0,45.321,36.073Z" transform="translate(1.389 1.89)"/>
        <path id="Trazado_1248529" data-name="Trazado 1248529" d="M31.878,56.109a1.056,1.056,0,0,1,0-2.111l4.932-.016h0a1.056,1.056,0,1,1,0,2.111l-4.932.017Z" transform="translate(1.464 3.003)"/>
        <path id="Trazado_1248530" data-name="Trazado 1248530" d="M36.549,56.871a1.056,1.056,0,0,1-.943-1.528l7.389-14.779a1.056,1.056,0,0,1,1.889.944L37.494,56.288a1.056,1.056,0,0,1-.945.583Z" transform="translate(1.724 2.225)"/>
        <path id="Trazado_1248531" data-name="Trazado 1248531" d="M45.662,45.259a1.054,1.054,0,0,1-.879-.47l-2.111-3.167a1.056,1.056,0,1,1,1.757-1.171l2.111,3.167a1.056,1.056,0,0,1-.877,1.641Z" transform="translate(2.113 2.225)"/>
        <path id="Trazado_1248532" data-name="Trazado 1248532" d="M55.051,47.2a1.1,1.1,0,0,1-.23-.025l-9.5-2.111a1.056,1.056,0,0,1,.458-2.062l9.5,2.111a1.056,1.056,0,0,1-.228,2.086Z" transform="translate(2.224 2.391)"/>
        <path id="Trazado_1248533" data-name="Trazado 1248533" d="M52.549,51.315a1.056,1.056,0,0,1-.943-1.528l2.111-4.222a1.056,1.056,0,1,1,1.889.944l-2.111,4.222a1.056,1.056,0,0,1-.945.583Z" transform="translate(2.614 2.503)"/>
        <path id="Trazado_1248534" data-name="Trazado 1248534" d="M52.939,51.093H45.55a1.056,1.056,0,0,1,0-2.111h7.389a1.056,1.056,0,0,1,0,2.111Z" transform="translate(2.224 2.725)"/>
        <path id="Trazado_1248535" data-name="Trazado 1248535" d="M44.542,64.857c-.027,0-.055,0-.082,0a1.055,1.055,0,0,1-.971-1.134l1.065-13.764a1.043,1.043,0,0,1,1.134-.971,1.055,1.055,0,0,1,.971,1.134L45.593,63.883a1.056,1.056,0,0,1-1.051.974Z" transform="translate(2.168 2.725)"/>
        <path id="Trazado_1248536" data-name="Trazado 1248536" d="M33.549,56.7a1.056,1.056,0,0,1-.943-1.528l5.806-11.612a1.056,1.056,0,1,1,1.889.944L34.494,56.121a1.056,1.056,0,0,1-.945.583Z" transform="translate(1.557 2.391)"/>
        <path id="Trazado_1248537" data-name="Trazado 1248537" d="M42.217,45.093H39.05a1.056,1.056,0,1,1,0-2.111h3.167a1.056,1.056,0,0,1,0,2.111Z" transform="translate(1.863 2.391)"/>
      </g>
    </g>
  </g>
</svg>
