<svg xmlns="http://www.w3.org/2000/svg" width="129.063" height="86.567" viewBox="0 0 129.063 86.567">
  <g id="Grupo_1213311" data-name="Grupo 1213311" transform="translate(-787.781 -2576.722)">
    <g id="Grupo_1201005" data-name="Grupo 1201005" transform="translate(0 26)">
      <g id="Rectángulo_410589" data-name="Rectángulo 410589" transform="translate(787.781 2575.623)" fill="#70d9c1" stroke="#4d9686" stroke-width="1">
        <rect width="129.063" height="43.021" rx="8" stroke="none"/>
        <rect x="0.5" y="0.5" width="128.063" height="42.021" rx="7.5" fill="none"/>
      </g>
    </g>
    <g id="transfer_11331337" transform="translate(788.116 2561.372)">
      <path id="Trazado_1249193" data-name="Trazado 1249193" d="M208.356,61.422a2.759,2.759,0,0,1-2.389,4.138H163.6a2.759,2.759,0,0,1-2.389-4.138l21.185-36.693a2.758,2.758,0,0,1,4.777,0Z" transform="translate(-118.604 -6.563)" fill="#ffd064" fill-rule="evenodd"/>
      <g id="Grupo_1214059" data-name="Grupo 1214059" transform="translate(42.02 20.495)">
        <path id="Trazado_1249194" data-name="Trazado 1249194" d="M331.8,58.827a18.839,18.839,0,0,0-8.066-7.927l-.189-.1L319.63,44.01l1.67.444a24.155,24.155,0,0,1,17.76,20.592,24.207,24.207,0,0,1-.672,9l-.449,1.674-3.921-6.791.011-.212A18.947,18.947,0,0,0,331.8,58.827Z" transform="translate(-290.906 -44.008)" fill="#d1d1d6" fill-rule="evenodd"/>
        <path id="Trazado_1249195" data-name="Trazado 1249195" d="M164.892,68.931l-3.922,6.792-.451-1.67a24.16,24.16,0,0,1,17.092-29.6L179.286,44l-3.924,6.8-.187.1-.287.149a19.039,19.039,0,0,0-10.007,17.679Z" transform="translate(-159.691 -44)" fill="#d1d1d6" fill-rule="evenodd"/>
        <path id="Trazado_1249196" data-name="Trazado 1249196" d="M207.549,265.879q.727.057,1.458.056a18.936,18.936,0,0,0,8.949-2.25,19.451,19.451,0,0,0,1.911-1.175l.185-.129h7.6l-1.153,1.214a24.063,24.063,0,0,1-6.1,4.643,24.116,24.116,0,0,1-15.311,2.565,24.036,24.036,0,0,1-13.6-7.209l-1.148-1.212h7.593l.185.129A19.041,19.041,0,0,0,207.549,265.879Z" transform="translate(-184.836 -223.16)" fill="#d1d1d6" fill-rule="evenodd"/>
      </g>
      <path id="Trazado_1249197" data-name="Trazado 1249197" d="M344.5,292.048q1.078-.453,2.11-1t2.008-1.2l.657-.435,4.819,9-5.5,2.945-4.819-9Z" transform="translate(-268.691 -224.84)" fill="#f1f1f2" fill-rule="evenodd"/>
      <path id="Trazado_1249198" data-name="Trazado 1249198" d="M363.493,339.551a5.861,5.861,0,0,1,7.911,2.394l6.571,12.274a5.865,5.865,0,0,1-2.394,7.909l-5.738,3.071a5.849,5.849,0,0,1-7.909-2.394l-6.571-12.274a5.862,5.862,0,0,1,2.394-7.911Z" transform="translate(-277.637 -265.41)" fill="#60b7ff" fill-rule="evenodd"/>
      <path id="Trazado_1249199" data-name="Trazado 1249199" d="M180.972,407.046,171,412.8v-3.015a.357.357,0,0,0-.359-.359h-22.9v-4.765h22.9a.358.358,0,0,0,.359-.359V401.29Z" transform="translate(-107.867 -316.627)" fill="#60b7ff" fill-rule="evenodd"/>
      <path id="Trazado_1249200" data-name="Trazado 1249200" d="M36.589,330.389a.359.359,0,0,0-.359.359v3.015l-9.969-5.758,9.969-5.756v3.015a.359.359,0,0,0,.359.359h22.9v4.765Z" transform="translate(-8.204 -251.782)" fill="#00da92" fill-rule="evenodd"/>
      <path id="Trazado_1249201" data-name="Trazado 1249201" d="M284.98,212.24a2.02,2.02,0,1,1-2.02,2.02A2.023,2.023,0,0,1,284.98,212.24Z" transform="translate(-218.802 -161.53)" fill="#f1f1f2" fill-rule="evenodd"/>
      <path id="Trazado_1249202" data-name="Trazado 1249202" d="M278.96,210.979a2.739,2.739,0,1,0,2.739-2.739A2.742,2.742,0,0,0,278.96,210.979Z" transform="translate(-215.52 -158.248)" fill="#fe616c" fill-rule="evenodd"/>
      <path id="Trazado_1249203" data-name="Trazado 1249203" d="M285.344,106.723a1.637,1.637,0,0,1-3.249,0l-.668-12.191A2.075,2.075,0,0,1,282.009,93a2.353,2.353,0,0,1,3.423,0,2.072,2.072,0,0,1,.582,1.536Z" transform="translate(-217.542 -63.097)" fill="#f1f1f2" fill-rule="evenodd"/>
      <path id="Trazado_1249204" data-name="Trazado 1249204" d="M280.433,88.26a3.093,3.093,0,0,0-2.234.963,2.77,2.77,0,0,0-.778,2.067l.668,12.191a2.356,2.356,0,0,0,4.686,0l.666-12.191a2.772,2.772,0,0,0-.776-2.069,3.091,3.091,0,0,0-2.232-.961Z" transform="translate(-214.254 -59.816)" fill="#fe616c" fill-rule="evenodd"/>
      <path id="Trazado_1249205" data-name="Trazado 1249205" d="M66.178,54.033a1.3,1.3,0,1,1,1.3-1.3A1.3,1.3,0,0,1,66.178,54.033Zm0-4.759a3.457,3.457,0,1,0,3.457,3.457A3.461,3.461,0,0,0,66.178,49.274ZM67.754,31.4l-.668,12.191a.924.924,0,0,1-1.816,0L64.6,31.4a1.352,1.352,0,0,1,.386-1,1.635,1.635,0,0,1,2.38,0A1.345,1.345,0,0,1,67.754,31.4Zm-1.575-3.669a3.812,3.812,0,0,0-2.755,1.187,3.479,3.479,0,0,0-.973,2.6L63.118,43.7a3.074,3.074,0,0,0,6.121,0l.666-12.191a3.475,3.475,0,0,0-.972-2.6A3.805,3.805,0,0,0,66.178,27.726ZM63.853,94.932V93.161a1.076,1.076,0,0,0-1.078-1.078H40.592V88.756H62.775a1.077,1.077,0,0,0,1.078-1.078V85.908l7.816,4.511Zm10.51-5.445L63.314,83.108a1.078,1.078,0,0,0-1.616.934V86.6H39.514a1.077,1.077,0,0,0-1.078,1.078v5.483a1.077,1.077,0,0,0,1.078,1.078H61.7V96.8a1.079,1.079,0,0,0,1.616.934l11.049-6.379a1.077,1.077,0,0,0,0-1.866ZM50.57,77.889H28.384a1.078,1.078,0,0,0-1.078,1.078v1.771l-7.814-4.513,7.814-4.511v1.771a1.078,1.078,0,0,0,1.078,1.078H50.57Zm2.155,1.078a1.077,1.077,0,0,1-1.078,1.078H29.462V82.6a1.076,1.076,0,0,1-1.078,1.078,1.091,1.091,0,0,1-.539-.144L16.8,77.158a1.079,1.079,0,0,1,0-1.868l11.047-6.379a1.078,1.078,0,0,1,1.616.934V72.4H51.647a1.077,1.077,0,0,1,1.078,1.078ZM95.788,88.982a1.076,1.076,0,0,1-.44,1.458A1.079,1.079,0,0,1,93.888,90L88.26,79.483a1.077,1.077,0,0,1,1.9-1.017Zm4.3,4.066a5.082,5.082,0,0,0-.379-3.9L93.134,76.874a5.141,5.141,0,0,0-6.938-2.1l-5.738,3.071a5.144,5.144,0,0,0-2.1,6.94L84.93,97.059a5.13,5.13,0,0,0,6.938,2.1l5.738-3.071A5.093,5.093,0,0,0,100.084,93.048ZM78.256,66.838q1.067-.571,2.065-1.234l4.107,7.671-4.237,2.266-4.107-7.672C76.821,67.562,77.547,67.217,78.256,66.838Zm-29.064-6.4a23.464,23.464,0,0,0,33.97,0h-5.7a20.3,20.3,0,0,1-1.983,1.219,19.658,19.658,0,0,1-9.289,2.337c-.5,0-1.009-.02-1.514-.059a19.725,19.725,0,0,1-9.786-3.5Zm23.845,0a17.376,17.376,0,0,1-13.743,0ZM43.226,57.259a1.971,1.971,0,0,0,1.767,1.02h42.37a2.04,2.04,0,0,0,1.765-3.06L67.946,18.525a2.041,2.041,0,0,0-3.534,0L43.226,55.218A1.973,1.973,0,0,0,43.226,57.259ZM54.74,30.966,48.928,41.032A17.633,17.633,0,0,1,54.74,30.966Zm.377-7.349a23.433,23.433,0,0,1,5.009-1.979l-2.953,5.113c-.1.052-.2.1-.3.153A19.757,19.757,0,0,0,46.493,45.251l-2.951,5.111A23.481,23.481,0,0,1,55.117,23.617ZM83.43,41.037,77.608,30.951A17.611,17.611,0,0,1,83.43,41.037Zm3.409-7.821a23.431,23.431,0,0,1,1.97,17.137l-2.947-5.106a19.7,19.7,0,0,0-10.681-18.5l-2.951-5.111A23.254,23.254,0,0,1,86.839,33.216Zm14.766,54.913L95.034,75.857a7.3,7.3,0,0,0-8.649-3.493l-4.3-8.033a25.311,25.311,0,0,0,3.948-3.9h1.333A4.2,4.2,0,0,0,91,54.141l-.722-1.25A25.587,25.587,0,0,0,70.767,19.1l-.955-1.656a4.2,4.2,0,0,0-7.266,0l-.952,1.647a25.614,25.614,0,0,0-19.513,33.8l-.72,1.246a4.2,4.2,0,0,0,3.633,6.293h1.334a25.589,25.589,0,0,0,27.717,8.193l4.3,8.039A7.3,7.3,0,0,0,76.459,85.8L83.03,98.073a7.289,7.289,0,0,0,6.431,3.843,7.215,7.215,0,0,0,3.423-.862l5.738-3.071a7.3,7.3,0,0,0,2.983-9.854Z" transform="translate(0 0)" fill-rule="evenodd"/>
    </g>
  </g>
</svg>
