<svg xmlns="http://www.w3.org/2000/svg" width="127" height="255.574" viewBox="0 0 127 255.574">
  <g id="Grupo_1214054" data-name="Grupo 1214054" transform="translate(-601.051 -21423)">
    <rect id="Rectángulo_411055" data-name="Rectángulo 411055" width="127" height="255.575" transform="translate(601.051 21423)" fill="#9f9d93"/>
    <g id="Grupo_1214053" data-name="Grupo 1214053" transform="translate(610.051 21533)">
      <g id="Rectángulo_410589" data-name="Rectángulo 410589" fill="#bcb9ac" stroke="#7b796e" stroke-width="1">
        <rect width="108.251" height="36.084" rx="8" stroke="none"/>
        <rect x="0.5" y="0.5" width="107.251" height="35.084" rx="7.5" fill="none"/>
      </g>
    </g>
    <g id="report_1614396_1_" data-name="report_1614396 (1)" transform="translate(613.551 21503.988)">
      <g id="Grupo_1214023" data-name="Grupo 1214023" transform="translate(22.5 16.013)">
        <g id="Grupo_1214000" data-name="Grupo 1214000" transform="translate(0.687 4.727)">
          <rect id="Rectángulo_411672" data-name="Rectángulo 411672" width="41.478" height="52.694" fill="#4ea3da"/>
        </g>
        <g id="Grupo_1214001" data-name="Grupo 1214001" transform="translate(0.687 4.727)">
          <rect id="Rectángulo_411673" data-name="Rectángulo 411673" width="41.478" height="3.909" fill="#fff"/>
        </g>
        <g id="Grupo_1214002" data-name="Grupo 1214002" transform="translate(0 4.04)">
          <path id="Trazado_1249119" data-name="Trazado 1249119" d="M65.352,84.782H22.5V30.714H65.352ZM23.874,83.408h40.1V32.088h-40.1Z" transform="translate(-22.5 -30.714)" fill="#122436"/>
        </g>
        <g id="Grupo_1214003" data-name="Grupo 1214003" transform="translate(11.093 0.687)">
          <rect id="Rectángulo_411674" data-name="Rectángulo 411674" width="20.666" height="8.079" fill="#ffcc34"/>
        </g>
        <g id="Grupo_1214004" data-name="Grupo 1214004" transform="translate(11.093 0.687)">
          <rect id="Rectángulo_411675" data-name="Rectángulo 411675" width="20.666" height="2.736" fill="#fff"/>
        </g>
        <g id="Grupo_1214005" data-name="Grupo 1214005" transform="translate(10.406)">
          <path id="Trazado_1249120" data-name="Trazado 1249120" d="M82.411,25.466H60.371V16.013h22.04ZM61.745,24.092H81.037V17.387H61.745Z" transform="translate(-60.371 -16.013)" fill="#122436"/>
        </g>
        <g id="Grupo_1214009" data-name="Grupo 1214009" transform="translate(5.639 18.589)">
          <g id="Grupo_1214006" data-name="Grupo 1214006" transform="translate(0 0)">
            <path id="Trazado_1249121" data-name="Trazado 1249121" d="M51.981,92.621H43.023V83.663h8.958ZM44.4,91.247h6.21v-6.21H44.4Z" transform="translate(-43.023 -83.663)" fill="#fff"/>
          </g>
          <g id="Grupo_1214007" data-name="Grupo 1214007" transform="translate(0 12.253)">
            <path id="Trazado_1249122" data-name="Trazado 1249122" d="M51.981,137.214H43.023v-8.958h8.958ZM44.4,135.84h6.21v-6.21H44.4Z" transform="translate(-43.023 -128.256)" fill="#fff"/>
          </g>
          <g id="Grupo_1214008" data-name="Grupo 1214008" transform="translate(0 24.507)">
            <path id="Trazado_1249123" data-name="Trazado 1249123" d="M51.981,181.808H43.023V172.85h8.958ZM44.4,180.434h6.21v-6.21H44.4Z" transform="translate(-43.023 -172.85)" fill="#fff"/>
          </g>
        </g>
        <g id="Grupo_1214012" data-name="Grupo 1214012" transform="translate(19.22 20.623)">
          <g id="Grupo_1214010" data-name="Grupo 1214010">
            <rect id="Rectángulo_411676" data-name="Rectángulo 411676" width="12.539" height="1.374" fill="#fff"/>
          </g>
          <g id="Grupo_1214011" data-name="Grupo 1214011" transform="translate(0 3.909)">
            <rect id="Rectángulo_411677" data-name="Rectángulo 411677" width="17.459" height="1.374" fill="#fff"/>
          </g>
        </g>
        <g id="Grupo_1214015" data-name="Grupo 1214015" transform="translate(19.22 32.681)">
          <g id="Grupo_1214013" data-name="Grupo 1214013">
            <rect id="Rectángulo_411678" data-name="Rectángulo 411678" width="12.539" height="1.374" fill="#fff"/>
          </g>
          <g id="Grupo_1214014" data-name="Grupo 1214014" transform="translate(0 3.909)">
            <rect id="Rectángulo_411679" data-name="Rectángulo 411679" width="17.459" height="1.374" fill="#fff"/>
          </g>
        </g>
        <g id="Grupo_1214018" data-name="Grupo 1214018" transform="translate(19.22 44.738)">
          <g id="Grupo_1214016" data-name="Grupo 1214016">
            <rect id="Rectángulo_411680" data-name="Rectángulo 411680" width="12.539" height="1.374" fill="#fff"/>
          </g>
          <g id="Grupo_1214017" data-name="Grupo 1214017" transform="translate(0 3.909)">
            <rect id="Rectángulo_411681" data-name="Rectángulo 411681" width="17.459" height="1.374" fill="#fff"/>
          </g>
        </g>
        <g id="Grupo_1214020" data-name="Grupo 1214020" transform="translate(7.922 19.902)">
          <g id="Grupo_1214019" data-name="Grupo 1214019" transform="translate(0 0)">
            <path id="Trazado_1249124" data-name="Trazado 1249124" d="M53.676,93.5l-2.347-2.347,1.06-1.06,1.287,1.287,2.936-2.936,1.06,1.06Z" transform="translate(-51.329 -88.441)" fill="#122436"/>
          </g>
        </g>
        <g id="Grupo_1214022" data-name="Grupo 1214022" transform="translate(7.922 44.635)">
          <g id="Grupo_1214021" data-name="Grupo 1214021">
            <path id="Trazado_1249125" data-name="Trazado 1249125" d="M53.676,183.505l-2.347-2.347,1.06-1.06,1.287,1.287,2.936-2.936,1.06,1.06Z" transform="translate(-51.329 -178.45)" fill="#122436"/>
          </g>
        </g>
      </g>
      <g id="Grupo_1214052" data-name="Grupo 1214052" transform="translate(44.651 41.396)">
        <g id="Grupo_1214051" data-name="Grupo 1214051" transform="translate(0 0)">
          <g id="Grupo_1214024" data-name="Grupo 1214024" transform="translate(0.687 0.687)">
            <circle id="Elipse_12449" data-name="Elipse 12449" cx="17.227" cy="17.227" r="17.227" fill="#4ea3da"/>
          </g>
          <g id="Grupo_1214025" data-name="Grupo 1214025">
            <path id="Trazado_1249126" data-name="Trazado 1249126" d="M121.028,144.215A17.914,17.914,0,1,1,138.942,126.3,17.934,17.934,0,0,1,121.028,144.215Zm0-34.454a16.54,16.54,0,1,0,16.54,16.54A16.559,16.559,0,0,0,121.028,109.761Z" transform="translate(-103.114 -108.387)" fill="#122436"/>
          </g>
          <g id="Grupo_1214026" data-name="Grupo 1214026" transform="translate(2.34 2.339)">
            <path id="Trazado_1249127" data-name="Trazado 1249127" d="M126.432,148.031c-.477-.023-.957-.069-1.427-.135l.193-1.36c.429.061.866.1,1.3.124Zm1.719-.01-.082-1.371c.434-.026.871-.073,1.3-.138l.208,1.358C129.106,147.942,128.626,147.993,128.151,148.022Zm-4.833-.461c-.461-.118-.922-.26-1.371-.421l.463-1.293c.409.146.83.276,1.249.383Zm7.942-.045-.357-1.327c.42-.113.839-.247,1.244-.4l.479,1.288C132.181,147.246,131.721,147.393,131.26,147.517Zm-10.9-1.046c-.427-.209-.85-.441-1.257-.689l.716-1.173c.372.227.757.438,1.146.629Zm13.841-.077-.617-1.227c.386-.194.769-.41,1.138-.641l.729,1.165C135.047,145.943,134.626,146.179,134.2,146.393Zm-16.514-1.587c-.376-.291-.744-.6-1.093-.928l.936-1.006c.318.3.654.581,1,.846Zm19.17-.107L136,143.621c.342-.27.674-.559.988-.858l.947.995C137.6,144.086,137.232,144.4,136.858,144.7Zm-21.456-2.06c-.312-.362-.61-.741-.885-1.128l1.119-.8c.251.353.523.7.807,1.029Zm23.717-.132-1.051-.885c.281-.334.548-.683.8-1.038l1.127.786C139.72,141.758,139.427,142.141,139.119,142.506ZM113.6,140.058c-.232-.416-.448-.847-.641-1.283l1.256-.556c.176.4.372.79.584,1.169Zm27.3-.153-1.207-.656c.208-.383.4-.778.57-1.176l1.263.542C141.334,139.051,141.124,139.486,140.9,139.905Zm-28.548-2.74c-.143-.454-.267-.921-.367-1.386l1.343-.29c.091.424.2.849.335,1.263ZM142.112,137l-1.315-.4c.126-.415.234-.842.321-1.266l1.346.275C142.368,136.074,142.25,136.542,142.112,137Zm-30.4-2.917c-.048-.472-.076-.953-.081-1.431l1.374-.015c0,.436.03.875.074,1.305Zm31-.174-1.368-.126c.039-.43.059-.869.059-1.306v-.062h1.374v.062C142.779,132.953,142.757,133.435,142.714,133.907Zm-29.642-2.839-1.367-.135c.047-.475.116-.952.206-1.418l1.349.26C113.177,130.2,113.114,130.635,113.072,131.068Zm28.241-.218c-.05-.433-.12-.867-.208-1.291l1.345-.28c.1.464.173.94.228,1.415Zm-27.672-2.6-1.312-.408c.142-.455.306-.909.489-1.348l1.268.528C113.919,127.425,113.769,127.839,113.641,128.253Zm27.06-.208c-.136-.413-.292-.824-.464-1.221l1.26-.547c.189.436.361.887.51,1.34Zm-25.933-2.433-1.2-.665c.23-.417.483-.828.751-1.221l1.136.772C115.209,124.857,114.978,125.232,114.768,125.612Zm24.765-.189c-.216-.377-.452-.748-.7-1.1l1.124-.789c.273.389.533.8.769,1.209Zm-23.128-2.172-1.044-.893c.309-.362.639-.714.981-1.046l.958.985C116.988,122.6,116.687,122.922,116.405,123.252Zm21.456-.163c-.289-.327-.595-.644-.909-.941l.944-1c.344.325.68.672,1,1.03Zm-19.379-1.822-.845-1.083c.375-.292.769-.571,1.17-.828l.742,1.157C119.184,120.746,118.825,121,118.482,121.267Zm17.271-.132c-.346-.262-.709-.51-1.079-.739l.724-1.168c.405.251.8.524,1.183.811Zm-14.84-1.4-.609-1.232c.428-.212.87-.405,1.313-.576l.493,1.283C121.706,119.37,121.3,119.546,120.914,119.739Zm12.384-.095c-.392-.187-.8-.357-1.2-.507l.473-1.29c.447.164.892.351,1.323.555Zm-9.7-.91-.348-1.329c.462-.121.934-.221,1.4-.3l.222,1.356C124.453,118.533,124.023,118.625,123.6,118.734Zm6.99-.054c-.422-.1-.853-.188-1.282-.252l.2-1.359c.471.07.944.163,1.407.276Zm-4.153-.387-.073-1.372c.469-.025.957-.029,1.433-.011l-.052,1.373C127.313,118.267,126.868,118.272,126.44,118.294Z" transform="translate(-111.63 -116.9)" fill="#fff"/>
          </g>
          <g id="Grupo_1214050" data-name="Grupo 1214050" transform="translate(5.962 6.824)">
            <g id="Grupo_1214038" data-name="Grupo 1214038" transform="translate(0.689 0.227)">
              <g id="Grupo_1214027" data-name="Grupo 1214027" transform="translate(3.811 9.094)">
                <path id="Trazado_1249128" data-name="Trazado 1249128" d="M151.264,179.194l-1.7-.443a3.656,3.656,0,0,0-1.842,0l-1.7.443a3.979,3.979,0,0,1-4.828-4.068h0a7.731,7.731,0,0,1,7.452-7.984h0a7.731,7.731,0,0,1,7.452,7.984h0A3.98,3.98,0,0,1,151.264,179.194Z" transform="translate(-141.189 -167.142)" fill="#ffcc34"/>
              </g>
              <path id="Trazado_1249129" data-name="Trazado 1249129" d="M163.754,181.169h-2.09v-2.091H160.29v2.091H158.2v1.374h2.091v2.09h1.374v-2.09h2.09Z" transform="translate(-149.714 -166.704)" fill="#122436"/>
              <g id="Grupo_1214028" data-name="Grupo 1214028" transform="translate(3.811 9.094)">
                <path id="Trazado_1249130" data-name="Trazado 1249130" d="M148.641,167.142h0a7.731,7.731,0,0,0-7.452,7.984h0a4.556,4.556,0,0,0,.053.694,7.656,7.656,0,0,1,7.4-7.029h0a7.656,7.656,0,0,1,7.4,7.029,4.554,4.554,0,0,0,.053-.694h0A7.732,7.732,0,0,0,148.641,167.142Z" transform="translate(-141.189 -167.142)" fill="#fff"/>
              </g>
              <g id="Grupo_1214037" data-name="Grupo 1214037">
                <g id="Grupo_1214033" data-name="Grupo 1214033">
                  <g id="Grupo_1214029" data-name="Grupo 1214029" transform="translate(0 4.958)">
                    <path id="Trazado_1249131" data-name="Trazado 1249131" d="M131.322,153.565c.96,1.352,1.013,3.028.117,3.743s-2.4.2-3.361-1.152-1.013-3.028-.117-3.743S130.361,152.213,131.322,153.565Z" transform="translate(-127.321 -152.09)" fill="#ffcc34"/>
                  </g>
                  <g id="Grupo_1214030" data-name="Grupo 1214030" transform="translate(0 4.958)">
                    <path id="Trazado_1249132" data-name="Trazado 1249132" d="M127.961,153.787c.9-.716,2.4-.2,3.361,1.152a4.161,4.161,0,0,1,.673,1.483,3.555,3.555,0,0,0-.673-2.857c-.96-1.352-2.465-1.868-3.361-1.152a2.21,2.21,0,0,0-.556,2.26A1.671,1.671,0,0,1,127.961,153.787Z" transform="translate(-127.322 -152.091)" fill="#fff"/>
                  </g>
                  <g id="Grupo_1214031" data-name="Grupo 1214031" transform="translate(4.862)">
                    <ellipse id="Elipse_12450" data-name="Elipse 12450" cx="2.267" cy="3.398" rx="2.267" ry="3.398" transform="translate(0 0.993) rotate(-12.656)" fill="#ffcc34"/>
                  </g>
                  <g id="Grupo_1214032" data-name="Grupo 1214032" transform="translate(5.483 0.461)">
                    <path id="Trazado_1249133" data-name="Trazado 1249133" d="M148.789,137.155c1.206-.338,2.552.864,3.005,2.685.041.167.074.334.1.5a4.761,4.761,0,0,0-.1-1.872c-.453-1.82-1.8-3.022-3.005-2.685-1.1.307-1.7,1.778-1.462,3.409A2.329,2.329,0,0,1,148.789,137.155Z" transform="translate(-147.276 -135.724)" fill="#fff"/>
                  </g>
                </g>
                <g id="Grupo_1214035" data-name="Grupo 1214035" transform="translate(12.373 0.461)">
                  <g id="Grupo_1214034" data-name="Grupo 1214034">
                    <path id="Trazado_1249134" data-name="Trazado 1249134" d="M172.5,138.465c-.453,1.82.157,3.569,1.364,3.907s2.552-.864,3.005-2.685-.157-3.569-1.364-3.907S172.952,136.644,172.5,138.465Z" transform="translate(-172.349 -135.723)" fill="#ffcc34"/>
                  </g>
                </g>
                <g id="Grupo_1214036" data-name="Grupo 1214036" transform="translate(12.373 0.461)">
                  <path id="Trazado_1249135" data-name="Trazado 1249135" d="M172.5,139.839c.453-1.82,1.8-3.022,3.005-2.685a2.329,2.329,0,0,1,1.462,2.035c.238-1.631-.366-3.1-1.462-3.409-1.206-.338-2.552.864-3.005,2.685a4.761,4.761,0,0,0-.1,1.872C172.425,140.172,172.458,140.006,172.5,139.839Z" transform="translate(-172.35 -135.723)" fill="#fff"/>
                </g>
              </g>
            </g>
            <g id="Grupo_1214046" data-name="Grupo 1214046">
              <g id="Grupo_1214039" data-name="Grupo 1214039" transform="translate(3.813 8.634)">
                <path id="Trazado_1249136" data-name="Trazado 1249136" d="M143.279,178.186a4.407,4.407,0,0,1-2.7-.935,4.925,4.925,0,0,1-1.889-3.939,8.155,8.155,0,1,1,16.277,0,4.925,4.925,0,0,1-1.889,3.939,4.376,4.376,0,0,1-3.8.794l-1.7-.442a2.98,2.98,0,0,0-1.5,0l-1.7.442A4.374,4.374,0,0,1,143.279,178.186Zm3.549-2.053a4.354,4.354,0,0,1,1.094.139l1.7.442a2.969,2.969,0,0,0,2.613-.551,3.561,3.561,0,0,0,1.355-2.852,6.784,6.784,0,1,0-13.529,0,3.561,3.561,0,0,0,1.355,2.852,2.971,2.971,0,0,0,2.613.551l1.7-.442A4.353,4.353,0,0,1,146.828,176.134Z" transform="translate(-138.689 -164.642)" fill="#122436"/>
              </g>
              <g id="Grupo_1214045" data-name="Grupo 1214045">
                <g id="Grupo_1214042" data-name="Grupo 1214042" transform="translate(0 0)">
                  <g id="Grupo_1214040" data-name="Grupo 1214040" transform="translate(0 4.499)">
                    <path id="Trazado_1249137" data-name="Trazado 1249137" d="M128.655,156.506a2.6,2.6,0,0,1-.361-.026,4,4,0,0,1-2.6-1.737c-1.186-1.67-1.179-3.724.015-4.678a2.274,2.274,0,0,1,1.753-.447,4,4,0,0,1,2.6,1.737c1.186,1.67,1.179,3.724-.015,4.678A2.208,2.208,0,0,1,128.655,156.506Zm-1.557-5.54a.822.822,0,0,0-.529.173c-.527.421-.555,1.678.248,2.808a2.714,2.714,0,0,0,1.668,1.173.892.892,0,0,0,.7-.159c.528-.421.555-1.678-.248-2.809a2.714,2.714,0,0,0-1.667-1.173A1.277,1.277,0,0,0,127.1,150.966Z" transform="translate(-124.813 -149.594)" fill="#122436"/>
                  </g>
                  <g id="Grupo_1214041" data-name="Grupo 1214041" transform="translate(5.483)">
                    <path id="Trazado_1249138" data-name="Trazado 1249138" d="M148.194,141.3a2.53,2.53,0,0,1-1.277-.365,4.635,4.635,0,0,1-1.977-2.9c-.551-2.211.26-4.291,1.845-4.734a2.4,2.4,0,0,1,1.88.282,4.636,4.636,0,0,1,1.977,2.9c.551,2.211-.26,4.291-1.845,4.735A2.232,2.232,0,0,1,148.194,141.3Zm-.807-6.706a.862.862,0,0,0-.231.031c-.729.2-1.271,1.519-.882,3.079a3.307,3.307,0,0,0,1.334,2.043,1.047,1.047,0,0,0,.819.146c.729-.2,1.271-1.519.882-3.079a3.305,3.305,0,0,0-1.335-2.043A1.17,1.17,0,0,0,147.387,134.6Z" transform="translate(-144.768 -133.222)" fill="#122436"/>
                  </g>
                </g>
                <g id="Grupo_1214044" data-name="Grupo 1214044" transform="translate(12.373)">
                  <g id="Grupo_1214043" data-name="Grupo 1214043">
                    <path id="Trazado_1249139" data-name="Trazado 1249139" d="M172.462,141.3a2.23,2.23,0,0,1-.6-.083c-1.585-.443-2.4-2.523-1.845-4.735h0a4.636,4.636,0,0,1,1.976-2.9,2.394,2.394,0,0,1,1.88-.282c1.586.443,2.4,2.523,1.845,4.735a4.637,4.637,0,0,1-1.977,2.9A2.532,2.532,0,0,1,172.462,141.3Zm.807-6.706a1.174,1.174,0,0,0-.588.178,3.3,3.3,0,0,0-1.334,2.042h0c-.389,1.56.153,2.875.882,3.079a1.047,1.047,0,0,0,.819-.146,3.305,3.305,0,0,0,1.335-2.043c.389-1.561-.153-2.876-.882-3.08A.859.859,0,0,0,173.269,134.6Z" transform="translate(-169.842 -133.221)" fill="#122436"/>
                  </g>
                </g>
              </g>
            </g>
            <g id="Grupo_1214047" data-name="Grupo 1214047" transform="translate(17.476 4.308)">
              <ellipse id="Elipse_12451" data-name="Elipse 12451" cx="3.007" cy="2.07" rx="3.007" ry="2.07" transform="translate(0 5.073) rotate(-57.521)" fill="#ffcc34"/>
            </g>
            <g id="Grupo_1214048" data-name="Grupo 1214048" transform="translate(18.457 5.185)">
              <path id="Trazado_1249140" data-name="Trazado 1249140" d="M192.739,154.938c.96-1.352,2.465-1.868,3.361-1.152a1.671,1.671,0,0,1,.556.886,2.21,2.21,0,0,0-.556-2.26c-.9-.716-2.4-.2-3.361,1.152a3.555,3.555,0,0,0-.673,2.857A4.17,4.17,0,0,1,192.739,154.938Z" transform="translate(-191.983 -152.089)" fill="#fff"/>
            </g>
            <g id="Grupo_1214049" data-name="Grupo 1214049" transform="translate(17.768 4.499)">
              <path id="Trazado_1249141" data-name="Trazado 1249141" d="M191.766,156.506a2.209,2.209,0,0,1-1.392-.472c-1.194-.954-1.2-3.008-.015-4.678a4,4,0,0,1,2.6-1.737,2.276,2.276,0,0,1,1.753.446c1.194.954,1.2,3.009.015,4.678a4,4,0,0,1-2.6,1.737A2.6,2.6,0,0,1,191.766,156.506Zm1.557-5.54a1.284,1.284,0,0,0-.177.013,2.714,2.714,0,0,0-1.667,1.173c-.8,1.13-.775,2.388-.248,2.808a.889.889,0,0,0,.7.159,2.713,2.713,0,0,0,1.668-1.173c.8-1.13.775-2.387.248-2.809A.82.82,0,0,0,193.323,150.966Z" transform="translate(-189.473 -149.594)" fill="#122436"/>
            </g>
          </g>
        </g>
      </g>
    </g>
  </g>
</svg>
