<svg xmlns="http://www.w3.org/2000/svg" width="127" height="384.102" viewBox="0 0 127 384.102">
  <g id="Grupo_1213997" data-name="Grupo 1213997" transform="translate(-601.051 -20211)">
    <rect id="Rect치ngulo_411051" data-name="Rect치ngulo 411051" width="127" height="384.102" transform="translate(601.051 20211)" fill="#9f9d93"/>
    <g id="Grupo_1213996" data-name="Grupo 1213996" transform="translate(614.051 20355.754)">
      <g id="Grupo_1201016" data-name="Grupo 1201016" transform="translate(0 23.246)">
        <g id="Rect치ngulo_410589" data-name="Rect치ngulo 410589" fill="#7f7b69" stroke="#767366" stroke-width="1">
          <rect width="100.26" height="48.544" rx="8" stroke="none"/>
          <rect x="0.5" y="0.5" width="99.26" height="47.544" rx="7.5" fill="none"/>
        </g>
      </g>
    </g>
    <g id="Uptrend-trend-bull_market-investment-data_analytics" data-name="Uptrend-trend-bull market-investment-data analytics" transform="translate(632.051 20371)">
      <path id="Trazado_1249102" data-name="Trazado 1249102" d="M61,11V57a4,4,0,0,1-4,4H7a4,4,0,0,1-4-4V11Z" fill="#5aaae7"/>
      <path id="Trazado_1249103" data-name="Trazado 1249103" d="M45.56,18.48A2.992,2.992,0,0,0,43.6,20.6L43,23H40.4L40,21H28l-.39,2H25l-.6-2.4a2.992,2.992,0,0,0-1.96-2.12L21,18v5a4,4,0,0,0,4,4h2.25L30,37h8l2.73-10H43a4,4,0,0,0,4-4V18Z" fill="#3d9ae2"/>
      <path id="Trazado_1249104" data-name="Trazado 1249104" d="M45,16v5a4,4,0,0,1-4,4H37.73L38,24l-.6-3H41l.6-2.4a2.992,2.992,0,0,1,1.96-2.12Z" fill="#cc7400"/>
      <path id="Trazado_1249105" data-name="Trazado 1249105" d="M26,24.08l.25.92H23a4,4,0,0,1-4-4V16l1.44.48A2.992,2.992,0,0,1,22.4,18.6L23,21h3.61Z" fill="#cc7400"/>
      <path id="Trazado_1249106" data-name="Trazado 1249106" d="M41,24l-.27,1h-3L38,24l-.6-3h3Z" fill="#aa6100"/>
      <path id="Trazado_1249107" data-name="Trazado 1249107" d="M26,24.08l.25.92h-3L23,24.08,23.61,21h3Z" fill="#aa6100"/>
      <path id="Trazado_1249108" data-name="Trazado 1249108" d="M38.4,21,38,19H26l-.39,2L25,24.08l.25.92L28,35h8l2.73-10L39,24Z" fill="#ff9811"/>
      <path id="Trazado_1249109" data-name="Trazado 1249109" d="M34,31l2,4H28l2-4Z" fill="#ee8700"/>
      <path id="Trazado_1249110" data-name="Trazado 1249110" d="M61,7v4H3V7A4,4,0,0,1,7,3H57A4,4,0,0,1,61,7Z" fill="#ff6243"/>
      <path id="Trazado_1249111" data-name="Trazado 1249111" d="M54,54v2H11a1,1,0,0,1-1-1V30h2V54h2V48h2v6h2V50h2v4h2V48h2v6h2V45h2v9h2V48h2v6h2V47h2v7h2V46h2v8h2V44h2V54h2V42h2V54h2V38h2V54Z"/>
      <path id="Trazado_1249112" data-name="Trazado 1249112" d="M15.385,45.923l11.683-4.868,10.669,2.91a1,1,0,0,0,.941-.231L50,33.283V35h2V31a1,1,0,0,0-1-1H47v2h1.443L37.729,41.89,27.263,39.035a1,1,0,0,0-.648.042l-12,5Z"/>
      <path id="Trazado_1249113" data-name="Trazado 1249113" d="M60,57a3,3,0,0,1-3,3H7a3,3,0,0,1-3-3V18H2V57a5.006,5.006,0,0,0,5,5H57a5.006,5.006,0,0,0,5-5V53H60Z"/>
      <path id="Trazado_1249114" data-name="Trazado 1249114" d="M57,2H7A5,5,0,0,0,2,7v9H4V12H60V51h2V7a5,5,0,0,0-5-5Zm3,8H4V7A3.009,3.009,0,0,1,7,4H57a3.009,3.009,0,0,1,3,3Z"/>
      <path id="Trazado_1249115" data-name="Trazado 1249115" d="M8,6h2V8H8Z"/>
      <path id="Trazado_1249116" data-name="Trazado 1249116" d="M12,6h2V8H12Z"/>
      <path id="Trazado_1249117" data-name="Trazado 1249117" d="M16,6h2V8H16Z"/>
      <path id="Trazado_1249118" data-name="Trazado 1249118" d="M45.58,15.19a1,1,0,0,0-.9-.14l-1.43.48a3.977,3.977,0,0,0-2.62,2.83L40.22,20h-1l-.24-1.2A1,1,0,0,0,38,18H26a1,1,0,0,0-.98.81L24.78,20h-1l-.41-1.64a3.983,3.983,0,0,0-2.61-2.83l-1.44-.48a1,1,0,0,0-.9.14A.983.983,0,0,0,18,16v5a5,5,0,0,0,5,5h1.49l2.55,9.26A.985.985,0,0,0,28,36h8a.985.985,0,0,0,.96-.74L39.49,26H41a5,5,0,0,0,5-5V16a.983.983,0,0,0-.42-.81ZM24.02,23.88c-.01.04.01.08,0,.12H23a3.009,3.009,0,0,1-3-3V17.39l.13.04a1.969,1.969,0,0,1,1.3,1.41l.6,2.4A1,1,0,0,0,23,22h1.39ZM29.62,34l1-2h2.76l1,2Zm6.1-1.79L35,30.76V25.41l1.71-1.7-1.42-1.42-2,2A1.033,1.033,0,0,0,33,25v5H31V26a.967.967,0,0,0-.17-.55l-2-3-1.66,1.1L29,26.3v4.46l-.73,1.46-2.24-8.18L26.82,20H37.18l.79,3.96ZM44,21a3.009,3.009,0,0,1-3,3H39.97a1.34,1.34,0,0,0,.01-.2L39.62,22H41a1,1,0,0,0,.97-.76l.6-2.4a1.963,1.963,0,0,1,1.31-1.41l.12-.04Z"/>
    </g>
  </g>
</svg>
