<svg xmlns="http://www.w3.org/2000/svg" width="174.949" height="97.926" viewBox="0 0 174.949 97.926">
  <g id="Grupo_1213982" data-name="Grupo 1213982" transform="translate(-405.051 -18359)">
    <g id="Grupo_1213258" data-name="Grupo 1213258" transform="translate(405.051 18384.563)">
      <g id="Grupo_1201016" data-name="Grupo 1201016">
        <g id="Rectángulo_410589" data-name="Rectángulo 410589" fill="#93795a" stroke="#695640" stroke-width="1">
          <rect width="174.949" height="48.544" rx="8" stroke="none"/>
          <rect x="0.5" y="0.5" width="173.949" height="47.544" rx="7.5" fill="none"/>
        </g>
      </g>
    </g>
    <g id="goal_15537990" transform="translate(449.603 18359)">
      <g id="Grupo_1213980" data-name="Grupo 1213980" transform="translate(0.961 1.039)">
        <g id="Grupo_1213978" data-name="Grupo 1213978" transform="translate(0 3.169)">
          <ellipse id="Elipse_12445" data-name="Elipse 12445" cx="37.705" cy="43.078" rx="37.705" ry="43.078" fill="#fe5358"/>
          <path id="Trazado_1249077" data-name="Trazado 1249077" d="M291.517,40.1a17.5,17.5,0,0,0-2.37,12.515,25.117,25.117,0,0,1,5.249,3.035l4.031-3.824c-1.283-3.948-5.33-6.7-2.928-10.1A37.443,37.443,0,0,0,291.517,40.1Z" transform="translate(-241.562 -38.065)" fill="#d13b42"/>
          <path id="Trazado_1249078" data-name="Trazado 1249078" d="M363.734,140.33c-4.488-1.258-4.855-1.275-8.883-2.567l-5.045,3.66a25.226,25.226,0,0,1,3.033,5.248,17.573,17.573,0,0,0,3.209.3h0a17.492,17.492,0,0,0,9.307-2.654A37.554,37.554,0,0,0,363.734,140.33Z" transform="translate(-291.975 -115.759)" fill="#d13b42"/>
          <ellipse id="Elipse_12446" data-name="Elipse 12446" cx="25.17" cy="30.543" rx="25.17" ry="30.543" transform="translate(12.535 12.535)" fill="#eef8ff"/>
          <path id="Trazado_1249079" data-name="Trazado 1249079" d="M209.517,112.422a17.832,17.832,0,0,0,.549,2.182l.137.426L194.636,130.6a7.074,7.074,0,0,0,.243,10.236,7,7,0,0,0,4.727,1.821,7.25,7.25,0,0,0,5.09-2.11l15.51-15.51.426.136a17.621,17.621,0,0,0,2.167.544,25.253,25.253,0,0,0-13.281-13.291Z" transform="translate(-161.932 -94.414)" fill="#91caed"/>
          <circle id="Elipse_12447" data-name="Elipse 12447" cx="12.834" cy="12.834" r="12.834" transform="translate(24.872 30.244)" fill="#fe5358"/>
          <path id="Trazado_1249080" data-name="Trazado 1249080" d="M204.7,191.162l7.516-7.516a12.867,12.867,0,0,0-1.7-4.259l-4.033-4.05a12.8,12.8,0,0,0-4.244-1.707l-.01,0-7.587,7.587a7.074,7.074,0,0,0,.243,10.236,7,7,0,0,0,4.727,1.821A7.25,7.25,0,0,0,204.7,191.162Z" transform="translate(-161.932 -143.65)" fill="#d13b42"/>
        </g>
        <path id="Trazado_1249081" data-name="Trazado 1249081" d="M111.119,356.323v17.826a1.6,1.6,0,0,1-1.595,1.595H85.489a1.594,1.594,0,0,1-1.595-1.595V356.323a1.594,1.594,0,0,1,1.595-1.595H101.2a1.6,1.6,0,0,0,1.128-.467l4.979-4.979v3.852a1.6,1.6,0,0,0,1.595,1.595h.622a1.6,1.6,0,0,1,1.595,1.595Z" transform="translate(-72.06 -279.848)" fill="#91cd00"/>
        <path id="Trazado_1249082" data-name="Trazado 1249082" d="M108.263,410.735V398.15h13.091a5.767,5.767,0,0,0,3.853-1.461,5.814,5.814,0,0,0,1.85,1.107v12.94H108.263Z" transform="translate(-92.213 -319.054)" fill="#abe200"/>
        <path id="Trazado_1249083" data-name="Trazado 1249083" d="M340.329,290.644v16.8a2.107,2.107,0,0,1-2.108,2.108H315.213a2.108,2.108,0,0,1-2.108-2.108V297.9l-5.444-5.444h5.444v-1.812a2.108,2.108,0,0,1,2.108-2.108h23.009A2.107,2.107,0,0,1,340.329,290.644Z" transform="translate(-257.12 -232.283)" fill="#91cd00"/>
        <path id="Trazado_1249084" data-name="Trazado 1249084" d="M363.5,312.9H382.3V325.49H363.5Z" transform="translate(-303.302 -252.748)" fill="#abe200"/>
        <path id="Trazado_1249085" data-name="Trazado 1249085" d="M126.2,422.154a2.107,2.107,0,0,1-1.49-.617l-3.093-3.093a2.108,2.108,0,0,1,2.981-2.981l1.6,1.6,5.588-5.588a2.108,2.108,0,0,1,2.981,2.981l-7.079,7.079A2.107,2.107,0,0,1,126.2,422.154Z" transform="translate(-102.749 -330.775)" fill="#33a6fb"/>
        <path id="Trazado_1249086" data-name="Trazado 1249086" d="M384.171,327.937a2.107,2.107,0,0,1-1.49-.617l-3.093-3.093a2.108,2.108,0,0,1,2.981-2.981l1.6,1.6,5.588-5.588a2.108,2.108,0,0,1,2.981,2.981l-7.079,7.079A2.107,2.107,0,0,1,384.171,327.937Z" transform="translate(-316.095 -255.883)" fill="#33a6fb"/>
        <g id="Grupo_1213979" data-name="Grupo 1213979" transform="translate(34.847)">
          <path id="Trazado_1249087" data-name="Trazado 1249087" d="M325.435,20.86l-2.075,6.9-8.551,3.727-.922-2.875a13.391,13.391,0,0,1,3.282-13.558l4.435-4.435a2.1,2.1,0,0,1,3.345.49c1.381,2.6,2.905,6.8.486,9.752Z" transform="translate(-296.587 -10)" fill="#fcdc45"/>
          <path id="Trazado_1249088" data-name="Trazado 1249088" d="M313.887,52.775l.922,2.875,5.519-2.487.874-3.907L317.17,39.217h0a13.391,13.391,0,0,0-3.282,13.558Z" transform="translate(-296.587 -34.163)" fill="#ffa400"/>
          <path id="Trazado_1249089" data-name="Trazado 1249089" d="M356.273,90.061,349.466,94.5l-3.819,6.185,2.875.922a13.391,13.391,0,0,0,13.558-3.282l4.435-4.435a2.1,2.1,0,0,0-.49-3.345c-2.6-1.381-6.8-2.905-9.752-.486Z" transform="translate(-323.382 -75.158)" fill="#fcdc45"/>
          <path id="Trazado_1249090" data-name="Trazado 1249090" d="M217.768,82.158a2.859,2.859,0,0,0,.1,4.138,2.912,2.912,0,0,0,4-.152l31.015-31.015a2.859,2.859,0,0,0,0-4.043h0a2.859,2.859,0,0,0-4.043,0Z" transform="translate(-216.931 -43.286)" fill="#7f4c60"/>
        </g>
      </g>
      <g id="Grupo_1213981" data-name="Grupo 1213981" transform="translate(0 0)">
        <path id="Trazado_1249091" data-name="Trazado 1249091" d="M126.16,405.573l-4.852,4.851-.868-.868A3.144,3.144,0,0,0,115.994,414l3.091,3.091a3.144,3.144,0,0,0,4.447,0l7.075-7.075a3.144,3.144,0,0,0-4.446-4.447Zm2.979,2.979-7.075,7.075a1.076,1.076,0,0,1-.756.313,1.061,1.061,0,0,1-.755-.313l-3.091-3.091a1.062,1.062,0,0,1-.313-.756,1.076,1.076,0,0,1,1.068-1.068,1.065,1.065,0,0,1,.755.312l1.6,1.6a1.044,1.044,0,0,0,1.468,0l5.585-5.585A1.069,1.069,0,0,1,129.139,408.552Z" transform="translate(-96.884 -324.603)" fill="#12263f"/>
        <path id="Trazado_1249092" data-name="Trazado 1249092" d="M383.99,311.406l-4.852,4.851-.868-.868a3.144,3.144,0,0,0-4.447,4.447l3.091,3.091a3.144,3.144,0,0,0,4.447,0l7.075-7.075a3.144,3.144,0,0,0-4.447-4.447Zm2.979,2.979-7.075,7.075a1.068,1.068,0,0,1-1.511,0l-3.091-3.091a1.062,1.062,0,0,1-.313-.756,1.069,1.069,0,0,1,1.824-.756l1.6,1.6a1.044,1.044,0,0,0,1.468,0l5.585-5.585A1.069,1.069,0,0,1,386.969,314.385Z" transform="translate(-310.115 -249.753)" fill="#12263f"/>
        <path id="Trazado_1249093" data-name="Trazado 1249093" d="M91.964,58.087H86.8a48.36,48.36,0,0,0-2.886-24.864c.887-.719,4.793-5.274,5.66-6.205a3.782,3.782,0,0,0,.887-3.026,3.492,3.492,0,0,0-1.624-2.583,12.887,12.887,0,0,0-6.465-2.1,4.788,4.788,0,0,0,.025-6.215,3.606,3.606,0,0,0-5.533.028A17.244,17.244,0,0,0,75,5.859a3.136,3.136,0,0,0-2.3-1.824,2.917,2.917,0,0,0-2.694,1c-.844.992-4.856,5.329-5.52,6.347-14.315-7.426-32.24-3.792-43.275,8.914-15.254,16.637-15,45.711.486,62.041V98.967a2.811,2.811,0,0,0,2.632,2.956H48.348a2.811,2.811,0,0,0,2.632-2.956V94.459A36.622,36.622,0,0,0,73.848,84.013H91.964a3.359,3.359,0,0,0,3.144-3.532V61.618a3.359,3.359,0,0,0-3.144-3.532ZM85.237,51.05a46.52,46.52,0,0,1-.536,7.037H74.025a32.686,32.686,0,0,0-2.833-21.906A12.984,12.984,0,0,0,82.177,34.56a45.121,45.121,0,0,1,3.06,16.489ZM66.861,58.087a1.107,1.107,0,0,0-1.038,1.166c0,.618,0,2.652,0,3.235h-4.4a1.194,1.194,0,0,0-.734,1.99l5.029,5.648A23.015,23.015,0,0,1,50.98,78.01v-.847A1.107,1.107,0,0,0,49.942,76c-.454.005-1.788,0-2.215,0a.594.594,0,0,1-.556-.625V71.05a1.031,1.031,0,0,0-1.772-.824l-4.975,5.588a.524.524,0,0,1-.393.183h-.859c-9.3-4.432-15.191-14.988-14.669-26.344.9-21.3,22.814-33.1,38.177-20.6L55.256,37.4c-7.947-5.072-18.536.395-20.244,10.5-1.851,9.507,4.937,18.828,13.582,18.724,10.3.118,17.28-12.755,12.161-23.032l7.427-8.342a29.945,29.945,0,0,1,3.7,22.836H66.861ZM65.935,13.08l.036-.052,3.146,8.8-4.7,5.282c-.132-.471-.463-1.586-.567-2.043A15.29,15.29,0,0,1,65.935,13.08Zm-5.8,40.647c-3.8,17.056-25.62,11.991-23.091-5.356,1.488-8.441,9.963-12.99,16.673-9.248l-7.882,8.853a4.631,4.631,0,0,0-1.14,3.2c.036,2.883,2.607,4.934,5.045,4.054A4.049,4.049,0,0,0,51.4,54.1c.839-.941,7.143-8.026,7.815-8.779a14.64,14.64,0,0,1,.919,8.406Zm27.731-30.26a1.29,1.29,0,0,1,.243,1.9l-4.433,4.979a11.473,11.473,0,0,1-12.5,3.4L69.923,33.3,79.3,22.76c1.119-1,3.695-2.2,8.564.707Zm-9.507-8.725a1.683,1.683,0,0,1,2.573,0,2.237,2.237,0,0,1,0,2.89c-8.544,9.6-22.481,25.253-31,34.819a1.766,1.766,0,0,1-2.127.457,2.178,2.178,0,0,1-.737-2.96C56.1,39.633,69.216,25.071,78.359,14.743ZM71.472,6.681a1,1,0,0,1,.919-.34,1.053,1.053,0,0,1,.774.612c2.587,5.47,1.523,8.363.629,9.62l-3.081,3.46-3.189-8.918ZM15.038,67.631c-13.319-34.216,17.79-69.2,48.255-54.3a17.861,17.861,0,0,0-1.451,12.33A24.073,24.073,0,0,0,31.047,29.2C18.114,41.87,20.164,66.113,34.7,76H24.327a2.82,2.82,0,0,0-2.632,3.01,41.72,41.72,0,0,1-6.657-11.376ZM48.9,98.966a.594.594,0,0,1-.556.625H24.327a.594.594,0,0,1-.556-.625V78.953a.594.594,0,0,1,.556-.625H38.963c.4,0,1.335,0,1.728,0a.984.984,0,0,0,.734-.341l.466-.524,3.2-3.6v3.3a1.107,1.107,0,0,0,1.038,1.166h2.215a.594.594,0,0,1,.556.625Zm2.076-6.845V80.349a24.683,24.683,0,0,0,14.843-7.141v7.273a3.359,3.359,0,0,0,3.144,3.532h1.567A34.361,34.361,0,0,1,50.98,92.122ZM93.033,80.481a1.141,1.141,0,0,1-1.069,1.2h-23a1.141,1.141,0,0,1-1.068-1.2V69.766a1.242,1.242,0,0,0-.3-.824l-3.67-4.122h2.936A1.107,1.107,0,0,0,67.9,63.653V61.618a1.141,1.141,0,0,1,1.068-1.2h23a1.141,1.141,0,0,1,1.069,1.2V80.481Z" transform="translate(-9.922 -3.995)" fill="#12263f"/>
      </g>
    </g>
  </g>
</svg>
