<svg xmlns="http://www.w3.org/2000/svg" xmlns:xlink="http://www.w3.org/1999/xlink" width="208.051" height="119.263" viewBox="0 0 208.051 119.263">
  <defs>
    <filter id="influencer-their-pet-creating-content-online-spaces-social-media" x="0" y="32" width="208.051" height="87" filterUnits="userSpaceOnUse">
      <feOffset dy="3" input="SourceAlpha"/>
      <feGaussianBlur stdDeviation="3" result="blur"/>
      <feFlood flood-opacity="0.161"/>
      <feComposite operator="in" in2="blur"/>
      <feComposite in="SourceGraphic"/>
    </filter>
    <filter id="Rect치ngulo_401593" x="42.457" y="0" width="71.898" height="119.263" filterUnits="userSpaceOnUse">
      <feOffset dy="3" input="SourceAlpha"/>
      <feGaussianBlur stdDeviation="3" result="blur-2"/>
      <feFlood flood-opacity="0.161"/>
      <feComposite operator="in" in2="blur-2"/>
      <feComposite in="SourceGraphic"/>
    </filter>
  </defs>
  <g id="Grupo_1213081" data-name="Grupo 1213081" transform="translate(-1220.949 -2117)">
    <g transform="matrix(1, 0, 0, 1, 1220.95, 2117)" filter="url(#influencer-their-pet-creating-content-online-spaces-social-media)">
      <path id="influencer-their-pet-creating-content-online-spaces-social-media-2" data-name="influencer-their-pet-creating-content-online-spaces-social-media" d="M0,0H190.051V69H0Z" transform="translate(9 38)" fill="#695640"/>
    </g>
    <g id="Grupo_1182090" data-name="Grupo 1182090" transform="translate(1031.625 -3625)">
      <g transform="matrix(1, 0, 0, 1, 189.32, 5742)" filter="url(#Rect치ngulo_401593)">
        <rect id="Rect치ngulo_401593-2" data-name="Rect치ngulo 401593" width="53.898" height="101.263" rx="8" transform="translate(51.46 6)" fill="#ff9800"/>
      </g>
    </g>
    <g id="horses_3689375" transform="translate(1272.407 2124.505)">
      <path id="Trazado_1248307" data-name="Trazado 1248307" d="M1,54.495H8.087v5.3H1Z" transform="translate(0.769 37.571)" fill="#656d78"/>
      <path id="Trazado_1248308" data-name="Trazado 1248308" d="M30.42,40.5l-7.35,12.421.018,12.3H16V40.5Z" transform="translate(12.272 26.843)" fill="#ffd2a6"/>
      <g id="Grupo_1213858" data-name="Grupo 1213858" transform="translate(28.274 14.342)">
        <path id="Trazado_1248309" data-name="Trazado 1248309" d="M16,54.495h7.085v5.3H16Z" transform="translate(-16.002 23.229)" fill="#656d78"/>
        <path id="Trazado_1248310" data-name="Trazado 1248310" d="M25,54.505h7.067v5.283H25Z" transform="translate(-9.1 23.237)" fill="#656d78"/>
        <path id="Trazado_1248311" data-name="Trazado 1248311" d="M40,54.505h7.067v5.283H40Z" transform="translate(2.403 23.237)" fill="#656d78"/>
        <path id="Trazado_1248312" data-name="Trazado 1248312" d="M41.938,10.505h6.944l.106.053-2.933,5.831-6.272-1.555Z" transform="translate(2.234 -10.505)" fill="#656d78"/>
      </g>
      <path id="Trazado_1248313" data-name="Trazado 1248313" d="M34.037,59.511l1.749-30.037H53.473l3.534-8.834-4.718-1.184,2.933-5.831,3.551-7.12,3.534,7.067,21.2,5.3-3.534,8.834H62.289L60.54,57.744a7.066,7.066,0,0,1-7.067,7.067v26.5H46.405v-26.5H31.652A7.08,7.08,0,0,0,34.037,59.511Z" transform="translate(24.273 0.769)" fill="#ffd2a6"/>
      <path id="Trazado_1248314" data-name="Trazado 1248314" d="M38.42,11.558,26.069,36.241H19L31.37,11.505h6.944Z" transform="translate(14.573 4.604)" fill="#656d78"/>
      <path id="Trazado_1248315" data-name="Trazado 1248315" d="M80.511,19.873l-3.534,8.834H59.291L57.541,58.744a7.055,7.055,0,0,1-7.067,7.067V90.548H43.407V65.812H16.48L8.069,80l.018,10.53H1v-49a12.358,12.358,0,0,1,7.085-2.226H39.873l12.35-24.683L55.775,7.5l3.534,7.067,10.212,2.562,6.272,1.555Z" transform="translate(0.769 1.536)" fill="#965353"/>
      <path id="Trazado_1248316" data-name="Trazado 1248316" d="M20.786,73.062A1.768,1.768,0,0,1,19.019,71.3L19,53.693a1.759,1.759,0,0,1,.247-.9L26.6,40.368a1.766,1.766,0,1,1,3.04,1.8l-7.1,12.009.016,17.118a1.767,1.767,0,0,1-1.765,1.769Z" transform="translate(14.574 26.072)"/>
      <path id="Trazado_1248317" data-name="Trazado 1248317" d="M16.774,73.062a1.766,1.766,0,0,1-1.767-1.767L15,41.269A1.767,1.767,0,0,1,16.765,39.5h0a1.767,1.767,0,0,1,1.767,1.765l.007,30.03a1.766,1.766,0,0,1-1.767,1.767Z" transform="translate(11.504 26.072)"/>
      <path id="Trazado_1248318" data-name="Trazado 1248318" d="M23.854,57.029H16.771a1.767,1.767,0,1,1,0-3.534h7.083a1.767,1.767,0,1,1,0,3.534Z" transform="translate(11.507 36.804)"/>
      <path id="Trazado_1248319" data-name="Trazado 1248319" d="M44.1,22a1.767,1.767,0,0,1-1.579-2.557L49,6.479A1.767,1.767,0,1,1,52.16,8.059l-6.483,12.96A1.767,1.767,0,0,1,44.1,22Z" transform="translate(32.462)"/>
      <path id="Trazado_1248320" data-name="Trazado 1248320" d="M40.543,17.358A1.767,1.767,0,0,1,38.964,14.8l2.162-4.322a1.767,1.767,0,1,1,3.161,1.581l-2.162,4.322A1.767,1.767,0,0,1,40.543,17.358Z" transform="translate(29.738 3.067)"/>
      <path id="Trazado_1248321" data-name="Trazado 1248321" d="M51.3,16.1a1.764,1.764,0,0,1-1.582-.978L46.185,8.057A1.766,1.766,0,1,1,49.346,6.48l3.529,7.067A1.767,1.767,0,0,1,51.3,16.1Z" transform="translate(35.276 0)"/>
      <path id="Trazado_1248322" data-name="Trazado 1248322" d="M70.97,18.341a1.768,1.768,0,0,1-.431-.053L49.333,12.982a1.766,1.766,0,1,1,.859-3.427L71.4,14.861a1.767,1.767,0,0,1-.428,3.48Z" transform="translate(36.807 3.068)"/>
      <path id="Trazado_1248323" data-name="Trazado 1248323" d="M59.766,24.873a1.767,1.767,0,0,1-1.641-2.423l3.532-8.834a1.767,1.767,0,0,1,3.282,1.311l-3.532,8.834A1.766,1.766,0,0,1,59.766,24.873Z" transform="translate(44.478 5.37)"/>
      <path id="Trazado_1248324" data-name="Trazado 1248324" d="M67.437,21.039H49.762a1.767,1.767,0,0,1,0-3.534H67.437a1.767,1.767,0,1,1,0,3.534Z" transform="translate(36.806 9.205)"/>
      <path id="Trazado_1248325" data-name="Trazado 1248325" d="M48.77,51.067c-.035,0-.069,0-.105,0a1.766,1.766,0,0,1-1.66-1.867L48.76,19.169a1.744,1.744,0,0,1,1.867-1.66,1.766,1.766,0,0,1,1.66,1.867L50.532,49.4a1.767,1.767,0,0,1-1.762,1.663Z" transform="translate(36.045 9.204)"/>
      <path id="Trazado_1248326" data-name="Trazado 1248326" d="M44.769,45.1a1.767,1.767,0,1,1,0-3.534,5.306,5.306,0,0,0,5.3-5.3,1.767,1.767,0,1,1,3.534,0A8.845,8.845,0,0,1,44.769,45.1Z" transform="translate(32.977 22.238)"/>
      <path id="Trazado_1248327" data-name="Trazado 1248327" d="M44.766,73.834A1.766,1.766,0,0,1,43,72.067v-31.8a1.767,1.767,0,1,1,3.534,0v31.8a1.766,1.766,0,0,1-1.767,1.767Z" transform="translate(32.975 25.305)"/>
      <path id="Trazado_1248328" data-name="Trazado 1248328" d="M40.765,73.834A1.766,1.766,0,0,1,39,72.067v-31.8a1.767,1.767,0,1,1,3.534,0v31.8a1.766,1.766,0,0,1-1.767,1.767Z" transform="translate(29.907 25.305)"/>
      <path id="Trazado_1248329" data-name="Trazado 1248329" d="M47.834,57.031H40.765a1.767,1.767,0,1,1,0-3.534h7.069a1.767,1.767,0,0,1,0,3.534Z" transform="translate(29.907 36.806)"/>
      <path id="Trazado_1248330" data-name="Trazado 1248330" d="M47.169,42.034H32.413a1.767,1.767,0,0,1,0-3.534H47.169a1.767,1.767,0,1,1,0,3.534Z" transform="translate(23.502 25.305)"/>
      <path id="Trazado_1248331" data-name="Trazado 1248331" d="M48.709,13.036H41.768a1.767,1.767,0,1,1,0-3.534h6.941a1.767,1.767,0,1,1,0,3.534Z" transform="translate(30.676 3.068)"/>
      <path id="Trazado_1248332" data-name="Trazado 1248332" d="M1.768,30.263A1.767,1.767,0,0,1,.753,27.049a14.04,14.04,0,0,1,8.1-2.547,1.767,1.767,0,1,1,0,3.534,10.526,10.526,0,0,0-6.07,1.908,1.758,1.758,0,0,1-1.011.319Z" transform="translate(0 14.571)"/>
      <path id="Trazado_1248333" data-name="Trazado 1248333" d="M10.522,46.1A1.767,1.767,0,0,1,9.072,43.32a10.54,10.54,0,0,0,1.895-6.048,1.767,1.767,0,0,1,3.534,0,14.059,14.059,0,0,1-2.526,8.066,1.766,1.766,0,0,1-1.453.757Z" transform="translate(6.715 23.009)"/>
      <path id="Trazado_1248334" data-name="Trazado 1248334" d="M5.786,73.062A1.768,1.768,0,0,1,4.019,71.3L4,55.46a1.759,1.759,0,0,1,.247-.9l8.4-14.192a1.766,1.766,0,1,1,3.04,1.8L7.538,55.942l.016,15.351a1.766,1.766,0,0,1-1.765,1.769Z" transform="translate(3.071 26.072)"/>
      <path id="Trazado_1248335" data-name="Trazado 1248335" d="M1.774,72.295A1.766,1.766,0,0,1,.007,70.528L0,42.269A1.767,1.767,0,0,1,1.765,40.5h0a1.767,1.767,0,0,1,1.767,1.765l.007,28.263a1.766,1.766,0,0,1-1.767,1.767Z" transform="translate(0.001 26.839)"/>
      <path id="Trazado_1248336" data-name="Trazado 1248336" d="M8.854,57.029H1.771a1.767,1.767,0,1,1,0-3.534H8.854a1.767,1.767,0,1,1,0,3.534Z" transform="translate(0.004 36.804)"/>
      <path id="Trazado_1248337" data-name="Trazado 1248337" d="M37.559,28.036H5.775a1.767,1.767,0,1,1,0-3.534H37.559a1.767,1.767,0,1,1,0,3.534Z" transform="translate(3.074 14.571)"/>
      <path id="Trazado_1248338" data-name="Trazado 1248338" d="M23.762,41.84a1.767,1.767,0,0,1-1.579-2.557l15.905-31.8A1.767,1.767,0,1,1,41.25,9.059l-15.905,31.8a1.767,1.767,0,0,1-1.582.977Z" transform="translate(16.869 0.767)"/>
      <path id="Trazado_1248339" data-name="Trazado 1248339" d="M19.764,38.772a1.767,1.767,0,0,1-1.579-2.557L30.557,11.479a1.767,1.767,0,1,1,3.161,1.581L21.347,37.8A1.767,1.767,0,0,1,19.764,38.772Z" transform="translate(13.803 3.834)"/>
      <path id="Trazado_1248340" data-name="Trazado 1248340" d="M36.3,17.1a1.764,1.764,0,0,1-1.582-.978L31.185,9.057A1.766,1.766,0,0,1,34.346,7.48l3.529,7.067A1.767,1.767,0,0,1,36.3,17.1Z" transform="translate(23.773 0.767)"/>
      <path id="Trazado_1248341" data-name="Trazado 1248341" d="M55.97,19.341a1.768,1.768,0,0,1-.431-.053L34.333,13.982a1.766,1.766,0,0,1,.859-3.427L56.4,15.861a1.767,1.767,0,0,1-.428,3.48Z" transform="translate(25.304 3.835)"/>
      <path id="Trazado_1248342" data-name="Trazado 1248342" d="M44.766,25.873a1.767,1.767,0,0,1-1.641-2.423l3.532-8.834a1.767,1.767,0,1,1,3.282,1.311l-3.532,8.834A1.766,1.766,0,0,1,44.766,25.873Z" transform="translate(32.975 6.137)"/>
      <path id="Trazado_1248343" data-name="Trazado 1248343" d="M52.437,22.039H34.762a1.767,1.767,0,0,1,0-3.534H52.437a1.767,1.767,0,0,1,0,3.534Z" transform="translate(25.303 9.972)"/>
      <path id="Trazado_1248344" data-name="Trazado 1248344" d="M33.77,52.067c-.035,0-.069,0-.105,0a1.766,1.766,0,0,1-1.66-1.867L33.76,20.169a1.741,1.741,0,0,1,1.867-1.66,1.766,1.766,0,0,1,1.66,1.867L35.532,50.4a1.767,1.767,0,0,1-1.762,1.663Z" transform="translate(24.542 9.971)"/>
      <path id="Trazado_1248345" data-name="Trazado 1248345" d="M29.769,46.1a1.767,1.767,0,0,1,0-3.534,5.306,5.306,0,0,0,5.3-5.3,1.767,1.767,0,1,1,3.534,0A8.845,8.845,0,0,1,29.769,46.1Z" transform="translate(21.474 23.005)"/>
      <path id="Trazado_1248346" data-name="Trazado 1248346" d="M29.766,73.067A1.766,1.766,0,0,1,28,71.3V41.267a1.767,1.767,0,1,1,3.534,0V71.3a1.766,1.766,0,0,1-1.767,1.767Z" transform="translate(21.472 26.072)"/>
      <path id="Trazado_1248347" data-name="Trazado 1248347" d="M25.765,73.067A1.766,1.766,0,0,1,24,71.3V41.267a1.767,1.767,0,1,1,3.534,0V71.3a1.766,1.766,0,0,1-1.767,1.767Z" transform="translate(18.404 26.072)"/>
      <path id="Trazado_1248348" data-name="Trazado 1248348" d="M32.834,57.031H25.765a1.767,1.767,0,0,1,0-3.534h7.069a1.767,1.767,0,0,1,0,3.534Z" transform="translate(18.404 36.806)"/>
      <path id="Trazado_1248349" data-name="Trazado 1248349" d="M37.454,43.034H10.523a1.767,1.767,0,0,1,0-3.534H37.454a1.767,1.767,0,0,1,0,3.534Z" transform="translate(6.715 26.072)"/>
      <path id="Trazado_1248350" data-name="Trazado 1248350" d="M33.709,14.036H26.768a1.767,1.767,0,0,1,0-3.534h6.942a1.767,1.767,0,0,1,0,3.534Z" transform="translate(19.173 3.835)"/>
      <path id="Trazado_1248351" data-name="Trazado 1248351" d="M111.313,60.029H1.768a1.767,1.767,0,0,1,0-3.534H111.313a1.767,1.767,0,0,1,0,3.534Z" transform="translate(0.002 39.105)"/>
      <path id="Trazado_1248352" data-name="Trazado 1248352" d="M53.768,62.326A1.766,1.766,0,0,1,52,60.559V55.267a1.767,1.767,0,0,1,3.534,0v5.292a1.766,1.766,0,0,1-1.767,1.767Z" transform="translate(39.878 36.808)"/>
      <path id="Trazado_1248353" data-name="Trazado 1248353" d="M59.768,62.326A1.766,1.766,0,0,1,58,60.559V55.267a1.767,1.767,0,1,1,3.534,0v5.292a1.766,1.766,0,0,1-1.767,1.767Z" transform="translate(44.48 36.808)"/>
      <path id="Trazado_1248354" data-name="Trazado 1248354" d="M56.768,65.393A1.766,1.766,0,0,1,55,63.626V51.267a1.767,1.767,0,0,1,3.534,0V63.626a1.766,1.766,0,0,1-1.767,1.767Z" transform="translate(42.179 33.741)"/>
    </g>
  </g>
</svg>
