<svg xmlns="http://www.w3.org/2000/svg" width="129.063" height="78.488" viewBox="0 0 129.063 78.488">
  <g id="Grupo_1213326" data-name="Grupo 1213326" transform="translate(-787.781 -2578.957)">
    <g id="Grupo_1201005" data-name="Grupo 1201005" transform="translate(0 26)">
      <g id="Rectángulo_410589" data-name="Rectángulo 410589" transform="translate(787.781 2575.623)" fill="#70d9c1" stroke="#4d9686" stroke-width="1">
        <rect width="129.063" height="43.021" rx="8" stroke="none"/>
        <rect x="0.5" y="0.5" width="128.063" height="42.021" rx="7.5" fill="none"/>
      </g>
    </g>
    <g id="medical_16057209" transform="translate(813.227 2578.457)">
      <path id="Trazado_1249275" data-name="Trazado 1249275" d="M70.8,41.483a4.98,4.98,0,0,1,2.492,9.294L39.654,68.892,11,65.154V36.5H22.212L41.76,40.312a4.981,4.981,0,0,1,4.124,4.909l24.069-3.663a4.761,4.761,0,0,1,.847-.075Z" transform="translate(2.704 8.85)" fill="#eac6bb"/>
      <path id="Trazado_1249276" data-name="Trazado 1249276" d="M19.95,7.483v4.983H14.967V17.45H9.983V12.467H5V7.483H9.983V2.5h4.983V7.483Z" transform="translate(1.229 0.492)" fill="#ed5565"/>
      <path id="Trazado_1249277" data-name="Trazado 1249277" d="M13.458,65.646v2.492H1V34.5H13.458V65.646Z" transform="translate(0.246 8.358)" fill="#656d78"/>
      <g id="Grupo_1214090" data-name="Grupo 1214090" transform="translate(30.122 10.768)">
        <circle id="Elipse_12458" data-name="Elipse 12458" cx="3.5" cy="3.5" r="3.5" transform="translate(21.746 3.272)" fill="#e6e9ed"/>
        <path id="Trazado_1249278" data-name="Trazado 1249278" d="M46.441,26.221a8.652,8.652,0,0,1-2.392,5.992,7.471,7.471,0,0,0-12.658,0,8.719,8.719,0,1,1,15.05-5.992Z" transform="translate(-22.992 -6.589)" fill="#e6e9ed"/>
        <ellipse id="Elipse_12459" data-name="Elipse 12459" cx="4" cy="3.5" rx="4" ry="3.5" transform="translate(10.746 0.272)" fill="#e6e9ed"/>
        <circle id="Elipse_12460" data-name="Elipse 12460" cx="3.5" cy="3.5" r="3.5" transform="translate(-0.254 3.272)" fill="#e6e9ed"/>
      </g>
      <path id="Trazado_1249279" data-name="Trazado 1249279" d="M40.179,21.433A8.716,8.716,0,0,0,33.85,36.147a7.471,7.471,0,0,1,12.658,0,8.716,8.716,0,0,0-6.329-14.713Zm0-3.737A3.733,3.733,0,1,0,37.535,16.6,3.738,3.738,0,0,0,40.179,17.7Zm0-16.2A21.179,21.179,0,1,1,19,22.679,21.179,21.179,0,0,1,40.179,1.5Zm14.95,16.2a3.733,3.733,0,1,0-1.093,2.644A3.738,3.738,0,0,0,55.129,17.7ZM32.7,17.7a3.733,3.733,0,1,0-1.093,2.644A3.737,3.737,0,0,0,32.7,17.7Z" transform="translate(4.671 0.246)" fill="#5d9cec"/>
      <path id="Trazado_1249280" data-name="Trazado 1249280" d="M6.267,59.992A1.246,1.246,0,1,1,6.254,57.5h.012a1.246,1.246,0,1,1,0,2.492Z" transform="translate(1.233 14.012)"/>
      <path id="Trazado_1249281" data-name="Trazado 1249281" d="M61.74,51.292a1.246,1.246,0,0,1-.625-2.324,3.739,3.739,0,0,0-1.869-6.976,1.246,1.246,0,1,1,0-2.492,6.23,6.23,0,0,1,3.117,11.624,1.236,1.236,0,0,1-.623.168Z" transform="translate(14.258 9.587)"/>
      <path id="Trazado_1249282" data-name="Trazado 1249282" d="M34.247,67.565a1.246,1.246,0,0,1-.591-2.343L67.293,47.111a1.246,1.246,0,1,1,1.18,2.195L34.836,67.417a1.237,1.237,0,0,1-.589.148Z" transform="translate(8.112 11.422)"/>
      <path id="Trazado_1249283" data-name="Trazado 1249283" d="M39.9,64.729a1.217,1.217,0,0,1-.162-.011L11.085,60.981a1.245,1.245,0,0,1,.321-2.47l28.654,3.737a1.246,1.246,0,0,1-.159,2.481Z" transform="translate(2.458 14.258)"/>
      <path id="Trazado_1249284" data-name="Trazado 1249284" d="M13.7,69.629H1.246A1.245,1.245,0,0,1,0,68.383V34.746A1.245,1.245,0,0,1,1.246,33.5H13.7a1.245,1.245,0,0,1,1.246,1.246V68.383A1.245,1.245,0,0,1,13.7,69.629ZM2.492,67.137h9.967V35.992H2.492Z" transform="translate(0 8.112)"/>
      <path id="Trazado_1249285" data-name="Trazado 1249285" d="M39.245,45.715a1.246,1.246,0,0,1-.186-2.477l24.066-3.665a1.245,1.245,0,0,1,.375,2.462L39.433,45.7a1.242,1.242,0,0,1-.189.015Z" transform="translate(9.342 9.602)"/>
      <path id="Trazado_1249286" data-name="Trazado 1249286" d="M35.246,50.944a1.246,1.246,0,1,1,0-2.492,3.738,3.738,0,0,0,.644-7.42,1.246,1.246,0,1,1,.423-2.455,6.23,6.23,0,0,1-1.067,12.367Z" transform="translate(8.358 9.356)"/>
      <path id="Trazado_1249287" data-name="Trazado 1249287" d="M39.791,41.8a1.241,1.241,0,0,1-.24-.023l-19.544-3.81a1.246,1.246,0,0,1,.477-2.445l19.544,3.811a1.246,1.246,0,0,1-.237,2.469Z" transform="translate(4.671 8.604)"/>
      <path id="Trazado_1249288" data-name="Trazado 1249288" d="M22.458,37.992H11.246a1.246,1.246,0,0,1,0-2.492H22.458a1.246,1.246,0,0,1,0,2.492Z" transform="translate(2.458 8.604)"/>
      <path id="Trazado_1249289" data-name="Trazado 1249289" d="M37.919,49.208c-.032,0-.064,0-.1,0L22.15,47.988a1.246,1.246,0,1,1,.192-2.484L38.013,46.72a1.246,1.246,0,0,1-.095,2.488Z" transform="translate(5.162 11.062)"/>
      <path id="Trazado_1249290" data-name="Trazado 1249290" d="M58.561,42.062a1.246,1.246,0,0,1-.2-2.475,6.4,6.4,0,0,1,1.057-.088,1.246,1.246,0,1,1,0,2.492,3.891,3.891,0,0,0-.646.054,1.2,1.2,0,0,1-.207.017Z" transform="translate(14.09 9.587)"/>
      <path id="Trazado_1249291" data-name="Trazado 1249291" d="M35.349,49a5.658,5.658,0,0,1-.662-.038,1.245,1.245,0,0,1-1.1-1.377,1.231,1.231,0,0,1,1.377-1.1,3.617,3.617,0,0,0,.382.021,1.246,1.246,0,0,1,0,2.492Z" transform="translate(8.255 11.302)"/>
      <path id="Trazado_1249292" data-name="Trazado 1249292" d="M40.425,45.35A22.425,22.425,0,1,1,62.85,22.925,22.425,22.425,0,0,1,40.425,45.35Zm0-42.358A19.933,19.933,0,1,0,60.358,22.925,19.933,19.933,0,0,0,40.425,2.992Z" transform="translate(4.425 0)"/>
      <path id="Trazado_1249293" data-name="Trazado 1249293" d="M44.291,33.708c-.04,0-.082,0-.123-.006a1.245,1.245,0,0,1-.931-.575,6.217,6.217,0,0,0-10.541,0,1.246,1.246,0,0,1-1.958.193,9.967,9.967,0,1,1,14.456,0,1.243,1.243,0,0,1-.9.388Zm-6.324-5.993a8.664,8.664,0,0,1,6.328,2.725,7.475,7.475,0,1,0-12.655,0,8.664,8.664,0,0,1,6.328-2.725Z" transform="translate(6.883 3.931)"/>
      <path id="Trazado_1249294" data-name="Trazado 1249294" d="M36.983,17.467a4.983,4.983,0,1,1,4.983-4.983A4.983,4.983,0,0,1,36.983,17.467Zm0-7.475a2.492,2.492,0,1,0,2.492,2.492A2.492,2.492,0,0,0,36.983,9.992Z" transform="translate(7.867 1.721)"/>
      <path id="Trazado_1249295" data-name="Trazado 1249295" d="M45.983,20.467a4.983,4.983,0,1,1,4.983-4.983,4.983,4.983,0,0,1-4.983,4.983Zm0-7.475a2.492,2.492,0,1,0,2.492,2.492A2.492,2.492,0,0,0,45.983,12.992Z" transform="translate(10.079 2.458)"/>
      <path id="Trazado_1249296" data-name="Trazado 1249296" d="M27.983,20.467a4.983,4.983,0,1,1,4.983-4.983,4.983,4.983,0,0,1-4.983,4.983Zm0-7.475a2.492,2.492,0,1,0,2.492,2.492A2.492,2.492,0,0,0,27.983,12.992Z" transform="translate(5.654 2.458)"/>
      <path id="Trazado_1249297" data-name="Trazado 1249297" d="M15.213,18.941H10.23a1.245,1.245,0,0,1-1.246-1.246V13.957H5.247A1.245,1.245,0,0,1,4,12.711V7.728A1.245,1.245,0,0,1,5.247,6.482H8.984V2.745A1.245,1.245,0,0,1,10.23,1.5h4.983a1.245,1.245,0,0,1,1.246,1.246V6.482H20.2a1.245,1.245,0,0,1,1.246,1.246v4.983A1.245,1.245,0,0,1,20.2,13.957H16.459v3.738a1.245,1.245,0,0,1-1.246,1.246Zm-3.737-2.492h2.492V12.711a1.245,1.245,0,0,1,1.246-1.246h3.737V8.974H15.213a1.245,1.245,0,0,1-1.246-1.246V3.991H11.476V7.728A1.245,1.245,0,0,1,10.23,8.974H6.493v2.492H10.23a1.245,1.245,0,0,1,1.246,1.246Z" transform="translate(0.984 0.246)"/>
      <path id="Trazado_1249298" data-name="Trazado 1249298" d="M53.246,38.975A1.245,1.245,0,0,1,52,37.729V32.746a1.246,1.246,0,1,1,2.492,0v4.983a1.245,1.245,0,0,1-1.246,1.246Z" transform="translate(12.783 7.621)"/>
      <path id="Trazado_1249299" data-name="Trazado 1249299" d="M56.229,35.992H51.246a1.246,1.246,0,0,1,0-2.492h4.983a1.246,1.246,0,0,1,0,2.492Z" transform="translate(12.292 8.112)"/>
      <path id="Trazado_1249300" data-name="Trazado 1249300" d="M59.246,30.975A1.245,1.245,0,0,1,58,29.729V24.746a1.246,1.246,0,1,1,2.492,0v4.983a1.245,1.245,0,0,1-1.246,1.246Z" transform="translate(14.258 5.654)"/>
      <path id="Trazado_1249301" data-name="Trazado 1249301" d="M62.229,27.992H57.246a1.246,1.246,0,1,1,0-2.492h4.983a1.246,1.246,0,1,1,0,2.492Z" transform="translate(13.767 6.146)"/>
    </g>
  </g>
</svg>
