<svg xmlns="http://www.w3.org/2000/svg" width="127" height="303.438" viewBox="0 0 127 303.438">
  <g id="Grupo_1214064" data-name="Grupo 1214064" transform="translate(-180.051 -25005)">
    <rect id="Rect치ngulo_411085" data-name="Rect치ngulo 411085" width="127" height="303.438" transform="translate(180.051 25005)" fill="#9f9d93"/>
    <g id="Grupo_1214062" data-name="Grupo 1214062" transform="translate(191.051 25139)">
      <g id="Rect치ngulo_410589" data-name="Rect치ngulo 410589" fill="#918e80" stroke="#5f5f5c" stroke-width="1">
        <rect width="104.598" height="34.866" rx="8" stroke="none"/>
        <rect x="0.5" y="0.5" width="103.598" height="33.866" rx="7.5" fill="none"/>
      </g>
    </g>
    <g id="Page-1" transform="translate(216.051 25118)">
      <g id="_077---Clipboard" data-name="077---Clipboard" transform="translate(0 0)">
        <path id="Shape" d="M38.547,8.824v1.259a2.6,2.6,0,0,1-2.6,2.6H12.6a2.6,2.6,0,0,1-2.6-2.6V8.824a2.6,2.6,0,0,1,1.09-2.115L18.408,1.48A2.6,2.6,0,0,1,19.914,1h8.72a2.6,2.6,0,0,1,1.505.48l7.318,5.229A2.6,2.6,0,0,1,38.547,8.824Z" transform="translate(2.976 0.298)" fill="#9e9e9e"/>
        <path id="Shape-2" data-name="Shape" d="M34.076,6.709,26.758,1.48A2.6,2.6,0,0,0,25.253,1H21.36a2.6,2.6,0,0,1,1.505.48l7.318,5.229a2.6,2.6,0,0,1,1.09,2.115v1.259a2.6,2.6,0,0,1-2.6,2.6h3.893a2.6,2.6,0,0,0,2.6-2.6V8.824a2.6,2.6,0,0,0-1.09-2.115Z" transform="translate(6.357 0.298)" fill="#707070"/>
        <path id="Shape-3" data-name="Shape" d="M52.9,13.19v55.8a5.19,5.19,0,0,1-5.19,5.19H6.19A5.19,5.19,0,0,1,1,68.987V13.19A5.19,5.19,0,0,1,6.19,8h6.488a2.6,2.6,0,0,0,2.6,2.6H38.63a2.6,2.6,0,0,0,2.6-2.6h6.488A5.19,5.19,0,0,1,52.9,13.19Z" transform="translate(0.298 2.381)" fill="#f5f5f5"/>
        <path id="Shape-4" data-name="Shape" d="M37.893,8H34a5.19,5.19,0,0,1,5.19,5.19v55.8A5.19,5.19,0,0,1,34,74.177h3.893a5.19,5.19,0,0,0,5.19-5.19V13.19A5.19,5.19,0,0,0,37.893,8Z" transform="translate(10.118 2.381)" fill="#cfd8dc"/>
        <rect id="Rectangle-path" width="13" height="13" rx="1" transform="translate(8.249 56.928)" fill="#a4c400"/>
        <rect id="Rectangle-path-2" data-name="Rectangle-path" width="13" height="13" rx="1" transform="translate(8.249 38.928)" fill="#a4c400"/>
        <rect id="Rectangle-path-3" data-name="Rectangle-path" width="13" height="13" rx="1" transform="translate(8.249 20.928)" fill="#a4c400"/>
        <g id="Grupo_1214063" data-name="Grupo 1214063">
          <path id="Shape-5" data-name="Shape" d="M19.3,7.6h5.19a1.3,1.3,0,1,0,0-2.6H19.3a1.3,1.3,0,1,0,0,2.6Z" transform="translate(5.357 1.488)"/>
          <path id="Shape-6" data-name="Shape" d="M48.011,9.083H42.82a3.9,3.9,0,0,0-1.628-3.131L33.867.719A3.877,3.877,0,0,0,31.609,0H22.89a3.881,3.881,0,0,0-2.258.723L13.311,5.953a3.9,3.9,0,0,0-1.632,3.13H6.488A6.5,6.5,0,0,0,0,15.571v55.8a6.5,6.5,0,0,0,6.488,6.488H48.011A6.5,6.5,0,0,0,54.5,71.368v-55.8A6.5,6.5,0,0,0,48.011,9.083Zm-33.737.039a1.29,1.29,0,0,1,.546-1.059l7.315-5.225A1.283,1.283,0,0,1,22.89,2.6h8.72a1.279,1.279,0,0,1,.75.239l7.318,5.228a1.3,1.3,0,0,1,.548,1.06v1.259a1.3,1.3,0,0,1-1.3,1.3H15.571a1.3,1.3,0,0,1-1.3-1.3ZM51.9,71.368a3.893,3.893,0,0,1-3.893,3.893H6.488A3.893,3.893,0,0,1,2.6,71.368v-55.8a3.893,3.893,0,0,1,3.893-3.893H11.9a3.9,3.9,0,0,0,3.671,2.6H38.928a3.9,3.9,0,0,0,3.671-2.6h5.412A3.893,3.893,0,0,1,51.9,15.571Z" transform="translate(0 0)"/>
          <path id="Shape-7" data-name="Shape" d="M7.6,30.571H17.976a2.6,2.6,0,0,0,2.6-2.6V25.355a1.3,1.3,0,1,0-2.6,0v2.621H7.6V17.6h6.293a1.3,1.3,0,1,0,0-2.6H7.6A2.6,2.6,0,0,0,5,17.6V27.976a2.6,2.6,0,0,0,2.6,2.6Z" transform="translate(1.488 4.464)"/>
          <path id="Shape-8" data-name="Shape" d="M20.13,15.319l-8.175,7.007-1.747-1.745a1.3,1.3,0,0,0-1.835,1.835l2.6,2.6a1.3,1.3,0,0,0,1.761.067l9.083-7.786a1.3,1.3,0,1,0-1.687-1.97Z" transform="translate(2.383 4.457)"/>
          <path id="Shape-9" data-name="Shape" d="M7.6,44.571H17.976a2.6,2.6,0,0,0,2.6-2.6V39.355a1.3,1.3,0,1,0-2.6,0v2.621H7.6V31.6h6.293a1.3,1.3,0,1,0,0-2.6H7.6A2.6,2.6,0,0,0,5,31.6V41.976a2.6,2.6,0,0,0,2.6,2.6Z" transform="translate(1.488 8.63)"/>
          <path id="Shape-10" data-name="Shape" d="M20.13,29.319l-8.175,7.007-1.747-1.745a1.3,1.3,0,0,0-1.835,1.835l2.6,2.6a1.3,1.3,0,0,0,1.761.067l9.083-7.786a1.3,1.3,0,1,0-1.687-1.97Z" transform="translate(2.383 8.624)"/>
          <path id="Shape-11" data-name="Shape" d="M19.273,52.057a1.3,1.3,0,0,0-1.3,1.3v2.621H7.6V45.6h6.293a1.3,1.3,0,0,0,0-2.6H7.6A2.6,2.6,0,0,0,5,45.6V55.976a2.6,2.6,0,0,0,2.6,2.6H17.976a2.6,2.6,0,0,0,2.6-2.6V53.355A1.3,1.3,0,0,0,19.273,52.057Z" transform="translate(1.488 12.796)"/>
          <path id="Shape-12" data-name="Shape" d="M20.13,43.3l-8.175,7.007-1.747-1.745A1.3,1.3,0,0,0,8.374,50.4l2.6,2.6a1.3,1.3,0,0,0,1.761.067l9.083-7.786a1.3,1.3,0,0,0-1.687-1.97Z" transform="translate(2.383 12.805)"/>
          <path id="Shape-13" data-name="Shape" d="M38.273,16H25.3a1.3,1.3,0,0,0,0,2.6H38.273a1.3,1.3,0,1,0,0-2.6Z" transform="translate(7.142 4.761)"/>
          <path id="Shape-14" data-name="Shape" d="M38.273,20H25.3a1.3,1.3,0,0,0,0,2.6H38.273a1.3,1.3,0,1,0,0-2.6Z" transform="translate(7.142 5.952)"/>
          <path id="Shape-15" data-name="Shape" d="M25.3,26.6h6.488a1.3,1.3,0,0,0,0-2.6H25.3a1.3,1.3,0,0,0,0,2.6Z" transform="translate(7.142 7.142)"/>
          <path id="Shape-16" data-name="Shape" d="M38.273,30H25.3a1.3,1.3,0,0,0,0,2.6H38.273a1.3,1.3,0,1,0,0-2.6Z" transform="translate(7.142 8.928)"/>
          <path id="Shape-17" data-name="Shape" d="M38.273,34H25.3a1.3,1.3,0,0,0,0,2.6H38.273a1.3,1.3,0,0,0,0-2.6Z" transform="translate(7.142 10.118)"/>
          <path id="Shape-18" data-name="Shape" d="M25.3,40.6h6.488a1.3,1.3,0,0,0,0-2.6H25.3a1.3,1.3,0,0,0,0,2.6Z" transform="translate(7.142 11.308)"/>
          <path id="Shape-19" data-name="Shape" d="M38.273,44H25.3a1.3,1.3,0,0,0,0,2.6H38.273a1.3,1.3,0,1,0,0-2.6Z" transform="translate(7.142 13.094)"/>
          <path id="Shape-20" data-name="Shape" d="M38.273,48H25.3a1.3,1.3,0,1,0,0,2.6H38.273a1.3,1.3,0,1,0,0-2.6Z" transform="translate(7.142 14.284)"/>
          <path id="Shape-21" data-name="Shape" d="M31.786,52H25.3a1.3,1.3,0,0,0,0,2.6h6.488a1.3,1.3,0,0,0,0-2.6Z" transform="translate(7.142 15.475)"/>
        </g>
      </g>
    </g>
  </g>
</svg>
