<svg xmlns="http://www.w3.org/2000/svg" width="129.063" height="84.222" viewBox="0 0 129.063 84.222">
  <g id="Grupo_1213312" data-name="Grupo 1213312" transform="translate(-787.781 -2576.87)">
    <g id="Grupo_1201005" data-name="Grupo 1201005" transform="translate(0 26)">
      <g id="Rectángulo_410589" data-name="Rectángulo 410589" transform="translate(787.781 2575.623)" fill="#70d9c1" stroke="#4d9686" stroke-width="1">
        <rect width="129.063" height="43.021" rx="8" stroke="none"/>
        <rect x="0.5" y="0.5" width="128.063" height="42.021" rx="7.5" fill="none"/>
      </g>
    </g>
    <g id="Layer_32" data-name="Layer 32" transform="translate(809.31 2575.87)">
      <path id="Trazado_1249206" data-name="Trazado 1249206" d="M13,75.354H70.053V2H29.3L13,18.3Z" transform="translate(3.944 0.358)" fill="#c1cfe8"/>
      <path id="Trazado_1249207" data-name="Trazado 1249207" d="M27.867,2,17,12.867V29.386A40.535,40.535,0,0,0,57.535,69.921H68.62V2Z" transform="translate(5.377 0.358)" fill="#d7e0ef"/>
      <circle id="Elipse_12453" data-name="Elipse 12453" cx="16.301" cy="16.301" r="16.301" transform="translate(29.169 10.509)" fill="#0059be"/>
      <path id="Trazado_1249208" data-name="Trazado 1249208" d="M37.584,8a16.206,16.206,0,0,0-10.078,3.506A16.285,16.285,0,0,0,50.379,34.379,16.285,16.285,0,0,0,37.584,8Z" transform="translate(7.886 2.509)" fill="#006bdb"/>
      <path id="Trazado_1249209" data-name="Trazado 1249209" d="M13,18.3H29.3V2Z" transform="translate(3.944 0.358)" fill="#c1cfe8"/>
      <circle id="Elipse_12454" data-name="Elipse 12454" cx="10.867" cy="10.867" r="10.867" transform="translate(34.603 15.943)" fill="#66c3e9"/>
      <rect id="Rectángulo_411682" data-name="Rectángulo 411682" width="5.764" height="6.048" transform="translate(54.779 40.193) rotate(-45)" fill="#c1cfe8"/>
      <path id="Trazado_1249210" data-name="Trazado 1249210" d="M35.5,13a10.818,10.818,0,0,0-6.973,2.536,10.867,10.867,0,0,0,15.3,15.3A10.867,10.867,0,0,0,35.5,13Z" transform="translate(8.61 4.301)" fill="#8adef9"/>
      <path id="Trazado_1249211" data-name="Trazado 1249211" d="M43,35.792,49.792,29,66.044,45.252a4.8,4.8,0,0,1,1.407,3.4h0a4.8,4.8,0,0,1-4.8,4.8h0a4.8,4.8,0,0,1-3.4-1.407Z" transform="translate(14.696 10.036)" fill="#0059be"/>
      <path id="Trazado_1249212" data-name="Trazado 1249212" d="M49.254,29,44.5,33.754,58.714,47.969a4.788,4.788,0,0,0,7.729-1.358,4.8,4.8,0,0,0-.937-1.358Z" transform="translate(15.234 10.036)" fill="#006bdb"/>
      <rect id="Rectángulo_411683" data-name="Rectángulo 411683" width="27.168" height="2.717" transform="translate(31.886 52.62)" fill="#a5badb"/>
      <rect id="Rectángulo_411684" data-name="Rectángulo 411684" width="38.036" height="2.717" transform="translate(26.453 58.053)" fill="#a5badb"/>
      <rect id="Rectángulo_411685" data-name="Rectángulo 411685" width="42.111" height="2.717" transform="translate(26.453 63.487)" fill="#a5badb"/>
      <rect id="Rectángulo_411686" data-name="Rectángulo 411686" width="42.111" height="2.717" transform="translate(26.453 68.921)" fill="#a5badb"/>
      <rect id="Rectángulo_411687" data-name="Rectángulo 411687" width="27.168" height="2.717" transform="translate(31.886 52.62)" fill="#c1cfe8"/>
      <path id="Trazado_1249213" data-name="Trazado 1249213" d="M56.067,43H25.492q1.394,1.429,2.923,2.717H56.067Z" transform="translate(8.421 15.053)" fill="#c1cfe8"/>
      <path id="Trazado_1249214" data-name="Trazado 1249214" d="M58.417,47H30.306a40.523,40.523,0,0,0,4.734,2.717H58.417Z" transform="translate(10.146 16.487)" fill="#c1cfe8"/>
      <path id="Trazado_1249215" data-name="Trazado 1249215" d="M39.169,51a40.547,40.547,0,0,0,10.42,1.358H55.24V51Z" transform="translate(13.323 17.921)" fill="#c1cfe8"/>
      <circle id="Elipse_12455" data-name="Elipse 12455" cx="14.943" cy="14.943" r="14.943" transform="translate(3.36 53.978)" fill="#8dbf00"/>
      <path id="Trazado_1249216" data-name="Trazado 1249216" d="M17.226,40a14.861,14.861,0,0,0-9.11,3.116A14.925,14.925,0,0,0,29.052,64.052,14.925,14.925,0,0,0,17.226,40Z" transform="translate(1.076 13.978)" fill="#a8d600"/>
      <path id="Trazado_1249217" data-name="Trazado 1249217" d="M6,54.509l4.075-4.075,4.075,4.075L23.659,45l4.075,4.075L14.15,62.659Z" transform="translate(1.435 15.77)" fill="#fff"/>
      <path id="Trazado_1249218" data-name="Trazado 1249218" d="M37.226,35.451A12.226,12.226,0,1,0,25,23.226,12.226,12.226,0,0,0,37.226,35.451Zm0-21.735a9.509,9.509,0,1,1-9.509,9.509A9.509,9.509,0,0,1,37.226,13.717Z" transform="translate(8.245 3.584)"/>
      <path id="Trazado_1249219" data-name="Trazado 1249219" d="M75.355,47.982V2.358A1.358,1.358,0,0,0,74,1H33.245a1.358,1.358,0,0,0-.96.4l-16.3,16.3a1.358,1.358,0,0,0-.4.96V52.866A16.29,16.29,0,1,0,32.4,77.071H74a1.358,1.358,0,0,0,1.358-1.358V64.492A6.147,6.147,0,0,0,81.7,54.329Zm-2.717-2.717-7.19-7.19a1.4,1.4,0,0,0-1.921,0l-.4.4-2.558-2.562A17.628,17.628,0,0,0,34.6,12.919v-9.2H72.639ZM59.055,42.548l-2.232-2.232a17.735,17.735,0,0,0,2.154-2.154l2.232,2.232ZM31.886,15.542a17.879,17.879,0,0,0-1.273,1.766H20.223L31.886,5.638ZM45.47,11.867A14.943,14.943,0,1,1,30.528,26.81,14.943,14.943,0,0,1,45.47,11.867ZM18.3,82.5A13.584,13.584,0,1,1,31.886,68.921,13.584,13.584,0,0,1,18.3,82.5Zm15.35-8.15a16.05,16.05,0,0,0,.705-2.717H68.563V68.921H34.6a16.282,16.282,0,0,0-.246-2.717H68.563V63.487H33.652A16.122,16.122,0,0,0,32.4,60.77H64.488V58.053H30.418A16.249,16.249,0,0,0,18.3,52.62v-32.6H29.169a17.631,17.631,0,0,0,25.4,21.895l2.562,2.557-.4.4a1.358,1.358,0,0,0,0,1.921l15.9,15.9V74.354ZM77.344,62.129a3.427,3.427,0,0,1-2.436-1.008L59.617,45.828l4.871-4.871L79.78,56.249a3.444,3.444,0,0,1-2.436,5.879Z" transform="translate(0)"/>
      <path id="Trazado_1249220" data-name="Trazado 1249220" d="M29.053,48.473,24.978,44.4a1.358,1.358,0,0,0-1.921,0l-8.548,8.548-3.115-3.115a1.358,1.358,0,0,0-1.921,0L5.4,53.907a1.358,1.358,0,0,0,0,1.921l8.15,8.15a1.358,1.358,0,0,0,1.921,0L29.053,50.394A1.358,1.358,0,0,0,29.053,48.473ZM14.509,61.1l-6.23-6.23,2.154-2.154,3.115,3.115a1.358,1.358,0,0,0,1.921,0l8.548-8.548,2.154,2.154Z" transform="translate(1.076 15.412)"/>
      <rect id="Rectángulo_411688" data-name="Rectángulo 411688" width="27.168" height="2.717" transform="translate(31.886 52.62)"/>
    </g>
  </g>
</svg>
