<svg xmlns="http://www.w3.org/2000/svg" width="145.631" height="88.439" viewBox="0 0 145.631 88.439">
  <g id="Grupo_1213661" data-name="Grupo 1213661" transform="translate(0 -6.701)">
    <g id="Grupo_1201016" data-name="Grupo 1201016" transform="translate(0 23.246)">
      <g id="Rectángulo_410589" data-name="Rectángulo 410589" fill="#93795a" stroke="#695640" stroke-width="1">
        <rect width="145.631" height="48.544" rx="8" stroke="none"/>
        <rect x="0.5" y="0.5" width="144.631" height="47.544" rx="7.5" fill="none"/>
      </g>
    </g>
    <g id="check_16057724" transform="translate(30.337 6.723)">
      <path id="Trazado_1248497" data-name="Trazado 1248497" d="M63.127,47.895l-2.762,5.524H50.7L49.317,71.4a19.367,19.367,0,0,1-17.5-11.048l2.306-.014,4.143-.014,7.6-15.191,2.071-4.143L50.7,45.133Z" transform="translate(10.41 15.624)" fill="#965353"/>
      <path id="Trazado_1248498" data-name="Trazado 1248498" d="M33.49,59.181l7.6-15.191h4.143l-7.6,15.191-4.143.014Z" transform="translate(11.046 16.767)" fill="#656d78"/>
      <path id="Trazado_1248499" data-name="Trazado 1248499" d="M49.847,34.97a19.361,19.361,0,1,1-.014,38.723l1.381-17.98h9.667l2.762-5.524L51.214,47.426l-2.762-4.143-2.071,4.143H42.238l-7.6,15.191v.014l-2.306.014a19.358,19.358,0,0,1,17.5-27.675Z" transform="translate(9.893 13.331)" fill="#87bcf4"/>
      <path id="Trazado_1248500" data-name="Trazado 1248500" d="M49.643.99V47.916h-.014a19.3,19.3,0,0,0-4.129.442V5.133H31L33.071.99Z" transform="translate(10.097 0.385)" fill="#656d78"/>
      <path id="Trazado_1248501" data-name="Trazado 1248501" d="M38.215.99,36.143,5.133l-.69,1.381H20.262l-.69-1.381L17.5.99Z" transform="translate(4.954 0.385)" fill="#ffce54"/>
      <path id="Trazado_1248502" data-name="Trazado 1248502" d="M9.643,63.134H40.425a19.527,19.527,0,0,0-.442,4.143H5.5V.99H22.072l2.071,4.143H9.643Z" transform="translate(0.382 0.385)" fill="#656d78"/>
      <path id="Trazado_1248503" data-name="Trazado 1248503" d="M23.691,5.371H38.881l.69-1.381h14.5V47.215a19.378,19.378,0,0,0-14.79,14.776H8.5v-58H23Z" transform="translate(1.525 1.528)" fill="#e6e9ed"/>
      <path id="Trazado_1248504" data-name="Trazado 1248504" d="M20.641,8.265A1.381,1.381,0,0,1,19.4,7.5L16.642,1.978A1.381,1.381,0,0,1,19.113.743l2.762,5.524a1.381,1.381,0,0,1-1.234,2Z" transform="translate(4.572 0)"/>
      <path id="Trazado_1248505" data-name="Trazado 1248505" d="M30.876,8.265a1.381,1.381,0,0,1-1.234-2L32.4.743a1.381,1.381,0,1,1,2.471,1.235L32.112,7.5A1.381,1.381,0,0,1,30.876,8.265Z" transform="translate(9.524 0)"/>
      <path id="Trazado_1248506" data-name="Trazado 1248506" d="M35.068,6.741H19.877a1.381,1.381,0,1,1,0-2.762H35.068a1.381,1.381,0,1,1,0,2.762Z" transform="translate(5.334 1.524)"/>
      <path id="Trazado_1248507" data-name="Trazado 1248507" d="M45.877,5.741h-14.5a1.381,1.381,0,1,1,0-2.762h14.5a1.381,1.381,0,0,1,0,2.762Z" transform="translate(9.715 1.143)"/>
      <path id="Trazado_1248508" data-name="Trazado 1248508" d="M23.377,5.741H8.877a1.381,1.381,0,0,1,0-2.762h14.5a1.381,1.381,0,0,1,0,2.762Z" transform="translate(1.143 1.143)"/>
      <path id="Trazado_1248509" data-name="Trazado 1248509" d="M40.4,69.028H5.877A1.38,1.38,0,0,1,4.5,67.647V1.36A1.38,1.38,0,0,1,5.877-.021H59.735A1.38,1.38,0,0,1,61.116,1.36V48.314a1.381,1.381,0,1,1-2.762,0V2.741H7.258V66.266H40.4a1.381,1.381,0,0,1,0,2.762Z" transform="translate(0 0)"/>
      <path id="Trazado_1248510" data-name="Trazado 1248510" d="M39.706,63.742H8.877A1.38,1.38,0,0,1,7.5,62.361v-58a1.381,1.381,0,1,1,2.762,0V60.98H39.706a1.381,1.381,0,0,1,0,2.762Z" transform="translate(1.143 1.143)"/>
      <path id="Trazado_1248511" data-name="Trazado 1248511" d="M41.877,49A1.38,1.38,0,0,1,40.5,47.617V4.36a1.381,1.381,0,0,1,2.762,0V47.617A1.38,1.38,0,0,1,41.877,49Z" transform="translate(13.715 1.143)"/>
      <path id="Trazado_1248512" data-name="Trazado 1248512" d="M16.237,41.123a1.374,1.374,0,0,1-1-.43l-1.311-1.38a1.38,1.38,0,0,1,2-1.9l1.311,1.38a1.381,1.381,0,0,1-1,2.332Z" transform="translate(3.448 14.097)"/>
      <path id="Trazado_1248513" data-name="Trazado 1248513" d="M15.875,41.886a1.381,1.381,0,0,1-.976-2.357l4.146-4.144A1.381,1.381,0,1,1,21,37.337l-4.146,4.144a1.377,1.377,0,0,1-.976.4Z" transform="translate(3.809 13.334)"/>
      <path id="Trazado_1248514" data-name="Trazado 1248514" d="M36.306,37.743H23.877a1.381,1.381,0,1,1,0-2.762H36.306a1.381,1.381,0,1,1,0,2.762Z" transform="translate(6.858 13.335)"/>
      <path id="Trazado_1248515" data-name="Trazado 1248515" d="M30.779,40.742h-6.9a1.381,1.381,0,0,1,0-2.762h6.9a1.381,1.381,0,0,1,0,2.762Z" transform="translate(6.858 14.478)"/>
      <path id="Trazado_1248516" data-name="Trazado 1248516" d="M16.237,33.127a1.374,1.374,0,0,1-1-.43l-1.311-1.38a1.38,1.38,0,0,1,2-1.9l1.311,1.38a1.381,1.381,0,0,1-1,2.332Z" transform="translate(3.448 11.051)"/>
      <path id="Trazado_1248517" data-name="Trazado 1248517" d="M15.875,33.89a1.381,1.381,0,0,1-.976-2.357l4.146-4.144A1.381,1.381,0,1,1,21,29.341l-4.146,4.144a1.377,1.377,0,0,1-.976.4Z" transform="translate(3.809 10.288)"/>
      <path id="Trazado_1248518" data-name="Trazado 1248518" d="M41.83,29.747H23.877a1.381,1.381,0,0,1,0-2.762H41.83a1.381,1.381,0,0,1,0,2.762Z" transform="translate(6.858 10.289)"/>
      <path id="Trazado_1248519" data-name="Trazado 1248519" d="M30.779,32.746h-6.9a1.381,1.381,0,0,1,0-2.762h6.9a1.381,1.381,0,0,1,0,2.762Z" transform="translate(6.858 11.431)"/>
      <path id="Trazado_1248520" data-name="Trazado 1248520" d="M16.237,17.123a1.374,1.374,0,0,1-1-.43l-1.311-1.38a1.38,1.38,0,1,1,2-1.9l1.311,1.38a1.381,1.381,0,0,1-1,2.332Z" transform="translate(3.448 4.954)"/>
      <path id="Trazado_1248521" data-name="Trazado 1248521" d="M15.875,17.886a1.381,1.381,0,0,1-.976-2.357l4.146-4.144A1.381,1.381,0,0,1,21,13.337l-4.146,4.144A1.377,1.377,0,0,1,15.875,17.886Z" transform="translate(3.809 4.191)"/>
      <path id="Trazado_1248522" data-name="Trazado 1248522" d="M41.83,13.743H23.877a1.381,1.381,0,0,1,0-2.762H41.83a1.381,1.381,0,0,1,0,2.762Z" transform="translate(6.858 4.192)"/>
      <path id="Trazado_1248523" data-name="Trazado 1248523" d="M30.779,16.742h-6.9a1.381,1.381,0,0,1,0-2.762h6.9a1.381,1.381,0,0,1,0,2.762Z" transform="translate(6.858 5.334)"/>
      <path id="Trazado_1248524" data-name="Trazado 1248524" d="M16.237,25.131a1.374,1.374,0,0,1-1-.43l-1.311-1.38a1.38,1.38,0,1,1,2-1.9l1.311,1.38a1.381,1.381,0,0,1-1,2.332Z" transform="translate(3.448 8.005)"/>
      <path id="Trazado_1248525" data-name="Trazado 1248525" d="M15.875,25.894a1.381,1.381,0,0,1-.976-2.357l4.146-4.144A1.381,1.381,0,1,1,21,21.345l-4.146,4.144a1.376,1.376,0,0,1-.976.4Z" transform="translate(3.809 7.242)"/>
      <path id="Trazado_1248526" data-name="Trazado 1248526" d="M41.83,21.751H23.877a1.381,1.381,0,1,1,0-2.762H41.83a1.381,1.381,0,1,1,0,2.762Z" transform="translate(6.858 7.242)"/>
      <path id="Trazado_1248527" data-name="Trazado 1248527" d="M30.779,24.75h-6.9a1.381,1.381,0,0,1,0-2.762h6.9a1.381,1.381,0,0,1,0,2.762Z" transform="translate(6.858 8.385)"/>
      <path id="Trazado_1248528" data-name="Trazado 1248528" d="M50.208,75.44A20.739,20.739,0,1,1,70.947,54.7,20.739,20.739,0,0,1,50.208,75.44Zm0-38.716A17.977,17.977,0,1,0,68.185,54.7,17.977,17.977,0,0,0,50.208,36.724Z" transform="translate(9.514 12.947)"/>
      <path id="Trazado_1248529" data-name="Trazado 1248529" d="M32.2,56.765A1.381,1.381,0,0,1,32.2,54l6.452-.022h0a1.381,1.381,0,0,1,0,2.762l-6.452.022Z" transform="translate(10.029 20.574)"/>
      <path id="Trazado_1248530" data-name="Trazado 1248530" d="M36.874,62.077a1.381,1.381,0,0,1-1.234-2l9.667-19.334a1.381,1.381,0,1,1,2.471,1.235L38.111,61.314A1.381,1.381,0,0,1,36.874,62.077Z" transform="translate(11.809 15.24)"/>
      <path id="Trazado_1248531" data-name="Trazado 1248531" d="M46.638,46.886a1.379,1.379,0,0,1-1.15-.615l-2.762-4.143a1.381,1.381,0,1,1,2.3-1.532l2.762,4.143a1.381,1.381,0,0,1-1.148,2.147Z" transform="translate(14.476 15.24)"/>
      <path id="Trazado_1248532" data-name="Trazado 1248532" d="M58.305,48.506a1.435,1.435,0,0,1-.3-.032L45.576,45.711a1.381,1.381,0,1,1,.6-2.7L58.6,45.776a1.381,1.381,0,0,1-.3,2.73Z" transform="translate(15.238 16.383)"/>
      <path id="Trazado_1248533" data-name="Trazado 1248533" d="M52.874,53.267a1.381,1.381,0,0,1-1.234-2L54.4,45.745a1.381,1.381,0,1,1,2.471,1.235L54.111,52.5a1.381,1.381,0,0,1-1.237.763Z" transform="translate(17.905 17.145)"/>
      <path id="Trazado_1248534" data-name="Trazado 1248534" d="M55.542,51.743H45.875a1.381,1.381,0,0,1,0-2.762h9.667a1.381,1.381,0,1,1,0,2.762Z" transform="translate(15.238 18.669)"/>
      <path id="Trazado_1248535" data-name="Trazado 1248535" d="M44.868,69.75c-.035,0-.071,0-.108,0a1.381,1.381,0,0,1-1.27-1.483l1.393-18.007a1.365,1.365,0,0,1,1.483-1.27,1.381,1.381,0,0,1,1.27,1.483L46.243,68.476a1.381,1.381,0,0,1-1.376,1.274Z" transform="translate(14.854 18.668)"/>
      <path id="Trazado_1248536" data-name="Trazado 1248536" d="M33.874,60.934a1.381,1.381,0,0,1-1.234-2l7.6-15.191a1.381,1.381,0,0,1,2.471,1.235l-7.6,15.191a1.381,1.381,0,0,1-1.237.763Z" transform="translate(10.667 16.383)"/>
      <path id="Trazado_1248537" data-name="Trazado 1248537" d="M43.518,45.743H39.375a1.381,1.381,0,1,1,0-2.762h4.143a1.381,1.381,0,1,1,0,2.762Z" transform="translate(12.762 16.383)"/>
    </g>
  </g>
</svg>
