<svg xmlns="http://www.w3.org/2000/svg" width="127" height="200.422" viewBox="0 0 127 200.422">
  <g id="Grupo_1214203" data-name="Grupo 1214203" transform="translate(-180.532 -27897.127)">
    <g id="Grupo_1214126" data-name="Grupo 1214126">
      <rect id="Rect치ngulo_411441" data-name="Rect치ngulo 411441" width="127" height="200.422" transform="translate(180.532 27897.127)" fill="#9f9d93"/>
      <g id="Grupo_1214125" data-name="Grupo 1214125" transform="translate(191.733 27973.223)">
        <g id="Rect치ngulo_410589" data-name="Rect치ngulo 410589" fill="#918e80" stroke="#5f5f5c" stroke-width="1">
          <rect width="104.598" height="34.866" rx="8" stroke="none"/>
          <rect x="0.5" y="0.5" width="103.598" height="33.866" rx="7.5" fill="none"/>
        </g>
      </g>
    </g>
    <g id="pie-chart_2695417" transform="translate(207.322 27950.955)">
      <g id="Grupo_1214128" data-name="Grupo 1214128" transform="translate(1.199 1.221)">
        <path id="Trazado_1249399" data-name="Trazado 1249399" d="M240.834,30.48a29.375,29.375,0,0,0-15.5-13.058c-7.873-2.863-32.852,20.674-24.758,34.809,1.646,2.875-7.225,12.925-4.874,15A29.5,29.5,0,0,0,240.834,30.48Z" transform="translate(-173.714 -15.637)" fill="#e490d0"/>
        <path id="Trazado_1249400" data-name="Trazado 1249400" d="M165.014,57.52,147.947,81.58a29.5,29.5,0,0,1,2.414-49.654Z" transform="translate(-118.507 -28.023)" fill="#f6e266"/>
        <path id="Trazado_1249401" data-name="Trazado 1249401" d="M253.1,9.3,243.01,37.011,228.356,11.417A29.432,29.432,0,0,1,253.1,9.3Z" transform="translate(-198.491 -7.514)" fill="#78c2a4"/>
        <g id="Grupo_1214127" data-name="Grupo 1214127" transform="translate(0 26.677)">
          <path id="Trazado_1249402" data-name="Trazado 1249402" d="M22.726,373.519a63.712,63.712,0,0,1-11.291,0,4.044,4.044,0,0,1-3.681-3.777,139.332,139.332,0,0,1,0-16.826,4.044,4.044,0,0,1,3.681-3.777,63.706,63.706,0,0,1,11.291,0,4.044,4.044,0,0,1,3.681,3.777,139.332,139.332,0,0,1,0,16.826A4.044,4.044,0,0,1,22.726,373.519Z" transform="translate(-7.5 -326.553)" fill="#78c2a4"/>
          <path id="Trazado_1249403" data-name="Trazado 1249403" d="M13.258,374.267q-.912-.052-1.822-.135a4.044,4.044,0,0,1-3.681-3.778,139.4,139.4,0,0,1,0-16.826,4.044,4.044,0,0,1,3.681-3.776q.912-.082,1.822-.135a4.342,4.342,0,0,0-1.883,3.372,157.82,157.82,0,0,0,0,17.9A4.342,4.342,0,0,0,13.258,374.267Z" transform="translate(-7.501 -327.166)" fill="#5aa687"/>
          <path id="Trazado_1249404" data-name="Trazado 1249404" d="M114.458,255.894a33.755,33.755,0,0,0,11.746,0,4.047,4.047,0,0,0,3.338-3.834q.74-19.26,0-38.519a4.047,4.047,0,0,0-3.338-3.834,33.756,33.756,0,0,0-11.746,0,4.047,4.047,0,0,0-3.338,3.834q-.74,19.26,0,38.519A4.047,4.047,0,0,0,114.458,255.894Z" transform="translate(-94.242 -209.193)" fill="#e490d0"/>
          <path id="Trazado_1249405" data-name="Trazado 1249405" d="M117.229,257.02q-1.384-.127-2.769-.371a4.047,4.047,0,0,1-3.339-3.834q-.74-19.259,0-38.518a4.047,4.047,0,0,1,3.339-3.834q1.384-.243,2.769-.371a4.156,4.156,0,0,0-2.486,3.681q-.74,19.783,0,39.564A4.156,4.156,0,0,0,117.229,257.02Z" transform="translate(-94.243 -209.949)" fill="#df73c1"/>
          <path id="Trazado_1249406" data-name="Trazado 1249406" d="M211.443,322.02a45.814,45.814,0,0,0,11.4,0,4.051,4.051,0,0,0,3.558-3.811q.641-13.163,0-26.327a4.051,4.051,0,0,0-3.558-3.811,45.811,45.811,0,0,0-11.4,0,4.051,4.051,0,0,0-3.558,3.811q-.641,13.164,0,26.327a4.051,4.051,0,0,0,3.558,3.811Z" transform="translate(-175.577 -275.16)" fill="#f6e266"/>
          <path id="Trazado_1249407" data-name="Trazado 1249407" d="M213,323.177c-.519-.045-1.039-.1-1.558-.166a4.051,4.051,0,0,1-3.557-3.811q-.642-13.164,0-26.328a4.052,4.052,0,0,1,3.557-3.811c.52-.065,1.039-.121,1.559-.168a4.376,4.376,0,0,0-1.5,3.126q-.642,14.017,0,28.035A4.373,4.373,0,0,0,213,323.177Z" transform="translate(-175.575 -276.15)" fill="#eab14d"/>
        </g>
      </g>
      <g id="Grupo_1214129" data-name="Grupo 1214129" transform="translate(-0.001 0.024)">
        <path id="Trazado_1249408" data-name="Trazado 1249408" d="M72.261,63.527H58.827L55.82,55.3a27.09,27.09,0,0,0,3.74-1.851A28.288,28.288,0,0,0,72.445,36.133a29.359,29.359,0,0,0-5-25.292,1.048,1.048,0,0,0-1.511-.183,1.147,1.147,0,0,0-.176,1.57A27.07,27.07,0,0,1,70.37,35.547,26.078,26.078,0,0,1,58.491,51.512a25.333,25.333,0,0,1-3.433,1.709l-1.4-3.837a1.064,1.064,0,0,0-1.387-.648,1.131,1.131,0,0,0-.623,1.442l1.377,3.764a24.172,24.172,0,0,1-5.036.968q-.064-4.105-.254-8.189A4.812,4.812,0,0,0,43.6,42.115a40.783,40.783,0,0,0-5.372-.338l8.522-12.482h0l.012-.018h0a1.132,1.132,0,0,0,.134-.263l8.678-24.76a25.119,25.119,0,0,1,7.385,4.866,1.047,1.047,0,0,0,1.519-.075,1.148,1.148,0,0,0-.072-1.579A26.938,26.938,0,0,0,49.069.221a26.447,26.447,0,0,0-16.861,3.59A28.175,28.175,0,0,0,21.155,16.069l-2.932-3.046a1.055,1.055,0,0,0-.76-.327H4.589a1.118,1.118,0,0,0,0,2.235H17.017l3.211,3.337a29.59,29.59,0,0,0-1.8,12.454A4.9,4.9,0,0,0,15.135,35.2c-.195,5.292-.3,10.641-.326,15.924a56.241,56.241,0,0,0-10.3,0,4.831,4.831,0,0,0-4.28,4.565,136.85,136.85,0,0,0,0,15.815,4.831,4.831,0,0,0,4.28,4.565c1.711.158,3.434.236,5.158.236s3.447-.079,5.158-.236a4.57,4.57,0,0,0,2.437-.982,4.558,4.558,0,0,0,1.758.723,30.351,30.351,0,0,0,10.907,0,4.575,4.575,0,0,0,1.363-.485,4.626,4.626,0,0,0,1.817.64,40.771,40.771,0,0,0,10.494,0,4.812,4.812,0,0,0,4.131-4.606c.221-4.715.314-9.467.28-14.214a26.547,26.547,0,0,0,5.772-1.123l3.3,9.015a1.078,1.078,0,0,0,1.005.721H72.261a1.118,1.118,0,0,0,0-2.235ZM48.818,2.441A24.855,24.855,0,0,1,53.55,3.492L45.666,25.987,34.221,5.216a24.326,24.326,0,0,1,14.6-2.775ZM24.8,19.859l-2.032-2.111A26.077,26.077,0,0,1,32.355,6.327L44.609,28.566,35.523,41.875q-.758.053-1.514.134c-.054-2.31-.122-4.595-.2-6.808a4.858,4.858,0,0,0-3.882-4.63,30.336,30.336,0,0,0-9.366-.239A27.291,27.291,0,0,1,21.9,20.007l1.378,1.432a1.047,1.047,0,0,0,1.521,0,1.148,1.148,0,0,0,0-1.58ZM19.39,73.613a2.494,2.494,0,0,1-1.4-.783,2.717,2.717,0,0,1-.7-1.732c-.06-1.66-.112-3.292-.153-4.85a1.076,1.076,0,1,0-2.15.062c.042,1.566.093,3.206.154,4.875a5.046,5.046,0,0,0,.632,2.264,2.476,2.476,0,0,1-1.133.4,54.319,54.319,0,0,1-9.936,0,2.62,2.62,0,0,1-2.323-2.474,134.5,134.5,0,0,1,0-15.546A2.62,2.62,0,0,1,4.7,53.353a54.187,54.187,0,0,1,9.936,0c.057.005.114.014.17.023,0,2.858.026,5.7.076,8.471a1.1,1.1,0,0,0,1.075,1.1h.021A1.1,1.1,0,0,0,17.031,61.8c-.055-3.02-.08-6.133-.076-9.254.007-5.715.118-11.523.329-17.263a2.637,2.637,0,0,1,2.1-2.515,28.281,28.281,0,0,1,10.163,0,2.637,2.637,0,0,1,2.1,2.515c.086,2.327.157,4.734.212,7.167a4.867,4.867,0,0,0-2.894,4.266c-.383,8.176-.383,16.467,0,24.643a4.991,4.991,0,0,0,.643,2.235l-.064.014a28.294,28.294,0,0,1-10.164,0Zm26.193-2.358a2.614,2.614,0,0,1-2.25,2.5,38.711,38.711,0,0,1-9.961,0,2.614,2.614,0,0,1-2.25-2.5c-.38-8.1-.38-16.322,0-24.425a2.614,2.614,0,0,1,2.25-2.5,38.7,38.7,0,0,1,9.961,0,2.614,2.614,0,0,1,2.25,2.5c.38,8.1.38,16.321,0,24.425Z" transform="translate(0.001 -0.024)"/>
        <path id="Trazado_1249409" data-name="Trazado 1249409" d="M431.325,390.288H418.709a1.2,1.2,0,0,0,0,2.4h12.616a1.2,1.2,0,0,0,0-2.4Z" transform="translate(-359.196 -332.263)"/>
        <path id="Trazado_1249410" data-name="Trazado 1249410" d="M25.7,51.552H36.869a1.2,1.2,0,0,0,0-2.4H25.7a1.2,1.2,0,1,0,0,2.4Z" transform="translate(-20.588 -41.299)"/>
      </g>
    </g>
  </g>
</svg>
