<svg xmlns="http://www.w3.org/2000/svg" width="129.063" height="82.76" viewBox="0 0 129.063 82.76">
  <g id="Grupo_1213331" data-name="Grupo 1213331" transform="translate(-787.781 -2578.332)">
    <g id="Grupo_1201005" data-name="Grupo 1201005" transform="translate(0 26)">
      <g id="Rectángulo_410589" data-name="Rectángulo 410589" transform="translate(787.781 2575.623)" fill="#70d9c1" stroke="#4d9686" stroke-width="1">
        <rect width="129.063" height="43.021" rx="8" stroke="none"/>
        <rect x="0.5" y="0.5" width="128.063" height="42.021" rx="7.5" fill="none"/>
      </g>
    </g>
    <g id="approved_7871157" transform="translate(769.555 2570.331)">
      <g id="Grupo_1214124" data-name="Grupo 1214124" transform="translate(49.397 9.336)">
        <g id="Grupo_1214122" data-name="Grupo 1214122" transform="translate(0 0)">
          <path id="Trazado_1249373" data-name="Trazado 1249373" d="M151.24,16h39.335a1.612,1.612,0,0,1,1.18.489l7.084,7.084a1.612,1.612,0,0,1,.489,1.18V78.819a1.672,1.672,0,0,1-1.669,1.669H151.24a1.672,1.672,0,0,1-1.669-1.669V17.669A1.672,1.672,0,0,1,151.24,16Z" transform="translate(-133.969 -16)" fill="#b1b1b5" fill-rule="evenodd"/>
          <path id="Trazado_1249374" data-name="Trazado 1249374" d="M399.455,16.867v6.248a1.672,1.672,0,0,0,1.669,1.669h6.248a1.673,1.673,0,0,0-.344-.489l-7.084-7.084a1.673,1.673,0,0,0-.489-.344Z" transform="translate(-342.158 -16.722)" fill="#a79ba7" fill-rule="evenodd"/>
          <path id="Trazado_1249375" data-name="Trazado 1249375" d="M104.486,62.755H143.82a1.612,1.612,0,0,1,1.18.489l7.084,7.084a1.612,1.612,0,0,1,.489,1.18v54.067a1.672,1.672,0,0,1-1.669,1.669H104.486a1.672,1.672,0,0,1-1.669-1.669V64.423a1.672,1.672,0,0,1,1.669-1.668Z" transform="translate(-95.016 -54.954)" fill="#d1d1d6" fill-rule="evenodd"/>
          <path id="Trazado_1249376" data-name="Trazado 1249376" d="M352.7,63.621v6.248a1.672,1.672,0,0,0,1.669,1.669h6.248a1.673,1.673,0,0,0-.344-.489l-7.084-7.084A1.673,1.673,0,0,0,352.7,63.621Z" transform="translate(-303.204 -55.675)" fill="#a79ba7" fill-rule="evenodd"/>
          <path id="Trazado_1249377" data-name="Trazado 1249377" d="M57.731,109.509H97.065a1.612,1.612,0,0,1,1.18.489l7.084,7.084a1.612,1.612,0,0,1,.489,1.18v54.067A1.672,1.672,0,0,1,104.149,174H57.731a1.672,1.672,0,0,1-1.669-1.669V111.178a1.672,1.672,0,0,1,1.669-1.669Z" transform="translate(-56.062 -93.907)" fill="#eceff1" fill-rule="evenodd"/>
          <path id="Trazado_1249378" data-name="Trazado 1249378" d="M57.731,109.509h2.556V174H57.731a1.672,1.672,0,0,1-1.669-1.669V111.178A1.672,1.672,0,0,1,57.731,109.509Z" transform="translate(-56.062 -93.907)" fill="#d1d1d6" fill-rule="evenodd"/>
          <path id="Trazado_1249379" data-name="Trazado 1249379" d="M305.946,110.376v6.248a1.672,1.672,0,0,0,1.669,1.669h6.248a1.675,1.675,0,0,0-.344-.489l-7.084-7.084A1.675,1.675,0,0,0,305.946,110.376Z" transform="translate(-264.252 -94.629)" fill="#a79ba7" fill-rule="evenodd"/>
        </g>
        <g id="Grupo_1214123" data-name="Grupo 1214123" transform="translate(33.441 46.8)">
          <circle id="Elipse_12484" data-name="Elipse 12484" cx="16.104" cy="16.104" r="16.104" transform="translate(0 2.287) rotate(-4.069)" fill="#60b7ff"/>
          <path id="Trazado_1249380" data-name="Trazado 1249380" d="M345.655,302.973a16.1,16.1,0,0,1,1.089,32.17,16.1,16.1,0,0,0-2.757-31.971c-.366,0-.729.014-1.089.038A16.2,16.2,0,0,1,345.655,302.973Z" transform="translate(-328.479 -301.89)" fill="#41a8fc" fill-rule="evenodd"/>
          <path id="Trazado_1249381" data-name="Trazado 1249381" d="M293.55,370.668a1.872,1.872,0,0,1,2.647-2.647l4.637,4.637,9.4-9.5a1.866,1.866,0,1,1,2.647,2.632c-3.574,3.61-7.132,7.247-10.723,10.837a1.872,1.872,0,0,1-2.647,0Z" transform="translate(-286.908 -351.577)" fill="#eceff1" fill-rule="evenodd"/>
        </g>
      </g>
      <path id="Trazado_1249382" data-name="Trazado 1249382" d="M108.021,69.034a.532.532,0,0,0-.532-.53.527.527,0,0,0-.375.157l-9.4,9.494a1.335,1.335,0,0,1-.946.4h0a1.335,1.335,0,0,1-.944-.391l-4.637-4.636a.537.537,0,0,0-.76.759l5.963,5.963a.538.538,0,0,0,.759,0c2.319-2.319,9.456-9.557,10.719-10.832a.537.537,0,0,0,.157-.379Zm1.725-2.269a3.2,3.2,0,0,1,.014,4.528c-1.26,1.271-8.4,8.513-10.725,10.839a3.207,3.207,0,0,1-4.536,0L88.536,76.17a3.206,3.206,0,0,1,4.535-4.534l3.688,3.688,8.459-8.543a3.183,3.183,0,0,1,2.263-.946h.01a3.176,3.176,0,0,1,2.256.931Zm5.037,6.558a14.769,14.769,0,1,1-14.77-14.77A14.786,14.786,0,0,1,114.784,73.323ZM90.751,88.091H50.731V26.273H89.757V33a1.334,1.334,0,0,0,1.335,1.334h6.726V56.022a17.339,17.339,0,0,0-8.131,3.259H56.773a1.335,1.335,0,0,0,0,2.67H86.806a17.44,17.44,0,0,0-2.683,4.195H56.773a1.335,1.335,0,0,0,0,2.67H83.168a17.407,17.407,0,0,0-.589,4.2H56.773a1.335,1.335,0,0,0,0,2.67H82.736a17.311,17.311,0,0,0,1.12,4.2H56.773a1.335,1.335,0,0,0,0,2.67H85.222a17.586,17.586,0,0,0,5.529,5.544Zm1.675-56.427h3.5l-3.5-3.5ZM58.534,23.6H91.092a1.335,1.335,0,0,1,.942.39l8.063,8.063a1.331,1.331,0,0,1,.39.943V55.89a17.362,17.362,0,0,1,5.131.918V26.533H98.892A1.335,1.335,0,0,1,97.557,25.2V18.471H58.534Zm41.694.261v-3.5l3.5,3.5ZM66.334,15.8H98.892a1.341,1.341,0,0,1,.945.392l8.06,8.061a1.335,1.335,0,0,1,.391.944V57.976a17.544,17.544,0,0,1,5.132,4.206V18.732H106.7A1.335,1.335,0,0,1,105.36,17.4V10.671H66.334Zm41.7.26v-3.5l3.5,3.5Zm9.424,57.262a17.458,17.458,0,0,1-17.439,17.438H49.4a1.335,1.335,0,0,1-1.335-1.335V24.938A1.335,1.335,0,0,1,49.4,23.6h6.467V17.136A1.336,1.336,0,0,1,57.2,15.8h6.465V9.335A1.334,1.334,0,0,1,65,8h41.7a1.332,1.332,0,0,1,.942.39l8.063,8.063a1.333,1.333,0,0,1,.39.942V66.564a17.344,17.344,0,0,1,1.362,6.76Zm-60.68-31.97h35a1.335,1.335,0,1,0,0-2.67h-35a1.335,1.335,0,0,0,0,2.67Zm0-6.866H75.854a1.335,1.335,0,0,0,0-2.67H56.773a1.335,1.335,0,0,0,0,2.67Zm0,13.73h35a1.335,1.335,0,1,0,0-2.67h-35a1.335,1.335,0,0,0,0,2.67Zm-1.334,5.531a1.334,1.334,0,0,0,1.334,1.335h35a1.335,1.335,0,1,0,0-2.67h-35a1.334,1.334,0,0,0-1.334,1.334Z" transform="translate(0 0)" fill-rule="evenodd"/>
    </g>
  </g>
</svg>
