<svg xmlns="http://www.w3.org/2000/svg" width="129.063" height="75.895" viewBox="0 0 129.063 75.895">
  <g id="Grupo_1213332" data-name="Grupo 1213332" transform="translate(-787.781 -2584.077)">
    <g id="Grupo_1201005" data-name="Grupo 1201005" transform="translate(0 26)">
      <g id="Rectángulo_410589" data-name="Rectángulo 410589" transform="translate(787.781 2575.623)" fill="#70d9c1" stroke="#4d9686" stroke-width="1">
        <rect width="129.063" height="43.021" rx="8" stroke="none"/>
        <rect x="0.5" y="0.5" width="128.063" height="42.021" rx="7.5" fill="none"/>
      </g>
    </g>
    <g id="truck_4333618" transform="translate(798.21 2573.55)">
      <path id="Trazado_1249383" data-name="Trazado 1249383" d="M23.657,23.809l-3-7.01-3.532-5.3L13.59,16.8,6.55,22.431a3.29,3.29,0,0,0,3.1,5.691l2.828-.942a3.532,3.532,0,0,1,4.649,3.351v7.463l1.766,7.065H50.68V34.46a5.3,5.3,0,0,0-5.3-5.3H31.775a8.831,8.831,0,0,1-8.118-5.354Z" transform="translate(2.54 0.745)" fill="#c18875"/>
      <path id="Trazado_1249384" data-name="Trazado 1249384" d="M12.5,28.5l.883,3.532H45.174V28.5Z" transform="translate(8.045 13.77)" fill="#b26a52"/>
      <path id="Trazado_1249385" data-name="Trazado 1249385" d="M3,37.5H64.816V53.4H4.766A1.766,1.766,0,0,1,3,51.629Z" transform="translate(0.766 20.666)" fill="#aff08c"/>
      <path id="Trazado_1249386" data-name="Trazado 1249386" d="M5,37.5H63.284V53.4H5Z" transform="translate(2.299 20.666)" fill="#90dc64"/>
      <path id="Trazado_1249387" data-name="Trazado 1249387" d="M20.129,38.5A14.146,14.146,0,0,0,6,52.629H34.259A14.146,14.146,0,0,0,20.129,38.5Z" transform="translate(3.065 21.432)" fill="#7dcf56"/>
      <path id="Trazado_1249388" data-name="Trazado 1249388" d="M74.051,38.864l-9.962-15.5A10.6,10.6,0,0,0,55.175,18.5H38V67.953H73.324a3.532,3.532,0,0,0,3.532-3.532V48.414a17.661,17.661,0,0,0-2.8-9.549Z" transform="translate(27.583 6.108)" fill="#aff08c"/>
      <path id="Trazado_1249389" data-name="Trazado 1249389" d="M75.324,64.421V48.414a17.662,17.662,0,0,0-2.805-9.551l-9.962-15.5A10.6,10.6,0,0,0,53.643,18.5H40V67.953H71.791A3.532,3.532,0,0,0,75.324,64.421Z" transform="translate(29.115 6.108)" fill="#90dc64"/>
      <path id="Trazado_1249390" data-name="Trazado 1249390" d="M54.129,38.5A14.146,14.146,0,0,0,40,52.629H68.259A14.146,14.146,0,0,0,54.129,38.5Z" transform="translate(29.115 21.432)" fill="#7dcf56"/>
      <path id="Trazado_1249391" data-name="Trazado 1249391" d="M3,30.5H64.816V42.863H3Z" transform="translate(0.766 15.302)" fill="#c18875"/>
      <path id="Trazado_1249392" data-name="Trazado 1249392" d="M5,32.5H63.284v8.831H5Z" transform="translate(2.299 16.835)" fill="#b26a52"/>
      <circle id="Elipse_12485" data-name="Elipse 12485" cx="10.597" cy="10.597" r="10.597" transform="translate(72.647 63.464)" fill="#40485a"/>
      <circle id="Elipse_12486" data-name="Elipse 12486" cx="10.597" cy="10.597" r="10.597" transform="translate(12.597 63.464)" fill="#40485a"/>
      <circle id="Elipse_12487" data-name="Elipse 12487" cx="3.532" cy="3.532" r="3.532" transform="translate(79.712 70.529)" fill="#ededf2"/>
      <circle id="Elipse_12488" data-name="Elipse 12488" cx="3.532" cy="3.532" r="3.532" transform="translate(19.662 70.529)" fill="#ededf2"/>
      <path id="Trazado_1249393" data-name="Trazado 1249393" d="M63.065,36.5H59.532a3.532,3.532,0,1,0,0,7.065h3.532Z" transform="translate(41.374 19.899)" fill="#ffdc60"/>
      <path id="Trazado_1249394" data-name="Trazado 1249394" d="M61.671,22.5H46.532A3.532,3.532,0,0,0,43,26.032V33.1a3.532,3.532,0,0,0,3.532,3.532H70.754Z" transform="translate(31.414 9.173)" fill="#a1eef0"/>
      <path id="Trazado_1249395" data-name="Trazado 1249395" d="M103.119,44.016l-9.961-15.5a12.313,12.313,0,0,0-10.4-5.678H65.583a1.766,1.766,0,0,0-1.766,1.766V44.036H54.986V37.463A3.521,3.521,0,0,1,56.752,40.5a1.766,1.766,0,1,0,3.532,0,7.068,7.068,0,0,0-5.49-6.873,7.068,7.068,0,0,0-6.873-5.49H34.315a7.057,7.057,0,0,1-6.493-4.283l-3-7.01a1.811,1.811,0,0,0-.154-.285l-3.532-5.3a1.833,1.833,0,0,0-2.939,0l-3.382,5.07L7.987,21.8a5.056,5.056,0,0,0,4.756,8.745l2.829-.942A1.766,1.766,0,0,1,17.9,31.275v7.462a1.8,1.8,0,0,0,.053.429l1.217,4.87H5.532V35.205a1.766,1.766,0,0,0-3.532,0V72.3a3.536,3.536,0,0,0,3.532,3.532h5.44a12.347,12.347,0,0,0,24.444,0H71.022a12.347,12.347,0,0,0,24.444,0h5.44a5.3,5.3,0,0,0,5.3-5.3V54.522a19.388,19.388,0,0,0-3.086-10.506ZM14.455,26.248l-2.829.942a1.493,1.493,0,0,1-1.163-.083,1.512,1.512,0,0,1-.764-.881,1.53,1.53,0,0,1,.495-1.671l7.04-5.632a1.755,1.755,0,0,0,.366-.4l2.063-3.094,1.973,2.959,2.939,6.861a10.586,10.586,0,0,0,9.741,6.424H47.921a3.536,3.536,0,0,1,3.532,3.532v8.831H22.807L21.428,38.52V31.275a5.3,5.3,0,0,0-6.973-5.027Zm8.739,56.644a8.831,8.831,0,1,1,8.831-8.831,8.831,8.831,0,0,1-8.831,8.831ZM63.816,72.3h-28.4a12.347,12.347,0,0,0-24.444,0H5.532V59.932H63.816Zm0-15.9H5.532V47.569h5.3V51.1a1.766,1.766,0,0,0,3.532,0V47.569h5.3V51.1a1.766,1.766,0,0,0,3.532,0V47.569h5.3V51.1a1.766,1.766,0,0,0,3.532,0V47.569h5.3V51.1a1.766,1.766,0,0,0,3.532,0V47.569h5.3V51.1a1.766,1.766,0,0,0,3.532,0V47.569h5.3V51.1a1.766,1.766,0,0,0,3.532,0V47.569h5.3Zm28.3-22.96,6.812,10.6H77.946A1.768,1.768,0,0,1,76.18,42.27V35.205a1.768,1.768,0,0,1,1.766-1.766ZM83.244,82.892a8.831,8.831,0,1,1,8.831-8.831,8.831,8.831,0,0,1-8.831,8.831ZM102.672,61.7h-1.766a1.766,1.766,0,0,1,0-3.532h1.766Zm0-7.065h-1.766a5.3,5.3,0,1,0,0,10.6h1.766v5.3a1.768,1.768,0,0,1-1.766,1.766h-5.44a12.347,12.347,0,0,0-24.444,0H67.349V26.374H82.757A8.78,8.78,0,0,1,89.8,29.907H77.946a5.3,5.3,0,0,0-5.3,5.3V42.27a5.3,5.3,0,0,0,5.3,5.3h23.1a15.841,15.841,0,0,1,1.627,6.953Z"/>
      <path id="Trazado_1249396" data-name="Trazado 1249396" d="M50.3,43.5a5.3,5.3,0,1,0,5.3,5.3,5.3,5.3,0,0,0-5.3-5.3Zm0,7.065A1.766,1.766,0,1,1,52.065,48.8,1.766,1.766,0,0,1,50.3,50.565Z" transform="translate(32.946 25.263)"/>
      <path id="Trazado_1249397" data-name="Trazado 1249397" d="M16.3,43.5a5.3,5.3,0,1,0,5.3,5.3,5.3,5.3,0,0,0-5.3-5.3Zm0,7.065A1.766,1.766,0,1,1,18.065,48.8,1.766,1.766,0,0,1,16.3,50.565Z" transform="translate(6.896 25.263)"/>
      <path id="Trazado_1249398" data-name="Trazado 1249398" d="M48.3,34.5H44.766a1.766,1.766,0,0,0,0,3.532H48.3a1.766,1.766,0,1,0,0-3.532Z" transform="translate(31.414 18.367)"/>
    </g>
  </g>
</svg>
