<svg xmlns="http://www.w3.org/2000/svg" width="127" height="207.797" viewBox="0 0 127 207.797">
  <g id="Grupo_1214132" data-name="Grupo 1214132" transform="translate(-600.051 -28315)">
    <rect id="Rect치ngulo_411443" data-name="Rect치ngulo 411443" width="127" height="207.796" transform="translate(600.051 28315)" fill="#93795a"/>
    <g id="Grupo_1214130" data-name="Grupo 1214130" transform="translate(612.051 28401)">
      <g id="Rect치ngulo_410589" data-name="Rect치ngulo 410589" fill="#816747" stroke="#695640" stroke-width="1">
        <rect width="104.598" height="34.866" rx="8" stroke="none"/>
        <rect x="0.5" y="0.5" width="103.598" height="33.866" rx="7.5" fill="none"/>
      </g>
    </g>
    <g id="insurance_18288425" transform="translate(613.319 28374.996)">
      <path id="Trazado_1249411" data-name="Trazado 1249411" d="M19.754,63.258a4.435,4.435,0,0,1,4.427-4.427H73.909a4.435,4.435,0,0,1,4.427,4.427v61.021a4.435,4.435,0,0,1-4.427,4.427H24.181a4.435,4.435,0,0,1-4.427-4.427Z" transform="translate(-5.912 -46.163)" fill="#d1d1d6" fill-rule="evenodd"/>
      <path id="Trazado_1249412" data-name="Trazado 1249412" d="M47.934,87.011H97.61v60.968H47.934Z" transform="translate(-29.639 -69.89)" fill="#fff"/>
      <path id="Trazado_1249413" data-name="Trazado 1249413" d="M133.77,11a5.207,5.207,0,0,0-5.207,5.207v.715l-5.162-.9a2.576,2.576,0,0,0-3.02,2.538v5.6H147.16v-5.6a2.576,2.576,0,0,0-3.02-2.538l-5.162.9v-.715A5.207,5.207,0,0,0,133.77,11Z" transform="translate(-90.638 -5.894)" fill="#f0e3df" fill-rule="evenodd"/>
      <path id="Trazado_1249414" data-name="Trazado 1249414" d="M89.3,134.79h9.719a1.185,1.185,0,0,1,1.185,1.185v9.719a1.186,1.186,0,0,1-1.185,1.185H89.3a1.186,1.186,0,0,1-1.185-1.185v-9.719A1.186,1.186,0,0,1,89.3,134.79Z" transform="translate(-63.467 -110.119)" fill="#85caff"/>
      <path id="Trazado_1249415" data-name="Trazado 1249415" d="M89.3,241.667h9.719a1.185,1.185,0,0,1,1.185,1.185v9.719a1.185,1.185,0,0,1-1.185,1.185H89.3a1.186,1.186,0,0,1-1.185-1.185v-9.719a1.186,1.186,0,0,1,1.185-1.185Z" transform="translate(-63.468 -200.106)" fill="#b8e739"/>
      <path id="Trazado_1249416" data-name="Trazado 1249416" d="M89.3,348.544h9.719a1.185,1.185,0,0,1,1.185,1.185v9.719a1.185,1.185,0,0,1-1.185,1.185H89.3a1.186,1.186,0,0,1-1.185-1.185v-9.719a1.186,1.186,0,0,1,1.185-1.185Z" transform="translate(-63.468 -290.094)" fill="#ffeb87"/>
      <g id="Grupo_1214131" data-name="Grupo 1214131" transform="translate(12.732 4.004)">
        <path id="Trazado_1249417" data-name="Trazado 1249417" d="M253.086,260.854A28.369,28.369,0,0,0,270.2,286.9l1.784.771,1.784-.771a28.4,28.4,0,0,0,16.688-30.984l-.314-1.786-1.465-1.068a28.368,28.368,0,0,0-33.384,0l-1.465,1.068-.314,1.786A28.524,28.524,0,0,0,253.086,260.854Z" transform="translate(-215.104 -209.129)" fill="#85caff" fill-rule="evenodd"/>
        <path id="Trazado_1249418" data-name="Trazado 1249418" d="M281.538,284.81a24.023,24.023,0,0,1,.362-4.163,23.871,23.871,0,0,1,28.086,0,23.9,23.9,0,0,1-14.043,26.078,23.869,23.869,0,0,1-14.4-21.915Z" transform="translate(-239.06 -233.085)" fill="#fff" fill-rule="evenodd"/>
        <path id="Trazado_1249419" data-name="Trazado 1249419" d="M323.79,326.8a2.185,2.185,0,0,1,3.525-2.582l2.218,3.015,6.848-8.56a2.194,2.194,0,0,1,3.426,2.741L331.18,332.2l-.007-.006a2.186,2.186,0,0,1-3.469-.074l-3.914-5.32Z" transform="translate(-274.28 -268.257)" fill="#b8e739" fill-rule="evenodd"/>
        <path id="Trazado_1249420" data-name="Trazado 1249420" d="M43.131,8.491A1.612,1.612,0,1,0,44.738,10.1,1.615,1.615,0,0,0,43.131,8.491Zm34.5,47.183a1.1,1.1,0,0,0-.4-.73,1.092,1.092,0,0,0-1.531.171l-6.848,8.561a1.114,1.114,0,0,1-.884.414,1.1,1.1,0,0,1-.868-.45l-2.216-3.016A1.08,1.08,0,1,0,63.133,61.9l3.915,5.319a1.059,1.059,0,0,0,.7.43,1.081,1.081,0,0,0,.807-.2.924.924,0,0,0,.2-.2c.03-.038.069-.072.1-.1l8.539-10.675a1.086,1.086,0,0,0,.236-.8Zm2.194-.245a3.281,3.281,0,0,1-.7,2.426L70.491,68.64c-.038.046-.076.088-.114.126a3.425,3.425,0,0,1-.518.468,3.264,3.264,0,0,1-1.935.637,3.4,3.4,0,0,1-.51-.04,3.29,3.29,0,0,1-2.156-1.308L61.35,63.206s0,0-.008,0a3.294,3.294,0,0,1,5.316-3.892l1.363,1.854,5.941-7.435a3.305,3.305,0,0,1,2.216-1.219,3.272,3.272,0,0,1,2.422.7,3.238,3.238,0,0,1,1.219,2.213Zm3.092.3a22.764,22.764,0,0,1-13.3,20.7,22.751,22.751,0,0,1-13.3-20.7,23.7,23.7,0,0,1,.267-3.53,22.774,22.774,0,0,1,26.057,0A22.733,22.733,0,0,1,82.914,55.729Zm1.828-4.355A24.991,24.991,0,0,1,70.049,78.659a1.1,1.1,0,0,1-.876,0A24.991,24.991,0,0,1,54.48,51.374a1.1,1.1,0,0,1,.434-.7,24.982,24.982,0,0,1,29.393,0A1.1,1.1,0,0,1,84.742,51.374Zm2.666,4.355A27.247,27.247,0,0,1,70.955,80.756l-1.341.581-1.348-.581A27.246,27.246,0,0,1,52.233,50.979l.236-1.347,1.1-.806a27.152,27.152,0,0,1,6.246-3.409,1.156,1.156,0,0,0,.152-.057,27.318,27.318,0,0,1,25.684,3.466l1.1.806L87,50.979a27.473,27.473,0,0,1,.411,4.75ZM18.269,81.435a3.328,3.328,0,0,1-3.329-3.32V17.094a3.328,3.328,0,0,1,3.329-3.32H28.636v2.241H18.292a1.106,1.106,0,0,0-1.1,1.106V78.089a1.105,1.105,0,0,0,1.1,1.106H61.244a28.574,28.574,0,0,0,3.42,2.241H18.269ZM29.74,19.378H56.521a1.106,1.106,0,0,0,1.1-1.106v-.045h9.239v23.3a29.176,29.176,0,0,0-7.571,1.728H41.349a1.106,1.106,0,0,0,0,2.213H54.663c-.815.484-1.615,1.009-2.392,1.576L50.8,48.108a1.1,1.1,0,0,0-.434.7l-.168.938H41.349a1.106,1.106,0,0,0,0,2.212h8.5a29.673,29.673,0,0,0-.244,3.77,30.236,30.236,0,0,0,.328,4.413H41.349a1.106,1.106,0,0,0,0,2.212H50.36a29.443,29.443,0,0,0,1.333,4.281H41.349a1.106,1.106,0,0,0,0,2.212H52.683a29.41,29.41,0,0,0,5.972,8.135H19.4V18.227h9.239v.045a1.106,1.106,0,0,0,1.1,1.106Zm1.1-2.213v-4.5a1.473,1.473,0,0,1,1.729-1.449l5.157.9a1.12,1.12,0,0,0,.906-.243,1.1,1.1,0,0,0,.388-.846v-.715a4.1,4.1,0,0,1,8.2,0v.715a1.11,1.11,0,0,0,1.3,1.089l5.157-.9a1.463,1.463,0,0,1,1.722,1.449v4.5Zm37.147-3.391H57.626v2.241H67.969a1.106,1.106,0,0,1,1.1,1.106V41.4c.175,0,.358-.005.541-.005.564,0,1.135.016,1.7.048V17.094a3.321,3.321,0,0,0-3.321-3.32ZM89.616,55.729A29.45,29.45,0,0,1,71.831,82.786l-1.782.771a1.112,1.112,0,0,1-.876,0l-.061-.025a5.532,5.532,0,0,1-1.12.115H18.269a5.54,5.54,0,0,1-5.537-5.532V17.094a5.54,5.54,0,0,1,5.537-5.532H28.8a3.624,3.624,0,0,1,1.15-1.714,3.588,3.588,0,0,1,3.009-.808l3.892.681a6.312,6.312,0,0,1,12.568,0l3.892-.681a3.572,3.572,0,0,1,3,.808,3.628,3.628,0,0,1,1.158,1.714H67.992a5.54,5.54,0,0,1,5.537,5.532v24.56A29.222,29.222,0,0,1,86.958,47.04l1.463,1.068a1.1,1.1,0,0,1,.434.7l.32,1.786A29.63,29.63,0,0,1,89.616,55.729ZM32.665,61.65l-3.108,3.1-.67-1.166a1.108,1.108,0,1,0-1.92,1.106l1.394,2.415a1.109,1.109,0,0,0,.815.543,1.034,1.034,0,0,0,.145.01,1.123,1.123,0,0,0,.785-.324l4.121-4.123a1.105,1.105,0,0,0-1.561-1.564Zm0-16.89-3.108,3.1-.67-1.166a1.108,1.108,0,1,0-1.92,1.106l1.394,2.414a1.11,1.11,0,0,0,.815.544,1.169,1.169,0,0,0,.145.009,1.124,1.124,0,0,0,.785-.324l4.121-4.123a1.105,1.105,0,0,0-1.561-1.564Zm2.955,14.873a.081.081,0,0,0-.076-.078H25.825a.081.081,0,0,0-.076.078v9.72a.081.081,0,0,0,.076.078h9.719a.081.081,0,0,0,.076-.078Zm2.216,0a2.293,2.293,0,0,0-2.293-2.29H25.825a2.293,2.293,0,0,0-2.293,2.29v9.72a2.293,2.293,0,0,0,2.293,2.29h9.719a2.293,2.293,0,0,0,2.293-2.29ZM35.621,42.745a.082.082,0,0,0-.076-.079H25.825a.082.082,0,0,0-.076.079v9.719a.084.084,0,0,0,.076.079h9.719a.084.084,0,0,0,.076-.079Zm2.216,0a2.294,2.294,0,0,0-2.293-2.291H25.825a2.294,2.294,0,0,0-2.293,2.291v9.719a2.3,2.3,0,0,0,2.293,2.291h9.719a2.3,2.3,0,0,0,2.293-2.291ZM28.362,33.33a1.111,1.111,0,0,0,.815.544,1.139,1.139,0,0,0,.145.009,1.123,1.123,0,0,0,.785-.324l4.121-4.123a1.105,1.105,0,0,0-1.561-1.564l-3.108,3.1-.67-1.165a1.108,1.108,0,1,0-1.92,1.106Zm7.183-7.553H25.825a.082.082,0,0,0-.076.079v9.718a.083.083,0,0,0,.076.079h9.719a.083.083,0,0,0,.076-.079V25.856A.082.082,0,0,0,35.544,25.777Zm-9.719-2.212a2.294,2.294,0,0,0-2.293,2.291v9.718a2.294,2.294,0,0,0,2.293,2.291h9.719a2.294,2.294,0,0,0,2.293-2.291V25.857a2.294,2.294,0,0,0-2.293-2.291Zm15.523,11.5H60.862a1.106,1.106,0,0,0,0-2.213H41.348a1.106,1.106,0,0,0,0,2.213Zm-1.1-7.6a1.106,1.106,0,0,0,1.1,1.106H60.862a1.106,1.106,0,0,0,0-2.212H41.348a1.106,1.106,0,0,0-1.1,1.106Z" transform="translate(-12.732 -4.004)" fill-rule="evenodd"/>
      </g>
    </g>
  </g>
</svg>
