<svg xmlns="http://www.w3.org/2000/svg" width="129.063" height="82.251" viewBox="0 0 129.063 82.251">
  <g id="Grupo_1213330" data-name="Grupo 1213330" transform="translate(-787.781 -2575.874)">
    <g id="Grupo_1201005" data-name="Grupo 1201005" transform="translate(0 26)">
      <g id="Rectángulo_410589" data-name="Rectángulo 410589" transform="translate(787.781 2575.623)" fill="#70d9c1" stroke="#4d9686" stroke-width="1">
        <rect width="129.063" height="43.021" rx="8" stroke="none"/>
        <rect x="0.5" y="0.5" width="128.063" height="42.021" rx="7.5" fill="none"/>
      </g>
    </g>
    <g id="pills_925891" transform="translate(791.294 2575.874)">
      <path id="Trazado_1249345" data-name="Trazado 1249345" d="M88.006,176.011h16.45v8.225H88.006Z" transform="translate(-53.033 -145.851)" fill="#744630"/>
      <path id="Trazado_1249346" data-name="Trazado 1249346" d="M88.006,184.011h16.45v2.742H88.006Z" transform="translate(-53.033 -152.48)" fill="#5b3726"/>
      <g id="Grupo_1214119" data-name="Grupo 1214119" transform="translate(25.377 24.677)">
        <path id="Trazado_1249347" data-name="Trazado 1249347" d="M50.748,144.011H75.422a2.742,2.742,0,0,1,2.742,2.742v1.371a2.742,2.742,0,0,1-2.742,2.742H50.748a2.742,2.742,0,0,1-2.742-2.742v-1.371A2.742,2.742,0,0,1,50.748,144.011Z" transform="translate(-45.264 -144.011)" fill="#804d35"/>
        <path id="Trazado_1249348" data-name="Trazado 1249348" d="M38.86,216.011H60.793a6.854,6.854,0,0,1,6.854,6.854v32.9a4.112,4.112,0,0,1-4.112,4.112H36.118a4.112,4.112,0,0,1-4.112-4.112h0v-32.9A6.854,6.854,0,0,1,38.86,216.011Z" transform="translate(-32.006 -203.674)" fill="#804d35"/>
      </g>
      <path id="Trazado_1249349" data-name="Trazado 1249349" d="M32.006,280.011H56.681v24.675H32.006Z" transform="translate(-6.629 -232.03)" fill="#f0f0f0"/>
      <path id="Trazado_1249350" data-name="Trazado 1249350" d="M77.714,316.123H73.6v-4.112H68.118v4.112H64.006v5.483h4.112v4.112H73.6v-4.112h4.112Z" transform="translate(-33.146 -258.547)" fill="#6f9935"/>
      <path id="Trazado_1249351" data-name="Trazado 1249351" d="M33.478,456.011a4.447,4.447,0,0,0,4.2,2.742H67.5v-2.742Z" transform="translate(-7.849 -377.872)" fill="#744630"/>
      <path id="Trazado_1249352" data-name="Trazado 1249352" d="M290.748,184.011h21.933a2.742,2.742,0,0,1,2.742,2.742v43.866a2.742,2.742,0,0,1-2.742,2.742H290.748a2.742,2.742,0,0,1-2.742-2.742V186.753A2.742,2.742,0,0,1,290.748,184.011Z" transform="translate(-218.763 -152.48)" fill="#dbdbdb"/>
      <g id="Grupo_1214120" data-name="Grupo 1214120" transform="translate(55.535 54.835)">
        <path id="Trazado_1249353" data-name="Trazado 1249353" d="M208.006,320.011h21.933v26.046H208.006Z" transform="translate(-208.006 -320.011)" fill="#b9b9b9"/>
        <path id="Trazado_1249354" data-name="Trazado 1249354" d="M288.006,456.011h27.416a2.742,2.742,0,0,1-2.742,2.742H288.006v-2.742Z" transform="translate(-274.298 -432.707)" fill="#b9b9b9"/>
      </g>
      <circle id="Elipse_12475" data-name="Elipse 12475" cx="2.742" cy="2.742" r="2.742" transform="translate(74.726 69.914)" fill="#f4ca62"/>
      <path id="Trazado_1249355" data-name="Trazado 1249355" d="M320.006,410.753a2.742,2.742,0,0,0,2.742,2.742v-5.483A2.742,2.742,0,0,0,320.006,410.753Z" transform="translate(-245.28 -338.097)" fill="#ecc45f"/>
      <circle id="Elipse_12476" data-name="Elipse 12476" cx="2.742" cy="2.742" r="2.742" transform="translate(74.726 58.947)" fill="#f4ca62"/>
      <path id="Trazado_1249356" data-name="Trazado 1249356" d="M320.006,346.753a2.742,2.742,0,0,0,2.742,2.742v-5.483A2.742,2.742,0,0,0,320.006,346.753Z" transform="translate(-245.28 -285.064)" fill="#ecc45f"/>
      <circle id="Elipse_12477" data-name="Elipse 12477" cx="4.798" cy="4.798" r="4.798" transform="translate(31.546 1.374)" fill="#f9e0a0"/>
      <path id="Trazado_1249357" data-name="Trazado 1249357" d="M70.6,8.545a4.8,4.8,0,0,0-2.056,6.466h0L77.066,10.6A4.8,4.8,0,0,0,70.6,8.544Z" transform="translate(-36.459 -6.635)" fill="#f4ca62"/>
      <path id="Trazado_1249358" data-name="Trazado 1249358" d="M208.006,320.011H227.2v26.046H208.006Z" transform="translate(-152.471 -265.176)" fill="#3b869e"/>
      <path id="Trazado_1249359" data-name="Trazado 1249359" d="M208.006,456.011H227.2v2.742H208.006Z" transform="translate(-152.471 -377.872)" fill="#1f6c8c"/>
      <path id="Trazado_1249360" data-name="Trazado 1249360" d="M208.006,304.011H227.2v8.225H208.006Z" transform="translate(-152.471 -251.918)" fill="#b3e4e8"/>
      <path id="Trazado_1249361" data-name="Trazado 1249361" d="M208.006,384.011h12.337v9.6H208.006Z" transform="translate(-152.471 -318.21)" fill="#f7e4ba"/>
      <g id="Grupo_1214121" data-name="Grupo 1214121" transform="translate(74.726 37.014)">
        <circle id="Elipse_12478" data-name="Elipse 12478" cx="2.742" cy="2.742" r="2.742" transform="translate(10.967 32.9)" fill="#f4ca62"/>
        <circle id="Elipse_12479" data-name="Elipse 12479" cx="2.742" cy="2.742" r="2.742" fill="#f4ca62"/>
        <circle id="Elipse_12480" data-name="Elipse 12480" cx="2.742" cy="2.742" r="2.742" transform="translate(0 10.967)" fill="#f4ca62"/>
        <circle id="Elipse_12481" data-name="Elipse 12481" cx="2.742" cy="2.742" r="2.742" transform="translate(10.967)" fill="#f4ca62"/>
        <circle id="Elipse_12482" data-name="Elipse 12482" cx="2.742" cy="2.742" r="2.742" transform="translate(10.967 10.967)" fill="#f4ca62"/>
        <circle id="Elipse_12483" data-name="Elipse 12483" cx="2.742" cy="2.742" r="2.742" transform="translate(10.967 21.933)" fill="#f4ca62"/>
      </g>
      <path id="Trazado_1249362" data-name="Trazado 1249362" d="M162.484,26.745l8.239-8.239a3.866,3.866,0,0,1,5.467,0l.016.016a3.866,3.866,0,0,1,0,5.467l-8.239,8.239a3.866,3.866,0,0,1-5.467,0l-.016-.016A3.866,3.866,0,0,1,162.484,26.745Z" transform="translate(-113.811 -14.396)" fill="#c7463b"/>
      <path id="Trazado_1249363" data-name="Trazado 1249363" d="M201.61,18.5l-.016-.016a3.866,3.866,0,0,0-5.467,0l-4.121,4.121,5.483,5.483,4.121-4.121A3.866,3.866,0,0,0,201.61,18.5Z" transform="translate(-139.213 -14.382)" fill="#ebebeb"/>
      <path id="Trazado_1249364" data-name="Trazado 1249364" d="M29.489,194.956H93.918a4.112,4.112,0,0,0,4.112-4.112V146.978a4.112,4.112,0,0,0-4.112-4.112H71.985a4.112,4.112,0,0,0-4.112,4.112v16.45H62.389v-6.854a8.233,8.233,0,0,0-8.225-8.225H52.793v-2.742h2.742a4.112,4.112,0,0,0,4.112-4.112v-1.371a4.112,4.112,0,0,0-4.112-4.112H30.86a4.112,4.112,0,0,0-4.112,4.112v1.371a4.112,4.112,0,0,0,4.112,4.112H33.6v2.742H32.231a8.233,8.233,0,0,0-8.225,8.225v32.9A5.483,5.483,0,0,0,29.489,194.956Zm43.866-2.742H56.906v-2.742H69.243V177.136H56.906v-2.742h16.45Zm-16.45-12.337h9.6v6.854h-9.6Zm20.562-17.821a1.371,1.371,0,1,1-1.371,1.371A1.371,1.371,0,0,1,77.468,162.057Zm0,10.967a1.371,1.371,0,1,1-1.371,1.371A1.371,1.371,0,0,1,77.468,173.023Zm-4.112-1.371H56.906v-5.483h16.45Zm-2.742-24.675a1.371,1.371,0,0,1,1.371-1.371H93.918a1.371,1.371,0,0,1,1.371,1.371v43.866a1.371,1.371,0,0,1-1.371,1.371H76.1v-3a4.067,4.067,0,0,0,1.371.254,4.112,4.112,0,1,0,0-8.225,4.066,4.066,0,0,0-1.371.252v-3.246a4.066,4.066,0,0,0,1.371.252,4.112,4.112,0,1,0,0-8.225,4.065,4.065,0,0,0-1.371.252v-3.246a4.066,4.066,0,0,0,1.371.252,4.112,4.112,0,1,0-4.112-4.112H70.614ZM76.1,185.36a1.371,1.371,0,1,1,1.371,1.371A1.371,1.371,0,0,1,76.1,185.36Zm-45.237-42.5a1.371,1.371,0,0,1-1.371-1.371v-1.371a1.371,1.371,0,0,1,1.371-1.371H55.535a1.371,1.371,0,0,1,1.371,1.371v1.371a1.371,1.371,0,0,1-1.371,1.371Zm5.483,2.742H50.052v2.742H36.343Zm-9.6,16.45H48.681V183.99H26.748Zm24.675,24.675V159.315H26.748v-2.742a5.483,5.483,0,0,1,5.483-5.483H54.164a5.483,5.483,0,0,1,5.483,5.483v6.854H54.164v28.787H29.489a2.742,2.742,0,0,1-2.742-2.742v-2.742Z" transform="translate(0 -112.705)"/>
      <path id="Trazado_1249365" data-name="Trazado 1249365" d="M68.343,304.011H60.118v4.112H56.006v8.225h4.112v4.112h8.225v-4.112h4.112v-8.225H68.343Zm1.371,6.854v2.742H65.6v4.112H62.86v-4.112H58.748v-2.742H62.86v-4.112H65.6v4.112Z" transform="translate(-26.517 -251.918)"/>
      <path id="Trazado_1249366" data-name="Trazado 1249366" d="M60.667,9.006a6.168,6.168,0,1,0-.4-4.7A6.169,6.169,0,0,0,60.667,9.006Zm7.053.21a3.427,3.427,0,0,1-3.726-.385l5.572-2.879a3.405,3.405,0,0,1-1.841,3.268ZM64.575,3.127a3.346,3.346,0,0,1,3.7.4L62.734,6.4A3.407,3.407,0,0,1,64.575,3.127Z" transform="translate(-29.807 0)"/>
      <path id="Trazado_1249367" data-name="Trazado 1249367" d="M381.076,400.118a4.113,4.113,0,1,0,3.049,4.951A4.112,4.112,0,0,0,381.076,400.118Zm.382,4.318a1.371,1.371,0,1,1-1.334-1.687,1.41,1.41,0,0,1,.317.037,1.371,1.371,0,0,1,1.017,1.65Z" transform="translate(-291.69 -331.464)"/>
      <path id="Trazado_1249368" data-name="Trazado 1249368" d="M316.118,216.236a4.112,4.112,0,1,0-4.112-4.112A4.112,4.112,0,0,0,316.118,216.236Zm0-5.483a1.371,1.371,0,1,1-1.371,1.371A1.371,1.371,0,0,1,316.118,210.753Z" transform="translate(-238.651 -172.368)"/>
      <path id="Trazado_1249369" data-name="Trazado 1249369" d="M380.118,216.236a4.112,4.112,0,1,0-4.113-4.112A4.112,4.112,0,0,0,380.118,216.236Zm0-5.483a1.371,1.371,0,1,1-1.371,1.371A1.371,1.371,0,0,1,380.118,210.753Z" transform="translate(-291.684 -172.368)"/>
      <path id="Trazado_1249370" data-name="Trazado 1249370" d="M380.118,280.236a4.112,4.112,0,1,0-4.113-4.112A4.112,4.112,0,0,0,380.118,280.236Zm0-5.483a1.371,1.371,0,1,1-1.371,1.371A1.371,1.371,0,0,1,380.118,274.753Z" transform="translate(-291.684 -225.401)"/>
      <path id="Trazado_1249371" data-name="Trazado 1249371" d="M380.118,344.236a4.112,4.112,0,1,0-4.113-4.112A4.112,4.112,0,0,0,380.118,344.236Zm0-5.483a1.371,1.371,0,1,1-1.371,1.371A1.371,1.371,0,0,1,380.118,338.753Z" transform="translate(-291.684 -278.435)"/>
      <path id="Trazado_1249372" data-name="Trazado 1249372" d="M158.639,28.336a5.217,5.217,0,0,0,3.7-1.531l8.243-8.243a5.247,5.247,0,0,0-7.42-7.42l-8.243,8.243a5.25,5.25,0,0,0,3.719,8.951ZM165.1,13.079a2.48,2.48,0,0,1,1.764-.727,2.509,2.509,0,0,1,1.782,4.273l-3.153,3.153-3.545-3.546Zm-8.243,8.243,3.153-3.153,3.545,3.546L160.4,24.868a2.507,2.507,0,0,1-3.545-3.546Z" transform="translate(-107.216 -8.005)"/>
    </g>
  </g>
</svg>
