<svg xmlns="http://www.w3.org/2000/svg" width="127" height="169.668" viewBox="0 0 127 169.668">
  <g id="Grupo_1214149" data-name="Grupo 1214149" transform="translate(-601.051 -29832.662)">
    <rect id="Rect치ngulo_411450" data-name="Rect치ngulo 411450" width="127" height="169.668" transform="translate(601.051 29832.662)" fill="#4d9686"/>
    <g id="Grupo_1214148" data-name="Grupo 1214148">
      <g id="Grupo_1214136" data-name="Grupo 1214136" transform="translate(612.252 29902.66)">
        <g id="Rect치ngulo_410589" data-name="Rect치ngulo 410589" fill="#60a697" stroke="#295e52" stroke-width="1">
          <rect width="104.598" height="34.866" rx="8" stroke="none"/>
          <rect x="0.5" y="0.5" width="103.598" height="33.866" rx="7.5" fill="none"/>
        </g>
      </g>
      <g id="checklist_2666436" transform="translate(602.909 29875.855)">
        <g id="Grupo_1214144" data-name="Grupo 1214144" transform="translate(35.118 1.099)">
          <g id="Grupo_1214143" data-name="Grupo 1214143">
            <g id="Grupo_1214140" data-name="Grupo 1214140">
              <g id="Grupo_1214137" data-name="Grupo 1214137">
                <path id="Trazado_1249421" data-name="Trazado 1249421" d="M90.584,115.209H44.2a2.689,2.689,0,0,1-2.69-2.69V51.081a2.689,2.689,0,0,1,2.69-2.69h46.38a2.689,2.689,0,0,1,2.689,2.69v61.439A2.689,2.689,0,0,1,90.584,115.209Z" transform="translate(-41.515 -42.401)" fill="#ffc250"/>
                <path id="Trazado_1249422" data-name="Trazado 1249422" d="M324.027,48.39h-9a2.69,2.69,0,0,1,2.69,2.69v61.439a2.689,2.689,0,0,1-2.69,2.69h9a2.689,2.689,0,0,0,2.69-2.69V51.08a2.689,2.689,0,0,0-2.69-2.69Z" transform="translate(-274.958 -42.4)" fill="#eab14d"/>
                <path id="Trazado_1249423" data-name="Trazado 1249423" d="M71.522,135.463v-56.1a.961.961,0,0,1,.961-.961h41.044a.961.961,0,0,1,.961.961v56.1a.961.961,0,0,1-.961.961H72.483A.961.961,0,0,1,71.522,135.463Z" transform="translate(-67.126 -68.012)" fill="#f5f5f5"/>
                <path id="Trazado_1249424" data-name="Trazado 1249424" d="M305.817,78.4h-9a.961.961,0,0,1,.961.961v56.1a.961.961,0,0,1-.961.961h9a.961.961,0,0,0,.961-.961v-56.1A.961.961,0,0,0,305.817,78.4Z" transform="translate(-259.416 -68.012)" fill="#eaeaea"/>
                <path id="Trazado_1249425" data-name="Trazado 1249425" d="M156.606,10.847V9.431A1.931,1.931,0,0,0,154.674,7.5H147.11a1.931,1.931,0,0,0-1.931,1.931v1.416a.79.79,0,0,1-.79.79H141.24a1.9,1.9,0,0,0-1.9,1.9v4.353h23.1V13.533a1.9,1.9,0,0,0-1.9-1.9H157.4A.79.79,0,0,1,156.606,10.847Z" transform="translate(-125.013 -7.5)" fill="#c2d0da"/>
              </g>
              <g id="Grupo_1214139" data-name="Grupo 1214139" transform="translate(9.988 15.829)">
                <g id="Grupo_1214138" data-name="Grupo 1214138">
                  <path id="Trazado_1249426" data-name="Trazado 1249426" d="M109.694,125.713v-8.467a1.7,1.7,0,0,1,1.7-1.7h8.467a1.7,1.7,0,0,1,1.7,1.7v8.467a1.7,1.7,0,0,1-1.7,1.7h-8.467A1.7,1.7,0,0,1,109.694,125.713Z" transform="translate(-109.694 -115.548)" fill="#66b49d"/>
                  <path id="Trazado_1249427" data-name="Trazado 1249427" d="M109.694,246.12v-8.467a1.7,1.7,0,0,1,1.7-1.7h8.467a1.7,1.7,0,0,1,1.7,1.7v8.467a1.7,1.7,0,0,1-1.7,1.7h-8.467A1.7,1.7,0,0,1,109.694,246.12Z" transform="translate(-109.694 -218.316)" fill="#66b49d"/>
                  <path id="Trazado_1249428" data-name="Trazado 1249428" d="M109.694,366.525v-8.466a1.7,1.7,0,0,1,1.7-1.7h8.467a1.7,1.7,0,0,1,1.7,1.7v8.466a1.7,1.7,0,0,1-1.7,1.7h-8.467A1.7,1.7,0,0,1,109.694,366.525Z" transform="translate(-109.694 -321.082)" fill="#66b49d"/>
                </g>
              </g>
            </g>
            <g id="Grupo_1214142" data-name="Grupo 1214142" transform="translate(28.346 17.071)">
              <g id="Grupo_1214141" data-name="Grupo 1214141" transform="translate(1.804)">
                <path id="Trazado_1249429" data-name="Trazado 1249429" d="M275.746,178.712l-1.079-1.421-4.037-2.556-1.552-.245-20.669,32.66a8.508,8.508,0,0,0-1.083,2.558,6.658,6.658,0,0,1,5.9,3.736,8.505,8.505,0,0,0,1.849-2.073Z" transform="translate(-247.328 -167.097)" fill="#fc8086"/>
                <path id="Trazado_1249430" data-name="Trazado 1249430" d="M418.331,125.584l-1.744-1.1a2.913,2.913,0,0,0-4.02.9l-1.6,2.527.51,1.029,4.853,3.073,1.3.12,1.6-2.529A2.913,2.913,0,0,0,418.331,125.584Z" transform="translate(-386.995 -124.027)" fill="#8c9ba6"/>
              </g>
              <path id="Trazado_1249431" data-name="Trazado 1249431" d="M0,0H4.153V7.891H0Z" transform="matrix(0.535, -0.845, 0.845, 0.535, 23.559, 7.383)" fill="#c9e2e7"/>
              <path id="Trazado_1249432" data-name="Trazado 1249432" d="M242.716,418.631l-5.885,4.742a1.117,1.117,0,0,1-1.786-1.131l1.771-7.348A6.658,6.658,0,0,1,242.716,418.631Z" transform="translate(-235.011 -372.284)" fill="#7c8b96"/>
            </g>
          </g>
        </g>
        <g id="Grupo_1214147" data-name="Grupo 1214147" transform="translate(34.02 0)">
          <g id="Grupo_1214146" data-name="Grupo 1214146" transform="translate(0)">
            <g id="Grupo_1214145" data-name="Grupo 1214145">
              <path id="Trazado_1249433" data-name="Trazado 1249433" d="M133.118,135.553a1.1,1.1,0,0,0-1.536.234l-2.175,2.955-.744-1.021a1.1,1.1,0,1,0-1.777,1.294l1.283,1.762a1.533,1.533,0,0,0,1.231.628h0a1.532,1.532,0,0,0,1.23-.622l2.718-3.692A1.1,1.1,0,0,0,133.118,135.553Z" transform="translate(-113.103 -115.512)"/>
              <path id="Trazado_1249434" data-name="Trazado 1249434" d="M133.118,258.58a1.1,1.1,0,0,0-1.536.234l-2.175,2.955-.744-1.021a1.1,1.1,0,1,0-1.777,1.294l1.283,1.762a1.533,1.533,0,0,0,1.231.628h0a1.533,1.533,0,0,0,1.23-.622l2.718-3.692A1.1,1.1,0,0,0,133.118,258.58Z" transform="translate(-113.102 -220.516)"/>
              <path id="Trazado_1249435" data-name="Trazado 1249435" d="M133.118,376.364a1.1,1.1,0,0,0-1.536.234l-2.175,2.955-.744-1.021a1.1,1.1,0,1,0-1.777,1.294l1.283,1.762a1.532,1.532,0,0,0,1.231.628h0a1.533,1.533,0,0,0,1.23-.622l2.718-3.692A1.1,1.1,0,0,0,133.118,376.364Z" transform="translate(-113.102 -321.045)"/>
              <path id="Trazado_1249436" data-name="Trazado 1249436" d="M221.624,135.065h13.582a1.1,1.1,0,1,0,0-2.2H221.624a1.1,1.1,0,1,0,0,2.2Z" transform="translate(-193.203 -113.403)"/>
              <path id="Trazado_1249437" data-name="Trazado 1249437" d="M221.624,166.406h6.791a1.1,1.1,0,0,0,0-2.2h-6.791a1.1,1.1,0,0,0,0,2.2Z" transform="translate(-193.203 -140.152)"/>
              <path id="Trazado_1249438" data-name="Trazado 1249438" d="M221.624,255.47h9.113a1.1,1.1,0,1,0,0-2.2h-9.113a1.1,1.1,0,1,0,0,2.2Z" transform="translate(-193.203 -216.169)"/>
              <path id="Trazado_1249439" data-name="Trazado 1249439" d="M228.415,286.812a1.1,1.1,0,1,0,0-2.2h-6.791a1.1,1.1,0,1,0,0,2.2Z" transform="translate(-193.203 -242.919)"/>
              <path id="Trazado_1249440" data-name="Trazado 1249440" d="M113.461,108.047h-8.467a2.8,2.8,0,0,0-2.8,2.8v8.467a2.8,2.8,0,0,0,2.8,2.8h8.467a2.8,2.8,0,0,0,2.8-2.8v-8.467A2.8,2.8,0,0,0,113.461,108.047Zm.6,11.264a.6.6,0,0,1-.6.6h-8.467a.6.6,0,0,1-.6-.6v-8.467a.6.6,0,0,1,.6-.6h8.467a.6.6,0,0,1,.6.6Z" transform="translate(-92.209 -92.219)"/>
              <path id="Trazado_1249441" data-name="Trazado 1249441" d="M113.461,228.453h-8.467a2.8,2.8,0,0,0-2.8,2.8v8.467a2.8,2.8,0,0,0,2.8,2.8h8.467a2.8,2.8,0,0,0,2.8-2.8V231.25A2.8,2.8,0,0,0,113.461,228.453Zm.6,11.264a.6.6,0,0,1-.6.6h-8.467a.6.6,0,0,1-.6-.6V231.25a.6.6,0,0,1,.6-.6h8.467a.6.6,0,0,1,.6.6Z" transform="translate(-92.209 -194.986)"/>
              <path id="Trazado_1249442" data-name="Trazado 1249442" d="M113.461,348.857h-8.467a2.8,2.8,0,0,0-2.8,2.8v8.467a2.8,2.8,0,0,0,2.8,2.8h8.467a2.8,2.8,0,0,0,2.8-2.8v-8.467A2.8,2.8,0,0,0,113.461,348.857Zm.6,11.264a.6.6,0,0,1-.6.6h-8.467a.6.6,0,0,1-.6-.6v-8.467a.6.6,0,0,1,.6-.6h8.467a.6.6,0,0,1,.6.6Z" transform="translate(-92.209 -297.751)"/>
              <path id="Trazado_1249443" data-name="Trazado 1249443" d="M97.194,18.8l-1.744-1.1a4.012,4.012,0,0,0-5.537,1.244l-1.6,2.527-2.221,3.509L83.58,28.943v-16.5a2.063,2.063,0,0,0-2.06-2.06H73.645v-2.2H84.188a1.592,1.592,0,0,1,1.591,1.59V19.3a1.1,1.1,0,0,0,2.2,0V9.779A3.793,3.793,0,0,0,84.188,5.99H73.418A3,3,0,0,0,70.65,4.137H67.811V3.03A3.034,3.034,0,0,0,64.781,0H57.216a3.034,3.034,0,0,0-3.03,3.03V4.137H51.347A3,3,0,0,0,48.579,5.99H37.809A3.793,3.793,0,0,0,34.02,9.779V71.217a3.793,3.793,0,0,0,3.789,3.789h46.38a3.793,3.793,0,0,0,3.789-3.789V46.575a1.1,1.1,0,1,0-2.2,0V71.217a1.592,1.592,0,0,1-1.591,1.59H37.809a1.592,1.592,0,0,1-1.591-1.59V9.779a1.592,1.592,0,0,1,1.591-1.59H48.351v2.2H40.476a2.063,2.063,0,0,0-2.06,2.06v56.1a2.063,2.063,0,0,0,2.06,2.06H81.52a2.063,2.063,0,0,0,2.06-2.06V47.81L94.616,30.371h0l2.22-3.508,1.6-2.529A4.017,4.017,0,0,0,97.194,18.8Zm-4.288.515a1.8,1.8,0,0,1,1.368.237l1.744,1.1a1.816,1.816,0,0,1,.562,2.5l-1.013,1.6-4.81-3.046,1.012-1.6a1.8,1.8,0,0,1,1.135-.8ZM72.091,61.856a7.4,7.4,0,0,1-.7.928,7.726,7.726,0,0,0-1.168-1.251L90.7,29.2l1.467.929Zm-7.5,6.554a.148.148,0,0,0-.021-.008h0l1.553-6.448a5.533,5.533,0,0,1,3.629,2.3C63.926,68.942,64.669,68.335,64.586,68.41Zm25-44.841,4.81,3.046-1.045,1.652-4.81-3.046ZM50.549,7.157c0-.013,0-.027,0-.041s0-.009,0-.014a.8.8,0,0,1,.8-.768h3.148a1.891,1.891,0,0,0,1.889-1.889V3.03a.833.833,0,0,1,.832-.832h7.565a.833.833,0,0,1,.832.832V4.446A1.891,1.891,0,0,0,67.5,6.335H70.65a.8.8,0,0,1,.8.768s0,.009,0,.014,0,.027,0,.04v3.229h-20.9Zm-9.935,5.427H81.383V32.416L69.88,50.592a1.1,1.1,0,1,0,1.857,1.175L87.362,27.078l1.486.941L68.369,60.357a7.717,7.717,0,0,0-1.63-.521,7.431,7.431,0,0,1,.541-1.026l1.708-2.7a1.1,1.1,0,1,0-1.857-1.175l-1.708,2.7A9.588,9.588,0,0,0,64.2,60.523h0L62.43,67.87a2.281,2.281,0,0,0-.064.541H40.614ZM81.383,68.412H68.088l3.772-3.039a9.585,9.585,0,0,0,2.088-2.341l7.435-11.749Z" transform="translate(-34.02 0)"/>
            </g>
          </g>
        </g>
      </g>
    </g>
  </g>
</svg>
