<svg xmlns="http://www.w3.org/2000/svg" width="145.631" height="86.063" viewBox="0 0 145.631 86.063">
  <g id="Grupo_1213866" data-name="Grupo 1213866" transform="translate(-1148.051 -2751.999)">
    <g id="Grupo_1213085" data-name="Grupo 1213085" transform="translate(835.27 -1116.804)">
      <g id="Grupo_1201016" data-name="Grupo 1201016">
        <g id="Rectángulo_410589" data-name="Rectángulo 410589" transform="translate(312.781 3886.804)" fill="#93795a" stroke="#695640" stroke-width="1">
          <rect width="145.631" height="48.544" rx="8" stroke="none"/>
          <rect x="0.5" y="0.5" width="144.631" height="47.544" rx="7.5" fill="none"/>
        </g>
      </g>
    </g>
    <g id="product-safety_16964482" transform="translate(1129.286 2735.957)">
      <path id="Trazado_1248474" data-name="Trazado 1248474" d="M92.241,98.368c0,1.125.093,2.014-.815,2.922a2.769,2.769,0,0,1-1.962.815H58.542a2.782,2.782,0,0,1-2.777-2.777V68.406a2.782,2.782,0,0,1,2.777-2.777H60.6V27.676a1.126,1.126,0,0,1,.327-.8l8.593-10.412a1.138,1.138,0,0,1,.881-.416v0h46.959a3.339,3.339,0,0,1,3.328,3.329v2.658h3.561a3.335,3.335,0,0,1,3.328,3.328V94.11a3.335,3.335,0,0,1-3.328,3.328H107.508a18.546,18.546,0,0,1-7.8,4.612,1.135,1.135,0,0,1-.661.005,18.512,18.512,0,0,1-6.805-3.687Z" fill="#231916" fill-rule="evenodd"/>
      <path id="Trazado_1248475" data-name="Trazado 1248475" d="M89.657,305.332v9.857a1.146,1.146,0,0,1-2.064.684l-3.107-3.757-3.144,3.8a1.146,1.146,0,0,1-2.025-.729h0v-9.857H69.025a.491.491,0,0,0-.486.486V336.74a.491.491,0,0,0,.486.486H99.947a.491.491,0,0,0,.486-.486c0-.456-.026-3.02.022-3.26a18.807,18.807,0,0,1-4.345-12v-8.272h.005a1.14,1.14,0,0,1,.827-1.1l3.49-1.006v-5.288a.491.491,0,0,0-.486-.486H89.657Zm-16.4,28.708a1.145,1.145,0,0,1,0-2.291H77.5a1.145,1.145,0,0,1,0,2.291Z" transform="translate(-10.483 -237.412)" fill="#c68e55" fill-rule="evenodd"/>
      <path id="Trazado_1248476" data-name="Trazado 1248476" d="M141.4,305.331v6.677c.292-.353,1.966-2.416,2.151-2.569a1.144,1.144,0,0,1,1.611.152l2,2.417v-6.677H141.4Z" transform="translate(-70.282 -237.411)" fill="#f3b95f" fill-rule="evenodd"/>
      <path id="Trazado_1248477" data-name="Trazado 1248477" d="M95.513,76.113h26.57a2.782,2.782,0,0,1,2.777,2.777v4.628l6.8-1.959a1.134,1.134,0,0,1,.643,0l12.489,3.6a1.146,1.146,0,0,1,.938,1.127v8.272a18.662,18.662,0,0,1-.708,5.092h4.964a1.044,1.044,0,0,0,1.038-1.037V29.854a1.041,1.041,0,0,0-1.038-1.038H104.432v7.16A3.335,3.335,0,0,1,101.1,39.3h-5.59V76.112Zm38.7-6.225v2.78a1.145,1.145,0,0,1-1.145,1.145h-19.61a1.145,1.145,0,0,1-1.145-1.145v-2.78a3.935,3.935,0,0,1,3.624-3.913V62.758a1.145,1.145,0,0,1,1.145-1.145h2.86V52.756a1.145,1.145,0,0,1,1.145-1.145h1.03V42.094H111.985l4.073,6.526a1.14,1.14,0,0,1,.212.664,6.348,6.348,0,0,1-12.7,0,1.141,1.141,0,0,1,.212-.664l5.129-8.216a1.145,1.145,0,0,1,1.007-.6h12.2v-1.5a1.145,1.145,0,1,1,2.291,0v1.5h12.2a1.145,1.145,0,0,1,1.007.6l5.129,8.216a1.14,1.14,0,0,1,.212.664,6.348,6.348,0,1,1-12.7,0,1.141,1.141,0,0,1,.212-.664l4.074-6.526H124.412v9.517h1.03a1.145,1.145,0,0,1,1.145,1.145v8.856h2.86a1.145,1.145,0,0,1,1.145,1.145v3.217a3.935,3.935,0,0,1,3.624,3.914Z" transform="translate(-32.62 -10.483)" fill="#fff" fill-rule="evenodd"/>
      <path id="Trazado_1248478" data-name="Trazado 1248478" d="M238.663,337.889l-3.6,1.038v7.416a16.513,16.513,0,0,0,11.45,15.7,16.513,16.513,0,0,0,11.449-15.7v-7.416l-11.45-3.3-7.848,2.262Zm2.629,12.036a1.144,1.144,0,0,1,1.414-1.8l2.827,2.223,4.627-5.344a1.142,1.142,0,1,1,1.727,1.494l-5.3,6.119a1.147,1.147,0,0,1-1.613.2Z" transform="translate(-147.143 -262.274)" fill="#009e65" fill-rule="evenodd"/>
      <path id="Trazado_1248479" data-name="Trazado 1248479" d="M355.3,133.028H370.07a1.044,1.044,0,0,0,1.038-1.037V63.238A1.044,1.044,0,0,0,370.07,62.2h-3.561V126a3.335,3.335,0,0,1-3.328,3.328H357.4a18.934,18.934,0,0,1-2.107,3.7Z" transform="translate(-245.817 -37.88)" fill="#c8c9ca" fill-rule="evenodd"/>
      <path id="Trazado_1248480" data-name="Trazado 1248480" d="M102.648,44.873h4.311A1.044,1.044,0,0,0,108,43.836V38.393Z" transform="translate(-38.476 -18.343)" fill="#c8c9ca" fill-rule="evenodd"/>
      <g id="Grupo_1213865" data-name="Grupo 1213865" transform="translate(81.987 43.419)">
        <path id="Trazado_1248481" data-name="Trazado 1248481" d="M222.2,226.532H232.27v-2.06H222.2Z" transform="translate(-218.574 -214.471)" fill="#f7c977" fill-rule="evenodd"/>
        <path id="Trazado_1248482" data-name="Trazado 1248482" d="M219.309,252v-1.634a1.642,1.642,0,0,0-1.634-1.634H203.624a1.642,1.642,0,0,0-1.634,1.634V252Z" transform="translate(-201.99 -234.38)" fill="#f7c977" fill-rule="evenodd"/>
        <path id="Trazado_1248483" data-name="Trazado 1248483" d="M245.571,168.7h-1.034v7.71h2.06V168.7Z" transform="translate(-236.907 -168.703)" fill="#f7c977" fill-rule="evenodd"/>
      </g>
      <path id="Trazado_1248484" data-name="Trazado 1248484" d="M313.468,113.541l-3.14-5.03-3.14,5.03Z" transform="translate(-206.336 -75.887)" fill="#fff" fill-rule="evenodd"/>
      <path id="Trazado_1248485" data-name="Trazado 1248485" d="M164.631,113.541l-3.14-5.03-3.14,5.03Z" transform="translate(-84.189 -75.887)" fill="#fff" fill-rule="evenodd"/>
      <path id="Trazado_1248486" data-name="Trazado 1248486" d="M306.88,149.335h-3.894a4.059,4.059,0,0,0,7.787,0Z" transform="translate(-202.887 -109.39)" fill="#f7c977" fill-rule="evenodd"/>
      <path id="Trazado_1248487" data-name="Trazado 1248487" d="M158.044,149.335H154.15a4.059,4.059,0,0,0,7.787,0Z" transform="translate(-80.742 -109.39)" fill="#f7c977" fill-rule="evenodd"/>
    </g>
  </g>
</svg>
