<svg xmlns="http://www.w3.org/2000/svg" width="145.631" height="95.22" viewBox="0 0 145.631 95.22">
  <g id="Grupo_1213772" data-name="Grupo 1213772" transform="translate(0 -7)">
    <g id="Grupo_1201016" data-name="Grupo 1201016" transform="translate(0 23.246)">
      <g id="Rectángulo_410589" data-name="Rectángulo 410589" fill="#93795a" stroke="#695640" stroke-width="1">
        <rect width="145.631" height="48.544" rx="8" stroke="none"/>
        <rect x="0.5" y="0.5" width="144.631" height="47.544" rx="7.5" fill="none"/>
      </g>
    </g>
    <g id="check_16057724" transform="translate(31.425 7.021)">
      <path id="Trazado_1248497" data-name="Trazado 1248497" d="M65.527,48.424l-2.974,5.947H52.145L50.658,73.73A20.852,20.852,0,0,1,31.82,61.836l2.483-.015,4.461-.015,8.178-16.355,2.23-4.461,2.974,4.461Z" transform="translate(13.303 19.966)" fill="#965353"/>
      <path id="Trazado_1248498" data-name="Trazado 1248498" d="M33.49,60.345,41.668,43.99h4.461L37.951,60.345l-4.461.015Z" transform="translate(14.116 21.427)" fill="#656d78"/>
      <path id="Trazado_1248499" data-name="Trazado 1248499" d="M51.333,34.97a20.846,20.846,0,0,1-.015,41.691L52.805,57.3H63.213l2.974-5.947L52.805,48.381l-2.974-4.461L47.6,48.381H43.141L34.963,64.737v.015l-2.483.015a20.842,20.842,0,0,1,18.838-29.8Z" transform="translate(12.643 17.035)" fill="#87bcf4"/>
      <path id="Trazado_1248500" data-name="Trazado 1248500" d="M51.072.99V51.513h-.015a20.781,20.781,0,0,0-4.446.476V5.451H31L33.23.99Z" transform="translate(12.903 0.492)" fill="#656d78"/>
      <path id="Trazado_1248501" data-name="Trazado 1248501" d="M39.8.99l-2.23,4.461-.743,1.487H20.474L19.73,5.451,17.5.99Z" transform="translate(6.331 0.492)" fill="#ffce54"/>
      <path id="Trazado_1248502" data-name="Trazado 1248502" d="M9.961,67.9H43.1a21.023,21.023,0,0,0-.476,4.461H5.5V.99H23.342l2.23,4.461H9.961Z" transform="translate(0.489 0.492)" fill="#656d78"/>
      <path id="Trazado_1248503" data-name="Trazado 1248503" d="M24.855,5.477H41.211l.743-1.487H57.566V50.528A20.864,20.864,0,0,0,41.642,66.438H8.5V3.99H24.112Z" transform="translate(1.949 1.953)" fill="#e6e9ed"/>
      <path id="Trazado_1248504" data-name="Trazado 1248504" d="M20.958,8.9a1.487,1.487,0,0,1-1.331-.822L16.653,2.132A1.487,1.487,0,0,1,19.313.8l2.974,5.947A1.487,1.487,0,0,1,20.958,8.9Z" transform="translate(5.842 0)"/>
      <path id="Trazado_1248505" data-name="Trazado 1248505" d="M30.982,8.9a1.487,1.487,0,0,1-1.329-2.152L32.627.8a1.487,1.487,0,1,1,2.66,1.33L32.313,8.079a1.487,1.487,0,0,1-1.331.822Z" transform="translate(12.171 0)"/>
      <path id="Trazado_1248506" data-name="Trazado 1248506" d="M36.338,6.953H19.983a1.487,1.487,0,1,1,0-2.974H36.338a1.487,1.487,0,0,1,0,2.974Z" transform="translate(6.816 1.948)"/>
      <path id="Trazado_1248507" data-name="Trazado 1248507" d="M47.095,5.953H31.483a1.487,1.487,0,1,1,0-2.974H47.095a1.487,1.487,0,1,1,0,2.974Z" transform="translate(12.415 1.461)"/>
      <path id="Trazado_1248508" data-name="Trazado 1248508" d="M24.595,5.953H8.983a1.487,1.487,0,0,1,0-2.974H24.595a1.487,1.487,0,0,1,0,2.974Z" transform="translate(1.461 1.461)"/>
      <path id="Trazado_1248509" data-name="Trazado 1248509" d="M43.154,74.322H5.983A1.486,1.486,0,0,1,4.5,72.835V1.466A1.486,1.486,0,0,1,5.983-.021H63.97a1.486,1.486,0,0,1,1.487,1.487V52.019a1.487,1.487,0,1,1-2.974,0V2.953H7.47v68.4H43.154a1.487,1.487,0,0,1,0,2.974Z" transform="translate(0 0)"/>
      <path id="Trazado_1248510" data-name="Trazado 1248510" d="M42.176,68.4H8.983A1.486,1.486,0,0,1,7.5,66.914V4.466a1.487,1.487,0,0,1,2.974,0V65.427H42.176a1.487,1.487,0,0,1,0,2.974Z" transform="translate(1.461 1.461)"/>
      <path id="Trazado_1248511" data-name="Trazado 1248511" d="M41.983,52.526A1.486,1.486,0,0,1,40.5,51.039V4.466a1.487,1.487,0,0,1,2.974,0V51.039a1.486,1.486,0,0,1-1.487,1.487Z" transform="translate(17.527 1.461)"/>
      <path id="Trazado_1248512" data-name="Trazado 1248512" d="M16.443,41.44a1.48,1.48,0,0,1-1.077-.463l-1.411-1.485a1.486,1.486,0,0,1,2.155-2.047L17.52,38.93a1.487,1.487,0,0,1-1.077,2.511Z" transform="translate(4.406 18.015)"/>
      <path id="Trazado_1248513" data-name="Trazado 1248513" d="M15.981,42.415a1.487,1.487,0,0,1-1.051-2.538l4.463-4.462a1.487,1.487,0,0,1,2.1,2.1L17.032,41.98a1.482,1.482,0,0,1-1.051.436Z" transform="translate(4.868 17.04)"/>
      <path id="Trazado_1248514" data-name="Trazado 1248514" d="M37.365,37.955H23.983a1.487,1.487,0,1,1,0-2.974H37.365a1.487,1.487,0,1,1,0,2.974Z" transform="translate(8.763 17.041)"/>
      <path id="Trazado_1248515" data-name="Trazado 1248515" d="M31.414,40.954H23.983a1.487,1.487,0,0,1,0-2.974h7.431a1.487,1.487,0,1,1,0,2.974Z" transform="translate(8.763 18.501)"/>
      <path id="Trazado_1248516" data-name="Trazado 1248516" d="M16.443,33.444a1.48,1.48,0,0,1-1.077-.463L13.954,31.5a1.486,1.486,0,1,1,2.155-2.047l1.411,1.485a1.487,1.487,0,0,1-1.077,2.511Z" transform="translate(4.406 14.122)"/>
      <path id="Trazado_1248517" data-name="Trazado 1248517" d="M15.981,34.419a1.487,1.487,0,0,1-1.051-2.538l4.463-4.462a1.487,1.487,0,1,1,2.1,2.1l-4.464,4.462a1.482,1.482,0,0,1-1.051.436Z" transform="translate(4.868 13.147)"/>
      <path id="Trazado_1248518" data-name="Trazado 1248518" d="M43.312,29.959H23.983a1.487,1.487,0,1,1,0-2.974H43.312a1.487,1.487,0,0,1,0,2.974Z" transform="translate(8.763 13.148)"/>
      <path id="Trazado_1248519" data-name="Trazado 1248519" d="M31.414,32.958H23.983a1.487,1.487,0,0,1,0-2.974h7.431a1.487,1.487,0,0,1,0,2.974Z" transform="translate(8.763 14.608)"/>
      <path id="Trazado_1248520" data-name="Trazado 1248520" d="M16.443,17.44a1.48,1.48,0,0,1-1.077-.463l-1.411-1.485a1.486,1.486,0,1,1,2.155-2.047L17.52,14.93a1.487,1.487,0,0,1-1.077,2.511Z" transform="translate(4.406 6.33)"/>
      <path id="Trazado_1248521" data-name="Trazado 1248521" d="M15.981,18.415a1.487,1.487,0,0,1-1.051-2.538l4.463-4.462a1.487,1.487,0,0,1,2.1,2.1L17.032,17.98a1.482,1.482,0,0,1-1.051.436Z" transform="translate(4.868 5.356)"/>
      <path id="Trazado_1248522" data-name="Trazado 1248522" d="M43.312,13.955H23.983a1.487,1.487,0,1,1,0-2.974H43.312a1.487,1.487,0,0,1,0,2.974Z" transform="translate(8.763 5.356)"/>
      <path id="Trazado_1248523" data-name="Trazado 1248523" d="M31.414,16.954H23.983a1.487,1.487,0,0,1,0-2.974h7.431a1.487,1.487,0,1,1,0,2.974Z" transform="translate(8.763 6.817)"/>
      <path id="Trazado_1248524" data-name="Trazado 1248524" d="M16.443,25.448a1.48,1.48,0,0,1-1.077-.463L13.954,23.5a1.486,1.486,0,0,1,2.155-2.047l1.411,1.485a1.487,1.487,0,0,1-1.077,2.511Z" transform="translate(4.406 10.229)"/>
      <path id="Trazado_1248525" data-name="Trazado 1248525" d="M15.981,26.423a1.487,1.487,0,0,1-1.051-2.538l4.463-4.462a1.487,1.487,0,1,1,2.1,2.1l-4.464,4.462a1.482,1.482,0,0,1-1.051.436Z" transform="translate(4.868 9.254)"/>
      <path id="Trazado_1248526" data-name="Trazado 1248526" d="M43.312,21.963H23.983a1.487,1.487,0,1,1,0-2.974H43.312a1.487,1.487,0,1,1,0,2.974Z" transform="translate(8.763 9.255)"/>
      <path id="Trazado_1248527" data-name="Trazado 1248527" d="M31.414,24.962H23.983a1.487,1.487,0,0,1,0-2.974h7.431a1.487,1.487,0,1,1,0,2.974Z" transform="translate(8.763 10.715)"/>
      <path id="Trazado_1248528" data-name="Trazado 1248528" d="M51.8,78.62A22.329,22.329,0,1,1,74.127,56.291,22.329,22.329,0,0,1,51.8,78.62Zm0-41.684A19.355,19.355,0,1,0,71.153,56.291,19.355,19.355,0,0,0,51.8,36.936Z" transform="translate(12.158 16.545)"/>
      <path id="Trazado_1248529" data-name="Trazado 1248529" d="M32.31,56.978a1.487,1.487,0,0,1,0-2.974l6.946-.023h0a1.487,1.487,0,0,1,0,2.974l-6.946.023Z" transform="translate(12.816 26.291)"/>
      <path id="Trazado_1248530" data-name="Trazado 1248530" d="M36.98,63.771a1.487,1.487,0,0,1-1.329-2.152L46.059,40.8a1.487,1.487,0,0,1,2.66,1.33L38.311,62.949a1.487,1.487,0,0,1-1.331.822Z" transform="translate(15.091 19.475)"/>
      <path id="Trazado_1248531" data-name="Trazado 1248531" d="M46.956,47.416a1.485,1.485,0,0,1-1.239-.662l-2.974-4.461a1.487,1.487,0,1,1,2.474-1.649L48.192,45.1a1.487,1.487,0,0,1-1.236,2.312Z" transform="translate(18.499 19.475)"/>
      <path id="Trazado_1248532" data-name="Trazado 1248532" d="M59.364,48.929a1.545,1.545,0,0,1-.324-.035L45.659,45.921a1.487,1.487,0,1,1,.645-2.9L59.685,45.99a1.487,1.487,0,0,1-.321,2.939Z" transform="translate(19.473 20.935)"/>
      <path id="Trazado_1248533" data-name="Trazado 1248533" d="M52.98,53.9a1.487,1.487,0,0,1-1.329-2.152L54.625,45.8a1.487,1.487,0,1,1,2.66,1.33l-2.974,5.947a1.487,1.487,0,0,1-1.331.822Z" transform="translate(22.881 21.909)"/>
      <path id="Trazado_1248534" data-name="Trazado 1248534" d="M56.389,51.955H45.981a1.487,1.487,0,0,1,0-2.974H56.389a1.487,1.487,0,1,1,0,2.974Z" transform="translate(19.473 23.857)"/>
      <path id="Trazado_1248535" data-name="Trazado 1248535" d="M44.974,71.343c-.038,0-.077,0-.116,0a1.487,1.487,0,0,1-1.368-1.6l1.5-19.387a1.469,1.469,0,0,1,1.6-1.368,1.487,1.487,0,0,1,1.368,1.6l-1.5,19.387a1.487,1.487,0,0,1-1.481,1.372Z" transform="translate(18.982 23.856)"/>
      <path id="Trazado_1248536" data-name="Trazado 1248536" d="M33.98,62.311a1.487,1.487,0,0,1-1.329-2.152L40.829,43.8a1.487,1.487,0,1,1,2.66,1.33L35.311,61.489a1.487,1.487,0,0,1-1.331.822Z" transform="translate(13.631 20.935)"/>
      <path id="Trazado_1248537" data-name="Trazado 1248537" d="M43.941,45.955H39.481a1.487,1.487,0,0,1,0-2.974h4.461a1.487,1.487,0,0,1,0,2.974Z" transform="translate(16.308 20.936)"/>
    </g>
  </g>
</svg>
