<svg xmlns="http://www.w3.org/2000/svg" width="73.631" height="53.94" viewBox="0 0 73.631 53.94">
  <g id="Grupo_1213713" data-name="Grupo 1213713" transform="translate(-312.781 -3860.613)">
    <g id="Grupo_1201016" data-name="Grupo 1201016" transform="translate(312.781 3875.311)">
      <g id="Rectángulo_410589" data-name="Rectángulo 410589" fill="#93795a" stroke="#695640" stroke-width="1">
        <rect width="73.631" height="24.544" rx="4" stroke="none"/>
        <rect x="0.5" y="0.5" width="72.631" height="23.544" rx="3.5" fill="none"/>
      </g>
    </g>
    <g id="check_16057724" transform="translate(321.935 3860.634)">
      <path id="Trazado_1248497" data-name="Trazado 1248497" d="M50.914,45.2,49.23,48.57h-5.9l-.842,10.966A11.812,11.812,0,0,1,31.82,52.8l1.407-.008,2.527-.008,4.632-9.265,1.263-2.527,1.685,2.527Z" transform="translate(-4.31 -6.469)" fill="#965353"/>
      <path id="Trazado_1248498" data-name="Trazado 1248498" d="M33.49,53.255l4.632-9.265h2.527l-4.632,9.265-2.527.008Z" transform="translate(-4.573 -6.942)" fill="#656d78"/>
      <path id="Trazado_1248499" data-name="Trazado 1248499" d="M42.286,34.97a11.809,11.809,0,0,1-.008,23.617l.842-10.966h5.9L50.7,44.252l-7.58-1.685L41.435,40.04l-1.263,2.527H37.645l-4.632,9.265v.008l-1.407.008A11.807,11.807,0,0,1,42.278,34.97Z" transform="translate(-4.096 -5.519)" fill="#87bcf4"/>
      <path id="Trazado_1248500" data-name="Trazado 1248500" d="M42.371.99V29.61h-.008a11.772,11.772,0,0,0-2.518.27V3.517H31L32.263.99Z" transform="translate(-4.181 -0.159)" fill="#656d78"/>
      <path id="Trazado_1248501" data-name="Trazado 1248501" d="M30.134.99,28.871,3.517l-.421.842H19.185l-.421-.842L17.5.99Z" transform="translate(-2.051 -0.159)" fill="#ffce54"/>
      <path id="Trazado_1248502" data-name="Trazado 1248502" d="M8.027,38.892H26.8a11.909,11.909,0,0,0-.27,2.527H5.5V.99H15.607l1.263,2.527H8.027Z" transform="translate(-0.158 -0.159)" fill="#656d78"/>
      <path id="Trazado_1248503" data-name="Trazado 1248503" d="M17.765,4.832H27.03l.421-.842h8.844V30.353a11.819,11.819,0,0,0-9.021,9.012H8.5V3.99h8.844Z" transform="translate(-0.632 -0.633)" fill="#e6e9ed"/>
      <path id="Trazado_1248504" data-name="Trazado 1248504" d="M19.024,5.033a.842.842,0,0,1-.754-.466L16.585,1.2A.842.842,0,1,1,18.092.445l1.685,3.369a.842.842,0,0,1-.753,1.219Z" transform="translate(-1.893 0)"/>
      <path id="Trazado_1248505" data-name="Trazado 1248505" d="M30.337,5.033a.842.842,0,0,1-.753-1.219L31.269.445a.842.842,0,1,1,1.507.753L31.092,4.567a.842.842,0,0,1-.754.466Z" transform="translate(-3.943 0)"/>
      <path id="Trazado_1248506" data-name="Trazado 1248506" d="M28.6,5.664H19.338a.842.842,0,1,1,0-1.685H28.6a.842.842,0,0,1,0,1.685Z" transform="translate(-2.208 -0.631)"/>
      <path id="Trazado_1248507" data-name="Trazado 1248507" d="M39.682,4.664H30.838a.842.842,0,1,1,0-1.685h8.844a.842.842,0,1,1,0,1.685Z" transform="translate(-4.022 -0.473)"/>
      <path id="Trazado_1248508" data-name="Trazado 1248508" d="M17.182,4.664H8.338a.842.842,0,0,1,0-1.685h8.844a.842.842,0,0,1,0,1.685Z" transform="translate(-0.473 -0.473)"/>
      <path id="Trazado_1248509" data-name="Trazado 1248509" d="M26.4,42.093H5.338a.842.842,0,0,1-.842-.842V.822a.842.842,0,0,1,.842-.842H38.187a.842.842,0,0,1,.842.842V29.459a.842.842,0,1,1-1.685,0V1.664H6.181V40.408H26.4a.842.842,0,0,1,0,1.685Z" transform="translate(0 0)"/>
      <path id="Trazado_1248510" data-name="Trazado 1248510" d="M27.141,40.039H8.338A.842.842,0,0,1,7.5,39.2V3.822a.842.842,0,0,1,1.685,0V38.355H27.141a.842.842,0,0,1,0,1.685Z" transform="translate(-0.473 -0.473)"/>
      <path id="Trazado_1248511" data-name="Trazado 1248511" d="M41.338,31.047A.842.842,0,0,1,40.5,30.2V3.822a.842.842,0,0,1,1.685,0V30.2a.842.842,0,0,1-.842.842Z" transform="translate(-5.678 -0.473)"/>
      <path id="Trazado_1248512" data-name="Trazado 1248512" d="M15.187,39.508a.838.838,0,0,1-.61-.262l-.8-.841A.842.842,0,1,1,15,37.244l.8.841a.842.842,0,0,1-.61,1.422Z" transform="translate(-1.427 -5.837)"/>
      <path id="Trazado_1248513" data-name="Trazado 1248513" d="M15.336,39.192a.842.842,0,0,1-.6-1.438l2.528-2.528a.842.842,0,0,1,1.191,1.191l-2.528,2.528a.84.84,0,0,1-.6.247Z" transform="translate(-1.577 -5.521)"/>
      <path id="Trazado_1248514" data-name="Trazado 1248514" d="M30.919,36.666h-7.58a.842.842,0,1,1,0-1.685h7.58a.842.842,0,1,1,0,1.685Z" transform="translate(-2.839 -5.521)"/>
      <path id="Trazado_1248515" data-name="Trazado 1248515" d="M27.548,39.665h-4.21a.842.842,0,0,1,0-1.685h4.21a.842.842,0,0,1,0,1.685Z" transform="translate(-2.839 -5.994)"/>
      <path id="Trazado_1248516" data-name="Trazado 1248516" d="M15.187,31.511a.838.838,0,0,1-.61-.262l-.8-.841A.842.842,0,1,1,15,29.248l.8.841a.842.842,0,0,1-.61,1.422Z" transform="translate(-1.427 -4.575)"/>
      <path id="Trazado_1248517" data-name="Trazado 1248517" d="M15.336,31.2a.842.842,0,0,1-.6-1.438l2.528-2.528a.842.842,0,1,1,1.191,1.191l-2.528,2.528a.84.84,0,0,1-.6.247Z" transform="translate(-1.577 -4.259)"/>
      <path id="Trazado_1248518" data-name="Trazado 1248518" d="M34.288,28.67H23.338a.842.842,0,1,1,0-1.685H34.288a.842.842,0,0,1,0,1.685Z" transform="translate(-2.839 -4.26)"/>
      <path id="Trazado_1248519" data-name="Trazado 1248519" d="M27.548,31.669h-4.21a.842.842,0,0,1,0-1.685h4.21a.842.842,0,0,1,0,1.685Z" transform="translate(-2.839 -4.733)"/>
      <path id="Trazado_1248520" data-name="Trazado 1248520" d="M15.187,15.508a.838.838,0,0,1-.61-.262l-.8-.841A.842.842,0,1,1,15,13.244l.8.841a.842.842,0,0,1-.61,1.422Z" transform="translate(-1.427 -2.051)"/>
      <path id="Trazado_1248521" data-name="Trazado 1248521" d="M15.336,15.192a.842.842,0,0,1-.6-1.438l2.528-2.528a.842.842,0,0,1,1.191,1.191l-2.528,2.528a.84.84,0,0,1-.6.247Z" transform="translate(-1.577 -1.735)"/>
      <path id="Trazado_1248522" data-name="Trazado 1248522" d="M34.288,12.666H23.338a.842.842,0,0,1,0-1.685H34.288a.842.842,0,0,1,0,1.685Z" transform="translate(-2.839 -1.735)"/>
      <path id="Trazado_1248523" data-name="Trazado 1248523" d="M27.548,15.665h-4.21a.842.842,0,0,1,0-1.685h4.21a.842.842,0,0,1,0,1.685Z" transform="translate(-2.839 -2.208)"/>
      <path id="Trazado_1248524" data-name="Trazado 1248524" d="M15.187,23.515a.838.838,0,0,1-.61-.262l-.8-.841A.842.842,0,0,1,15,21.252l.8.841a.842.842,0,0,1-.61,1.422Z" transform="translate(-1.427 -3.314)"/>
      <path id="Trazado_1248525" data-name="Trazado 1248525" d="M15.336,23.2a.842.842,0,0,1-.6-1.438l2.528-2.528a.842.842,0,1,1,1.191,1.191l-2.528,2.528a.84.84,0,0,1-.6.247Z" transform="translate(-1.577 -2.998)"/>
      <path id="Trazado_1248526" data-name="Trazado 1248526" d="M34.288,20.674H23.338a.842.842,0,0,1,0-1.685H34.288a.842.842,0,0,1,0,1.685Z" transform="translate(-2.839 -2.999)"/>
      <path id="Trazado_1248527" data-name="Trazado 1248527" d="M27.548,23.673h-4.21a.842.842,0,0,1,0-1.685h4.21a.842.842,0,0,1,0,1.685Z" transform="translate(-2.839 -3.472)"/>
      <path id="Trazado_1248528" data-name="Trazado 1248528" d="M42.118,59.26A12.649,12.649,0,1,1,54.766,46.611,12.649,12.649,0,0,1,42.118,59.26Zm0-23.613A10.964,10.964,0,1,0,53.082,46.611,10.964,10.964,0,0,0,42.118,35.646Z" transform="translate(-3.939 -5.36)"/>
      <path id="Trazado_1248529" data-name="Trazado 1248529" d="M31.664,55.679a.842.842,0,0,1,0-1.685l3.935-.013h0a.842.842,0,0,1,0,1.685l-3.935.013Z" transform="translate(-4.152 -8.518)"/>
      <path id="Trazado_1248530" data-name="Trazado 1248530" d="M36.336,53.458a.842.842,0,0,1-.753-1.219l5.9-11.792a.842.842,0,0,1,1.507.753l-5.9,11.792a.842.842,0,0,1-.754.466Z" transform="translate(-4.889 -6.31)"/>
      <path id="Trazado_1248531" data-name="Trazado 1248531" d="M45.022,44.193a.841.841,0,0,1-.7-.375l-1.685-2.527a.842.842,0,1,1,1.4-.934l1.685,2.527a.842.842,0,0,1-.7,1.309Z" transform="translate(-5.993 -6.31)"/>
      <path id="Trazado_1248532" data-name="Trazado 1248532" d="M52.918,46.35a.875.875,0,0,1-.183-.02l-7.58-1.685A.843.843,0,0,1,45.519,43l7.58,1.685a.842.842,0,0,1-.182,1.665Z" transform="translate(-6.309 -6.783)"/>
      <path id="Trazado_1248533" data-name="Trazado 1248533" d="M52.336,50.035a.842.842,0,0,1-.753-1.219l1.685-3.369a.842.842,0,1,1,1.507.753L53.09,49.569A.842.842,0,0,1,52.336,50.035Z" transform="translate(-7.413 -7.098)"/>
      <path id="Trazado_1248534" data-name="Trazado 1248534" d="M51.232,50.666h-5.9a.842.842,0,0,1,0-1.685h5.9a.842.842,0,1,1,0,1.685Z" transform="translate(-6.309 -7.729)"/>
      <path id="Trazado_1248535" data-name="Trazado 1248535" d="M44.328,61.648l-.066,0a.842.842,0,0,1-.775-.9l.85-10.982a.832.832,0,0,1,.9-.775.842.842,0,0,1,.775.9l-.85,10.982a.842.842,0,0,1-.839.777Z" transform="translate(-6.15 -7.729)"/>
      <path id="Trazado_1248536" data-name="Trazado 1248536" d="M33.336,53.931a.842.842,0,0,1-.753-1.219l4.632-9.265a.842.842,0,1,1,1.507.753L34.09,53.465a.842.842,0,0,1-.754.466Z" transform="translate(-4.416 -6.783)"/>
      <path id="Trazado_1248537" data-name="Trazado 1248537" d="M41.363,44.666H38.836a.842.842,0,0,1,0-1.685h2.527a.842.842,0,0,1,0,1.685Z" transform="translate(-5.284 -6.783)"/>
    </g>
  </g>
</svg>
