<svg xmlns="http://www.w3.org/2000/svg" width="73.631" height="54.87" viewBox="0 0 73.631 54.87">
  <g id="Grupo_1213686" data-name="Grupo 1213686" transform="translate(-312.781 -3853.63)">
    <g id="Grupo_1201016" data-name="Grupo 1201016" transform="translate(312.781 3875.311)">
      <g id="Rectángulo_410589" data-name="Rectángulo 410589" fill="#93795a" stroke="#695640" stroke-width="1">
        <rect width="73.631" height="24.544" rx="4" stroke="none"/>
        <rect x="0.5" y="0.5" width="72.631" height="23.544" rx="3.5" fill="none"/>
      </g>
    </g>
    <g id="checklist_3715151_1_" data-name="checklist_3715151 (1)" transform="translate(320.641 3853.045)">
      <g id="Grupo_1214195" data-name="Grupo 1214195" transform="translate(1.879 1.829)">
        <g id="Grupo_1214177" data-name="Grupo 1214177" transform="translate(28.132 16.703)">
          <path id="Trazado_1249488" data-name="Trazado 1249488" d="M34,21H58.615V52.648H34Z" transform="translate(-34 -21)" fill="#ccd1d9"/>
        </g>
        <g id="Grupo_1214178" data-name="Grupo 1214178" transform="translate(31.648 20.22)">
          <path id="Trazado_1249489" data-name="Trazado 1249489" d="M38,25H55.582V49.615H38Z" transform="translate(-38 -25)" fill="#e6e9ed"/>
        </g>
        <g id="Grupo_1214179" data-name="Grupo 1214179" transform="translate(38.681 34.286)">
          <path id="Trazado_1249490" data-name="Trazado 1249490" d="M53.033,41v7.033H46v-5.4l.949-.413A1.324,1.324,0,0,0,47.758,41Z" transform="translate(-46 -41)" fill="#ff826e"/>
        </g>
        <g id="Grupo_1214180" data-name="Grupo 1214180" transform="translate(38.681 23.736)">
          <path id="Trazado_1249491" data-name="Trazado 1249491" d="M46,29h7.033v7.033H46Z" transform="translate(-46 -29)" fill="#ff826e"/>
        </g>
        <g id="Grupo_1214181" data-name="Grupo 1214181" transform="translate(36.044 14.945)">
          <path id="Trazado_1249492" data-name="Trazado 1249492" d="M43,20.758V19h8.791v5.275H43Z" transform="translate(-43 -19)" fill="#b4dd7f"/>
        </g>
        <g id="Grupo_1214182" data-name="Grupo 1214182" transform="translate(3.516 35.341)">
          <path id="Trazado_1249493" data-name="Trazado 1249493" d="M20.769,42.2l-2.462,2.462H6v1.213a8.436,8.436,0,0,0,3.516,6.857v6.875H23.582V47.185l.369-.589a16.112,16.112,0,0,0,1-1.934,13.476,13.476,0,0,0,.492-1.292Z" transform="translate(-6 -42.2)" fill="#b4dd7f"/>
        </g>
        <g id="Grupo_1214183" data-name="Grupo 1214183" transform="translate(12.308 25.494)">
          <path id="Trazado_1249494" data-name="Trazado 1249494" d="M20.4,32.758a4.391,4.391,0,0,1,3.516,1.758h-.818a2.7,2.7,0,0,0-2.532,1.758H16L18.637,31A1.763,1.763,0,0,0,20.4,32.758Z" transform="translate(-16 -31)" fill="#b4dd7f"/>
        </g>
        <g id="Grupo_1214184" data-name="Grupo 1214184" transform="translate(3.604 25.494)">
          <path id="Trazado_1249495" data-name="Trazado 1249495" d="M12.166,31,14.8,36.275H6.1v-.009A4.436,4.436,0,0,1,7.612,33.76a4.38,4.38,0,0,1,2.8-1A1.763,1.763,0,0,0,12.166,31Z" transform="translate(-6.1 -31)" fill="#b4dd7f"/>
        </g>
        <g id="Grupo_1214185" data-name="Grupo 1214185" transform="translate(2.637)">
          <path id="Trazado_1249496" data-name="Trazado 1249496" d="M15.857,11.785l-.378.079a4.277,4.277,0,0,0-3.446,4.2,1.758,1.758,0,0,0,0,3.516v6.154l-1.96-2.611a8.99,8.99,0,0,0-1.556-1.609l-.176-.141A8.908,8.908,0,0,1,13.905,5.516a10.333,10.333,0,0,0,7.305-3.024L21.7,2l3.121,3.121a4.351,4.351,0,0,1-3.077,7.429h-4.44a1.719,1.719,0,0,1-1.24-.519,1.841,1.841,0,0,1-.211-.246Z" transform="translate(-5 -2)" fill="#b27946"/>
        </g>
        <g id="Grupo_1214186" data-name="Grupo 1214186" transform="translate(34.286 30.769)">
          <path id="Trazado_1249497" data-name="Trazado 1249497" d="M46.345,41.738l-.949.413L41,44.033V37l5.345,2.294a1.328,1.328,0,0,1,0,2.444Z" transform="translate(-41 -37)" fill="#aab2bd"/>
        </g>
        <g id="Grupo_1214187" data-name="Grupo 1214187" transform="translate(0 30.769)">
          <path id="Trazado_1249498" data-name="Trazado 1249498" d="M9.033,40.516v3.516H5.516a3.516,3.516,0,1,1,0-7.033H9.033Z" transform="translate(-2 -37)" fill="#aab2bd"/>
        </g>
        <g id="Grupo_1214188" data-name="Grupo 1214188" transform="translate(22.47 34.286)">
          <path id="Trazado_1249499" data-name="Trazado 1249499" d="M39.375,41v3.516H27.56a13.476,13.476,0,0,0,.492-1.292A13.713,13.713,0,0,0,28.606,41Z" transform="translate(-27.56 -41)" fill="#ff826e"/>
        </g>
        <g id="Grupo_1214189" data-name="Grupo 1214189" transform="translate(7.033 34.286)">
          <path id="Trazado_1249500" data-name="Trazado 1249500" d="M10,41H20.84l.589.879-.176.176-2.462,2.462H10Z" transform="translate(-10 -41)" fill="#ff826e"/>
        </g>
        <g id="Grupo_1214190" data-name="Grupo 1214190" transform="translate(23.516 30.769)">
          <path id="Trazado_1249501" data-name="Trazado 1249501" d="M39.519,37v3.516H28.75a14.767,14.767,0,0,0,.22-2.576A2.747,2.747,0,0,0,28.8,37H39.519Z" transform="translate(-28.75 -37)" fill="#fcd770"/>
        </g>
        <g id="Grupo_1214191" data-name="Grupo 1214191" transform="translate(7.033 30.769)">
          <path id="Trazado_1249502" data-name="Trazado 1249502" d="M20.127,39.435l.712,1.081H10V37h9.837a2.747,2.747,0,0,0-.167.941A2.651,2.651,0,0,0,20.127,39.435Z" transform="translate(-10 -37)" fill="#fcd770"/>
        </g>
        <g id="Grupo_1214192" data-name="Grupo 1214192" transform="translate(16.703 29.011)">
          <path id="Trazado_1249503" data-name="Trazado 1249503" d="M27.866,36.758a2.747,2.747,0,0,1,.167.941,14.766,14.766,0,0,1-.22,2.576,13.713,13.713,0,0,1-.554,2.224L22.582,41.33l.176-.176-.589-.879-.712-1.081A2.651,2.651,0,0,1,21,37.7a2.747,2.747,0,0,1,.167-.941A2.7,2.7,0,0,1,23.7,35h1.635a2.661,2.661,0,0,1,1.908.791,2.62,2.62,0,0,1,.624.967Z" transform="translate(-21 -35)" fill="#f0d0b4"/>
        </g>
        <g id="Grupo_1214193" data-name="Grupo 1214193" transform="translate(7.912 9.785)">
          <path id="Trazado_1249504" data-name="Trazado 1249504" d="M18.965,25.068a3.447,3.447,0,0,0,2.277,1.116l.132.044a2.73,2.73,0,0,1-.615.941,2.661,2.661,0,0,1-1.908.791,2.569,2.569,0,0,1-.818-.132V28.84L15.4,34.115,12.758,28.84V20.928a1.758,1.758,0,0,1,0-3.516,4.277,4.277,0,0,1,3.446-4.2l.378-.079a1.841,1.841,0,0,0,.211.246,1.719,1.719,0,0,0,1.24.519h3.516v2.057a3.52,3.52,0,0,0,1.029,2.488l.369.369a1.243,1.243,0,0,1-.879,2.119h-.519v1.758H18.033a3.5,3.5,0,0,0,.932,2.382Z" transform="translate(-11 -13.13)" fill="#f0d0b4"/>
        </g>
        <g id="Grupo_1214194" data-name="Grupo 1214194" transform="translate(14.945 19.341)">
          <path id="Trazado_1249505" data-name="Trazado 1249505" d="M22.516,26.576a2.7,2.7,0,0,1-.176.967l-.132-.044a3.447,3.447,0,0,1-2.277-1.116A3.5,3.5,0,0,1,19,24h3.516Z" transform="translate(-19 -24)" fill="#ff826e"/>
        </g>
      </g>
      <g id="Grupo_1214196" data-name="Grupo 1214196" transform="translate(1 0.585)">
        <circle id="Elipse_12489" data-name="Elipse 12489" cx="0.879" cy="0.879" r="0.879" transform="translate(14.945 14.431)"/>
        <path id="Trazado_1249506" data-name="Trazado 1249506" d="M47.593,17.653V15.895H37.044v1.758H29.132V31.719H25.98a3.567,3.567,0,0,0-3.064-1.758h-.411A5.222,5.222,0,0,0,18.583,28.2a.88.88,0,0,1-.879-.879v-.006a3.579,3.579,0,0,0,3.516-3.572V20.26a2.123,2.123,0,0,0,1.138-3.591l-.365-.365a2.653,2.653,0,0,1-.774-1.865V13.257h.044a5.23,5.23,0,0,0,3.7-8.929L21.22.585,20.109,1.7a9.4,9.4,0,0,1-6.686,2.769A9.785,9.785,0,0,0,7.31,21.893l.17.136a8.027,8.027,0,0,1,1.407,1.451l1.783,2.377v1.465a.88.88,0,0,1-.879.879,5.284,5.284,0,0,0-4.978,3.575,4.384,4.384,0,0,0-.3,8.643v.42a9.323,9.323,0,0,0,3.516,7.29v7.324H23.857V42.407l.236-.382a16.417,16.417,0,0,0,.814-1.515h4.225V51.06H55.505V17.653ZM34.406,40.51h1.938l3.336-1.429v4.946h8.791V35.235h-5.48a2.19,2.19,0,0,0-1.135-1.154l-1.41-.6h8.025V24.686H39.681v8.463l-3.336-1.43H34.406V22.928H50.231V45.785H34.406Zm8.585-3.516h3.722v5.275H41.439V38.326l.417-.178A2.188,2.188,0,0,0,42.992,36.994Zm-1.827-.462L37.044,38.3V33.932L41.165,35.7a.454.454,0,0,1,0,.833Zm.274-4.813V26.444h5.275v5.275Zm4.4-14.066V21.17H38.8V17.653ZM30.89,19.411h6.154V21.17h-4.4V31.719H30.89Zm4.4,14.066v1.758H26.4a16.273,16.273,0,0,0,.1-1.7c0-.021-.006-.04-.006-.062Zm-10.549.062a14.391,14.391,0,0,1-.5,3.742l-3.177-.794-1.293-1.939a1.82,1.82,0,0,1,1.515-2.829h1.634a1.822,1.822,0,0,1,1.821,1.82Zm-11.254,9.07-1.26-2.1h3.358Zm3.857-3.857H9.791V36.994H19.1Zm.37-5.275c0,.021-.006.04-.006.062a3.556,3.556,0,0,0,.438,1.7H9.791V33.477Zm.873-3.516a3.5,3.5,0,0,1,1.322.277,3.586,3.586,0,0,0-1.687,1.481H15.609l1.22-2.44A2.619,2.619,0,0,0,18.582,29.961Zm-.726-7.912h1.605v1.6A2.669,2.669,0,0,1,17.856,22.049Zm2.892-4.5.364.365a.364.364,0,0,1-.257.622H19.461V20.29H15.945v.879A4.415,4.415,0,0,0,18.7,25.223a1.806,1.806,0,0,1-2.063.036l-1.958-1.3L13.7,25.417l1.957,1.3c.093.062.192.111.289.164v.229l-1.758,3.516-1.758-3.516V18.532H11.55a.879.879,0,1,1,0-1.758h.879v-.879a3.415,3.415,0,0,1,2.646-3.316,2.614,2.614,0,0,0,1.749.679h2.637v1.181a4.371,4.371,0,0,0,1.287,3.108Zm-10.454,4.88a9.853,9.853,0,0,0-1.716-1.771l-.17-.136A8.027,8.027,0,0,1,13.423,6.225a11.136,11.136,0,0,0,7.8-3.153l2.5,2.5A3.472,3.472,0,0,1,21.264,11.5h-4.44a.879.879,0,1,1,0-1.758H17.7V7.983h-.879a2.641,2.641,0,0,0-2.637,2.637,2.674,2.674,0,0,0,.038.377,5.185,5.185,0,0,0-3.5,4.151,2.638,2.638,0,0,0-.054,4.992v2.788Zm-.5,7.535a2.619,2.619,0,0,0,1.753-.681l1.22,2.44H6.753A3.525,3.525,0,0,1,9.791,29.961ZM2.758,36.115A2.641,2.641,0,0,1,5.4,33.477H8.033v5.275H5.4A2.641,2.641,0,0,1,2.758,36.115Zm3.516,4.727V40.51h3.9L12.2,43.89l-1.273,1.273,1.243,1.243,8.264-8.264,3.239.81a14.458,14.458,0,0,1-1.079,2.15l-2.284,3.713A7.58,7.58,0,0,1,6.275,40.842ZM22.1,53.7H9.791V49.236a9.3,9.3,0,0,0,12.018-3.5l.29-.471Zm4.018-16.7h9.168v1.758H25.625A16.045,16.045,0,0,0,26.117,36.994ZM53.747,49.3H30.89V40.51h1.758v7.033H51.989V21.17h-4.4V19.411h6.154Z" transform="translate(-1 -0.585)"/>
        <path id="Trazado_1249507" data-name="Trazado 1249507" d="M0,0H4.973V1.758H0Z" transform="translate(40.69 29.635) rotate(-45)"/>
        <path id="Trazado_1249508" data-name="Trazado 1249508" d="M0,0H4.973V1.758H0Z" transform="translate(40.689 40.183) rotate(-45)"/>
      </g>
    </g>
  </g>
</svg>
