<svg xmlns="http://www.w3.org/2000/svg" width="73.631" height="44.715" viewBox="0 0 73.631 44.715">
  <g id="Grupo_1213688" data-name="Grupo 1213688" transform="translate(-312.781 -3863.557)">
    <g id="Grupo_1201016" data-name="Grupo 1201016" transform="translate(312.781 3875.311)">
      <g id="Rectángulo_410589" data-name="Rectángulo 410589" fill="#93795a" stroke="#695640" stroke-width="1">
        <rect width="73.631" height="24.544" rx="4" stroke="none"/>
        <rect x="0.5" y="0.5" width="72.631" height="23.544" rx="3.5" fill="none"/>
      </g>
    </g>
    <g id="horse_3689331" transform="translate(322.388 3863.557)">
      <g id="Grupo_1201400" data-name="Grupo 1201400" transform="translate(0.862 4.298)">
        <path id="Trazado_1247275" data-name="Trazado 1247275" d="M8.562,25H13.73a6.021,6.021,0,0,0-6.02,6.019v9.452A6.871,6.871,0,0,1,1,47.35a1.717,1.717,0,0,0,1.539-1.711V31.02A6.021,6.021,0,0,1,8.561,25Z" transform="translate(-1.003 -12.961)" fill="#656d78"/>
        <path id="Trazado_1247276" data-name="Trazado 1247276" d="M39.244,11.026,33.233,23.039h-3.44L35.813,11h3.38Z" transform="translate(-5.035 -11)" fill="#656d78"/>
        <path id="Trazado_1247277" data-name="Trazado 1247277" d="M35.793,54h3.44v2.58h-3.44Z" transform="translate(-5.875 -17.022)" fill="#656d78"/>
      </g>
      <path id="Trazado_1247278" data-name="Trazado 1247278" d="M59.112,44.99l-1.72,10.328h-6.88L48.793,44.99Z" transform="translate(-6.833 -11.462)" fill="#da4453"/>
      <path id="Trazado_1247279" data-name="Trazado 1247279" d="M57.392,34.73a1.725,1.725,0,0,0,1.72-1.72v2.563a1.725,1.725,0,0,1-1.72,1.72h-6.88a1.725,1.725,0,0,1-1.72-1.72V33.01a1.725,1.725,0,0,0,1.72,1.72Z" transform="translate(-6.833 -9.784)" fill="#f6bb42"/>
      <path id="Trazado_1247280" data-name="Trazado 1247280" d="M59.112,31.561v.886a1.725,1.725,0,0,1-1.72,1.72h-6.88a1.725,1.725,0,0,1-1.72-1.72V30.71a1.725,1.725,0,0,1,1.72-1.72h6.88a1.725,1.725,0,0,1,1.72,1.72Z" transform="translate(-6.833 -9.221)" fill="#ffce54"/>
      <path id="Trazado_1247281" data-name="Trazado 1247281" d="M47.793,42H59.832v2.571H47.793Z" transform="translate(-6.693 -11.043)" fill="#ed5565"/>
      <path id="Trazado_1247282" data-name="Trazado 1247282" d="M11.793,54h3.448v2.58H11.793Z" transform="translate(-1.652 -12.724)" fill="#656d78"/>
      <path id="Trazado_1247283" data-name="Trazado 1247283" d="M16.542,22.479H30.293L36.3,10.466,38.033,7l1.72,3.44,10.319,2.58-1.72,4.3H39.744l-.851,14.619a3.439,3.439,0,0,1-3.44,3.44V47.418h-3.44V35.379H18.9l-4.085,6.905.009,5.134H11.374V36.238A2.575,2.575,0,0,1,8.8,33.659V28.5a6.021,6.021,0,0,1,6.019-6.02Z" transform="translate(-1.233 -6.141)" fill="#965353"/>
      <path id="Trazado_1247284" data-name="Trazado 1247284" d="M8.867,31.742a.859.859,0,0,1-.86-.86A6.888,6.888,0,0,1,14.886,24a.86.86,0,0,1,0,1.72,5.165,5.165,0,0,0-5.16,5.16.859.859,0,0,1-.86.86Z" transform="translate(-1.121 -8.523)"/>
      <path id="Trazado_1247285" data-name="Trazado 1247285" d="M20.614,40.161a.86.86,0,0,1-.705-1.351,5.13,5.13,0,0,0,.922-2.944.86.86,0,0,1,1.72,0,6.843,6.843,0,0,1-1.229,3.926A.859.859,0,0,1,20.614,40.161Z" transform="translate(-2.766 -10.064)"/>
      <path id="Trazado_1247286" data-name="Trazado 1247286" d="M2.861,31.742a.859.859,0,0,1-.86-.86A6.888,6.888,0,0,1,8.881,24a.86.86,0,0,1,0,1.72,5.165,5.165,0,0,0-5.16,5.16.859.859,0,0,1-.86.86Z" transform="translate(-0.28 -8.523)"/>
      <path id="Trazado_1247287" data-name="Trazado 1247287" d="M2.865,47.338a.859.859,0,0,1-.86-.86V31.861a.86.86,0,0,1,1.72,0V46.478a.859.859,0,0,1-.86.86Z" transform="translate(-0.281 -9.503)"/>
      <path id="Trazado_1247288" data-name="Trazado 1247288" d="M8.867,42.173a.859.859,0,0,1-.86-.86V31.86a.86.86,0,0,1,1.72,0v9.453a.859.859,0,0,1-.86.86Z" transform="translate(-1.121 -9.503)"/>
      <path id="Trazado_1247289" data-name="Trazado 1247289" d="M16.746,25.722H9.865a.86.86,0,1,1,0-1.72h6.881a.86.86,0,0,1,0,1.72Z" transform="translate(-1.261 -8.523)"/>
      <path id="Trazado_1247290" data-name="Trazado 1247290" d="M.863,50.6a.86.86,0,1,1,0-1.72,6.03,6.03,0,0,0,6.023-6.023.86.86,0,1,1,1.72,0A7.752,7.752,0,0,1,.863,50.6Z" transform="translate(0 -11.042)"/>
      <path id="Trazado_1247291" data-name="Trazado 1247291" d="M.863,51.44a.86.86,0,0,1,0-1.72.862.862,0,0,0,.862-.862.86.86,0,0,1,1.72,0A2.584,2.584,0,0,1,.863,51.44Z" transform="translate(0 -11.883)"/>
      <path id="Trazado_1247292" data-name="Trazado 1247292" d="M15.87,55.335a.86.86,0,0,1-.86-.859L15,46.768a.856.856,0,0,1,.12-.438l4.086-6.907a.86.86,0,1,1,1.48.875L16.723,47l.008,7.472a.859.859,0,0,1-.859.861Z" transform="translate(-2.101 -10.623)"/>
      <path id="Trazado_1247293" data-name="Trazado 1247293" d="M11.862,55.475a.859.859,0,0,1-.86-.86l0-13.754A.86.86,0,0,1,11.858,40h0a.86.86,0,0,1,.86.859l0,13.756a.859.859,0,0,1-.86.86Z" transform="translate(-1.54 -10.763)"/>
      <path id="Trazado_1247294" data-name="Trazado 1247294" d="M15.31,54.715H11.863a.86.86,0,0,1,0-1.72H15.31a.86.86,0,1,1,0,1.72Z" transform="translate(-1.541 -12.583)"/>
      <path id="Trazado_1247295" data-name="Trazado 1247295" d="M31.617,25.722H17.867a.86.86,0,0,1,0-1.72h13.75a.86.86,0,1,1,0,1.72Z" transform="translate(-2.382 -8.523)"/>
      <path id="Trazado_1247296" data-name="Trazado 1247296" d="M33.855,23.2a.86.86,0,0,1-.768-1.245L40.828,6.477a.86.86,0,0,1,1.539.769L34.625,22.726A.86.86,0,0,1,33.855,23.2Z" transform="translate(-4.621 -6.002)"/>
      <path id="Trazado_1247297" data-name="Trazado 1247297" d="M29.857,23.761a.86.86,0,0,1-.768-1.245L35.11,10.477a.86.86,0,1,1,1.539.769L30.627,23.286a.86.86,0,0,1-.77.475Z" transform="translate(-4.061 -6.562)"/>
      <path id="Trazado_1247298" data-name="Trazado 1247298" d="M44.576,11.162a.858.858,0,0,1-.77-.476l-1.717-3.44a.86.86,0,0,1,1.539-.768l1.717,3.44a.86.86,0,0,1-.768,1.244Z" transform="translate(-5.882 -6.002)"/>
      <path id="Trazado_1247299" data-name="Trazado 1247299" d="M55.177,14.3a.86.86,0,0,1-.21-.026L44.646,11.7a.86.86,0,0,1,.418-1.668L55.385,12.61a.86.86,0,0,1-.208,1.694Z" transform="translate(-6.161 -6.562)"/>
      <path id="Trazado_1247300" data-name="Trazado 1247300" d="M54.858,19.025a.86.86,0,0,1-.8-1.179l1.719-4.3a.86.86,0,0,1,1.6.638l-1.719,4.3A.86.86,0,0,1,54.858,19.025Z" transform="translate(-7.562 -6.982)"/>
      <path id="Trazado_1247301" data-name="Trazado 1247301" d="M53.457,19.725h-8.6a.86.86,0,0,1,0-1.72h8.6a.86.86,0,0,1,0,1.72Z" transform="translate(-6.161 -7.683)"/>
      <path id="Trazado_1247302" data-name="Trazado 1247302" d="M43.862,34.34l-.051,0A.86.86,0,0,1,43,33.429l.854-14.615a.851.851,0,0,1,.909-.808.86.86,0,0,1,.808.909L44.719,33.53a.86.86,0,0,1-.857.81Z" transform="translate(-6.022 -7.683)"/>
      <path id="Trazado_1247303" data-name="Trazado 1247303" d="M39.861,40.16a.86.86,0,0,1,0-1.72,2.583,2.583,0,0,0,2.58-2.58.86.86,0,0,1,1.72,0A4.3,4.3,0,0,1,39.861,40.16Z" transform="translate(-5.462 -10.063)"/>
      <path id="Trazado_1247304" data-name="Trazado 1247304" d="M39.858,55.338a.859.859,0,0,1-.86-.86V39.86a.86.86,0,1,1,1.72,0V54.478a.859.859,0,0,1-.86.86Z" transform="translate(-5.461 -10.623)"/>
      <path id="Trazado_1247305" data-name="Trazado 1247305" d="M35.857,55.338a.859.859,0,0,1-.86-.86V39.86a.86.86,0,1,1,1.72,0V54.478a.859.859,0,0,1-.86.86Z" transform="translate(-4.901 -10.623)"/>
      <path id="Trazado_1247306" data-name="Trazado 1247306" d="M39.3,54.717H35.857a.86.86,0,1,1,0-1.72H39.3a.86.86,0,1,1,0,1.72Z" transform="translate(-4.901 -12.583)"/>
      <path id="Trazado_1247307" data-name="Trazado 1247307" d="M33.722,40.72H20.615a.86.86,0,1,1,0-1.72H33.722a.86.86,0,0,1,0,1.72Z" transform="translate(-2.767 -10.623)"/>
      <path id="Trazado_1247308" data-name="Trazado 1247308" d="M40.238,11.722H36.86a.86.86,0,0,1,0-1.72h3.379a.86.86,0,0,1,0,1.72Z" transform="translate(-5.042 -6.562)"/>
      <path id="Trazado_1247309" data-name="Trazado 1247309" d="M11.444,41.3a3.441,3.441,0,0,1-3.437-3.437.86.86,0,0,1,1.72,0,1.719,1.719,0,0,0,1.717,1.717.86.86,0,0,1,0,1.72Z" transform="translate(-1.121 -10.343)"/>
      <path id="Trazado_1247310" data-name="Trazado 1247310" d="M54.177,57.715H.86A.86.86,0,1,1,.86,56H54.177a.86.86,0,0,1,0,1.72Z" transform="translate(0 -13.003)"/>
      <path id="Trazado_1247311" data-name="Trazado 1247311" d="M57.461,56.037h-6.88a.859.859,0,0,1-.848-.719L48.013,45a.86.86,0,0,1,.848-1H59.18a.86.86,0,0,1,.848,1l-1.72,10.323a.86.86,0,0,1-.848.719Zm-6.151-1.72h5.422l1.434-8.6H49.876Z" transform="translate(-6.722 -11.322)"/>
      <path id="Trazado_1247312" data-name="Trazado 1247312" d="M59.9,45.3H47.861a.859.859,0,0,1-.86-.86V41.863a.859.859,0,0,1,.86-.86H59.9a.859.859,0,0,1,.86.86v2.572a.859.859,0,0,1-.86.86Zm-11.179-1.72H59.04v-.852H48.721Z" transform="translate(-6.582 -10.903)"/>
      <path id="Trazado_1247313" data-name="Trazado 1247313" d="M57.461,34.884h-6.88A2.583,2.583,0,0,1,48,32.3v-1.73a2.583,2.583,0,0,1,2.58-2.58h6.88a2.583,2.583,0,0,1,2.58,2.58V32.3A2.583,2.583,0,0,1,57.461,34.884Zm-6.88-5.17a.861.861,0,0,0-.86.86V32.3a.861.861,0,0,0,.86.86h6.88a.861.861,0,0,0,.86-.86v-1.73a.861.861,0,0,0-.86-.86Z" transform="translate(-6.722 -9.082)"/>
      <path id="Trazado_1247314" data-name="Trazado 1247314" d="M57.461,37.872h-6.88A2.583,2.583,0,0,1,48,35.292v-3.45a.86.86,0,0,1,1.72,0v3.45a.861.861,0,0,0,.86.86h6.88a.861.861,0,0,0,.86-.86v-3.45a.86.86,0,0,1,1.72,0v3.45A2.583,2.583,0,0,1,57.461,37.872Z" transform="translate(-6.722 -9.5)"/>
      <path id="Trazado_1247315" data-name="Trazado 1247315" d="M21.88,45.714a.86.86,0,1,1-.008-1.72h.008a.86.86,0,1,1,0,1.72Z" transform="translate(-2.943 -11.322)"/>
      <path id="Trazado_1247316" data-name="Trazado 1247316" d="M26.88,21.714a.86.86,0,1,1-.008-1.72h.008a.86.86,0,0,1,0,1.72Z" transform="translate(-3.643 -7.961)"/>
      <path id="Trazado_1247317" data-name="Trazado 1247317" d="M14.88,12.714a.86.86,0,1,1-.008-1.72h.008a.86.86,0,0,1,0,1.72Z" transform="translate(-1.963 -6.701)"/>
      <path id="Trazado_1247318" data-name="Trazado 1247318" d="M32.88,45.714a.86.86,0,1,1-.008-1.72h.008a.86.86,0,0,1,0,1.72Z" transform="translate(-4.484 -11.322)"/>
      <path id="Trazado_1247319" data-name="Trazado 1247319" d="M26.861,52.154a.859.859,0,0,1-.86-.86v-3.44a.86.86,0,0,1,1.72,0v3.44a.859.859,0,0,1-.86.86Z" transform="translate(-3.641 -11.742)"/>
      <path id="Trazado_1247320" data-name="Trazado 1247320" d="M27.581,50.714h-1.72a.86.86,0,1,1,0-1.72h1.72a.86.86,0,1,1,0,1.72Z" transform="translate(-3.501 -12.023)"/>
      <path id="Trazado_1247321" data-name="Trazado 1247321" d="M10.861,21.161A.859.859,0,0,1,10,20.3v-3.44a.86.86,0,1,1,1.72,0V20.3a.859.859,0,0,1-.86.86Z" transform="translate(-1.401 -7.402)"/>
      <path id="Trazado_1247322" data-name="Trazado 1247322" d="M11.581,19.721H9.861a.86.86,0,0,1,0-1.72h1.72a.86.86,0,0,1,0,1.72Z" transform="translate(-1.261 -7.682)"/>
      <path id="Trazado_1247323" data-name="Trazado 1247323" d="M22.861,15.154a.859.859,0,0,1-.86-.86v-3.44a.86.86,0,1,1,1.72,0v3.44a.859.859,0,0,1-.86.86Z" transform="translate(-3.081 -6.561)"/>
      <path id="Trazado_1247324" data-name="Trazado 1247324" d="M23.581,13.714h-1.72a.86.86,0,0,1,0-1.72h1.72a.86.86,0,0,1,0,1.72Z" transform="translate(-2.941 -6.841)"/>
    </g>
  </g>
</svg>
