<svg xmlns="http://www.w3.org/2000/svg" width="127" height="295.711" viewBox="0 0 127 295.711">
  <g id="Grupo_1214199" data-name="Grupo 1214199" transform="translate(-179.774 -1856)">
    <rect id="Rect치ngulo_411474" data-name="Rect치ngulo 411474" width="127" height="295.711" transform="translate(179.774 1856)" fill="#9f9d93"/>
    <g id="Grupo_1214198" data-name="Grupo 1214198" transform="translate(-116.007 -1888.558)">
      <g id="Grupo_1201016" data-name="Grupo 1201016" transform="translate(312.781 3878.64)">
        <g id="Rect치ngulo_410589" data-name="Rect치ngulo 410589" fill="#82817d" stroke="#6b6963" stroke-width="1">
          <rect width="94.484" height="31.495" rx="4" stroke="none"/>
          <rect x="0.5" y="0.5" width="93.484" height="30.495" rx="3.5" fill="none"/>
        </g>
      </g>
      <g id="horse_3689331" transform="translate(325.108 3863.557)">
        <g id="Grupo_1201400" data-name="Grupo 1201400" transform="translate(1.107 5.516)">
          <path id="Trazado_1247275" data-name="Trazado 1247275" d="M10.7,25h6.632A7.726,7.726,0,0,0,9.61,32.723V44.852A8.817,8.817,0,0,1,1,53.68a2.2,2.2,0,0,0,1.975-2.2V32.725A7.726,7.726,0,0,1,10.7,25Z" transform="translate(-1.003 -9.551)" fill="#656d78"/>
          <path id="Trazado_1247276" data-name="Trazado 1247276" d="M41.921,11.033,34.207,26.449H29.793L37.518,11h4.337Z" transform="translate(1.977 -11)" fill="#656d78"/>
          <path id="Trazado_1247277" data-name="Trazado 1247277" d="M35.793,54h4.414v3.311H35.793Z" transform="translate(2.598 -6.549)" fill="#656d78"/>
        </g>
        <path id="Trazado_1247278" data-name="Trazado 1247278" d="M62.035,44.99,59.828,58.243H51L48.793,44.99Z" transform="translate(5.051 -1.966)" fill="#da4453"/>
        <path id="Trazado_1247279" data-name="Trazado 1247279" d="M59.828,35.217a2.214,2.214,0,0,0,2.207-2.207V36.3a2.214,2.214,0,0,1-2.207,2.207H51A2.214,2.214,0,0,1,48.793,36.3V33.01A2.214,2.214,0,0,0,51,35.217Z" transform="translate(5.051 -3.206)" fill="#f6bb42"/>
        <path id="Trazado_1247280" data-name="Trazado 1247280" d="M62.035,32.29v1.137a2.214,2.214,0,0,1-2.207,2.207H51a2.214,2.214,0,0,1-2.207-2.207V31.2A2.214,2.214,0,0,1,51,28.99h8.828A2.214,2.214,0,0,1,62.035,31.2Z" transform="translate(5.051 -3.622)" fill="#ffce54"/>
        <path id="Trazado_1247281" data-name="Trazado 1247281" d="M47.793,42H63.242v3.3H47.793Z" transform="translate(4.947 -2.275)" fill="#ed5565"/>
        <path id="Trazado_1247282" data-name="Trazado 1247282" d="M11.793,54h4.425v3.311H11.793Z" transform="translate(1.221 -1.033)" fill="#656d78"/>
        <path id="Trazado_1247283" data-name="Trazado 1247283" d="M18.735,26.863H36.38l7.714-15.416L46.311,7l2.207,4.414,13.242,3.311-2.207,5.518H48.507L47.415,39A4.413,4.413,0,0,1,43,43.416V58.865H38.587V43.416H21.758l-5.242,8.861.011,6.588H12.1V44.519a3.3,3.3,0,0,1-3.3-3.311V34.588a7.726,7.726,0,0,1,7.723-7.725Z" transform="translate(0.911 -5.898)" fill="#965353"/>
        <path id="Trazado_1247284" data-name="Trazado 1247284" d="M9.11,33.934a1.1,1.1,0,0,1-1.1-1.1A8.838,8.838,0,0,1,16.835,24a1.1,1.1,0,0,1,0,2.207,6.628,6.628,0,0,0-6.621,6.621,1.1,1.1,0,0,1-1.1,1.1Z" transform="translate(0.829 -4.138)"/>
        <path id="Trazado_1247285" data-name="Trazado 1247285" d="M20.857,41.62a1.1,1.1,0,0,1-.905-1.734,6.583,6.583,0,0,0,1.183-3.777,1.1,1.1,0,1,1,2.207,0,8.78,8.78,0,0,1-1.578,5.038A1.1,1.1,0,0,1,20.857,41.62Z" transform="translate(2.045 -2.999)"/>
        <path id="Trazado_1247286" data-name="Trazado 1247286" d="M3.1,33.934A1.1,1.1,0,0,1,2,32.83,8.838,8.838,0,0,1,10.829,24a1.1,1.1,0,1,1,0,2.207A6.628,6.628,0,0,0,4.208,32.83a1.1,1.1,0,0,1-1.1,1.1Z" transform="translate(0.207 -4.138)"/>
        <path id="Trazado_1247287" data-name="Trazado 1247287" d="M3.108,51.965a1.1,1.1,0,0,1-1.1-1.1V32.1a1.1,1.1,0,1,1,2.207,0V50.861a1.1,1.1,0,0,1-1.1,1.1Z" transform="translate(0.208 -3.414)"/>
        <path id="Trazado_1247288" data-name="Trazado 1247288" d="M9.11,45.337a1.1,1.1,0,0,1-1.1-1.1V32.1a1.1,1.1,0,0,1,2.207,0v12.13a1.1,1.1,0,0,1-1.1,1.1Z" transform="translate(0.829 -3.414)"/>
        <path id="Trazado_1247289" data-name="Trazado 1247289" d="M18.939,26.209h-8.83a1.1,1.1,0,0,1,0-2.207h8.83a1.1,1.1,0,0,1,0,2.207Z" transform="translate(0.932 -4.138)"/>
        <path id="Trazado_1247290" data-name="Trazado 1247290" d="M1.106,53.032a1.1,1.1,0,1,1,0-2.207A7.737,7.737,0,0,0,8.835,43.1a1.1,1.1,0,1,1,2.207,0A9.947,9.947,0,0,1,1.106,53.032Z" transform="translate(0 -2.276)"/>
        <path id="Trazado_1247291" data-name="Trazado 1247291" d="M1.106,52.414a1.1,1.1,0,0,1,0-2.207A1.107,1.107,0,0,0,2.212,49.1a1.1,1.1,0,1,1,2.207,0,3.316,3.316,0,0,1-3.313,3.313Z" transform="translate(0 -1.654)"/>
        <path id="Trazado_1247292" data-name="Trazado 1247292" d="M16.116,59.961a1.1,1.1,0,0,1-1.1-1.1L15,48.968a1.1,1.1,0,0,1,.154-.563L20.4,39.542a1.1,1.1,0,1,1,1.9,1.123l-5.09,8.6.01,9.588a1.1,1.1,0,0,1-1.1,1.1Z" transform="translate(1.553 -2.586)"/>
        <path id="Trazado_1247293" data-name="Trazado 1247293" d="M12.107,59.858a1.1,1.1,0,0,1-1.1-1.1L11,41.1A1.1,1.1,0,0,1,12.1,40h0a1.1,1.1,0,0,1,1.1,1.1l0,17.652a1.1,1.1,0,0,1-1.1,1.1Z" transform="translate(1.139 -2.482)"/>
        <path id="Trazado_1247294" data-name="Trazado 1247294" d="M16.53,55.2H12.106a1.1,1.1,0,0,1,0-2.207H16.53a1.1,1.1,0,0,1,0,2.207Z" transform="translate(1.139 -1.137)"/>
        <path id="Trazado_1247295" data-name="Trazado 1247295" d="M35.755,26.209H18.11a1.1,1.1,0,0,1,0-2.207H35.755a1.1,1.1,0,1,1,0,2.207Z" transform="translate(1.76 -4.138)"/>
        <path id="Trazado_1247296" data-name="Trazado 1247296" d="M34.1,28.072a1.1,1.1,0,0,1-.986-1.6L43.046,6.612a1.1,1.1,0,0,1,1.974.987L35.087,27.462A1.1,1.1,0,0,1,34.1,28.072Z" transform="translate(3.416 -6.002)"/>
        <path id="Trazado_1247297" data-name="Trazado 1247297" d="M30.1,27.658a1.1,1.1,0,0,1-.986-1.6l7.727-15.449a1.1,1.1,0,1,1,1.974.987L31.089,27.048a1.1,1.1,0,0,1-.988.61Z" transform="translate(3.002 -5.588)"/>
        <path id="Trazado_1247298" data-name="Trazado 1247298" d="M45.306,12.623a1.1,1.1,0,0,1-.988-.611L42.114,7.6a1.1,1.1,0,0,1,1.974-.985l2.2,4.414a1.1,1.1,0,0,1-.986,1.6Z" transform="translate(4.347 -6.002)"/>
        <path id="Trazado_1247299" data-name="Trazado 1247299" d="M58.344,15.523a1.1,1.1,0,0,1-.269-.033L44.83,12.176a1.1,1.1,0,0,1,.537-2.14l13.244,3.314a1.1,1.1,0,0,1-.267,2.174Z" transform="translate(4.554 -5.588)"/>
        <path id="Trazado_1247300" data-name="Trazado 1247300" d="M55.1,20.73a1.1,1.1,0,0,1-1.025-1.513L56.283,13.7a1.1,1.1,0,0,1,2.05.819l-2.206,5.518A1.1,1.1,0,0,1,55.1,20.73Z" transform="translate(5.59 -5.277)"/>
        <path id="Trazado_1247301" data-name="Trazado 1247301" d="M56.137,20.212H45.1A1.1,1.1,0,0,1,45.1,18H56.137a1.1,1.1,0,1,1,0,2.207Z" transform="translate(4.554 -4.759)"/>
        <path id="Trazado_1247302" data-name="Trazado 1247302" d="M44.106,38.966l-.066,0A1.1,1.1,0,0,1,43,37.8l1.1-18.754a1.092,1.092,0,0,1,1.166-1.037A1.1,1.1,0,0,1,46.3,19.173l-1.1,18.754a1.1,1.1,0,0,1-1.1,1.039Z" transform="translate(4.451 -4.759)"/>
        <path id="Trazado_1247303" data-name="Trazado 1247303" d="M40.1,41.621a1.1,1.1,0,0,1,0-2.207A3.314,3.314,0,0,0,43.415,36.1a1.1,1.1,0,1,1,2.207,0A5.524,5.524,0,0,1,40.1,41.621Z" transform="translate(4.037 -3)"/>
        <path id="Trazado_1247304" data-name="Trazado 1247304" d="M40.1,59.965a1.1,1.1,0,0,1-1.1-1.1V40.1a1.1,1.1,0,1,1,2.207,0V58.861a1.1,1.1,0,0,1-1.1,1.1Z" transform="translate(4.037 -2.586)"/>
        <path id="Trazado_1247305" data-name="Trazado 1247305" d="M36.1,59.965a1.1,1.1,0,0,1-1.1-1.1V40.1a1.1,1.1,0,1,1,2.207,0V58.861a1.1,1.1,0,0,1-1.1,1.1Z" transform="translate(3.623 -2.586)"/>
        <path id="Trazado_1247306" data-name="Trazado 1247306" d="M40.516,55.2H36.1A1.1,1.1,0,0,1,36.1,53h4.415a1.1,1.1,0,0,1,0,2.207Z" transform="translate(3.623 -1.137)"/>
        <path id="Trazado_1247307" data-name="Trazado 1247307" d="M37.678,41.207H20.858a1.1,1.1,0,1,1,0-2.207h16.82a1.1,1.1,0,0,1,0,2.207Z" transform="translate(2.045 -2.586)"/>
        <path id="Trazado_1247308" data-name="Trazado 1247308" d="M41.439,12.209H37.1A1.1,1.1,0,0,1,37.1,10h4.335a1.1,1.1,0,0,1,0,2.207Z" transform="translate(3.726 -5.588)"/>
        <path id="Trazado_1247309" data-name="Trazado 1247309" d="M12.418,42.517a4.416,4.416,0,0,1-4.411-4.411,1.1,1.1,0,1,1,2.207,0,2.206,2.206,0,0,0,2.2,2.2,1.1,1.1,0,0,1,0,2.207Z" transform="translate(0.829 -2.793)"/>
        <path id="Trazado_1247310" data-name="Trazado 1247310" d="M69.521,58.2H1.1A1.1,1.1,0,1,1,1.1,56H69.521a1.1,1.1,0,0,1,0,2.207Z" transform="translate(0 -0.827)"/>
        <path id="Trazado_1247311" data-name="Trazado 1247311" d="M60.14,59.448H51.312a1.1,1.1,0,0,1-1.088-.922L48.016,45.279A1.1,1.1,0,0,1,49.1,43.994H62.347a1.1,1.1,0,0,1,1.088,1.285L61.228,58.525A1.1,1.1,0,0,1,60.14,59.448Zm-7.893-2.207H59.2L61.044,46.2H50.407Z" transform="translate(4.969 -2.069)"/>
        <path id="Trazado_1247312" data-name="Trazado 1247312" d="M63.554,46.511H48.1a1.1,1.1,0,0,1-1.1-1.1v-3.3A1.1,1.1,0,0,1,48.1,41H63.554a1.1,1.1,0,0,1,1.1,1.1v3.3a1.1,1.1,0,0,1-1.1,1.1ZM49.208,44.3H62.45V43.21H49.208Z" transform="translate(4.865 -2.379)"/>
        <path id="Trazado_1247313" data-name="Trazado 1247313" d="M60.14,36.835H51.312A3.314,3.314,0,0,1,48,33.525V31.3a3.314,3.314,0,0,1,3.311-3.311H60.14A3.314,3.314,0,0,1,63.45,31.3v2.22A3.314,3.314,0,0,1,60.14,36.835ZM51.312,30.2a1.1,1.1,0,0,0-1.1,1.1v2.22a1.1,1.1,0,0,0,1.1,1.1H60.14a1.1,1.1,0,0,0,1.1-1.1V31.3a1.1,1.1,0,0,0-1.1-1.1Z" transform="translate(4.969 -3.725)"/>
        <path id="Trazado_1247314" data-name="Trazado 1247314" d="M60.14,39.823H51.312A3.314,3.314,0,0,1,48,36.513V32.086a1.1,1.1,0,1,1,2.207,0v4.427a1.1,1.1,0,0,0,1.1,1.1H60.14a1.1,1.1,0,0,0,1.1-1.1V32.086a1.1,1.1,0,0,1,2.207,0v4.427A3.314,3.314,0,0,1,60.14,39.823Z" transform="translate(4.969 -3.416)"/>
        <path id="Trazado_1247315" data-name="Trazado 1247315" d="M22.125,46.2a1.1,1.1,0,1,1-.011-2.207h.011a1.1,1.1,0,1,1,0,2.207Z" transform="translate(2.175 -2.069)"/>
        <path id="Trazado_1247316" data-name="Trazado 1247316" d="M27.125,22.2a1.1,1.1,0,1,1-.011-2.207h.011a1.1,1.1,0,0,1,0,2.207Z" transform="translate(2.693 -4.553)"/>
        <path id="Trazado_1247317" data-name="Trazado 1247317" d="M15.125,13.2a1.1,1.1,0,1,1-.011-2.207h.011a1.1,1.1,0,1,1,0,2.207Z" transform="translate(1.451 -5.485)"/>
        <path id="Trazado_1247318" data-name="Trazado 1247318" d="M33.125,46.2a1.1,1.1,0,0,1-.011-2.207h.011a1.1,1.1,0,1,1,0,2.207Z" transform="translate(3.314 -2.069)"/>
        <path id="Trazado_1247319" data-name="Trazado 1247319" d="M27.1,53.615a1.1,1.1,0,0,1-1.1-1.1V48.1a1.1,1.1,0,0,1,2.207,0v4.414a1.1,1.1,0,0,1-1.1,1.1Z" transform="translate(2.691 -1.758)"/>
        <path id="Trazado_1247320" data-name="Trazado 1247320" d="M28.312,51.2H26.1a1.1,1.1,0,1,1,0-2.207h2.207a1.1,1.1,0,1,1,0,2.207Z" transform="translate(2.588 -1.551)"/>
        <path id="Trazado_1247321" data-name="Trazado 1247321" d="M11.1,22.622a1.1,1.1,0,0,1-1.1-1.1V17.1a1.1,1.1,0,1,1,2.207,0v4.414a1.1,1.1,0,0,1-1.1,1.1Z" transform="translate(1.035 -4.967)"/>
        <path id="Trazado_1247322" data-name="Trazado 1247322" d="M12.312,20.208H10.1A1.1,1.1,0,0,1,10.1,18h2.207a1.1,1.1,0,1,1,0,2.207Z" transform="translate(0.932 -4.76)"/>
        <path id="Trazado_1247323" data-name="Trazado 1247323" d="M23.1,16.615a1.1,1.1,0,0,1-1.1-1.1V11.1a1.1,1.1,0,1,1,2.207,0v4.414a1.1,1.1,0,0,1-1.1,1.1Z" transform="translate(2.277 -5.588)"/>
        <path id="Trazado_1247324" data-name="Trazado 1247324" d="M24.312,14.2H22.1a1.1,1.1,0,1,1,0-2.207h2.207a1.1,1.1,0,0,1,0,2.207Z" transform="translate(2.174 -5.381)"/>
      </g>
    </g>
  </g>
</svg>
