<svg xmlns="http://www.w3.org/2000/svg" width="127" height="338.179" viewBox="0 0 127 338.179">
  <g id="Grupo_1214203" data-name="Grupo 1214203" transform="translate(-179.774 -4828)">
    <rect id="Rect치ngulo_411488" data-name="Rect치ngulo 411488" width="127" height="338.179" transform="translate(179.774 4828)" fill="#9f9d93"/>
    <g id="Grupo_1214202" data-name="Grupo 1214202" transform="translate(190.774 4980)">
      <g id="Rect치ngulo_410589" data-name="Rect치ngulo 410589" fill="#747269" stroke="#5e5b4e" stroke-width="1">
        <rect width="104.598" height="34.866" rx="8" stroke="none"/>
        <rect x="0.5" y="0.5" width="103.598" height="33.866" rx="7.5" fill="none"/>
      </g>
    </g>
    <g id="medical-report_2013039" transform="translate(164.753 4960)">
      <path id="Trazado_1249530" data-name="Trazado 1249530" d="M59.021,113.128v6.161h50.552v-6.438H65.612V54.979H59.021v58.149Z" transform="translate(-8.561 -47.07)" fill="#97a1b3"/>
      <path id="Trazado_1249531" data-name="Trazado 1249531" d="M104.838,24.316h50.085V86.6H104.838Z" transform="translate(-47.787 -20.818)" fill="#eaf0f0"/>
      <circle id="Elipse_12490" data-name="Elipse 12490" cx="5.859" cy="5.859" r="5.859" transform="translate(65.249 28.315)" fill="#89dd8e"/>
      <circle id="Elipse_12491" data-name="Elipse 12491" cx="5.859" cy="5.859" r="5.859" transform="translate(65.249 47.164)" fill="#89dd8e"/>
      <path id="Trazado_1249532" data-name="Trazado 1249532" d="M279.39,47.095a10.005,10.005,0,0,1-10.005-10.005V27.084H289.4V37.089A10.005,10.005,0,0,1,279.39,47.095Z" transform="translate(-188.662 -23.188)" fill="#a0c8ff"/>
      <path id="Trazado_1249533" data-name="Trazado 1249533" d="M314.456,93.572,312.32,95.1a1.2,1.2,0,0,0,0,1.949l.051.037a5.919,5.919,0,0,0,6.952-.046,1.2,1.2,0,0,0,0-1.93l-2.065-1.518A2.386,2.386,0,0,0,314.456,93.572Z" transform="translate(-224.991 -79.729)" fill="#a0c8ff"/>
      <path id="Trazado_1249534" data-name="Trazado 1249534" d="M107.136,2.06H70.82a4.345,4.345,0,0,0-7.391,0H57.051A1.439,1.439,0,0,0,55.612,3.5V6.471H50.46a1.439,1.439,0,0,0-1.439,1.439V53.4a1.439,1.439,0,0,0,2.877,0V9.348h3.714V65.781a1.439,1.439,0,0,0,1.439,1.439H99.573v3.561H51.9V66.058a1.439,1.439,0,0,0-2.877,0v6.161a1.439,1.439,0,0,0,1.439,1.439h50.552a1.439,1.439,0,0,0,1.439-1.439v-5h4.685a1.439,1.439,0,0,0,1.439-1.439V3.5a1.439,1.439,0,0,0-1.438-1.439ZM99.3,5.335V13.9a8.567,8.567,0,0,1-17.134,0V5.335Zm6.4,59.008H58.49V4.937H68.595V14.09a1.468,1.468,0,1,1-2.936,0V8.939a1.439,1.439,0,1,0-2.877,0v5.152a4.345,4.345,0,1,0,8.69,0V4.937h7.813V13.9a11.444,11.444,0,0,0,22.888,0V4.937H105.7Z"/>
      <path id="Trazado_1249535" data-name="Trazado 1249535" d="M159.083,201.412a7.3,7.3,0,0,0,7.055-5.426,1.439,1.439,0,0,0-2.781-.737,4.421,4.421,0,1,1-4.274-5.556,4.476,4.476,0,0,1,.632.045,1.439,1.439,0,1,0,.406-2.848,7.3,7.3,0,1,0-1.039,14.522Z" transform="translate(-87.98 -159.94)"/>
      <path id="Trazado_1249536" data-name="Trazado 1249536" d="M191,187.255l-5.709,5.9-.8-.8a1.439,1.439,0,0,0-2.034,2.035l1.834,1.834a1.439,1.439,0,0,0,1.017.421h.012a1.438,1.438,0,0,0,1.022-.438l6.726-6.95a1.439,1.439,0,0,0-2.067-2Z" transform="translate(-113.877 -159.941)"/>
      <path id="Trazado_1249537" data-name="Trazado 1249537" d="M165.115,325.25a1.438,1.438,0,0,0-1.759,1.022,4.421,4.421,0,1,1-4.274-5.556,4.477,4.477,0,0,1,.632.045,1.439,1.439,0,1,0,.406-2.848,7.3,7.3,0,1,0,6.017,9.1A1.439,1.439,0,0,0,165.115,325.25Z" transform="translate(-87.979 -272.114)"/>
      <path id="Trazado_1249538" data-name="Trazado 1249538" d="M191,318.278l-5.709,5.9-.8-.8a1.439,1.439,0,0,0-2.035,2.035l1.834,1.835a1.438,1.438,0,0,0,1.017.421h.012a1.438,1.438,0,0,0,1.022-.438l6.726-6.95a1.439,1.439,0,0,0-2.068-2Z" transform="translate(-113.877 -272.115)"/>
      <path id="Trazado_1249539" data-name="Trazado 1249539" d="M311.8,210.973H299.426a1.439,1.439,0,1,0,0,2.877H311.8a1.439,1.439,0,0,0,0-2.877Z" transform="translate(-213.149 -180.622)"/>
      <path id="Trazado_1249540" data-name="Trazado 1249540" d="M299.426,255.877h7.049a1.439,1.439,0,0,0,0-2.877h-7.049a1.439,1.439,0,1,0,0,2.877Z" transform="translate(-213.149 -216.603)"/>
      <path id="Trazado_1249541" data-name="Trazado 1249541" d="M311.8,337.553H299.426a1.439,1.439,0,1,0,0,2.877H311.8a1.439,1.439,0,1,0,0-2.877Z" transform="translate(-213.149 -288.992)"/>
      <path id="Trazado_1249542" data-name="Trazado 1249542" d="M306.475,379.58h-7.049a1.439,1.439,0,1,0,0,2.877h7.049a1.439,1.439,0,1,0,0-2.877Z" transform="translate(-213.149 -324.972)"/>
      <path id="Trazado_1249543" data-name="Trazado 1249543" d="M49.151,407.207a1.437,1.437,0,1,0,.619-1.8A1.448,1.448,0,0,0,49.151,407.207Z" transform="translate(-0.019 -346.928)"/>
      <path id="Trazado_1249544" data-name="Trazado 1249544" d="M301.121,67.9a1.439,1.439,0,1,0-.542-1.714A1.45,1.45,0,0,0,301.121,67.9Z" transform="translate(-215.287 -55.876)"/>
      <path id="Trazado_1249545" data-name="Trazado 1249545" d="M360.061,67.9a1.439,1.439,0,1,0-.542-1.714A1.45,1.45,0,0,0,360.061,67.9Z" transform="translate(-265.748 -55.876)"/>
      <path id="Trazado_1249546" data-name="Trazado 1249546" d="M330.068,50.966a1.438,1.438,0,1,0,.589-1.784A1.451,1.451,0,0,0,330.068,50.966Z" transform="translate(-240.523 -41.936)"/>
      <path id="Trazado_1249547" data-name="Trazado 1249547" d="M301.819,87.5a2.641,2.641,0,0,0,1.1,2.143l.054.039a7.342,7.342,0,0,0,8.641-.057,2.637,2.637,0,0,0,0-4.248l-2.065-1.518a3.816,3.816,0,0,0-4.49-.03h0l-2.136,1.528A2.642,2.642,0,0,0,301.819,87.5Zm4.913-1.332a.945.945,0,0,1,1.112.007l1.792,1.317a4.468,4.468,0,0,1-4.759,0Z" transform="translate(-216.43 -71.155)"/>
    </g>
  </g>
</svg>
