<svg xmlns="http://www.w3.org/2000/svg" width="127" height="272.608" viewBox="0 0 127 272.608">
  <g id="Grupo_1214204" data-name="Grupo 1214204" transform="translate(-600.57 -5385.027)">
    <rect id="Rect치ngulo_411490" data-name="Rect치ngulo 411490" width="127" height="272.608" transform="translate(600.57 5385.027)" fill="#4d9686"/>
    <g id="Grupo_1214201" data-name="Grupo 1214201" transform="translate(611.774 5510)">
      <g id="Rect치ngulo_410589" data-name="Rect치ngulo 410589" fill="#60a697" stroke="#295e52" stroke-width="1">
        <rect width="104.598" height="34.866" rx="8" stroke="none"/>
        <rect x="0.5" y="0.5" width="103.598" height="33.866" rx="7.5" fill="none"/>
      </g>
    </g>
    <g id="folder_16057720" transform="translate(627.784 5492)">
      <path id="Trazado_1249548" data-name="Trazado 1249548" d="M6.6,51v5.609L.99,51Z" transform="translate(0.122 6.212)" fill="#f5f7fa"/>
      <path id="Trazado_1249549" data-name="Trazado 1249549" d="M63.5,6V20.583L59.01,25.071V6Z" transform="translate(7.188 0.731)" fill="#f6bb42"/>
      <path id="Trazado_1249550" data-name="Trazado 1249550" d="M16.7,41.9V62.09H6.6V56.481H.99V6H16.7V41.9Z" transform="translate(0.122 0.731)" fill="#e6e9ed"/>
      <path id="Trazado_1249551" data-name="Trazado 1249551" d="M18.99,57H59.4v3.365H18.99Z" transform="translate(2.314 6.942)" fill="#e6e9ed"/>
      <path id="Trazado_1249552" data-name="Trazado 1249552" d="M29.375,31.34l-3.365.011V31.34L32.18,19h3.365Z" transform="translate(3.169 2.314)" fill="#656d78"/>
      <path id="Trazado_1249553" data-name="Trazado 1249553" d="M19.477,60.731H59.884V57.365h1.122A3.361,3.361,0,0,0,64.371,54v6.731A3.361,3.361,0,0,1,61.006,64.1H18.355a3.365,3.365,0,1,1,0-6.731h1.122Z" transform="translate(1.827 6.577)" fill="#f6bb42"/>
      <path id="Trazado_1249554" data-name="Trazado 1249554" d="M49.774,21.609,47.53,26.1H39.677L38.544,40.724A15.747,15.747,0,0,1,24.32,31.716h1.9l3.365-.011,6.17-12.34L37.434,16l2.244,3.365Z" transform="translate(2.963 1.949)" fill="#965353"/>
      <path id="Trazado_1249555" data-name="Trazado 1249555" d="M14.99,67.186V4.365A3.361,3.361,0,0,1,18.355,1H61.006a3.361,3.361,0,0,1,3.365,3.365v56.09a3.361,3.361,0,0,1-3.365,3.365H18.355a3.361,3.361,0,0,0-3.365,3.365ZM55.408,26.824A15.73,15.73,0,1,0,39.68,42.551,15.731,15.731,0,0,0,55.408,26.824Z" transform="translate(1.827 0.122)" fill="#ffce54"/>
      <path id="Trazado_1249556" data-name="Trazado 1249556" d="M26.38,32.437v.011h-1.9a15.73,15.73,0,1,1,14.224,9.008l1.133-14.628h7.853l2.244-4.487L39.841,20.1,37.6,16.731,35.915,20.1H32.55Z" transform="translate(2.799 1.217)" fill="#87bcf4"/>
      <path id="Trazado_1249557" data-name="Trazado 1249557" d="M18.477,64.974a4.487,4.487,0,0,1,0-8.974,1.122,1.122,0,1,1,0,2.244,2.244,2.244,0,0,0,0,4.487,1.122,1.122,0,0,1,0,2.244Z" transform="translate(1.705 6.821)"/>
      <path id="Trazado_1249558" data-name="Trazado 1249558" d="M60.762,58.244H18.112a1.122,1.122,0,0,1,0-2.244h42.65a1.122,1.122,0,1,1,0,2.244Z" transform="translate(2.071 6.821)"/>
      <path id="Trazado_1249559" data-name="Trazado 1249559" d="M60.762,64.244H18.112a1.122,1.122,0,0,1,0-2.244h42.65a1.122,1.122,0,1,1,0,2.244Z" transform="translate(2.071 7.551)"/>
      <path id="Trazado_1249560" data-name="Trazado 1249560" d="M56.132,58.609a1.122,1.122,0,1,1,0-2.244,2.247,2.247,0,0,0,2.244-2.244,1.122,1.122,0,0,1,2.244,0,4.492,4.492,0,0,1-4.487,4.487Z" transform="translate(6.701 6.455)"/>
      <path id="Trazado_1249561" data-name="Trazado 1249561" d="M59.5,5.609a1.121,1.121,0,0,1-1.122-1.122,2.247,2.247,0,0,0-2.244-2.244,1.122,1.122,0,1,1,0-2.244,4.492,4.492,0,0,1,4.487,4.487A1.121,1.121,0,0,1,59.5,5.609Z" transform="translate(6.701)"/>
      <path id="Trazado_1249562" data-name="Trazado 1249562" d="M15.112,5.609A1.121,1.121,0,0,1,13.99,4.487,4.492,4.492,0,0,1,18.477,0a1.122,1.122,0,1,1,0,2.244,2.247,2.247,0,0,0-2.244,2.244,1.121,1.121,0,0,1-1.122,1.122Z" transform="translate(1.705)"/>
      <path id="Trazado_1249563" data-name="Trazado 1249563" d="M56.132,64.609a1.122,1.122,0,0,1,0-2.244,2.247,2.247,0,0,0,2.244-2.244,1.122,1.122,0,1,1,2.244,0,4.492,4.492,0,0,1-4.487,4.487Z" transform="translate(6.701 7.186)"/>
      <path id="Trazado_1249564" data-name="Trazado 1249564" d="M59.132,26.314a1.122,1.122,0,0,1-.793-1.915L62.5,20.241v-13H59.132a1.122,1.122,0,0,1,0-2.244h4.487a1.121,1.121,0,0,1,1.122,1.122V20.705a1.121,1.121,0,0,1-.329.793l-4.487,4.487a1.118,1.118,0,0,1-.793.329Z" transform="translate(7.067 0.609)"/>
      <path id="Trazado_1249565" data-name="Trazado 1249565" d="M60.762,2.244H18.112a1.122,1.122,0,1,1,0-2.244h42.65a1.122,1.122,0,0,1,0,2.244Z" transform="translate(2.071)"/>
      <path id="Trazado_1249566" data-name="Trazado 1249566" d="M15.112,68.064a1.121,1.121,0,0,1-1.122-1.122V4.122a1.122,1.122,0,1,1,2.244,0V66.942a1.121,1.121,0,0,1-1.122,1.122Z" transform="translate(1.705 0.365)"/>
      <path id="Trazado_1249567" data-name="Trazado 1249567" d="M59.519,61.244H19.112a1.122,1.122,0,0,1,0-2.244H59.519a1.122,1.122,0,1,1,0,2.244Z" transform="translate(2.192 7.186)"/>
      <path id="Trazado_1249568" data-name="Trazado 1249568" d="M55.132,61.609a1.121,1.121,0,0,1-1.122-1.122V57.122a1.122,1.122,0,0,1,2.244,0v3.365a1.121,1.121,0,0,1-1.122,1.122Z" transform="translate(6.579 6.821)"/>
      <path id="Trazado_1249569" data-name="Trazado 1249569" d="M19.112,61.609a1.121,1.121,0,0,1-1.122-1.122V57.122a1.122,1.122,0,1,1,2.244,0v3.365a1.121,1.121,0,0,1-1.122,1.122Z" transform="translate(2.192 6.821)"/>
      <path id="Trazado_1249570" data-name="Trazado 1249570" d="M59.132,68.064a1.121,1.121,0,0,1-1.122-1.122V4.122a1.122,1.122,0,0,1,2.244,0V66.942a1.121,1.121,0,0,1-1.122,1.122Z" transform="translate(7.067 0.365)"/>
      <path id="Trazado_1249571" data-name="Trazado 1249571" d="M16.815,7.244H1.112A1.122,1.122,0,0,1,1.112,5h15.7a1.122,1.122,0,0,1,0,2.244Z" transform="translate(0 0.609)"/>
      <path id="Trazado_1249572" data-name="Trazado 1249572" d="M16.206,57.244H6.112a1.122,1.122,0,0,1,0-2.244H16.206a1.122,1.122,0,1,1,0,2.244Z" transform="translate(0.609 6.699)"/>
      <path id="Trazado_1249573" data-name="Trazado 1249573" d="M1.112,57.724A1.121,1.121,0,0,1-.01,56.6V6.122a1.122,1.122,0,0,1,2.244,0V56.6a1.121,1.121,0,0,1-1.122,1.122Z" transform="translate(0 0.609)"/>
      <path id="Trazado_1249574" data-name="Trazado 1249574" d="M6.721,57.853a1.118,1.118,0,0,1-.793-.329L.319,51.915a1.122,1.122,0,1,1,1.586-1.586l5.609,5.609a1.122,1.122,0,0,1-.793,1.915Z" transform="translate(0 6.09)"/>
      <path id="Trazado_1249575" data-name="Trazado 1249575" d="M6.112,57.853A1.121,1.121,0,0,1,4.99,56.731V51.122a1.122,1.122,0,1,1,2.244,0v5.609a1.121,1.121,0,0,1-1.122,1.122Z" transform="translate(0.609 6.09)"/>
      <path id="Trazado_1249576" data-name="Trazado 1249576" d="M6.721,52.244H1.112a1.122,1.122,0,1,1,0-2.244H6.721a1.122,1.122,0,1,1,0,2.244Z" transform="translate(0 6.09)"/>
      <path id="Trazado_1249577" data-name="Trazado 1249577" d="M15.965,21.244H8.112a1.122,1.122,0,1,1,0-2.244h7.853a1.122,1.122,0,1,1,0,2.244Z" transform="translate(0.853 2.314)"/>
      <path id="Trazado_1249578" data-name="Trazado 1249578" d="M15.965,27.244H8.112a1.122,1.122,0,0,1,0-2.244h7.853a1.122,1.122,0,1,1,0,2.244Z" transform="translate(0.853 3.045)"/>
      <path id="Trazado_1249579" data-name="Trazado 1249579" d="M15.965,33.244H8.112a1.122,1.122,0,0,1,0-2.244h7.853a1.122,1.122,0,0,1,0,2.244Z" transform="translate(0.853 3.776)"/>
      <path id="Trazado_1249580" data-name="Trazado 1249580" d="M15.965,39.244H8.112a1.122,1.122,0,0,1,0-2.244h7.853a1.122,1.122,0,0,1,0,2.244Z" transform="translate(0.853 4.506)"/>
      <path id="Trazado_1249581" data-name="Trazado 1249581" d="M53.28,47.264H24.1a1.122,1.122,0,0,1,0-2.244H53.28a1.122,1.122,0,1,1,0,2.244Z" transform="translate(2.8 5.483)"/>
      <path id="Trazado_1249582" data-name="Trazado 1249582" d="M45.818,50.263H30.1a1.122,1.122,0,0,1,0-2.244H45.818a1.122,1.122,0,1,1,0,2.244Z" transform="translate(3.531 5.849)"/>
      <path id="Trazado_1249583" data-name="Trazado 1249583" d="M53.28,44.264H24.1a1.122,1.122,0,0,1,0-2.244H53.28a1.122,1.122,0,1,1,0,2.244Z" transform="translate(2.8 5.118)"/>
      <path id="Trazado_1249584" data-name="Trazado 1249584" d="M45.818,47.263H30.1a1.122,1.122,0,0,1,0-2.244H45.818a1.122,1.122,0,0,1,0,2.244Z" transform="translate(3.531 5.483)"/>
      <path id="Trazado_1249585" data-name="Trazado 1249585" d="M38.828,42.7A16.847,16.847,0,1,1,55.675,25.849,16.847,16.847,0,0,1,38.828,42.7Zm0-31.45a14.6,14.6,0,1,0,14.6,14.6,14.6,14.6,0,0,0-14.6-14.6Z" transform="translate(2.678 1.096)"/>
      <path id="Trazado_1249586" data-name="Trazado 1249586" d="M24.44,31.259a1.122,1.122,0,1,1,0-2.244L29.7,29h0a1.122,1.122,0,0,1,0,2.244l-5.261.018Z" transform="translate(2.841 3.532)"/>
      <path id="Trazado_1249587" data-name="Trazado 1249587" d="M29.129,32.947a1.122,1.122,0,0,1-1-1.624l7.853-15.705a1.122,1.122,0,0,1,2.007,1L30.133,32.327a1.122,1.122,0,0,1-1,.62Z" transform="translate(3.412 1.827)"/>
      <path id="Trazado_1249588" data-name="Trazado 1249588" d="M38.374,20.607a1.12,1.12,0,0,1-.934-.5L35.2,16.742A1.122,1.122,0,1,1,37.063,15.5l2.244,3.365a1.122,1.122,0,0,1-.932,1.744Z" transform="translate(4.265 1.827)"/>
      <path id="Trazado_1249589" data-name="Trazado 1249589" d="M48.227,22.485a1.166,1.166,0,0,1-.244-.026l-10.1-2.244a1.122,1.122,0,1,1,.486-2.191l10.1,2.244a1.122,1.122,0,0,1-.242,2.217Z" transform="translate(4.509 2.192)"/>
      <path id="Trazado_1249590" data-name="Trazado 1249590" d="M45.129,26.729a1.122,1.122,0,0,1-1-1.624l2.244-4.487a1.122,1.122,0,1,1,2.007,1l-2.244,4.487A1.122,1.122,0,0,1,45.129,26.729Z" transform="translate(5.361 2.436)"/>
      <path id="Trazado_1249591" data-name="Trazado 1249591" d="M45.982,26.242H38.13a1.122,1.122,0,1,1,0-2.244h7.853a1.122,1.122,0,1,1,0,2.244Z" transform="translate(4.509 2.923)"/>
      <path id="Trazado_1249592" data-name="Trazado 1249592" d="M37.122,40.869c-.028,0-.058,0-.088,0A1.122,1.122,0,0,1,36,39.661l1.132-14.627A1.107,1.107,0,0,1,38.339,24a1.122,1.122,0,0,1,1.032,1.205L38.239,39.834a1.122,1.122,0,0,1-1.117,1.035Z" transform="translate(4.386 2.923)"/>
      <path id="Trazado_1249593" data-name="Trazado 1249593" d="M26.128,32.581a1.122,1.122,0,0,1-1-1.624l6.17-12.34a1.122,1.122,0,1,1,2.007,1l-6.17,12.34a1.122,1.122,0,0,1-1,.62Z" transform="translate(3.047 2.192)"/>
      <path id="Trazado_1249594" data-name="Trazado 1249594" d="M34.995,20.242H31.63a1.122,1.122,0,0,1,0-2.244h3.365a1.122,1.122,0,1,1,0,2.244Z" transform="translate(3.717 2.192)"/>
    </g>
  </g>
</svg>
