<svg xmlns="http://www.w3.org/2000/svg" xmlns:xlink="http://www.w3.org/1999/xlink" width="208.051" height="119.263" viewBox="0 0 208.051 119.263">
  <defs>
    <filter id="influencer-their-pet-creating-content-online-spaces-social-media" x="0" y="32" width="208.051" height="87" filterUnits="userSpaceOnUse">
      <feOffset dy="3" input="SourceAlpha"/>
      <feGaussianBlur stdDeviation="3" result="blur"/>
      <feFlood flood-opacity="0.161"/>
      <feComposite operator="in" in2="blur"/>
      <feComposite in="SourceGraphic"/>
    </filter>
    <filter id="Rect치ngulo_401593" x="42.457" y="0" width="71.898" height="119.263" filterUnits="userSpaceOnUse">
      <feOffset dy="3" input="SourceAlpha"/>
      <feGaussianBlur stdDeviation="3" result="blur-2"/>
      <feFlood flood-opacity="0.161"/>
      <feComposite operator="in" in2="blur-2"/>
      <feComposite in="SourceGraphic"/>
    </filter>
  </defs>
  <g id="Grupo_1213898" data-name="Grupo 1213898" transform="translate(-1220.949 -2117)">
    <g transform="matrix(1, 0, 0, 1, 1220.95, 2117)" filter="url(#influencer-their-pet-creating-content-online-spaces-social-media)">
      <path id="influencer-their-pet-creating-content-online-spaces-social-media-2" data-name="influencer-their-pet-creating-content-online-spaces-social-media" d="M0,0H190.051V69H0Z" transform="translate(9 38)" fill="#695640"/>
    </g>
    <g id="Grupo_1182090" data-name="Grupo 1182090" transform="translate(1031.625 -3625)">
      <g transform="matrix(1, 0, 0, 1, 189.32, 5742)" filter="url(#Rect치ngulo_401593)">
        <rect id="Rect치ngulo_401593-2" data-name="Rect치ngulo 401593" width="53.898" height="101.263" rx="8" transform="translate(51.46 6)" fill="#ff9800"/>
      </g>
    </g>
    <g id="sport_11792757" transform="translate(1281.775 2129.105)">
      <g id="Grupo_1213867" data-name="Grupo 1213867" transform="translate(1.492 1.492)">
        <path id="Trazado_1248488" data-name="Trazado 1248488" d="M1,61.742C1,51.3,9.954,40.848,26.371,40.848c-7.462,0-19.4,10.447-19.4,20.894,0,2.985-2.985,5.97-2.985,5.97S1,64.727,1,61.742ZM84.575,11A28.362,28.362,0,0,0,56.219,39.356v1.492H78.606V22.939H90.545V11ZM71.144,82.636h-5.97v5.97h8.954Zm-40.3,0h-5.97v5.97h8.954Zm53.727-8.954h-5.97v5.97H87.56ZM15.924,82.636H9.954v5.97h8.954Z" transform="translate(-1 3.924)" fill="#333"/>
        <path id="Trazado_1248489" data-name="Trazado 1248489" d="M39.909,19.954h-5.97V16.97A5.97,5.97,0,0,0,22,16.97V31.894H33.939v-5.97h5.97Z" transform="translate(9.341 3.924)" fill="#d94a70"/>
        <path id="Trazado_1248490" data-name="Trazado 1248490" d="M35.939,6.97V9.954A5.97,5.97,0,0,1,24,9.954V6.97a5.97,5.97,0,0,1,11.939,0Zm2.985,23.879h5.97V23.386H41.909l-2.985,1.492Z" transform="translate(10.326 -1)" fill="#fac6a8"/>
        <path id="Trazado_1248491" data-name="Trazado 1248491" d="M29.97,1h8.954V3.985A2.984,2.984,0,0,1,35.939,6.97H29.97a2.984,2.984,0,0,1-2.985,2.985H24V6.97A5.97,5.97,0,0,1,29.97,1Z" transform="translate(10.326 -1)" fill="#594736"/>
        <path id="Trazado_1248492" data-name="Trazado 1248492" d="M81.621,17.954V9c-4.125,0-5.97,4.829-5.97,8.954v.83A22.377,22.377,0,0,0,59.235,40.341v1.492H23.417A10.447,10.447,0,0,0,12.97,52.28V65.712L7,68.7V83.621h5.97V74.666l5.97-2.985,4.477-8.954h4.477v2.985L21.924,68.7V83.621h5.97V74.666l5.97-2.985,4.477-8.954H60.727V67.2a6.537,6.537,0,0,0,1.492,4.477V83.621h5.97V71.681A6.537,6.537,0,0,0,69.681,67.2V62.727h5.97V74.666h5.97V58.25a4.477,4.477,0,0,0-4.477-4.477H75.532a10.468,10.468,0,0,0,.119-1.492v-19.4l4.477,2.985L84.606,46.31l5.97-1.492V26.909A8.954,8.954,0,0,0,81.621,17.954Z" transform="translate(1.954 2.939)" fill="#8c6239"/>
        <path id="Trazado_1248493" data-name="Trazado 1248493" d="M44.968,33.465,37.1,50.552l-3.165-3.165,2.985-13.432H27.97A5.97,5.97,0,0,1,22,27.985V25H39.545a5.97,5.97,0,0,1,5.423,8.465Z" transform="translate(9.341 10.818)" fill="#3f4273"/>
        <path id="Trazado_1248494" data-name="Trazado 1248494" d="M31.393,40l-4.221,4.221,8.443,8.443.682-.682a2.986,2.986,0,0,0,.633-3.286l-2.37-5.529Z" transform="translate(11.888 18.204)" fill="#ace6fe"/>
        <circle id="Elipse_12428" data-name="Elipse 12428" cx="1.5" cy="1.5" r="1.5" transform="translate(85.507 28.022)" fill="#333"/>
      </g>
      <g id="Grupo_1213868" data-name="Grupo 1213868">
        <path id="Trazado_1248495" data-name="Trazado 1248495" d="M92.53,24.043V16.417a1.493,1.493,0,0,0-1.492-1.492H86.56V13.432a1.493,1.493,0,0,0-1.492-1.492A6.566,6.566,0,0,0,79.334,15.5,29.61,29.61,0,0,0,58.668,30.815a7.114,7.114,0,0,1-.464-2.46V23.879a1.493,1.493,0,0,0-1.492-1.492H53.727a1.5,1.5,0,0,0-.667.157l-2.67,1.336H46.265V22.386A7.408,7.408,0,0,0,44.34,17.43a7.452,7.452,0,0,0,4.91-6.983V8.68a4.471,4.471,0,0,0,2.985-4.2V1.492A1.493,1.493,0,0,0,50.742,0H41.788a7.471,7.471,0,0,0-7.462,7.462v2.985A7.408,7.408,0,0,0,36.251,15.4a7.452,7.452,0,0,0-4.91,6.983V40.3a7.385,7.385,0,0,0,1.531,4.477H26.863C9.228,44.772,0,56.034,0,67.159c0,3.5,3.071,6.676,3.422,7.025a1.492,1.492,0,0,0,2.11,0c.351-.349,3.422-3.522,3.422-7.025a18.147,18.147,0,0,1,4.167-10.7l-2.365-1.821C8.572,57.479,5.97,61.953,5.97,67.159A6.931,6.931,0,0,1,4.477,70.8a6.931,6.931,0,0,1-1.492-3.64c0-7.538,5.035-15.126,14.715-18.088a11.884,11.884,0,0,0-2.776,7.641h2.985a8.964,8.964,0,0,1,8.954-8.954H45.9L43.41,58.949,39.5,62.864a1.492,1.492,0,0,0,0,2.11l.694.692H34.746A11.913,11.913,0,0,0,38.8,56.712H35.818a8.964,8.964,0,0,1-8.954,8.954,1.494,1.494,0,0,0-1.336.825L21.273,75l-5.525,2.762a1.491,1.491,0,0,0-.824,1.334V86.56H11.939V74.051l5.144-2.573a1.49,1.49,0,0,0,.825-1.334V65.666H14.924v3.555L9.78,71.794a1.49,1.49,0,0,0-.825,1.334V94.022a1.493,1.493,0,0,0,1.492,1.492H19.4a1.492,1.492,0,0,0,1.336-2.16L17.909,87.7V80.02l5.144-2.573a1.5,1.5,0,0,0,.667-.667l4.065-8.129h2.063v.57L27.689,70.3l1.336,2.67,2.985-1.492a1.5,1.5,0,0,0,.824-1.336V68.651h6.54L36.2,75l-5.525,2.762a1.49,1.49,0,0,0-.825,1.334V86.56H26.863V79.1H23.879V94.022a1.493,1.493,0,0,0,1.492,1.492h8.954a1.492,1.492,0,0,0,1.336-2.16L32.833,87.7V80.02l5.144-2.573a1.5,1.5,0,0,0,.667-.667l4.065-8.129h.464l4.765,4.764a1.493,1.493,0,0,0,2.112,0l.681-.682a4.444,4.444,0,0,0,1.207-4.082H62.681v2.985a8.443,8.443,0,0,0,1.492,5.006V94.022a1.493,1.493,0,0,0,1.492,1.492h8.954a1.492,1.492,0,0,0,1.336-2.16L73.128,87.7V76.643a8.443,8.443,0,0,0,1.492-5.006V68.653h2.985V85.069A1.493,1.493,0,0,0,79.1,86.562h8.954a1.492,1.492,0,0,0,1.336-2.16L86.56,78.746V62.682a5.976,5.976,0,0,0-5.97-5.97V47.757H77.606v8.954h-5.97V59.7H80.59a2.988,2.988,0,0,1,2.985,2.985V77.606H80.59V67.159A1.493,1.493,0,0,0,79.1,65.666H67.159A8.964,8.964,0,0,1,58.2,56.712H55.219a11.9,11.9,0,0,0,4.068,8.954H50.763l-1.192-2.783,6.961-15.126h6.15a1.493,1.493,0,0,0,1.492-1.492V44.773c0-.469.016-.934.046-1.4l-2.979-.194q-.051.788-.052,1.589H58.2a27.122,27.122,0,0,1,1.154-7.793c4.934,4.7,13.826,7.793,24.217,7.793h.3l2.81,6.558a1.492,1.492,0,0,0,1.372.9,1.508,1.508,0,0,0,.363-.045l5.97-1.492a1.493,1.493,0,0,0,1.13-1.448V31.341a10.41,10.41,0,0,0-2.985-7.3ZM11.939,92.53V89.545h3.555l1.492,2.985Zm14.924,0V89.545h3.555l1.492,2.985ZM84.145,80.59l1.492,2.985H80.59V80.59Zm5.4-62.681v4.007a10.353,10.353,0,0,0-2.985-.9v-3.1Zm-5.97-2.63v5.614H80.682C80.947,18.66,81.82,16.184,83.575,15.279ZM55.939,38.318a7.417,7.417,0,0,0-5.561-2.5H46.265V32.833H56.276a12.485,12.485,0,0,0,.815,1.451A29.694,29.694,0,0,0,55.939,38.318Zm-21.613-2.5V31.3A7.385,7.385,0,0,0,38.8,32.833H43.28v2.985ZM54.079,25.371h1.14v4.477H52.235V26.293ZM41.788,14.924a4.471,4.471,0,0,1-4.2-2.985H38.8a4.486,4.486,0,0,0,4.222-2.985h3.24v1.492A4.483,4.483,0,0,1,41.788,14.924ZM37.31,7.462a4.483,4.483,0,0,1,4.477-4.477H49.25V4.477A1.5,1.5,0,0,1,47.757,5.97h-5.97A1.493,1.493,0,0,0,40.3,7.462,1.5,1.5,0,0,1,38.8,8.954H37.31ZM38.8,17.909a4.483,4.483,0,0,1,4.477,4.477v1.492H40.3V20.894H37.31v4.477A1.493,1.493,0,0,0,38.8,26.863H49.25v2.985H38.8a4.483,4.483,0,0,1-4.477-4.477V22.386A4.483,4.483,0,0,1,38.8,17.909ZM48.926,70.182l-6.265-6.264,2.112-2.112,1.907,1.907,2.257,5.265A1.487,1.487,0,0,1,48.926,70.182ZM67.159,92.53V89.545h3.555l1.492,2.985Zm4.477-23.879v2.985a5.19,5.19,0,0,1-1.055,3.422,1.488,1.488,0,0,0-.437,1.055V86.56H67.159V76.113a1.557,1.557,0,0,0-.421-1.039,5.166,5.166,0,0,1-1.072-3.439V68.651Zm-17.191-23.5L47.478,60.292l-1.072-1.072,2.807-12.632a1.493,1.493,0,0,0-1.457-1.816H38.8A4.483,4.483,0,0,1,34.326,40.3V38.8H50.378a4.477,4.477,0,0,1,4.067,6.349ZM60.52,33.835a26.634,26.634,0,0,1,17.5-14.979,15.362,15.362,0,0,0-.4,3.239A23.838,23.838,0,0,0,63.944,33.629l2.64,1.4A20.859,20.859,0,0,1,85.068,23.879a7.471,7.471,0,0,1,7.462,7.462V41.788H85.838l-.891-2.08a1.488,1.488,0,0,0-.543-.654L80.59,36.512V32.833H77.606V37.31a1.494,1.494,0,0,0,.664,1.242l4.107,2.739.2.469C72.9,41.549,64.434,38.318,60.52,33.835Zm28.4,15.151-1.8-4.213H92.53v3.312Z" fill="#1a1a1a"/>
        <path id="Trazado_1248496" data-name="Trazado 1248496" d="M10,40h2.985v2.985H10Z" transform="translate(4.924 19.697)" fill="#1a1a1a"/>
      </g>
    </g>
  </g>
</svg>
