<svg xmlns="http://www.w3.org/2000/svg" width="127" height="193.132" viewBox="0 0 127 193.132">
  <g id="Grupo_1213859" data-name="Grupo 1213859" transform="translate(-600.051 -557)">
    <rect id="Rectángulo_410781" data-name="Rectángulo 410781" width="127" height="193.132" transform="translate(600.051 557)" fill="#d3af82"/>
    <g id="horses_3689375" transform="translate(622.103 613.676)">
      <path id="Trazado_1248307" data-name="Trazado 1248307" d="M1,54.495H6.2v3.886H1Z" transform="translate(0.296 14.465)" fill="#656d78"/>
      <path id="Trazado_1248308" data-name="Trazado 1248308" d="M26.571,40.5l-5.388,9.106.013,9.015H16V40.5Z" transform="translate(4.725 10.335)" fill="#ffd2a6"/>
      <g id="Grupo_1213858" data-name="Grupo 1213858" transform="translate(20.727 11.982)">
        <path id="Trazado_1248309" data-name="Trazado 1248309" d="M16,54.495H21.2v3.886H16Z" transform="translate(-16.002 2.483)" fill="#656d78"/>
        <path id="Trazado_1248310" data-name="Trazado 1248310" d="M25,54.5h5.181v3.873H25Z" transform="translate(-13.345 2.486)" fill="#656d78"/>
        <path id="Trazado_1248311" data-name="Trazado 1248311" d="M40,54.5h5.181v3.873H40Z" transform="translate(-8.916 2.486)" fill="#656d78"/>
        <path id="Trazado_1248312" data-name="Trazado 1248312" d="M41.362,10.505h5.09l.078.039-2.15,4.274-4.6-1.14Z" transform="translate(-8.981 -10.505)" fill="#656d78"/>
      </g>
      <path id="Trazado_1248313" data-name="Trazado 1248313" d="M33.4,45.362l1.282-22.019H47.648l2.591-6.476L46.78,16l2.15-4.274,2.6-5.22,2.59,5.181,15.543,3.886-2.59,6.476H54.111L52.829,44.067a5.18,5.18,0,0,1-5.181,5.181V68.677H42.467V49.248H31.652A5.19,5.19,0,0,0,33.4,45.362Z" transform="translate(9.345 0.296)" fill="#ffd2a6"/>
      <path id="Trazado_1248314" data-name="Trazado 1248314" d="M33.237,11.544,24.183,29.638H19l9.067-18.133h5.09Z" transform="translate(5.611 1.773)" fill="#656d78"/>
      <path id="Trazado_1248315" data-name="Trazado 1248315" d="M59.288,16.572,56.7,23.048H43.732L42.45,45.067a5.172,5.172,0,0,1-5.181,5.181V68.382H32.088V50.248H12.348l-6.165,10.4.013,7.72H1V32.451A9.06,9.06,0,0,1,6.2,30.819H29.5l9.054-18.095,2.6-5.22,2.59,5.181,7.487,1.878,4.6,1.14Z" transform="translate(0.296 0.592)" fill="#965353"/>
      <path id="Trazado_1248316" data-name="Trazado 1248316" d="M20.311,64.1a1.3,1.3,0,0,1-1.3-1.294L19,49.9a1.29,1.29,0,0,1,.181-.66l5.388-9.108A1.295,1.295,0,1,1,26.8,41.454l-5.208,8.8.011,12.549a1.3,1.3,0,0,1-1.294,1.3Z" transform="translate(5.611 10.038)"/>
      <path id="Trazado_1248317" data-name="Trazado 1248317" d="M16.3,64.1a1.294,1.294,0,0,1-1.3-1.3L15,40.8a1.3,1.3,0,0,1,1.294-1.3h0a1.3,1.3,0,0,1,1.3,1.294L17.6,62.808a1.295,1.295,0,0,1-1.3,1.3Z" transform="translate(4.429 10.038)"/>
      <path id="Trazado_1248318" data-name="Trazado 1248318" d="M21.492,56.086H16.3a1.3,1.3,0,1,1,0-2.59h5.192a1.3,1.3,0,1,1,0,2.59Z" transform="translate(4.43 14.17)"/>
      <path id="Trazado_1248319" data-name="Trazado 1248319" d="M43.624,17.593a1.3,1.3,0,0,1-1.157-1.875l4.752-9.5a1.3,1.3,0,1,1,2.317,1.159l-4.752,9.5a1.3,1.3,0,0,1-1.16.716Z" transform="translate(12.498 0)"/>
      <path id="Trazado_1248320" data-name="Trazado 1248320" d="M40.071,15.261a1.3,1.3,0,0,1-1.157-1.875L40.5,10.218a1.3,1.3,0,1,1,2.317,1.159l-1.585,3.169A1.3,1.3,0,0,1,40.071,15.261Z" transform="translate(11.449 1.181)"/>
      <path id="Trazado_1248321" data-name="Trazado 1248321" d="M49.882,13.273a1.293,1.293,0,0,1-1.16-.717L46.136,7.375a1.295,1.295,0,1,1,2.317-1.156L51.04,11.4a1.3,1.3,0,0,1-1.157,1.873Z" transform="translate(13.581 0)"/>
      <path id="Trazado_1248322" data-name="Trazado 1248322" d="M64.838,15.982a1.3,1.3,0,0,1-.316-.039l-15.546-3.89a1.295,1.295,0,1,1,.63-2.512l15.546,3.89a1.3,1.3,0,0,1-.314,2.551Z" transform="translate(14.171 1.181)"/>
      <path id="Trazado_1248323" data-name="Trazado 1248323" d="M59.294,21.572a1.3,1.3,0,0,1-1.2-1.776l2.589-6.476a1.3,1.3,0,0,1,2.406.961L60.5,20.757A1.3,1.3,0,0,1,59.294,21.572Z" transform="translate(17.124 2.068)"/>
      <path id="Trazado_1248324" data-name="Trazado 1248324" d="M62.248,20.1H49.29a1.3,1.3,0,1,1,0-2.59H62.248a1.3,1.3,0,1,1,0,2.59Z" transform="translate(14.171 3.544)"/>
      <path id="Trazado_1248325" data-name="Trazado 1248325" d="M48.3,42.108l-.077,0A1.3,1.3,0,0,1,47,40.737l1.286-22.013a1.278,1.278,0,0,1,1.369-1.217,1.3,1.3,0,0,1,1.217,1.369L49.59,40.889A1.3,1.3,0,0,1,48.3,42.109Z" transform="translate(13.878 3.544)"/>
      <path id="Trazado_1248326" data-name="Trazado 1248326" d="M44.3,42.271a1.3,1.3,0,1,1,0-2.59A3.89,3.89,0,0,0,48.183,35.8a1.3,1.3,0,1,1,2.59,0A6.484,6.484,0,0,1,44.3,42.271Z" transform="translate(12.697 8.562)"/>
      <path id="Trazado_1248327" data-name="Trazado 1248327" d="M44.294,64.4a1.295,1.295,0,0,1-1.3-1.3V39.8a1.3,1.3,0,1,1,2.59,0V63.107a1.295,1.295,0,0,1-1.3,1.3Z" transform="translate(12.696 9.743)"/>
      <path id="Trazado_1248328" data-name="Trazado 1248328" d="M40.293,64.4a1.295,1.295,0,0,1-1.3-1.3V39.8a1.3,1.3,0,1,1,2.59,0V63.107a1.295,1.295,0,0,1-1.3,1.3Z" transform="translate(11.514 9.743)"/>
      <path id="Trazado_1248329" data-name="Trazado 1248329" d="M45.476,56.088H40.293a1.3,1.3,0,0,1,0-2.59h5.182a1.3,1.3,0,1,1,0,2.59Z" transform="translate(11.514 14.171)"/>
      <path id="Trazado_1248330" data-name="Trazado 1248330" d="M42.759,41.09H31.942a1.3,1.3,0,0,1,0-2.59H42.759a1.3,1.3,0,1,1,0,2.59Z" transform="translate(9.049 9.743)"/>
      <path id="Trazado_1248331" data-name="Trazado 1248331" d="M46.385,12.092H41.3a1.3,1.3,0,1,1,0-2.59h5.089a1.3,1.3,0,0,1,0,2.59Z" transform="translate(11.811 1.181)"/>
      <path id="Trazado_1248332" data-name="Trazado 1248332" d="M1.3,28.725a1.3,1.3,0,0,1-.744-2.356A10.293,10.293,0,0,1,6.487,24.5a1.3,1.3,0,0,1,0,2.59,7.717,7.717,0,0,0-4.45,1.4,1.289,1.289,0,0,1-.741.234Z" transform="translate(0 5.61)"/>
      <path id="Trazado_1248333" data-name="Trazado 1248333" d="M10.05,43.27a1.3,1.3,0,0,1-1.063-2.035A7.726,7.726,0,0,0,10.376,36.8a1.3,1.3,0,1,1,2.59,0,10.306,10.306,0,0,1-1.852,5.913,1.294,1.294,0,0,1-1.065.555Z" transform="translate(2.585 8.859)"/>
      <path id="Trazado_1248334" data-name="Trazado 1248334" d="M5.311,64.1a1.3,1.3,0,0,1-1.3-1.294L4,51.2a1.29,1.29,0,0,1,.181-.66l6.155-10.4a1.295,1.295,0,1,1,2.229,1.318l-5.974,10.1.011,11.254a1.295,1.295,0,0,1-1.294,1.3Z" transform="translate(1.182 10.038)"/>
      <path id="Trazado_1248335" data-name="Trazado 1248335" d="M1.3,63.808a1.294,1.294,0,0,1-1.3-1.3L0,41.8a1.3,1.3,0,0,1,1.294-1.3h0a1.3,1.3,0,0,1,1.3,1.294L2.6,62.513a1.294,1.294,0,0,1-1.3,1.3Z" transform="translate(0 10.333)"/>
      <path id="Trazado_1248336" data-name="Trazado 1248336" d="M6.492,56.086H1.3a1.3,1.3,0,1,1,0-2.59H6.492a1.3,1.3,0,1,1,0,2.59Z" transform="translate(0.001 14.17)"/>
      <path id="Trazado_1248337" data-name="Trazado 1248337" d="M28.6,27.092H5.3a1.3,1.3,0,1,1,0-2.59H28.6a1.3,1.3,0,1,1,0,2.59Z" transform="translate(1.184 5.61)"/>
      <path id="Trazado_1248338" data-name="Trazado 1248338" d="M23.291,32.407a1.3,1.3,0,0,1-1.157-1.875L33.794,7.218a1.3,1.3,0,1,1,2.317,1.159L24.451,31.691a1.3,1.3,0,0,1-1.16.716Z" transform="translate(6.495 0.295)"/>
      <path id="Trazado_1248339" data-name="Trazado 1248339" d="M19.293,31.226a1.3,1.3,0,0,1-1.157-1.875l9.069-18.133a1.3,1.3,0,1,1,2.317,1.159L20.453,30.51A1.3,1.3,0,0,1,19.293,31.226Z" transform="translate(5.314 1.476)"/>
      <path id="Trazado_1248340" data-name="Trazado 1248340" d="M34.882,14.273a1.293,1.293,0,0,1-1.16-.717L31.136,8.375a1.295,1.295,0,0,1,2.317-1.156L36.04,12.4a1.3,1.3,0,0,1-1.157,1.873Z" transform="translate(9.153 0.295)"/>
      <path id="Trazado_1248341" data-name="Trazado 1248341" d="M49.838,16.982a1.3,1.3,0,0,1-.316-.039l-15.546-3.89a1.295,1.295,0,0,1,.63-2.512l15.546,3.89a1.3,1.3,0,0,1-.314,2.551Z" transform="translate(9.742 1.476)"/>
      <path id="Trazado_1248342" data-name="Trazado 1248342" d="M44.294,22.572a1.3,1.3,0,0,1-1.2-1.776l2.589-6.476a1.3,1.3,0,1,1,2.406.961L45.5,21.757A1.3,1.3,0,0,1,44.294,22.572Z" transform="translate(12.696 2.363)"/>
      <path id="Trazado_1248343" data-name="Trazado 1248343" d="M47.248,21.1H34.29a1.3,1.3,0,0,1,0-2.59H47.248a1.3,1.3,0,0,1,0,2.59Z" transform="translate(9.742 3.839)"/>
      <path id="Trazado_1248344" data-name="Trazado 1248344" d="M33.3,43.108l-.077,0A1.3,1.3,0,0,1,32,41.737l1.286-22.013a1.276,1.276,0,0,1,1.369-1.217,1.3,1.3,0,0,1,1.217,1.369L34.59,41.889A1.3,1.3,0,0,1,33.3,43.109Z" transform="translate(9.449 3.839)"/>
      <path id="Trazado_1248345" data-name="Trazado 1248345" d="M29.3,43.271a1.3,1.3,0,0,1,0-2.59A3.89,3.89,0,0,0,33.183,36.8a1.3,1.3,0,1,1,2.59,0A6.484,6.484,0,0,1,29.3,43.271Z" transform="translate(8.268 8.857)"/>
      <path id="Trazado_1248346" data-name="Trazado 1248346" d="M29.294,64.107a1.295,1.295,0,0,1-1.3-1.3V40.8a1.3,1.3,0,0,1,2.59,0V62.812a1.295,1.295,0,0,1-1.3,1.3Z" transform="translate(8.267 10.038)"/>
      <path id="Trazado_1248347" data-name="Trazado 1248347" d="M25.293,64.107a1.295,1.295,0,0,1-1.3-1.3V40.8a1.3,1.3,0,0,1,2.59,0V62.812a1.295,1.295,0,0,1-1.3,1.3Z" transform="translate(7.086 10.038)"/>
      <path id="Trazado_1248348" data-name="Trazado 1248348" d="M30.476,56.088H25.293a1.3,1.3,0,0,1,0-2.59h5.182a1.3,1.3,0,0,1,0,2.59Z" transform="translate(7.086 14.171)"/>
      <path id="Trazado_1248349" data-name="Trazado 1248349" d="M29.794,42.09H10.051a1.3,1.3,0,1,1,0-2.59H29.794a1.3,1.3,0,0,1,0,2.59Z" transform="translate(2.585 10.038)"/>
      <path id="Trazado_1248350" data-name="Trazado 1248350" d="M31.385,13.092H26.3a1.3,1.3,0,1,1,0-2.59h5.089a1.3,1.3,0,1,1,0,2.59Z" transform="translate(7.382 1.476)"/>
      <path id="Trazado_1248351" data-name="Trazado 1248351" d="M81.6,59.086H1.3a1.3,1.3,0,0,1,0-2.59H81.6a1.3,1.3,0,0,1,0,2.59Z" transform="translate(0.001 15.056)"/>
      <path id="Trazado_1248352" data-name="Trazado 1248352" d="M53.3,59.97a1.294,1.294,0,0,1-1.3-1.3V54.8a1.3,1.3,0,0,1,2.59,0v3.879a1.295,1.295,0,0,1-1.3,1.3Z" transform="translate(15.353 14.171)"/>
      <path id="Trazado_1248353" data-name="Trazado 1248353" d="M59.3,59.97a1.294,1.294,0,0,1-1.3-1.3V54.8a1.3,1.3,0,1,1,2.59,0v3.879a1.294,1.294,0,0,1-1.3,1.3Z" transform="translate(17.125 14.171)"/>
      <path id="Trazado_1248354" data-name="Trazado 1248354" d="M56.3,61.151a1.295,1.295,0,0,1-1.3-1.3V50.8a1.3,1.3,0,1,1,2.59,0v9.06a1.295,1.295,0,0,1-1.3,1.3Z" transform="translate(16.239 12.99)"/>
    </g>
  </g>
</svg>
