<svg xmlns="http://www.w3.org/2000/svg" width="73.631" height="52.643" viewBox="0 0 73.631 52.643">
  <g id="Grupo_1213715" data-name="Grupo 1213715" transform="translate(-312.781 -3859.594)">
    <g id="Grupo_1201016" data-name="Grupo 1201016" transform="translate(312.781 3875.311)">
      <g id="Rectángulo_410589" data-name="Rectángulo 410589" fill="#93795a" stroke="#695640" stroke-width="1">
        <rect width="73.631" height="24.544" rx="4" stroke="none"/>
        <rect x="0.5" y="0.5" width="72.631" height="23.544" rx="3.5" fill="none"/>
      </g>
    </g>
    <g id="clipboard_1355582" transform="translate(327.328 3859.594)">
      <path id="Trazado_1249606" data-name="Trazado 1249606" d="M43.648,44.465V70.784L29.611,85.7H10.31a1.76,1.76,0,0,1-1.755-1.755V44.465a1.76,1.76,0,0,1,1.755-1.755H41.893a1.76,1.76,0,0,1,1.755,1.755Zm0,0" transform="translate(-7.658 -38.32)" fill="#4e342e"/>
      <path id="Trazado_1249607" data-name="Trazado 1249607" d="M41.015,44.465V70.784L26.978,85.7H10.309a1.76,1.76,0,0,1-1.755-1.755V44.465a1.76,1.76,0,0,1,1.755-1.755H39.261a1.76,1.76,0,0,1,1.755,1.755Zm0,0" transform="translate(-7.657 -38.32)" fill="#795548"/>
      <path id="Trazado_1249608" data-name="Trazado 1249608" d="M70.761,77.72v23.345a.856.856,0,0,1-.237.6L60.5,112.532a.9.9,0,0,1-.649.281H43.565a.877.877,0,0,1-.877-.878V77.72a.877.877,0,0,1,.877-.877H69.884a.877.877,0,0,1,.877.877Zm0,0" transform="translate(-38.281 -68.943)" fill="#bfa885"/>
      <path id="Trazado_1249609" data-name="Trazado 1249609" d="M68.13,77.72v23.345a.858.858,0,0,1-.237.6l-10.028,10.87a.9.9,0,0,1-.649.281H43.565a.877.877,0,0,1-.877-.878V77.72a.877.877,0,0,1,.877-.877H67.252a.877.877,0,0,1,.878.877Zm0,0" transform="translate(-38.281 -68.943)" fill="#ffe0b2"/>
      <path id="Trazado_1249610" data-name="Trazado 1249610" d="M145.09,12.084a3.509,3.509,0,1,1,7.018,0" transform="translate(-130.155 -7.693)" fill="#607d8b"/>
      <path id="Trazado_1249611" data-name="Trazado 1249611" d="M102.422,42.711h15.791V46.22a1.755,1.755,0,0,1-1.755,1.755H104.177a1.755,1.755,0,0,1-1.755-1.755Zm0,0" transform="translate(-91.874 -38.32)" fill="#bdc3c7"/>
      <path id="Trazado_1249612" data-name="Trazado 1249612" d="M111.073,156.638l-5.389-5.389a.877.877,0,0,1,0-1.241l1.241-1.241a.877.877,0,0,1,1.241,0l2.406,2.406a.877.877,0,0,0,1.343-.123l7.362-10.7a.877.877,0,0,1,1.219-.227l1.446.989a.877.877,0,0,1,.226,1.22l-9.75,14.182a.878.878,0,0,1-1.343.126Zm0,0" transform="translate(-94.57 -125.578)" fill="#8bc34a"/>
      <path id="Trazado_1249613" data-name="Trazado 1249613" d="M215.11,315.777h21.933a1.755,1.755,0,0,1,1.755,1.755v15.791a1.755,1.755,0,0,1-1.755,1.755H215.11a1.755,1.755,0,0,1-1.755-1.755V317.532A1.755,1.755,0,0,1,215.11,315.777Zm0,0" transform="translate(-191.403 -283.312)" fill="#607d8b"/>
      <path id="Trazado_1249614" data-name="Trazado 1249614" d="M215.11,315.777h19.3a1.755,1.755,0,0,1,1.755,1.755v15.791a1.755,1.755,0,0,1-1.755,1.755h-19.3a1.755,1.755,0,0,1-1.755-1.755V317.532A1.755,1.755,0,0,1,215.11,315.777Zm0,0" transform="translate(-191.403 -283.312)" fill="#cfd8dc"/>
      <path id="Trazado_1249615" data-name="Trazado 1249615" d="M376.366,349.91h3.51a.877.877,0,0,1,.877.877v5.264a.877.877,0,0,1-.877.877h-3.51a.877.877,0,0,1-.877-.877v-5.264A.877.877,0,0,1,376.366,349.91Zm0,0" transform="translate(-336.867 -313.936)" fill="#ad1457"/>
      <path id="Trazado_1249616" data-name="Trazado 1249616" d="M376.366,349.91h.877a.878.878,0,0,1,.878.877v5.264a.878.878,0,0,1-.878.877h-.877a.877.877,0,0,1-.877-.877v-5.264A.877.877,0,0,1,376.366,349.91Zm0,0" transform="translate(-336.867 -313.936)" fill="#e91e63"/>
      <path id="Trazado_1249617" data-name="Trazado 1249617" d="M112.335,130.185l-2.9-1.987a.878.878,0,0,0-1.22.227l-7.854,11.429-3.026-3.026a.878.878,0,0,0-1.241,0l-2.481,2.481a.877.877,0,0,0,0,1.241l6.755,6.755a.876.876,0,0,0,.62.257h.08a.875.875,0,0,0,.643-.377l10.846-15.779a.878.878,0,0,0-.227-1.22Zm-11.463,15.132-5.389-5.388,1.241-1.241,3.152,3.152a.86.86,0,0,0,.7.253.875.875,0,0,0,.643-.377l7.958-11.575,1.446.993Zm0,0" transform="translate(-83.744 -114.88)"/>
      <path id="Trazado_1249618" data-name="Trazado 1249618" d="M45.64,31.587H36.867V6.145a2.632,2.632,0,0,0-2.632-2.632H22.742a4.387,4.387,0,0,0-8.6,0H2.652A2.632,2.632,0,0,0,.02,6.145V45.624a2.632,2.632,0,0,0,2.632,2.632H21.075V50.01a2.632,2.632,0,0,0,2.632,2.632H45.64a2.632,2.632,0,0,0,2.632-2.632V34.219a2.632,2.632,0,0,0-2.632-2.632ZM35.113,6.145V31.587H33.358V7.9a.877.877,0,0,0-.877-.877H27.217V5.268h7.018a.877.877,0,0,1,.877.877ZM23.707,31.587a2.632,2.632,0,0,0-2.632,2.632v8.773H5.284V8.777H9.832A2.632,2.632,0,0,0,12.3,10.532H24.585a2.631,2.631,0,0,0,2.471-1.755H31.6v22.81ZM18.444,1.759a2.631,2.631,0,0,1,2.47,1.755H15.973a2.631,2.631,0,0,1,2.471-1.755Zm7.018,3.509V7.9a.877.877,0,0,1-.877.877H12.3a.877.877,0,0,1-.877-.877V5.268ZM2.652,46.5a.877.877,0,0,1-.877-.877V6.145a.877.877,0,0,1,.877-.877H9.67V7.022H4.407a.877.877,0,0,0-.877.877V43.87a.877.877,0,0,0,.877.877H21.075V46.5ZM46.518,50.01a.877.877,0,0,1-.877.877H23.707a.877.877,0,0,1-.877-.877V34.219a.877.877,0,0,1,.877-.877H45.64a.877.877,0,0,1,.877.877Zm0,0" transform="translate(0 0)"/>
      <path id="Trazado_1249619" data-name="Trazado 1249619" d="M372.217,341.375h-3.51a1.755,1.755,0,0,0-1.755,1.755v5.264a1.755,1.755,0,0,0,1.755,1.755h3.51a1.755,1.755,0,0,0,1.755-1.755V343.13A1.755,1.755,0,0,0,372.217,341.375Zm-3.51,7.019V343.13h3.51v5.264Zm0,0" transform="translate(-329.209 -306.279)"/>
      <path id="Trazado_1249620" data-name="Trazado 1249620" d="M248.6,375.508H239.83a.877.877,0,1,0,0,1.755H248.6a.877.877,0,1,0,0-1.755Zm0,0" transform="translate(-214.368 -336.902)"/>
      <path id="Trazado_1249621" data-name="Trazado 1249621" d="M248.6,409.645H239.83a.877.877,0,1,0,0,1.755H248.6a.877.877,0,1,0,0-1.755Zm0,0" transform="translate(-214.368 -367.53)"/>
      <path id="Trazado_1249622" data-name="Trazado 1249622" d="M243.34,443.777h-3.509a.877.877,0,1,0,0,1.755h3.509a.877.877,0,1,0,0-1.755Zm0,0" transform="translate(-214.368 -398.153)"/>
    </g>
  </g>
</svg>
