<svg xmlns="http://www.w3.org/2000/svg" width="145.631" height="88.44" viewBox="0 0 145.631 88.44">
  <g id="Grupo_1213133" data-name="Grupo 1213133" transform="translate(-312.781 -3864.988)">
    <g id="Grupo_1201016" data-name="Grupo 1201016">
      <g id="Rectángulo_410589" data-name="Rectángulo 410589" transform="translate(312.781 3886.804)" fill="#93795a" stroke="#695640" stroke-width="1">
        <rect width="145.631" height="48.544" rx="8" stroke="none"/>
        <rect x="0.5" y="0.5" width="144.631" height="47.544" rx="7.5" fill="none"/>
      </g>
    </g>
    <g id="report_1614396" transform="translate(325.845 3848.975)">
      <g id="Grupo_1213922" data-name="Grupo 1213922" transform="translate(22.5 16.013)">
        <g id="Grupo_1213899" data-name="Grupo 1213899" transform="translate(0.993 6.829)">
          <rect id="Rectángulo_411660" data-name="Rectángulo 411660" width="59.93" height="76.135" fill="#4ea3da"/>
        </g>
        <g id="Grupo_1213900" data-name="Grupo 1213900" transform="translate(0.993 6.829)">
          <rect id="Rectángulo_411661" data-name="Rectángulo 411661" width="59.93" height="5.647" fill="#fff"/>
        </g>
        <g id="Grupo_1213901" data-name="Grupo 1213901" transform="translate(0 5.837)">
          <path id="Trazado_1248976" data-name="Trazado 1248976" d="M84.415,108.834H22.5V30.714H84.415Zm-59.93-1.985H82.43V32.7H24.485Z" transform="translate(-22.5 -30.714)" fill="#122436"/>
        </g>
        <g id="Grupo_1213902" data-name="Grupo 1213902" transform="translate(16.028 0.993)">
          <rect id="Rectángulo_411662" data-name="Rectángulo 411662" width="29.859" height="11.674" fill="#ffcc34"/>
        </g>
        <g id="Grupo_1213903" data-name="Grupo 1213903" transform="translate(16.028 0.993)">
          <rect id="Rectángulo_411663" data-name="Rectángulo 411663" width="29.859" height="3.953" fill="#fff"/>
        </g>
        <g id="Grupo_1213904" data-name="Grupo 1213904" transform="translate(15.036)">
          <path id="Trazado_1248977" data-name="Trazado 1248977" d="M92.215,29.671H60.371V16.013H92.215ZM62.356,27.686H90.23V18H62.356Z" transform="translate(-60.371 -16.013)" fill="#122436"/>
        </g>
        <g id="Grupo_1213908" data-name="Grupo 1213908" transform="translate(8.148 26.858)">
          <g id="Grupo_1213905" data-name="Grupo 1213905">
            <path id="Trazado_1248978" data-name="Trazado 1248978" d="M55.966,96.606H43.023V83.663H55.966ZM45.008,94.621h8.973V85.648H45.008Z" transform="translate(-43.023 -83.663)" fill="#fff"/>
          </g>
          <g id="Grupo_1213906" data-name="Grupo 1213906" transform="translate(0 17.704)">
            <path id="Trazado_1248979" data-name="Trazado 1248979" d="M55.966,141.2H43.023V128.256H55.966Zm-10.958-1.985h8.973v-8.973H45.008Z" transform="translate(-43.023 -128.256)" fill="#fff"/>
          </g>
          <g id="Grupo_1213907" data-name="Grupo 1213907" transform="translate(0 35.409)">
            <path id="Trazado_1248980" data-name="Trazado 1248980" d="M55.966,185.793H43.023V172.85H55.966Zm-10.958-1.985h8.973v-8.973H45.008Z" transform="translate(-43.023 -172.85)" fill="#fff"/>
          </g>
        </g>
        <g id="Grupo_1213911" data-name="Grupo 1213911" transform="translate(27.77 29.797)">
          <g id="Grupo_1213909" data-name="Grupo 1213909">
            <rect id="Rectángulo_411664" data-name="Rectángulo 411664" width="18.117" height="1.985" fill="#fff"/>
          </g>
          <g id="Grupo_1213910" data-name="Grupo 1213910" transform="translate(0 5.647)">
            <rect id="Rectángulo_411665" data-name="Rectángulo 411665" width="25.225" height="1.985" fill="#fff"/>
          </g>
        </g>
        <g id="Grupo_1213914" data-name="Grupo 1213914" transform="translate(27.77 47.218)">
          <g id="Grupo_1213912" data-name="Grupo 1213912">
            <rect id="Rectángulo_411666" data-name="Rectángulo 411666" width="18.117" height="1.985" fill="#fff"/>
          </g>
          <g id="Grupo_1213913" data-name="Grupo 1213913" transform="translate(0 5.647)">
            <rect id="Rectángulo_411667" data-name="Rectángulo 411667" width="25.225" height="1.985" fill="#fff"/>
          </g>
        </g>
        <g id="Grupo_1213917" data-name="Grupo 1213917" transform="translate(27.77 64.639)">
          <g id="Grupo_1213915" data-name="Grupo 1213915">
            <rect id="Rectángulo_411668" data-name="Rectángulo 411668" width="18.117" height="1.985" fill="#fff"/>
          </g>
          <g id="Grupo_1213916" data-name="Grupo 1213916" transform="translate(0 5.647)">
            <rect id="Rectángulo_411669" data-name="Rectángulo 411669" width="25.225" height="1.985" fill="#fff"/>
          </g>
        </g>
        <g id="Grupo_1213919" data-name="Grupo 1213919" transform="translate(11.446 28.755)">
          <g id="Grupo_1213918" data-name="Grupo 1213918">
            <path id="Trazado_1248981" data-name="Trazado 1248981" d="M54.72,95.745l-3.391-3.391,1.531-1.531,1.86,1.86,4.242-4.242,1.531,1.531Z" transform="translate(-51.329 -88.441)" fill="#122436"/>
          </g>
        </g>
        <g id="Grupo_1213921" data-name="Grupo 1213921" transform="translate(11.446 64.491)">
          <g id="Grupo_1213920" data-name="Grupo 1213920">
            <path id="Trazado_1248982" data-name="Trazado 1248982" d="M54.72,185.754l-3.391-3.391,1.531-1.531,1.86,1.86,4.242-4.242,1.531,1.531Z" transform="translate(-51.329 -178.45)" fill="#122436"/>
          </g>
        </g>
      </g>
      <g id="Grupo_1213951" data-name="Grupo 1213951" transform="translate(54.505 52.687)">
        <g id="Grupo_1213950" data-name="Grupo 1213950">
          <g id="Grupo_1213923" data-name="Grupo 1213923" transform="translate(0.992 0.993)">
            <circle id="Elipse_12429" data-name="Elipse 12429" cx="24.891" cy="24.891" r="24.891" fill="#4ea3da"/>
          </g>
          <g id="Grupo_1213924" data-name="Grupo 1213924">
            <path id="Trazado_1248983" data-name="Trazado 1248983" d="M129,160.153A25.883,25.883,0,1,1,154.88,134.27,25.913,25.913,0,0,1,129,160.153Zm0-49.781a23.9,23.9,0,1,0,23.9,23.9A23.925,23.925,0,0,0,129,110.372Z" transform="translate(-103.114 -108.387)" fill="#122436"/>
          </g>
          <g id="Grupo_1213925" data-name="Grupo 1213925" transform="translate(3.381 3.38)">
            <path id="Trazado_1248984" data-name="Trazado 1248984" d="M133.016,161.88c-.689-.034-1.383-.1-2.062-.2l.278-1.966c.619.088,1.252.148,1.88.179Zm2.483-.014-.119-1.981c.627-.038,1.259-.105,1.878-.2l.3,1.962C136.88,161.751,136.187,161.825,135.5,161.866Zm-6.983-.665c-.666-.171-1.332-.376-1.98-.608l.669-1.869c.591.212,1.2.4,1.805.554Zm11.475-.064-.516-1.917c.607-.163,1.212-.357,1.8-.574l.692,1.861C141.322,160.745,140.658,160.957,139.992,161.136Zm-15.747-1.512c-.617-.3-1.228-.637-1.817-1l1.034-1.7c.537.328,1.094.633,1.656.908Zm20-.112-.892-1.773c.558-.281,1.111-.592,1.645-.926l1.053,1.683C145.464,158.862,144.856,159.2,144.243,159.512Zm-23.861-2.293c-.544-.42-1.075-.871-1.579-1.34l1.352-1.453c.46.428.945.84,1.44,1.222Zm27.7-.155-1.232-1.556c.494-.391.974-.808,1.427-1.239l1.369,1.438C149.147,156.179,148.621,156.635,148.08,157.064Zm-31-2.976c-.451-.522-.881-1.071-1.279-1.629l1.616-1.152c.363.509.756,1.009,1.166,1.486Zm34.268-.191-1.518-1.279c.405-.482.792-.986,1.15-1.5l1.629,1.135C152.216,152.816,151.792,153.369,151.347,153.9Zm-36.876-3.537c-.335-.6-.647-1.224-.925-1.854l1.815-.8c.254.573.538,1.141.843,1.689Zm39.443-.221-1.744-.948c.3-.553.578-1.125.824-1.7l1.825.783C154.548,148.905,154.244,149.532,153.914,150.139Zm-41.247-3.958c-.207-.656-.386-1.33-.531-2l1.941-.419c.132.613.295,1.227.484,1.825Zm43-.243-1.9-.576c.182-.6.338-1.216.463-1.829l1.945.4C156.042,144.6,155.871,145.279,155.671,145.938Zm-43.925-4.215c-.07-.682-.109-1.377-.117-2.067l1.985-.022c.007.63.043,1.265.106,1.886Zm44.794-.252-1.977-.181c.057-.621.086-1.256.086-1.887v-.089h1.985v.089C156.635,140.094,156.6,140.79,156.541,141.472Zm-42.828-4.1-1.976-.195c.067-.686.168-1.375.3-2.049l1.949.375C113.866,136.116,113.775,136.745,113.713,137.37Zm40.8-.314c-.072-.626-.173-1.253-.3-1.865l1.943-.4c.14.67.251,1.358.329,2.044ZM114.535,133.3l-1.9-.589c.2-.657.442-1.313.706-1.948l1.833.762C114.938,132.107,114.721,132.7,114.535,133.3Zm39.1-.3c-.2-.6-.422-1.19-.671-1.765l1.821-.79c.274.63.521,1.281.736,1.935Zm-37.469-3.516-1.737-.961c.333-.6.7-1.2,1.085-1.765l1.642,1.116C116.8,128.4,116.467,128.939,116.164,129.488Zm35.782-.273c-.312-.545-.653-1.081-1.014-1.594l1.625-1.141c.4.563.769,1.151,1.112,1.747Zm-33.416-3.138-1.509-1.29c.447-.523.923-1.031,1.417-1.511l1.384,1.423C119.372,125.136,118.937,125.6,118.529,126.077Zm31-.235c-.418-.473-.86-.931-1.314-1.359l1.363-1.443c.5.47.982.971,1.439,1.489Zm-28-2.632-1.22-1.565c.542-.422,1.111-.825,1.691-1.2l1.072,1.671C122.544,122.456,122.025,122.824,121.53,123.209Zm24.954-.191c-.5-.378-1.025-.737-1.558-1.068l1.046-1.687c.585.363,1.16.757,1.709,1.171ZM125.043,121l-.88-1.779c.619-.306,1.257-.586,1.9-.832l.712,1.853C126.189,120.469,125.607,120.723,125.043,121Zm17.893-.137c-.567-.27-1.152-.516-1.741-.732l.683-1.863c.646.237,1.289.507,1.911.8Zm-14.008-1.315-.5-1.921c.667-.174,1.349-.319,2.027-.43l.321,1.959C130.157,119.26,129.536,119.392,128.929,119.55Zm10.1-.077c-.609-.149-1.233-.272-1.853-.364l.291-1.963c.68.1,1.365.235,2.033.4Zm-6-.559-.1-1.982c.678-.036,1.383-.042,2.071-.016l-.076,1.984C134.29,118.875,133.646,118.882,133.028,118.914Z" transform="translate(-111.63 -116.9)" fill="#fff"/>
          </g>
          <g id="Grupo_1213949" data-name="Grupo 1213949" transform="translate(8.615 9.86)">
            <g id="Grupo_1213937" data-name="Grupo 1213937" transform="translate(0.996 0.328)">
              <g id="Grupo_1213926" data-name="Grupo 1213926" transform="translate(5.506 13.14)">
                <path id="Trazado_1248985" data-name="Trazado 1248985" d="M155.746,184.555l-2.46-.64a5.283,5.283,0,0,0-2.661,0l-2.46.64a5.749,5.749,0,0,1-6.975-5.877h0c0-6.371,4.82-11.535,10.766-11.535h0c5.946,0,10.766,5.164,10.766,11.535h0A5.75,5.75,0,0,1,155.746,184.555Z" transform="translate(-141.189 -167.142)" fill="#ffcc34"/>
              </g>
              <path id="Trazado_1248986" data-name="Trazado 1248986" d="M166.225,182.1H163.2v-3.021H161.22V182.1H158.2v1.985h3.021v3.02H163.2v-3.02h3.02Z" transform="translate(-145.94 -161.2)" fill="#122436"/>
              <g id="Grupo_1213927" data-name="Grupo 1213927" transform="translate(5.506 13.14)">
                <path id="Trazado_1248987" data-name="Trazado 1248987" d="M151.955,167.142h0c-5.946,0-10.766,5.164-10.766,11.535h0a6.578,6.578,0,0,0,.076,1c.636-5.72,5.18-10.156,10.69-10.156h0c5.51,0,10.053,4.436,10.69,10.156a6.582,6.582,0,0,0,.077-1h0C162.722,172.306,157.9,167.142,151.955,167.142Z" transform="translate(-141.189 -167.142)" fill="#fff"/>
              </g>
              <g id="Grupo_1213936" data-name="Grupo 1213936" transform="translate(0 0)">
                <g id="Grupo_1213932" data-name="Grupo 1213932">
                  <g id="Grupo_1213928" data-name="Grupo 1213928" transform="translate(0 7.164)">
                    <path id="Trazado_1248988" data-name="Trazado 1248988" d="M133.1,154.221c1.388,1.953,1.463,4.374.168,5.408s-3.469.288-4.856-1.665-1.463-4.374-.168-5.408S131.714,152.268,133.1,154.221Z" transform="translate(-127.321 -152.09)" fill="#ffcc34"/>
                  </g>
                  <g id="Grupo_1213929" data-name="Grupo 1213929" transform="translate(0 7.164)">
                    <path id="Trazado_1248989" data-name="Trazado 1248989" d="M128.245,154.541c1.294-1.034,3.469-.288,4.856,1.665a6.011,6.011,0,0,1,.972,2.143,5.136,5.136,0,0,0-.972-4.128c-1.388-1.953-3.562-2.7-4.856-1.665a3.194,3.194,0,0,0-.8,3.265A2.415,2.415,0,0,1,128.245,154.541Z" transform="translate(-127.322 -152.091)" fill="#fff"/>
                  </g>
                  <g id="Grupo_1213930" data-name="Grupo 1213930" transform="translate(7.025)">
                    <ellipse id="Elipse_12430" data-name="Elipse 12430" cx="3.275" cy="4.909" rx="3.275" ry="4.909" transform="translate(0 1.435) rotate(-12.656)" fill="#ffcc34"/>
                  </g>
                  <g id="Grupo_1213931" data-name="Grupo 1213931" transform="translate(7.922 0.666)">
                    <path id="Trazado_1248990" data-name="Trazado 1248990" d="M149.462,137.792c1.743-.488,3.687,1.249,4.342,3.879.06.241.107.482.142.72a6.879,6.879,0,0,0-.142-2.705c-.655-2.63-2.6-4.366-4.342-3.879-1.583.443-2.456,2.568-2.112,4.925A3.365,3.365,0,0,1,149.462,137.792Z" transform="translate(-147.276 -135.724)" fill="#fff"/>
                  </g>
                </g>
                <g id="Grupo_1213934" data-name="Grupo 1213934" transform="translate(17.877 0.666)">
                  <g id="Grupo_1213933" data-name="Grupo 1213933">
                    <path id="Trazado_1248991" data-name="Trazado 1248991" d="M172.566,139.684c-.655,2.63.228,5.157,1.97,5.645s3.687-1.249,4.342-3.879-.228-5.157-1.97-5.645S173.221,137.054,172.566,139.684Z" transform="translate(-172.349 -135.723)" fill="#ffcc34"/>
                  </g>
                </g>
                <g id="Grupo_1213935" data-name="Grupo 1213935" transform="translate(17.877 0.666)">
                  <path id="Trazado_1248992" data-name="Trazado 1248992" d="M172.566,141.669c.655-2.63,2.6-4.366,4.342-3.879a3.365,3.365,0,0,1,2.112,2.94c.343-2.357-.529-4.482-2.112-4.925-1.743-.488-3.687,1.249-4.342,3.879a6.878,6.878,0,0,0-.142,2.705C172.459,142.152,172.506,141.911,172.566,141.669Z" transform="translate(-172.35 -135.723)" fill="#fff"/>
                </g>
              </g>
            </g>
            <g id="Grupo_1213945" data-name="Grupo 1213945">
              <g id="Grupo_1213938" data-name="Grupo 1213938" transform="translate(5.509 12.475)">
                <path id="Trazado_1248993" data-name="Trazado 1248993" d="M145.32,184.211a6.367,6.367,0,0,1-3.9-1.351,7.116,7.116,0,0,1-2.729-5.691c0-6.908,5.275-12.528,11.759-12.528s11.759,5.62,11.759,12.528a7.116,7.116,0,0,1-2.729,5.691,6.323,6.323,0,0,1-5.489,1.147l-2.46-.639a4.306,4.306,0,0,0-2.162,0l-2.46.639A6.318,6.318,0,0,1,145.32,184.211Zm5.128-2.966a6.292,6.292,0,0,1,1.58.2l2.46.639a4.29,4.29,0,0,0,3.775-.8,5.146,5.146,0,0,0,1.958-4.121c0-5.814-4.385-10.543-9.774-10.543s-9.774,4.729-9.774,10.543a5.146,5.146,0,0,0,1.958,4.121,4.293,4.293,0,0,0,3.775.8l2.46-.639A6.29,6.29,0,0,1,150.448,181.246Z" transform="translate(-138.689 -164.642)" fill="#122436"/>
              </g>
              <g id="Grupo_1213944" data-name="Grupo 1213944">
                <g id="Grupo_1213941" data-name="Grupo 1213941" transform="translate(0 0)">
                  <g id="Grupo_1213939" data-name="Grupo 1213939" transform="translate(0 6.5)">
                    <path id="Trazado_1248994" data-name="Trazado 1248994" d="M130.365,159.581a3.757,3.757,0,0,1-.521-.037,5.777,5.777,0,0,1-3.752-2.51c-1.714-2.412-1.7-5.381.021-6.758a3.285,3.285,0,0,1,2.533-.645,5.776,5.776,0,0,1,3.751,2.51c1.714,2.412,1.7,5.381-.022,6.759A3.19,3.19,0,0,1,130.365,159.581Zm-2.25-8a1.188,1.188,0,0,0-.764.249c-.761.608-.8,2.424.359,4.058a3.921,3.921,0,0,0,2.41,1.695,1.288,1.288,0,0,0,1.018-.23c.762-.609.8-2.425-.358-4.058a3.921,3.921,0,0,0-2.409-1.695A1.844,1.844,0,0,0,128.115,151.577Z" transform="translate(-124.813 -149.594)" fill="#122436"/>
                  </g>
                  <g id="Grupo_1213940" data-name="Grupo 1213940" transform="translate(7.923)">
                    <path id="Trazado_1248995" data-name="Trazado 1248995" d="M149.718,144.9a3.655,3.655,0,0,1-1.845-.527,6.7,6.7,0,0,1-2.856-4.188c-.8-3.195.375-6.2,2.666-6.84a3.461,3.461,0,0,1,2.716.407,6.7,6.7,0,0,1,2.856,4.187c.8,3.2-.375,6.2-2.666,6.841A3.225,3.225,0,0,1,149.718,144.9Zm-1.166-9.689a1.245,1.245,0,0,0-.334.045c-1.054.295-1.836,2.195-1.275,4.449a4.778,4.778,0,0,0,1.928,2.952,1.513,1.513,0,0,0,1.183.211c1.054-.295,1.836-2.195,1.275-4.449a4.775,4.775,0,0,0-1.928-2.952A1.691,1.691,0,0,0,148.552,135.208Z" transform="translate(-144.768 -133.222)" fill="#122436"/>
                  </g>
                </g>
                <g id="Grupo_1213943" data-name="Grupo 1213943" transform="translate(17.878)">
                  <g id="Grupo_1213942" data-name="Grupo 1213942">
                    <path id="Trazado_1248996" data-name="Trazado 1248996" d="M173.628,144.9a3.222,3.222,0,0,1-.871-.12c-2.291-.641-3.462-3.646-2.666-6.841h0a6.7,6.7,0,0,1,2.855-4.188,3.459,3.459,0,0,1,2.717-.407c2.291.641,3.462,3.646,2.666,6.841a6.7,6.7,0,0,1-2.856,4.188A3.659,3.659,0,0,1,173.628,144.9Zm1.166-9.689a1.7,1.7,0,0,0-.849.257,4.771,4.771,0,0,0-1.928,2.951h0c-.561,2.255.221,4.154,1.275,4.449a1.513,1.513,0,0,0,1.183-.211A4.776,4.776,0,0,0,176.4,139.7c.561-2.255-.221-4.155-1.275-4.45A1.241,1.241,0,0,0,174.794,135.207Z" transform="translate(-169.842 -133.221)" fill="#122436"/>
                  </g>
                </g>
              </g>
            </g>
            <g id="Grupo_1213946" data-name="Grupo 1213946" transform="translate(25.25 6.224)">
              <ellipse id="Elipse_12431" data-name="Elipse 12431" cx="4.344" cy="2.99" rx="4.344" ry="2.99" transform="translate(0 7.33) rotate(-57.521)" fill="#ffcc34"/>
            </g>
            <g id="Grupo_1213947" data-name="Grupo 1213947" transform="translate(26.668 7.491)">
              <path id="Trazado_1248997" data-name="Trazado 1248997" d="M193.075,156.205c1.388-1.953,3.562-2.7,4.856-1.665a2.414,2.414,0,0,1,.8,1.28,3.194,3.194,0,0,0-.8-3.265c-1.294-1.034-3.469-.288-4.856,1.665a5.136,5.136,0,0,0-.972,4.128A6.025,6.025,0,0,1,193.075,156.205Z" transform="translate(-191.983 -152.089)" fill="#fff"/>
            </g>
            <g id="Grupo_1213948" data-name="Grupo 1213948" transform="translate(25.672 6.5)">
              <path id="Trazado_1248998" data-name="Trazado 1248998" d="M192.786,159.581a3.192,3.192,0,0,1-2.012-.682c-1.726-1.378-1.735-4.347-.021-6.759a5.776,5.776,0,0,1,3.751-2.51,3.288,3.288,0,0,1,2.533.645c1.725,1.378,1.735,4.347.021,6.759a5.777,5.777,0,0,1-3.752,2.51A3.757,3.757,0,0,1,192.786,159.581Zm2.25-8a1.856,1.856,0,0,0-.255.019,3.921,3.921,0,0,0-2.409,1.695c-1.16,1.633-1.12,3.45-.359,4.058a1.284,1.284,0,0,0,1.018.23,3.919,3.919,0,0,0,2.41-1.694c1.16-1.633,1.12-3.449.358-4.058A1.185,1.185,0,0,0,195.035,151.577Z" transform="translate(-189.473 -149.594)" fill="#122436"/>
            </g>
          </g>
        </g>
      </g>
    </g>
  </g>
</svg>
