<svg xmlns="http://www.w3.org/2000/svg" width="73.631" height="53.328" viewBox="0 0 73.631 53.328">
  <g id="Grupo_1213714" data-name="Grupo 1213714" transform="translate(-312.781 -3854.945)">
    <g id="Grupo_1201016" data-name="Grupo 1201016" transform="translate(312.781 3875.311)">
      <g id="Rectángulo_410589" data-name="Rectángulo 410589" fill="#93795a" stroke="#695640" stroke-width="1">
        <rect width="73.631" height="24.544" rx="4" stroke="none"/>
        <rect x="0.5" y="0.5" width="72.631" height="23.544" rx="3.5" fill="none"/>
      </g>
    </g>
    <g id="man-avatar_16905172" transform="translate(254.07 3828.101)">
      <g id="Grupo_1214209" data-name="Grupo 1214209" transform="translate(75.216 27.665)">
        <g id="Grupo_1214208" data-name="Grupo 1214208" transform="translate(0)">
          <g id="Grupo_1214206" data-name="Grupo 1214206">
            <path id="Trazado_1249595" data-name="Trazado 1249595" d="M172.569,33.9A10.993,10.993,0,0,1,183.56,44.886c0,.222-.007,1.484-.02,1.7H161.6c-.012-.219-.019-1.481-.019-1.7A10.992,10.992,0,0,1,172.569,33.9Z" transform="translate(-152.257 -33.895)" fill="#ecb31c" fill-rule="evenodd"/>
            <path id="Trazado_1249596" data-name="Trazado 1249596" d="M103.4,126.166c11.1,0,20.1,2.689,20.1,6s-9,6-20.1,6-20.1-2.689-20.1-6S92.3,126.166,103.4,126.166Z" transform="translate(-83.084 -115.426)" fill="#f8ee97" fill-rule="evenodd"/>
            <path id="Trazado_1249597" data-name="Trazado 1249597" d="M107.575,305.715c16.238,4.069,13.612,8.466,14.547,20.066H81.5c.934-11.58-1.681-15.982,14.467-20.045a9.381,9.381,0,0,0,5.754,2.007,9.488,9.488,0,0,0,5.855-2.028Z" transform="translate(-81.5 -274.076)" fill="#57969f" fill-rule="evenodd"/>
            <path id="Trazado_1249598" data-name="Trazado 1249598" d="M147.973,331.427h25.148v-5.4a4.584,4.584,0,0,1-2.5-1.668V312.594c-.5-.164-1.018-.327-1.568-.489v10.634H152.041V312.105q-.823.243-1.568.489v11.761a4.5,4.5,0,0,1-.412.473,4.586,4.586,0,0,1-2.088,1.2v5.4Z" transform="translate(-140.236 -279.722)" fill="#6ebec5" fill-rule="evenodd"/>
          </g>
          <path id="Trazado_1249599" data-name="Trazado 1249599" d="M199.239,436.359a.672.672,0,1,1,0-1.344h12.027a.672.672,0,1,1,0,1.344Z" transform="translate(-184.941 -388.326)" fill="#57969f"/>
          <g id="Grupo_1214207" data-name="Grupo 1214207" transform="translate(7.445 14.763)">
            <path id="Trazado_1249600" data-name="Trazado 1249600" d="M312.866,160.732a3.327,3.327,0,1,1-3.327,3.327A3.327,3.327,0,0,1,312.866,160.732Z" transform="translate(-290.441 -160.732)" fill="#e0a36c" fill-rule="evenodd"/>
            <path id="Trazado_1249601" data-name="Trazado 1249601" d="M148.786,160.732a3.327,3.327,0,1,1-3.327,3.327A3.327,3.327,0,0,1,148.786,160.732Z" transform="translate(-145.459 -160.732)" fill="#e0a36c" fill-rule="evenodd"/>
          </g>
          <path id="Trazado_1249602" data-name="Trazado 1249602" d="M183.441,149.17A46.97,46.97,0,0,1,193,150.322V155.9a9.61,9.61,0,0,1-9.559,9.559,9.734,9.734,0,0,1-9.558-9.559v-5.583A46.972,46.972,0,0,1,183.441,149.17Z" transform="translate(-163.13 -135.752)" fill="#f1d3b1" fill-rule="evenodd"/>
        </g>
      </g>
      <g id="Grupo_1214210" data-name="Grupo 1214210" transform="translate(74.388 26.844)">
        <path id="Trazado_1249603" data-name="Trazado 1249603" d="M87.1,50.425a10.536,10.536,0,0,0,10.018,7.763,10.382,10.382,0,0,0,10.034-7.765c3.659-.622,10.9-2.319,10.9-6.014,0-2.643-3.859-4.557-9.131-5.669,0-.04,0-.074,0-.1a11.8,11.8,0,0,0-23.6,0c0,.022,0,.056,0,.1-5.272,1.112-9.131,3.027-9.131,5.669C76.187,48.106,83.436,49.8,87.1,50.425Zm-.341-7.1v4.5c0,.116,0,.232,0,.347a2.552,2.552,0,0,1-1.769-2.426A2.522,2.522,0,0,1,86.757,43.32Zm10.333,13.3a9.046,9.046,0,0,1-8.819-8.793V42.884a55.882,55.882,0,0,1,17.626,0l-.007,4.939A8.808,8.808,0,0,1,97.09,56.616Zm10.39-8.793v-4.5a2.548,2.548,0,0,1-.007,4.85C107.477,48.055,107.48,47.94,107.48,47.823ZM97.117,28.415a10.24,10.24,0,0,1,10.225,10.022,63.344,63.344,0,0,0-20.451,0A10.24,10.24,0,0,1,97.117,28.415Zm0,10.763c11.08,0,19.359,2.762,19.359,5.231,0,1.15-2.059,2.694-6.5,3.822a4.1,4.1,0,0,0,.831-2.264,1.914,1.914,0,0,0,.991-1.558c0-2.995-9.229-3.794-14.683-3.794s-14.682.8-14.682,3.794a1.915,1.915,0,0,0,.99,1.557,4.1,4.1,0,0,0,.831,2.265c-4.439-1.128-6.5-2.672-6.5-3.822C77.758,41.939,86.037,39.177,97.116,39.177Z" transform="translate(-75.978 -26.844)"/>
        <path id="Trazado_1249604" data-name="Trazado 1249604" d="M116.663,320.058c-.137-1.705-.2-3.286-.253-4.68-.323-8.329-.484-12.509-14.917-16.126a.788.788,0,0,0-.674.143,8.671,8.671,0,0,1-5.383,1.865,8.567,8.567,0,0,1-5.285-1.846.782.782,0,0,0-.673-.141c-14.351,3.611-14.513,7.787-14.835,16.106-.054,1.394-.115,2.974-.253,4.679a.726.726,0,0,0,.206.569.762.762,0,0,0,.577.225H115.88a.762.762,0,0,0,.577-.225A.727.727,0,0,0,116.663,320.058Zm-9.264-.719H83.654v-4.062a5.437,5.437,0,0,0,1.891-1.195,5.368,5.368,0,0,0,1.242-1.844h17.478a5.374,5.374,0,0,0,1.242,1.845,5.444,5.444,0,0,0,1.891,1.194ZM89.514,300.888a10.116,10.116,0,0,0,11.95-.02c.923.235,1.745.471,2.56.709v9.032H87.03v-9.032C87.728,301.347,88.621,301.117,89.514,300.888ZM76.2,315.442c.271-6.988.473-10.4,9.2-13.368V311.3a3.27,3.27,0,0,1-.952,1.65,3.794,3.794,0,0,1-1.728.994.778.778,0,0,0-.579.76v4.632H76.019C76.117,317.942,76.152,316.619,76.2,315.442Zm32.715,3.9v-4.632a.785.785,0,0,0-.587-.76,3.77,3.77,0,0,1-1.72-.993,3.273,3.273,0,0,1-.952-1.65v-9.23c8.73,2.966,8.933,6.385,9.2,13.367.045,1.177.08,2.5.177,3.9Z" transform="translate(-74.388 -267.525)"/>
        <path id="Trazado_1249605" data-name="Trazado 1249605" d="M210.318,434H198.266a.815.815,0,0,0,0,1.63h12.052a.815.815,0,0,0,0-1.63Z" transform="translate(-183.153 -386.609)"/>
      </g>
    </g>
  </g>
</svg>
