<svg xmlns="http://www.w3.org/2000/svg" width="127" height="259.015" viewBox="0 0 127 259.015">
  <g id="Grupo_1214213" data-name="Grupo 1214213" transform="translate(-179.774 -7814)">
    <rect id="Rectángulo_411053" data-name="Rectángulo 411053" width="127" height="259.015" transform="translate(179.774 7814)" fill="#4d9686"/>
    <g id="Grupo_1214212" data-name="Grupo 1214212">
      <g id="Grupo_1214211" data-name="Grupo 1214211" transform="translate(190.774 7926)">
        <g id="Rectángulo_410589" data-name="Rectángulo 410589" fill="#60a697" stroke="#295e52" stroke-width="1">
          <rect width="104.598" height="34.866" rx="8" stroke="none"/>
          <rect x="0.5" y="0.5" width="103.598" height="33.866" rx="7.5" fill="none"/>
        </g>
      </g>
      <g id="FILLED_OUTLINE" transform="translate(193.734 7893.167)">
        <rect id="Rectángulo_411698" data-name="Rectángulo 411698" width="51.123" height="60.014" rx="5" transform="translate(23.778 21.557)" fill="#916c5a"/>
        <path id="Trazado_1249623" data-name="Trazado 1249623" d="M85.324,171.089a2.228,2.228,0,0,0,.372.034h46.677A2.223,2.223,0,0,0,134.6,168.9V120a51.123,51.123,0,0,1-49.272,51.089Z" transform="translate(-59.695 -89.552)" fill="#7b5c4d"/>
        <path id="Trazado_1249624" data-name="Trazado 1249624" d="M104,88v48.9l2.223,2.223h40.009V88Z" transform="translate(-75.777 -61.998)" fill="#ffe8de"/>
        <path id="Trazado_1249625" data-name="Trazado 1249625" d="M248.091,296.1V270.3a51.315,51.315,0,0,1-25.8,25.8Z" transform="translate(-177.636 -218.972)" fill="#d9c5bd"/>
        <path id="Trazado_1249626" data-name="Trazado 1249626" d="M342.648,339.314,323.334,320,320,323.334l19.314,19.314a2.357,2.357,0,0,0,1.667.691h0a2.358,2.358,0,0,0,1.667-4.025Z" transform="translate(-261.77 -261.768)" fill="#c57565"/>
        <circle id="Elipse_12492" data-name="Elipse 12492" cx="16.671" cy="16.671" r="16.671" transform="translate(32.669 32.67)" fill="#ed9b85"/>
        <path id="Trazado_1249627" data-name="Trazado 1249627" d="M204,35.114H184V29.557a2.223,2.223,0,0,1,2.223-2.223h3.334l.6-1.814A2.223,2.223,0,0,1,192.27,24h3.464a2.223,2.223,0,0,1,2.109,1.52l.6,1.814h3.334A2.223,2.223,0,0,1,204,29.557Z" transform="translate(-144.663 -6.889)" fill="#535152"/>
        <path id="Trazado_1249628" data-name="Trazado 1249628" d="M248,64h2.223v2.223H248Z" transform="translate(-199.772 -41.332)" fill="#353334"/>
        <path id="Trazado_1249629" data-name="Trazado 1249629" d="M258.4,52.261A11.116,11.116,0,0,1,248,59.448h11.114V53.892a2.215,2.215,0,0,0-.716-1.631Z" transform="translate(-199.773 -31.223)" fill="#474546"/>
        <path id="Trazado_1249630" data-name="Trazado 1249630" d="M38.994,186.6l-1.227,3.815-3.049-2.6L24.086,150.4a2.223,2.223,0,1,1,4.276-1.215Z" transform="translate(-6.891 -113.294)" fill="#f4aa8e"/>
        <circle id="Elipse_12493" data-name="Elipse 12493" cx="2.223" cy="2.223" r="2.223" transform="translate(37.114 68.234)" fill="#04b263"/>
        <path id="Trazado_1249631" data-name="Trazado 1249631" d="M224,400h7.78v2.223H224Z" transform="translate(-179.106 -330.654)" fill="#ffcbb1"/>
        <path id="Trazado_1249632" data-name="Trazado 1249632" d="M29.273,152.395l-.911-3.207a2.223,2.223,0,1,0-4.276,1.215L25,153.61Z" transform="translate(-6.89 -113.294)" fill="#e88977"/>
        <path id="Trazado_1249633" data-name="Trazado 1249633" d="M206.663,228.718a16.679,16.679,0,0,0,22.055-22.055A33.416,33.416,0,0,1,206.663,228.718Z" transform="translate(-164.178 -164.176)" fill="#ca8471"/>
        <path id="Trazado_1249634" data-name="Trazado 1249634" d="M240,168h0v18.893h10V178A10,10,0,0,0,240,168Z" transform="translate(-192.883 -130.884)" fill="#6d6b6c"/>
        <path id="Trazado_1249635" data-name="Trazado 1249635" d="M205.557,200h0L200,203.334v1.111a2.223,2.223,0,0,0,2.223,2.223h3.334l-.079.079a11.114,11.114,0,0,0-3.182,6.589l-.073,1.111h8.891v-8.891A5.557,5.557,0,0,0,205.557,200Z" transform="translate(-158.44 -158.439)" fill="#535152"/>
        <rect id="Rectángulo_411699" data-name="Rectángulo 411699" width="1.683" height="2.223" rx="0.842" transform="translate(46.245 47.523) rotate(-45)" fill="#353334"/>
        <path id="Trazado_1249636" data-name="Trazado 1249636" d="M272.007,258.492h5.556V251.15A16.717,16.717,0,0,1,272.007,258.492Z" transform="translate(-220.444 -202.483)" fill="#5d5b5c"/>
        <path id="Trazado_1249637" data-name="Trazado 1249637" d="M221.336,296H210.223A2.223,2.223,0,0,0,208,298.223v2.223h15.559v-2.223A2.223,2.223,0,0,0,221.336,296Z" transform="translate(-165.329 -241.102)" fill="#353334"/>
        <path id="Trazado_1249638" data-name="Trazado 1249638" d="M221.337,296h-3.116A16.606,16.606,0,0,1,208,300.408v.038h15.559v-2.223A2.223,2.223,0,0,0,221.337,296Z" transform="translate(-165.329 -241.102)" fill="#2d2b2c"/>
        <circle id="Elipse_12494" data-name="Elipse 12494" cx="2.223" cy="2.223" r="2.223" transform="translate(56.007 68.234)" fill="#04b263"/>
        <path id="Trazado_1249639" data-name="Trazado 1249639" d="M306.239,392h-.021q-1.058.964-2.171,1.867A2.221,2.221,0,1,0,306.239,392Z" transform="translate(-248.008 -323.766)" fill="#039754"/>
        <path id="Trazado_1249640" data-name="Trazado 1249640" d="M209.782,178.634v-7.52A11.126,11.126,0,0,0,198.668,160a1.111,1.111,0,0,0-1.111,1.111v3.816l-5.017,3.01a1.112,1.112,0,0,0-.54.953V170a3.338,3.338,0,0,0,3.334,3.334h.977a12.274,12.274,0,0,0-1.977,5.2,3.329,3.329,0,0,0-1.223,2.578v2.223a1.111,1.111,0,0,0,1.111,1.111h15.559a1.111,1.111,0,0,0,1.111-1.111v-2.223A3.326,3.326,0,0,0,209.782,178.634Zm-10-16.342a8.9,8.9,0,0,1,7.78,8.822v6.668h-2.223v-6.668a6.678,6.678,0,0,0-5.557-6.574Zm-4.445,8.822A1.113,1.113,0,0,1,194.223,170v-.482l4.737-2.842a4.451,4.451,0,0,1,4.153,4.436v6.668h-6.38a10.046,10.046,0,0,1,2.641-4.692l1.19-1.19-1.572-1.572-.786.786Zm13.336,11.114H195.334v-1.111A1.113,1.113,0,0,1,196.445,180h11.114a1.113,1.113,0,0,1,1.111,1.111Z" transform="translate(-151.552 -123.996)"/>
        <path id="Trazado_1249641" data-name="Trazado 1249641" d="M248,64h2.223v2.223H248Z" transform="translate(-199.772 -41.332)"/>
        <path id="Trazado_1249642" data-name="Trazado 1249642" d="M81.664,76.76l-5.652-5.652V23.779a3.338,3.338,0,0,0-3.334-3.334H59.6a3.326,3.326,0,0,0-2.482-1.111H54.586l-.351-1.054A3.33,3.33,0,0,0,51.071,16H47.607a3.33,3.33,0,0,0-3.163,2.28l-.351,1.054H41.56a3.326,3.326,0,0,0-2.482,1.111H26a3.338,3.338,0,0,0-3.334,3.334V36.035l-.126-.445a3.334,3.334,0,1,0-6.414,1.823l6.541,23.019V79.348A3.338,3.338,0,0,0,26,82.682H72.678a3.339,3.339,0,0,0,3.068-2.029l1.013,1.013a3.469,3.469,0,0,0,4.906-4.906ZM60.453,22.668H72.678a1.113,1.113,0,0,1,1.111,1.111V68.885l-2.223-2.223V26a1.111,1.111,0,0,0-1.111-1.111h-10Zm-20,0a1.113,1.113,0,0,1,1.111-1.111h3.334a1.111,1.111,0,0,0,1.054-.76l.6-1.814a1.11,1.11,0,0,1,1.054-.76h3.464a1.11,1.11,0,0,1,1.054.76l.6,1.814a1.111,1.111,0,0,0,1.054.76h3.334a1.113,1.113,0,0,1,1.111,1.111v4.445H40.448Zm-1.111,6.668h20a1.111,1.111,0,0,0,1.111-1.111V27.114h8.891V64.44L64.12,59.216a17.8,17.8,0,1,0-4.906,4.906l10.13,10.13v1.762H32.4l.76-2.363a1.111,1.111,0,0,0,.011-.644L29.335,59.5V27.114h8.891v1.111a1.111,1.111,0,0,0,1.111,1.111Zm10,35.564A15.559,15.559,0,1,1,64.9,49.341,15.559,15.559,0,0,1,49.339,64.9ZM24.889,23.779A1.113,1.113,0,0,1,26,22.668H38.226v2.223h-10A1.111,1.111,0,0,0,27.112,26V51.68l-2.223-7.823ZM18.264,36.805A1.111,1.111,0,1,1,20.4,36.2l.608,2.138-2.138.608Zm1.215,4.276,2.138-.608,9.325,32.817L30.328,75.2,28.8,73.9ZM73.789,79.348a1.113,1.113,0,0,1-1.111,1.111H26a1.113,1.113,0,0,1-1.111-1.111V68.254l1.868,6.575a1.111,1.111,0,0,0,.348.542l3.049,2.6a1.111,1.111,0,0,0,.721.266H70.455a1.111,1.111,0,0,0,1.111-1.111v-.651L73.789,78.7Zm5.422,1.111a1.238,1.238,0,0,1-.881-.365L60.995,62.759A17.946,17.946,0,0,0,62.757,61L80.093,78.332a1.246,1.246,0,0,1-.881,2.127Z" transform="translate(0 0)"/>
        <path id="Trazado_1249643" data-name="Trazado 1249643" d="M163.334,390.668A3.334,3.334,0,1,0,160,387.334a3.334,3.334,0,0,0,3.334,3.334Zm0-4.445a1.111,1.111,0,1,1-1.111,1.111A1.111,1.111,0,0,1,163.334,386.223Z" transform="translate(-123.997 -316.877)"/>
        <path id="Trazado_1249644" data-name="Trazado 1249644" d="M224,400h7.78v2.223H224Z" transform="translate(-179.106 -330.654)"/>
        <path id="Trazado_1249645" data-name="Trazado 1249645" d="M299.334,390.668A3.334,3.334,0,1,0,296,387.334,3.334,3.334,0,0,0,299.334,390.668Zm0-4.445a1.111,1.111,0,1,1-1.111,1.111A1.111,1.111,0,0,1,299.334,386.223Z" transform="translate(-241.104 -316.877)"/>
      </g>
    </g>
  </g>
</svg>
