<svg xmlns="http://www.w3.org/2000/svg" width="127" height="193.146" viewBox="0 0 127 193.146">
  <g id="Grupo_1213880" data-name="Grupo 1213880" transform="translate(-181.013 -4657)">
    <rect id="Rectángulo_408528" data-name="Rectángulo 408528" width="127" height="193.146" transform="translate(181.013 4657)" fill="#93795a"/>
    <g id="Clipboard_with_gear_check_sign" data-name="Clipboard with gear check sign" transform="translate(208.022 4717.448)">
      <path id="Trazado_1248930" data-name="Trazado 1248930" d="M56.828,5.569c0,65.016.091,61.255-.2,62.245a4.569,4.569,0,0,1-4.371,3.244H6.569A4.569,4.569,0,0,1,2,66.489V5.569A4.569,4.569,0,0,1,6.569,1h45.69A4.569,4.569,0,0,1,56.828,5.569Z" transform="translate(0.523 0.523)" fill="#6fabe6"/>
      <path id="Trazado_1248931" data-name="Trazado 1248931" d="M55.788,5.574c0,65.016.091,61.255-.2,62.245-.975.289,2.239.2-47.015.2a4.569,4.569,0,0,1-4.569-4.569c0-64.94-.107-61.224.2-62.245C5.179.913,1.965,1,51.219,1a4.569,4.569,0,0,1,4.569,4.569Z" transform="translate(1.563 0.518)" fill="#82bcf4"/>
      <path id="Trazado_1248932" data-name="Trazado 1248932" d="M6,5H48.644V62.874H6Z" transform="translate(2.615 2.615)" fill="#dad7e5"/>
      <path id="Trazado_1248933" data-name="Trazado 1248933" d="M47.6,5V59.828H14.092A6.092,6.092,0,0,1,8,53.736V5Z" transform="translate(3.661 2.615)" fill="#edebf2"/>
      <path id="Trazado_1248934" data-name="Trazado 1248934" d="M60.649,30.256V34.4A3.046,3.046,0,0,1,58.2,37.445a3.046,3.046,0,0,0-1.965,4.63,3.046,3.046,0,0,1,.3,2.848c-.3.792-.655,1.005-3.594,3.945a3.046,3.046,0,0,1-3.853.381A3.046,3.046,0,0,0,44.4,51.167a3.046,3.046,0,0,1-3.046,2.452h-4.1a3.046,3.046,0,0,1-3.046-2.452,3.046,3.046,0,0,0-4.691-1.919,3.046,3.046,0,0,1-3.853-.381l-2.924-2.924a3.046,3.046,0,0,1-.381-3.853A3.046,3.046,0,0,0,20.442,37.4a3.046,3.046,0,0,1-2.452-3.046v-4.1a3.046,3.046,0,0,1,2.452-3.046,3.046,3.046,0,0,0,2.422-3.3,2.939,2.939,0,0,0-.5-1.386,3.046,3.046,0,0,1,.381-3.853l2.924-2.924a3.046,3.046,0,0,1,3.853-.381,3.046,3.046,0,0,0,4.691-1.919,3.046,3.046,0,0,1,3.046-2.452H41.4a3.046,3.046,0,0,1,3.046,2.452,3.046,3.046,0,0,0,4.63,1.98,3.046,3.046,0,0,1,3.868.366l2.924,2.924a3.046,3.046,0,0,1,.381,3.853,3.046,3.046,0,0,0,1.919,4.691,3.046,3.046,0,0,1,2.482,3Z" transform="translate(8.885 5.747)" fill="#7c7d7d"/>
      <path id="Trazado_1248935" data-name="Trazado 1248935" d="M59.066,30.24v4.143a3.046,3.046,0,0,1-2.452,3.046,3.046,3.046,0,0,0-1.965,4.63,3.046,3.046,0,0,1,.3,2.848,21.322,21.322,0,0,1-29.8-29.8,3.046,3.046,0,0,1,2.833.289,3.046,3.046,0,0,0,4.691-1.919,3.046,3.046,0,0,1,3.046-2.452h4.143a3.046,3.046,0,0,1,3.046,2.452,3.046,3.046,0,0,0,4.584,1.934,3.046,3.046,0,0,1,3.868.366L54.284,18.7a3.046,3.046,0,0,1,.381,3.853,3.046,3.046,0,0,0,1.919,4.691,3.046,3.046,0,0,1,2.482,3Z" transform="translate(10.468 5.763)" fill="#919191"/>
      <path id="Trazado_1248936" data-name="Trazado 1248936" d="M48.368,29.177A12.184,12.184,0,1,1,41.825,18.4,12.184,12.184,0,0,1,48.368,29.177Z" transform="translate(12.028 8.898)" fill="#dad7e5"/>
      <path id="Trazado_1248937" data-name="Trazado 1248937" d="M47.315,29.177a11.986,11.986,0,0,1-2.193,6.945,11.986,11.986,0,0,1-6.945,2.193,12.184,12.184,0,0,1-9.991-19.129,12.184,12.184,0,0,1,19.129,9.991Z" transform="translate(13.082 8.898)" fill="#edebf2"/>
      <path id="Trazado_1248938" data-name="Trazado 1248938" d="M28.444,27.652a1.529,1.529,0,0,1,2.163-2.163l1.965,1.98,5.011-5.026a1.529,1.529,0,1,1,2.163,2.163c-8.3,8.285-6.351,8.057-11.3,3.046Z" transform="translate(14.119 11.504)" fill="#82bcf4"/>
      <path id="Trazado_1248939" data-name="Trazado 1248939" d="M29.753,13.138H17.569A4.569,4.569,0,0,1,13,8.569V5.523a1.523,1.523,0,1,1,3.046,0V8.569a1.523,1.523,0,0,0,1.523,1.523H29.753a1.523,1.523,0,0,0,1.523-1.523V5.523a1.523,1.523,0,0,1,3.046,0V8.569A4.569,4.569,0,0,1,29.753,13.138Z" transform="translate(6.276 2.092)" fill="#425b72"/>
      <path id="Trazado_1248940" data-name="Trazado 1248940" d="M12,1H36.368V7.092H12Z" transform="translate(5.753 0.523)" fill="#fc6"/>
      <path id="Trazado_1248941" data-name="Trazado 1248941" d="M35.322,1V4.046H17.046A3.046,3.046,0,0,1,14,1Z" transform="translate(6.799 0.523)" fill="#ffde76"/>
      <path id="Trazado_1248942" data-name="Trazado 1248942" d="M37.582,22.444,32.571,27.47l-1.965-1.98a1.529,1.529,0,1,0-2.163,2.163c5.011,5,3.046,5.178,11.3-3.046a1.529,1.529,0,1,0-2.163-2.163Z" transform="translate(14.119 11.504)"/>
      <path id="Trazado_1248943" data-name="Trazado 1248943" d="M36.707,16A13.707,13.707,0,1,0,50.414,29.707,13.707,13.707,0,0,0,36.707,16Zm0,24.368A10.661,10.661,0,1,1,47.368,29.707,10.661,10.661,0,0,1,36.707,40.368Z" transform="translate(11.506 8.368)"/>
      <path id="Trazado_1248944" data-name="Trazado 1248944" d="M67.524,31.556c-.442-.152-.959-.183-1.279-.944a1.523,1.523,0,0,1,.152-1.523,4.569,4.569,0,0,0-.563-5.772c-2.65-2.635-4.036-4.721-6.96-4.188V6.092A6.092,6.092,0,0,0,52.782,0H7.092A6.092,6.092,0,0,0,1,6.092v60.92A6.092,6.092,0,0,0,7.092,73.1h45.69a6.092,6.092,0,0,0,6.092-6.092V56.96c2.894.518,4.158-1.386,6.96-4.188a4.569,4.569,0,0,0,.518-5.848,1.523,1.523,0,0,1,.99-2.284,4.569,4.569,0,0,0,3.716-4.493V36a4.569,4.569,0,0,0-3.533-4.447ZM55.828,6.092c0,15.458,0,14.042-.152,13.951-1.371-.579-.518-2.467-2.894-4.051V7.615a1.523,1.523,0,0,0-1.523-1.523H43.644V3.046h9.138A3.046,3.046,0,0,1,55.828,6.092ZM30.028,29.15a1.523,1.523,0,0,1,.152,1.523,1.691,1.691,0,0,1-1.264.944A4.569,4.569,0,0,0,25.368,36v4.143a4.569,4.569,0,0,0,3.716,4.493,1.523,1.523,0,0,1,.99,2.284,4.569,4.569,0,0,0,.518,5.848L33.516,55.7a4.569,4.569,0,0,0,5.772.564,1.523,1.523,0,0,1,1.523-.152,1.645,1.645,0,0,1,.944,1.279,4.569,4.569,0,0,0,4.386,3.533h3.594v3.046h-39.6V9.138h9.138v1.523a4.569,4.569,0,0,0,4.569,4.569H36.029A4.569,4.569,0,0,0,40.6,10.661V9.138h9.138V15.23H46.141a4.569,4.569,0,0,0-4.493,3.716,1.523,1.523,0,0,1-2.269.99,4.569,4.569,0,0,0-5.864.518l-2.924,2.924a4.569,4.569,0,0,0-.564,5.772ZM22.322,9.138h15.23v1.523a1.523,1.523,0,0,1-1.523,1.523H23.845a1.523,1.523,0,0,1-1.523-1.523ZM40.6,3.046V6.092H19.276V3.046ZM52.782,70.058H7.092a3.046,3.046,0,0,1-3.046-3.046V6.092A3.046,3.046,0,0,1,7.092,3.046H16.23V6.092H8.615A1.523,1.523,0,0,0,7.092,7.615V65.489a1.523,1.523,0,0,0,1.523,1.523H51.259a1.523,1.523,0,0,0,1.523-1.523v-5.33c2.361-1.523,1.523-3.472,2.894-4.051.213-.091.152-1.051.152,10.9A3.046,3.046,0,0,1,52.782,70.058Zm15.23-29.912a1.523,1.523,0,0,1-1.234,1.523,4.569,4.569,0,0,0-2.924,7.067,1.523,1.523,0,0,1-.183,1.949c-4.4,4.417-3.411,3.625-5.666,2.7a4.569,4.569,0,0,0-6.229,3.335,1.523,1.523,0,0,1-1.523,1.234H46.141a1.523,1.523,0,0,1-1.523-1.234A4.569,4.569,0,0,0,37.6,53.792a1.523,1.523,0,0,1-1.949-.183c-2.833-2.833-3.96-3.457-3.153-4.8a4.569,4.569,0,0,0,.457-4.371c-1.447-3.472-4.569-1.934-4.569-4.219V36a1.523,1.523,0,0,1,1.234-1.523,4.569,4.569,0,0,0,2.924-7.021,1.523,1.523,0,0,1,.183-1.949c2.8-2.665,3.488-3.914,4.828-3.122a4.569,4.569,0,0,0,7.1-2.878,1.523,1.523,0,0,1,1.523-1.234h4.143a1.523,1.523,0,0,1,1.523,1.234,4.569,4.569,0,0,0,7.036,2.924,1.523,1.523,0,0,1,1.949.183c2.833,2.833,3.96,3.457,3.153,4.8a4.569,4.569,0,0,0,2.878,7.1,1.523,1.523,0,0,1,1.234,1.523Z"/>
    </g>
  </g>
</svg>
