<svg xmlns="http://www.w3.org/2000/svg" xmlns:xlink="http://www.w3.org/1999/xlink" width="272" height="250.033" viewBox="0 0 272 250.033">
  <defs>
    <clipPath id="clip-path">
      <rect id="Rect치ngulo_411634" data-name="Rect치ngulo 411634" width="208.127" height="250.033" fill="none"/>
    </clipPath>
  </defs>
  <g id="Grupo_1213862" data-name="Grupo 1213862" transform="translate(-208.051 -1259.592)">
    <rect id="Rect치ngulo_408390" data-name="Rect치ngulo 408390" width="272" height="197.902" rx="8" transform="translate(208.051 1272.584)" fill="#fff" opacity="0.58"/>
    <g id="Grupo_1213861" data-name="Grupo 1213861" transform="translate(240.051 1259.592)">
      <g id="Grupo_1213860" data-name="Grupo 1213860" clip-path="url(#clip-path)">
        <path id="Trazado_1248355" data-name="Trazado 1248355" d="M289.867,43.52c4.958-6.948,6.689-35.448,3.084-37.7-1.843-1.149-5.591,13.686-10.434,18.188s7.35,19.507,7.35,19.507" transform="translate(-90.479 -1.852)" fill="#a85f2d"/>
        <path id="Trazado_1248356" data-name="Trazado 1248356" d="M83.769,72.159c1.142-2.641,3.382-4.385,4.316-2.933.794,1.233-.117,3.876-1.469,5.506-1.019,1.228-2.162,1.71-2.809,1.292-.709-.457-.841-2.008-.037-3.866" transform="translate(-26.76 -22.091)" fill="#ea875c"/>
        <path id="Trazado_1248357" data-name="Trazado 1248357" d="M51.13,71.313c-.851-2.732-2.808-4.772-3.806-3.518-.847,1.065-.214,3.763.919,5.552.853,1.348,1.886,1.994,2.529,1.693.7-.329.957-1.805.358-3.728" transform="translate(-15.092 -21.678)" fill="#ea875c"/>
        <path id="Trazado_1248358" data-name="Trazado 1248358" d="M158.151,129.459c-17.814.625-30.94,2.188-34.065,6.876s-13.494,54.232-7.5,87.195c1.875,10.314-.938,16.251-8.126,12.814s-5.313-13.126-5.313-13.126c-5.626,5.625-2.465,22.954,15.314,34.065,2.5,1.562,25.315-2.813,38.441-13.127s20.627-47.192,20.627-50.942-19.377-63.756-19.377-63.756" transform="translate(-32.352 -41.628)" fill="#d68732"/>
        <path id="Trazado_1248359" data-name="Trazado 1248359" d="M103.146,267.656s-1.875,9.688,5.313,13.126c3.3,1.581,5.682,1.175,7.107-.722,6.526,10.956,12.645,21.471,2.894,21.661-17.778-11.112-20.939-28.44-15.314-34.065" transform="translate(-32.352 -86.067)" fill="#eaac47"/>
        <path id="Trazado_1248360" data-name="Trazado 1248360" d="M130.79,136.782c2.137-3.206,8.953-4.95,18.745-5.932,2.045,10.006-12.211,24.349-13.9,40.388-3.072,29.16,2.707,52.343-5.211,51.509-4.364-.46-7.513-8.065-8.949-19.675-.378-29.811,6.8-62.525,9.316-66.291" transform="translate(-39.056 -42.076)" fill="#eaac47"/>
        <path id="Trazado_1248361" data-name="Trazado 1248361" d="M180.6,125.75c-15-.625-24.065,4.688-28.128,10.939s-8.126,35.316-7.188,43.754,7.188,46.566,7.5,52.192-1.562,56.88-1.562,56.88h19.064s-2.5-45.317-2.5-53.13,8.751-47.5,8.751-47.5Z" transform="translate(-46.672 -40.42)" fill="#844820"/>
        <path id="Trazado_1248362" data-name="Trazado 1248362" d="M173.073,337.309H154.1s1.876-51.254,1.563-56.88c-.045-.812-.216-2.318-.476-4.3a5.374,5.374,0,0,1,3.719-1.8c5.234,0,9.817,10.3,12.342,25.708.651,14.015,1.64,32.236,1.868,36.392-.013.292-.028.583-.042.875" transform="translate(-49.551 -88.214)" fill="#93562c"/>
        <path id="Trazado_1248363" data-name="Trazado 1248363" d="M172.207,339.84c.413,7.953.78,14.707.908,17.038q-.02.439-.043.874H154.1s.288-7.879.62-17.8a20.21,20.21,0,0,1,17.489-.113" transform="translate(-49.551 -108.656)" fill="#b27449"/>
        <path id="Trazado_1248364" data-name="Trazado 1248364" d="M180.6,125.75l-17.658,37.035c-7.393,17.916-4.812,32.07-15.5,32.821-1.018-6.732-1.86-12.466-2.16-15.163-.938-8.438,3.126-37.5,7.188-43.754S165.6,125.125,180.6,125.75" transform="translate(-46.672 -40.42)" fill="#93562c"/>
        <path id="Trazado_1248365" data-name="Trazado 1248365" d="M178.833,125.725a140.822,140.822,0,0,1-7.587,15.782c-8.362,15-18.19,26.685-25.892,31.661.7-11.968,3.94-31.483,7.183-36.472,3.893-5.99,12.394-11.1,26.3-10.971" transform="translate(-46.74 -40.427)" fill="#a85f2d"/>
        <path id="Trazado_1248366" data-name="Trazado 1248366" d="M222.276,125.75c13.871-.625,22.121,4.688,25.729,10.939s6.689,35.316,5.628,43.754-12.343,45.316-12.762,50.942,4.754,58.13,4.754,58.13h-17.61s-4.518-49.379-4.337-57.193.891-43.441.891-43.441Z" transform="translate(-71.474 -40.42)" fill="#844820"/>
        <path id="Trazado_1248367" data-name="Trazado 1248367" d="M229.621,334.261c-3.642-24.849-.364-45.905,7.32-47.032,1.959-.287,4.016.755,6.053,2.87,1,15.7,4.514,51.342,4.514,51.342H230.857q-.691-3.495-1.236-7.18" transform="translate(-73.358 -92.345)" fill="#93562c"/>
        <path id="Trazado_1248368" data-name="Trazado 1248368" d="M229.621,334.261c-3.642-24.849-.364-45.905,7.32-47.032,1.959-.287,4.016.755,6.053,2.87,1,15.7,4.514,51.342,4.514,51.342H230.857q-.691-3.495-1.236-7.18" transform="translate(-73.358 -92.345)" fill="#93562c"/>
        <path id="Trazado_1248369" data-name="Trazado 1248369" d="M228.475,340.51a18.4,18.4,0,0,1,17.477-.1c.91,9.787,1.666,17.455,1.666,17.455h-17.61s-.7-7.623-1.533-17.352" transform="translate(-73.468 -108.767)" fill="#b27449"/>
        <path id="Trazado_1248370" data-name="Trazado 1248370" d="M215.7,195.662c19.665-2.508,36.954-10.77,41.017-16.627s4.063-25.94,3.438-30.961-17.189-39.329-17.189-39.329L232.028,62.722s-14.064.279-20.939,7.252-24.377,40.166-29.378,52.439-7.188,21.477-9.375,28.729-2.5,21.2-1.25,24.267S209.137,196.5,215.7,195.662" transform="translate(-54.778 -20.169)" fill="#844820"/>
        <path id="Trazado_1248371" data-name="Trazado 1248371" d="M217.715,183.518c19.665-2.809,36.954-12.067,41.017-18.63s4.063-29.065,3.438-34.69-17.189-44.067-17.189-44.067L234.043,34.564s-14.064.313-20.939,8.126-24.377,45-29.378,58.755-7.188,24.065-9.375,32.191-2.5,23.752-1.25,27.19,38.053,23.63,44.616,22.693" transform="translate(-55.426 -11.114)" fill="#93562c"/>
        <path id="Trazado_1248372" data-name="Trazado 1248372" d="M247.06,86.131s5.418,12.575,10.174,24.393c-11.383,30.523-31.908,58.1-51.584,53.427C193.2,160.991,182.789,141,178.834,124.3c1.649-6.39,3.71-13.886,6.971-22.853,5-13.751,22.5-50.942,29.377-58.755s20.939-8.126,20.939-8.126Z" transform="translate(-57.505 -11.114)" fill="#93562c"/>
        <path id="Trazado_1248373" data-name="Trazado 1248373" d="M246.586,34.564l10.939,51.567.34.792c-6.486,20.164-18.541,33.688-29.628,31.7-13.281-2.381-20.138-26.107-15.317-52.993.112-.624.235-1.241.357-1.858,4.851-9.563,9.523-17.845,12.371-21.081,6.876-7.813,20.939-8.126,20.939-8.126" transform="translate(-67.97 -11.114)" fill="#844a23"/>
        <path id="Trazado_1248374" data-name="Trazado 1248374" d="M169.091,192.395c6.638,19.363,16.673,52.192,16.5,56.567s1.188,45.629,1.188,45.629H207.55s-2.387-24.064-2.882-28.44-3.129-30.628-2.991-34.066,2.747-19.689,2.747-19.689l9.376-15.314s-9.222-40-32.347-56.568c0,0-15.362,43.129-12.362,51.88" transform="translate(-54.247 -45.184)" fill="#93562c"/>
        <path id="Trazado_1248375" data-name="Trazado 1248375" d="M192.917,284.309c5.87-.993,12.419,6.1,17.718,17.827.467,4.757.879,8.744,1.047,10.223.495,4.375,2.882,28.44,2.882,28.44H193.791s-1.364-41.253-1.189-45.629c.051-1.267-.757-4.927-2.088-9.946a6.877,6.877,0,0,1,2.4-.915" transform="translate(-61.261 -91.392)" fill="#a85f2d"/>
        <path id="Trazado_1248376" data-name="Trazado 1248376" d="M214.107,339.734c.821,8.126,1.756,17.552,1.756,17.552H195.09s-.257-7.794-.534-16.965a13.654,13.654,0,0,1,10.055-4.834,13.417,13.417,0,0,1,9.5,4.247" transform="translate(-62.561 -107.878)" fill="#c68355"/>
        <path id="Trazado_1248377" data-name="Trazado 1248377" d="M181.453,140.515a56.757,56.757,0,0,1,11.238,10.952,92.8,92.8,0,0,1,5.787,19.368c4.43,23.58-.161,44.232-10.255,46.128-4.463.839-9.253-2.136-13.593-7.747-1.917-6.021-3.839-11.863-5.539-16.821-3-8.751,12.362-51.88,12.362-51.88" transform="translate(-54.247 -45.184)" fill="#a85f2d"/>
        <path id="Trazado_1248378" data-name="Trazado 1248378" d="M286.039,191.362c-2.287,20.076-9.584,49.136-10.314,53.442-1.562,9.219,1.052,51.254,1.052,51.254H256.036s-.2-23.926.156-28.284.906-30.544.664-33.967-2.881-21.788-2.881-21.788l-10.293-13.072s11.158-37.37,33.742-53.867c0,0,11.428,21.591,8.615,46.281" transform="translate(-78.358 -46.652)" fill="#93562c"/>
        <path id="Trazado_1248379" data-name="Trazado 1248379" d="M279.746,145.781c.33.071.659.151.988.235,1.9,3.885,10.775,23.481,8.259,45.571-1.077,9.459-3.267,20.91-5.358,30.828-6.671.815-13.294-1.536-18.938-6.166-12.171-9.984-15.219-27.369-7.89-41.3,5.445-10.348,13.083-21.73,22.938-29.168" transform="translate(-81.312 -46.877)" fill="#a85f2d"/>
        <path id="Trazado_1248380" data-name="Trazado 1248380" d="M261.865,339.251s-.2-23.926.156-28.284c.109-1.311.233-4.6.349-8.647,3.9-14.1,10.051-23.442,16.14-22.9a7.046,7.046,0,0,1,4.395,2.324c-.692,3.07-1.187,5.284-1.351,6.249-1.562,9.219,1.052,51.254,1.052,51.254Z" transform="translate(-84.186 -89.843)" fill="#a85f2d"/>
        <path id="Trazado_1248381" data-name="Trazado 1248381" d="M281.542,335.409c.455,11.179,1.064,20.988,1.064,20.988H261.865s-.1-11.274-.039-19.754a16.808,16.808,0,0,1,10.7-3.92,16.629,16.629,0,0,1,9.012,2.686" transform="translate(-84.186 -106.989)" fill="#c68355"/>
        <path id="Trazado_1248382" data-name="Trazado 1248382" d="M254.972,30.577c-25.549-22.5-44.77,13.2-44.77,13.2s-7.969,5.391-9.844,18.283c0,0-5.626,3.282-6.563,19.455s7.266,24.846,7.266,24.846,1.641-57.9,24.846-69.85c20.345-10.481,29.065-5.938,29.065-5.938" transform="translate(-62.292 -7.439)" fill="#eaac47"/>
        <path id="Trazado_1248383" data-name="Trazado 1248383" d="M202.708,86.993a51.4,51.4,0,0,0-2.456-16.611,6.964,6.964,0,0,1,1.753-1.789c.07-.482.164-.932.25-1.392.588,1.356,1.381,2.21,2.349,2.367,3,.488,6.529-5.851,7.877-14.156a38.355,38.355,0,0,0,.51-6.97,60.842,60.842,0,0,1,3.605-5,6.333,6.333,0,0,0-.245,4.587,5.93,5.93,0,0,0,2.372,2.854c-14.816,19.767-16.016,62.013-16.016,62.013a25.3,25.3,0,0,1-3.865-6.108c2.325-4.195,3.865-11.489,3.865-19.793" transform="translate(-63.939 -13.968)" fill="#d68732"/>
        <path id="Trazado_1248384" data-name="Trazado 1248384" d="M269.354,86.977c.313,1.875.547,19.22-.391,20.783s-11.675,9.01-15.236,9.142c-6.329.234-16.564-3.516-17.814-6.329s-.675-21.256-.675-21.256-7.138-11.4-7.451-14.841,1.562-30,1.875-31.878,5.626-10,11.251-12.5,14.7-3.654,20.951-1.466,10.3,10.529,11.24,14.9.625,29.377-.625,32.5-3.126,10.939-3.126,10.939" transform="translate(-73.235 -8.834)" fill="#b77035"/>
        <path id="Trazado_1248385" data-name="Trazado 1248385" d="M240.913,30.87a25.882,25.882,0,0,1,2.653-.993c11.255,23.807,7.192,51.935-8.331,60.321l0-.108s-7.139-11.4-7.451-14.842,1.562-30,1.875-31.878,5.626-10,11.251-12.5" transform="translate(-73.235 -9.607)" fill="#a85f2d"/>
        <path id="Trazado_1248386" data-name="Trazado 1248386" d="M229.662,48.865a7.294,7.294,0,0,1,.822-1.9c-.21,1.462-.925,3-.507,4.461,4.178,14.551,9.5,32.585,22.461,33.654,9.534.786,16.157,1.165,21.022-12.951-.191,4.936-.522,9.031-.981,10.177-1.25,3.126-3.126,10.939-3.126,10.939a164.091,164.091,0,0,1,.14,16.537c-2.869-5.968-7.477-10.088-13.123-10.913-8.235-1.2-16.361,4.94-21,14.766-.5-6.136-.133-18.051-.133-18.051s-7.138-11.4-7.451-14.841,1.562-30,1.875-31.878" transform="translate(-73.235 -15.102)" fill="#a85f2d"/>
        <path id="Trazado_1248387" data-name="Trazado 1248387" d="M230.443,39.389C228.1,31.185,237.1.927,241.226.01c2.109-.468.7,14.768,3.75,20.627s-14.533,18.751-14.533,18.751" transform="translate(-73.977 0)" fill="#b77035"/>
        <path id="Trazado_1248388" data-name="Trazado 1248388" d="M180.921,155.76c10.77,7.924,37.8,24.426,44.949,28.176,0,0,23.283-12.844,35.757-23.309.779,2.107,1.432,3.97,1.9,5.463-21.887,15.65-37.424,21.83-37.424,21.83-7.149-1.64-36.331-20.041-47.078-25.16.569-2.2,1.193-4.529,1.894-7" transform="translate(-57.567 -50.086)" fill="#633525"/>
        <path id="Trazado_1248389" data-name="Trazado 1248389" d="M241.827,200.63h4.219c-.625,10-5.626,36.253-5.626,36.253l-3.594.782-2.344-.782s7.188-20.939,7.344-36.253" transform="translate(-75.4 -64.514)" fill="#633525"/>
        <path id="Trazado_1248390" data-name="Trazado 1248390" d="M82.879,179.21c3.993,24.474-11.732,125.013-11.732,125.013l-2.341.233L51.92,185.115Z" transform="translate(-16.695 -57.626)" fill="#442a24"/>
        <path id="Trazado_1248391" data-name="Trazado 1248391" d="M75.48,215.316c-5.5-.431-11.315,13.877-14.6,34.146l-8.957-63.31,30.959-5.905c1.341,8.221.456,25.03-1.309,43.724-1.541-5.29-3.614-8.462-6.091-8.656" transform="translate(-16.696 -57.96)" fill="#38211d"/>
        <path id="Trazado_1248392" data-name="Trazado 1248392" d="M66.39,226.657,61.3,252.586,58.1,230.017Z" transform="translate(-18.683 -72.883)" fill="#2d1a17"/>
        <path id="Trazado_1248393" data-name="Trazado 1248393" d="M62.086,184.507a130.586,130.586,0,0,1-3.364,25.5l-4.371,4.736L31.77,303.893H29.661s-2.85-103.33-.25-119.238Z" transform="translate(-9.105 -59.329)" fill="#442a24"/>
        <path id="Trazado_1248394" data-name="Trazado 1248394" d="M31.327,203.558a4.432,4.432,0,0,0-2.864,1.007c.141-9.324.446-16.56.994-19.91l32.676-.147a130.575,130.575,0,0,1-3.364,25.5L54.4,214.745,42.663,261.07c1.491-31.4-3.582-57.142-11.336-57.512" transform="translate(-9.152 -59.33)" fill="#38211d"/>
        <path id="Trazado_1248395" data-name="Trazado 1248395" d="M61.8,229.038l8.684-5.574-9.339,2.012L51.12,222.095Z" transform="translate(-16.438 -71.416)" fill="#2d1a17"/>
        <path id="Trazado_1248396" data-name="Trazado 1248396" d="M78.8,102.947c3.282,3.906-2.422,56.646-4.063,58.286s-45.941.938-46.41-.938-3.75-53.442-1.875-56.724,25-6.016,27.347-6.485,25,5.86,25,5.86" transform="translate(-8.322 -31.211)" fill="#ddc8a6"/>
        <path id="Trazado_1248397" data-name="Trazado 1248397" d="M26.673,103.655c.012-.027.024-.061.037-.083,1.875-3.282,25-6.016,27.346-6.485,2.229-.446,22.809,5.25,24.828,5.812.111,1.427-1.858,4.75-1.858,6.221,0,21.1-9.565,27.737-24.064,27.737s-21.408-6.089-21.408-27.19c0-1.21-4.957-4.828-4.881-6.01" transform="translate(-8.576 -31.211)" fill="#eddcbe"/>
        <path id="Trazado_1248398" data-name="Trazado 1248398" d="M34.41,101.106C41.9,99,54.822,97.431,56.544,97.087c2.018-.4,19.082,4.228,23.789,5.524-2.384,4.85-12.228,8.038-23.787,7.348-10.585-.631-19.358-4.32-22.136-8.854" transform="translate(-11.065 -31.211)" fill="#ddc8a6"/>
        <path id="Trazado_1248399" data-name="Trazado 1248399" d="M19.009,105.476C6.82,112.039.163,141.437.006,144.562s2.5,14.064,10.783,13.751,12.657-15.939,12.657-15.939L18.757,130.81c3.942-10.842,3.9-19.207.252-25.334" transform="translate(0 -33.917)" fill="#eddcbe"/>
        <path id="Trazado_1248400" data-name="Trazado 1248400" d="M100.58,105.707c12.122,7.548,19.19,41.758,19.159,44.891s-5.457,9.51-13.948,8.52-12.03-16.944-12.03-16.944l5.525-11.158c-3.387-11.145-2.828-19.49,1.294-25.308" transform="translate(-30.149 -33.991)" fill="#eddcbe"/>
        <path id="Trazado_1248401" data-name="Trazado 1248401" d="M97.428,135.025c-2.1-6.909-.821-13.078.021-17.9a54.877,54.877,0,0,0,1.278,8.436c3.129,13.582,10.506,23.478,16.477,22.1a5.692,5.692,0,0,0,2.982-1.874,57.77,57.77,0,0,1,1.554,8.479c-.031,3.132-5.458,9.51-13.949,8.521s-12.029-16.945-12.029-16.945Z" transform="translate(-30.15 -37.663)" fill="#ddc8a6"/>
        <path id="Trazado_1248402" data-name="Trazado 1248402" d="M23.286,140.975c-11.994.313-20.489,10-21.988,13.752s3.831,21.408,17.491,15.626,4.5-29.378,4.5-29.378" transform="translate(-0.339 -45.331)" fill="#ffa77b"/>
        <path id="Trazado_1248403" data-name="Trazado 1248403" d="M15.13,154.805c2.578-6.915,7.2-13.789,8.76-13.829,0,0,9.162,23.6-4.5,29.378C10.548,174.1,5.2,168.013,2.932,162.24c4.638.976,9.842-1.115,12.2-7.435" transform="translate(-0.943 -45.332)" fill="#ea875c"/>
        <path id="Trazado_1248404" data-name="Trazado 1248404" d="M102.114,147.793c11.588,2.664,17.919,13.83,18.631,17.8s-7.968,20.229-20.09,11.877,1.459-29.678,1.459-29.678" transform="translate(-30.748 -47.524)" fill="#ffa77b"/>
        <path id="Trazado_1248405" data-name="Trazado 1248405" d="M102.114,147.793c.581.134,1.14.3,1.694.478a30.96,30.96,0,0,0,2.128,7.341c3.322,7.791,9.1,13.121,14.131,13.6-2.271,5.929-9.744,14.92-19.412,8.258-12.122-8.352,1.459-29.678,1.459-29.678" transform="translate(-30.748 -47.524)" fill="#ea875c"/>
        <path id="Trazado_1248406" data-name="Trazado 1248406" d="M38.82,134.377a18.164,18.164,0,0,1,4.337-7.97c4.336,1.759,3.633,4.454,3.633,4.454l-2.579-.235s-1.875.7-1.289,7.267Z" transform="translate(-12.483 -40.647)" fill="#dbab7f"/>
        <path id="Trazado_1248407" data-name="Trazado 1248407" d="M42.547,146.579c1.993-7.149-4.1-12.072-8.673-8.2s8.673,8.2,8.673,8.2" transform="translate(-10.584 -44.059)" fill="#c69463"/>
        <path id="Trazado_1248408" data-name="Trazado 1248408" d="M41.734,199.085l6.651,2.6s-6.307,46.878,5.256,47.22S61.821,212.2,61.821,212.2l8.966-1.093c-1.33,22.615-1.236,42.658-18.175,43.008s-10.877-55.029-10.877-55.029" transform="translate(-13.081 -64.017)" fill="#843f2c"/>
        <path id="Trazado_1248409" data-name="Trazado 1248409" d="M79.838,228.784c-2.41-.664-5.008-.039-7.54,1.59.058-6.849-.457-12.477-.457-12.477l8.967-1.093c-.244,4.145-.44,8.2-.7,12.068-.09-.029-.177-.063-.268-.088" transform="translate(-23.101 -69.715)" fill="#633525"/>
        <path id="Trazado_1248410" data-name="Trazado 1248410" d="M41.734,199.085l6.651,2.6S43.838,235.5,49.552,245.9a45.924,45.924,0,0,0-1.112,6.946c-11.688-8.248-6.706-53.756-6.706-53.756" transform="translate(-13.081 -64.017)" fill="#633525"/>
        <path id="Trazado_1248411" data-name="Trazado 1248411" d="M79.908,144.43c5.938,21.409-2.5,49.692-21.877,50.942s-46.921-23.286-27.346-55.317c9.688,2.5,12.266,14.688,22.189,13.751,12.061-1.138,18.6-10.939,27.034-9.377" transform="translate(-7.707 -45.036)" fill="#a8203b"/>
        <path id="Trazado_1248412" data-name="Trazado 1248412" d="M54.847,168.455c-13.191,0-24.438-6.865-28.811-16.506a47.724,47.724,0,0,1,5.314-11.9c9.688,2.5,12.266,14.688,22.189,13.751,12.061-1.138,18.6-10.939,27.034-9.376a52.064,52.064,0,0,1,1.716,10.088c-5.078,8.268-15.456,13.938-27.441,13.938" transform="translate(-8.372 -45.035)" fill="#cc364b"/>
        <path id="Trazado_1248413" data-name="Trazado 1248413" d="M30.685,140.054a14.531,14.531,0,0,1,4.852,2.318c-12,27.958,8.716,49.223,21.636,48.116,13.31-1.14,19.473-28.138,16.887-45.493a11.279,11.279,0,0,1,5.849-.566c5.938,21.408-2.5,49.692-21.877,50.942s-46.921-23.285-27.346-55.318" transform="translate(-7.707 -45.035)" fill="#84122d"/>
        <path id="Trazado_1248414" data-name="Trazado 1248414" d="M73.465,364h19.22c.938-1.875-1.562-1.719-7.813-2.657s-6.054-5.728-6.054-5.728l-4-1.185A28.33,28.33,0,0,0,73.465,364" transform="translate(-23.611 -113.971)" fill="#eddcbe"/>
        <path id="Trazado_1248415" data-name="Trazado 1248415" d="M18.3,363.651H30.721s1.06-1.98.351-2.227c-1.922-.668-1.361-3.812-1.68-5.821-.092-.579-3.008-2.266-3.008-2.266s-3.164,6.094-4.336,7.032-4.219.351-3.75,3.282" transform="translate(-5.868 -113.618)" fill="#eddcbe"/>
        <path id="Trazado_1248416" data-name="Trazado 1248416" d="M62.729,123.1S54.15,109.727,52.185,98.623c4.888-.8,9.139-1.349,10.075-1.537,1.05-.21,6.173.944,11.51,2.282A127.277,127.277,0,0,1,62.729,123.1" transform="translate(-16.78 -31.211)" fill="#ffa77b"/>
        <path id="Trazado_1248417" data-name="Trazado 1248417" d="M73.77,99.368a100.447,100.447,0,0,1-3.89,9.979,45.657,45.657,0,0,1-6.038.4,44.319,44.319,0,0,1-8.452-.794,50.972,50.972,0,0,1-3.2-10.327c4.887-.8,9.139-1.349,10.075-1.537,1.05-.21,6.173.944,11.51,2.281" transform="translate(-16.78 -31.211)" fill="#ea875c"/>
        <path id="Trazado_1248418" data-name="Trazado 1248418" d="M71.443,83.586,72.424,94s-4.849,2.714-8.833,2.831-7.266-3.4-7.266-3.4l.7-11.017Z" transform="translate(-18.112 -26.501)" fill="#dd704a"/>
        <path id="Trazado_1248419" data-name="Trazado 1248419" d="M49,46.317c-.668-3.052,1.366-6.634,1.366-6.634s-2.726-7.43,2.478-11.411,8.563-.664,8.563-.664-3.334,4.511,1.46,5.44,9.151-.8,12.257,4.246a10.124,10.124,0,0,1,.59,9.686s1.514.8,1.946,3.98-3,6.236-3,6.236,1.238,4.378-4.437,8.624l-15.361.663c-5.726-1.459-3.676-6.369-3.676-6.369s-1.035-1.725-2.067-3.715,1.248-6.5,1.248-6.5-.7-.531-1.364-3.582" transform="translate(-15.707 -8.461)" fill="#633525"/>
        <path id="Trazado_1248420" data-name="Trazado 1248420" d="M50.364,52.475s-.7-.531-1.364-3.582,1.366-6.634,1.366-6.634a12.833,12.833,0,0,1-.109-7.934,13.721,13.721,0,0,0-.086,1.511A14.393,14.393,0,0,0,64.82,49.957a14.793,14.793,0,0,0,11.794-5.769,10.072,10.072,0,0,1-.9,5.369s1.514.8,1.946,3.98-3,6.236-3,6.236,1.238,4.379-4.437,8.624l-15.361.664c-5.726-1.459-3.676-6.369-3.676-6.369s-1.035-1.725-2.066-3.715,1.248-6.5,1.248-6.5" transform="translate(-15.707 -11.037)" fill="#4f271c"/>
        <path id="Trazado_1248421" data-name="Trazado 1248421" d="M63.109,80.736c3.393.309,9.493-2.227,9.61-5.039s.586-24.729,0-25.9-7.5.7-9.259.469-8.086-2.109-8.79-.469-.938,25.667-.938,25.667,4.219,4.8,9.376,5.274" transform="translate(-17.278 -15.798)" fill="#ffa77b"/>
        <path id="Trazado_1248422" data-name="Trazado 1248422" d="M30.2,140.078a4.249,4.249,0,0,1,3.491,1.227c-14.122,28.519,8.2,51.829,23.691,50.7C72.9,190.884,79.37,164.152,75.05,144.648c1.319-1.016,2.918-1.009,4.714-.221,7.579,21.486-2.578,50.63-21.955,51.88S10.622,172.11,30.2,140.078" transform="translate(-7.563 -45.033)" fill="#c69463"/>
        <path id="Trazado_1248423" data-name="Trazado 1248423" d="M30.747,196.7a39.14,39.14,0,0,1,5.587-2.073c5.7,9.667,15.431,15.508,23.368,14.932,7.037-.511,12.207-6.3,15.361-14.276a33.036,33.036,0,0,1,5.259,2.306c-4.167,9.069-11.179,15.686-20.19,16.268-10.16.655-22.634-6.031-29.385-17.156" transform="translate(-9.887 -62.584)" fill="#dbab7f"/>
        <path id="Trazado_1248424" data-name="Trazado 1248424" d="M102.277,150.563a6.133,6.133,0,0,1,3.285.988,48.17,48.17,0,0,1,1.376,13.19,46.367,46.367,0,0,1-6.26,2.633,62.353,62.353,0,0,0-.4-16.443,5.861,5.861,0,0,1,2-.368" transform="translate(-32.245 -48.415)" fill="#dbab7f"/>
        <path id="Trazado_1248425" data-name="Trazado 1248425" d="M23.586,161.682a39.862,39.862,0,0,1,4.033-15.2c1.26-1.117,2.537-1.63,3.685-1.328a2.768,2.768,0,0,1,1.113.605A38.493,38.493,0,0,0,29.4,164.583a40.549,40.549,0,0,1-5.816-2.9" transform="translate(-7.584 -46.647)" fill="#dbab7f"/>
        <path id="Trazado_1248426" data-name="Trazado 1248426" d="M69.006,260.36l5.934,1.261a1.435,1.435,0,0,0,1.7-1.106l1.4-6.571a1.435,1.435,0,0,0-1.106-1.7L71,250.983a1.434,1.434,0,0,0-1.7,1.105l-1.4,6.571a1.434,1.434,0,0,0,1.105,1.7m.743-2.561.887-4.174a.911.911,0,0,1,1.081-.7l3.769.8a.912.912,0,0,1,.7,1.081l-.887,4.174a.912.912,0,0,1-1.081.7l-3.769-.8a.912.912,0,0,1-.7-1.081" transform="translate(-21.824 -80.695)" fill="#c69463"/>
        <path id="Trazado_1248427" data-name="Trazado 1248427" d="M75.084,255.61l.752.159a.321.321,0,0,1,.247.381l-.472,2.221a.321.321,0,0,1-.38.247l-.753-.16a.32.32,0,0,1-.246-.379l.472-2.221a.321.321,0,0,1,.38-.247" transform="translate(-23.868 -82.191)" fill="#c69463"/>
        <path id="Trazado_1248428" data-name="Trazado 1248428" d="M45.969,179.416c4.326,6.153,10.546,9.832,15.844,9.382,3.115-.267,5.9-2.026,8.284-5.226,5.651-7.594,8.1-22.529,6.037-35.691q.433-.217.863-.415c2.172,13.452-.342,28.83-6.164,36.654-2.546,3.42-5.554,5.3-8.941,5.592q-.477.041-.96.041c-5.391,0-11.458-3.756-15.714-9.809-6.633-9.434-7.751-22.154-3.25-34.706q.376.324.739.659c-4.254,12.156-3.135,24.421,3.263,33.519" transform="translate(-12.623 -46.702)" fill="#84122d"/>
        <path id="Trazado_1248429" data-name="Trazado 1248429" d="M266.2,208.462s-6.251,15.314-6.094,31.252l-7.657-3.75c2.031-15.471,13.751-27.5,13.751-27.5" transform="translate(-81.176 -67.032)" fill="#93562c"/>
        <path id="Trazado_1248430" data-name="Trazado 1248430" d="M226.044,210.88s4.134,13.593.957,28.016a16.318,16.318,0,0,1-6.128-2.7,113,113,0,0,0,5.17-25.315" transform="translate(-71.023 -67.81)" fill="#844820"/>
        <path id="Trazado_1248431" data-name="Trazado 1248431" d="M250.141,136.265c3.732,1.194,3.916-8.6,3.316-10.439s-2.447-7.983-3.922-6.755-.833,16.733.607,17.194" transform="translate(-79.97 -38.237)" fill="#703419"/>
        <path id="Trazado_1248432" data-name="Trazado 1248432" d="M283.671,137.675c-1.344.853-.6-7.172-.248-8.66s1.474-6.456,1.865-5.4-1.1,13.732-1.617,14.061" transform="translate(-90.968 -39.702)" fill="#703419"/>
        <path id="Trazado_1248433" data-name="Trazado 1248433" d="M273.318,102.3c-1.077,3.55-2.177,8.13-2.177,8.13.013.075.025.181.037.3-11.979-5.9-30.141,2.047-34.2,3.976.026-1.2.05-1.938.05-1.938s-1.853-2.961-3.712-6.32c4.555-1.845,25.2-9.538,40-4.151" transform="translate(-75.024 -32.29)" fill="#633525"/>
        <path id="Trazado_1248434" data-name="Trazado 1248434" d="M79.828,97.086l.462,9.384,4.063,1.172L83.1,98.97Z" transform="translate(-25.669 -31.219)" fill="#eddcbe"/>
        <path id="Trazado_1248435" data-name="Trazado 1248435" d="M54.019,95.459l-.685,11.113-4.61-2.031,2-6.377Z" transform="translate(-15.667 -30.695)" fill="#eddcbe"/>
        <path id="Trazado_1248436" data-name="Trazado 1248436" d="M35.815,141.791c.958.1,1.406-2.578,1.113-2.989a30.692,30.692,0,0,0-6.368-3.126c-.938-.117-6.492,4.742-6.492,4.742l2.839,2.427a36.847,36.847,0,0,1,3.374-2.928c.41-.117,5.533,1.873,5.533,1.873" transform="translate(-7.739 -43.627)" fill="#ffa77b"/>
        <path id="Trazado_1248437" data-name="Trazado 1248437" d="M98.46,146.132c-.864-.266-.229-2.917.178-3.185a27.356,27.356,0,0,1,6.668-.481c.851.247,3.782,6.843,3.782,6.843l-3.366,1.17a36.558,36.558,0,0,0-1.79-3.985c-.308-.263-5.473-.362-5.473-.362" transform="translate(-31.522 -45.788)" fill="#ffa77b"/>
        <path id="Trazado_1248438" data-name="Trazado 1248438" d="M233.89,36.614c-1.079-6.217,4.434-26.389,6.674-26.4,1.145,0,.052,10.641,1.561,15.3s-8.235,11.1-8.235,11.1" transform="translate(-75.164 -3.285)" fill="#844a23"/>
        <path id="Trazado_1248439" data-name="Trazado 1248439" d="M245.982,70.028c0-2.756-.965-4.413-2.269-4.186a5.522,5.522,0,0,1,1.655-2.087c1.665-1.122,3.014.612,3.014,3.873s-1.349,6.814-3.014,7.936a1.914,1.914,0,0,1-.746.313,13.5,13.5,0,0,0,1.36-5.848" transform="translate(-78.368 -20.391)" fill="#703419"/>
        <path id="Trazado_1248440" data-name="Trazado 1248440" d="M273.891,52.674c.085,1.6.139,3.544.164,5.663-19.641-13.411-40.545-.4-44.985,2.691.113-1.7.229-3.357.339-4.887,5.134-5.685,27.173-21.153,44.481-3.467" transform="translate(-73.659 -14.291)" fill="#633525"/>
        <path id="Trazado_1248441" data-name="Trazado 1248441" d="M232.963,63.3l2.5-1.094c-3.594,12.5,4.688,32.19,4.688,32.19l-4.219,1.094S228.9,70.642,232.963,63.3" transform="translate(-74.504 -20.002)" fill="#633525"/>
        <path id="Trazado_1248442" data-name="Trazado 1248442" d="M72.465,56.689l6.157,1.5a.985.985,0,0,1,.712,1.188l-.47,2a.967.967,0,0,1-1.164.732l-6.158-1.5a.986.986,0,0,1-.712-1.189l.47-2a.966.966,0,0,1,1.164-.731" transform="translate(-22.767 -18.22)" fill="#633525"/>
        <path id="Trazado_1248443" data-name="Trazado 1248443" d="M54.57,56.968l6.324-.43a.985.985,0,0,1,1.037.917l.157,2.048a.967.967,0,0,1-.888,1.05l-6.323.43a.986.986,0,0,1-1.038-.917l-.157-2.048a.967.967,0,0,1,.888-1.05" transform="translate(-17.261 -18.179)" fill="#633525"/>
        <path id="Trazado_1248444" data-name="Trazado 1248444" d="M67.139,62.479a22.385,22.385,0,0,0-.04,8.708,5.408,5.408,0,0,0,2.514.164l.024.09L66,72.162a25.262,25.262,0,0,1,1.138-9.683" transform="translate(-21.197 -20.091)" fill="#dd704a"/>
        <path id="Trazado_1248445" data-name="Trazado 1248445" d="M69.6,80.438l.32,1.22a9.8,9.8,0,0,1-7.506.592l.228-.55A7.955,7.955,0,0,0,69.6,80.438" transform="translate(-20.069 -25.865)" fill="#dd704a"/>
        <path id="Trazado_1248446" data-name="Trazado 1248446" d="M66.407,91.042c.105.033.254-.619.331-1.458A3.458,3.458,0,0,0,66.688,88c-.105-.033-.254.619-.331,1.459a3.464,3.464,0,0,0,.05,1.579" transform="translate(-21.323 -28.298)" fill="#d27558"/>
        <path id="Trazado_1248447" data-name="Trazado 1248447" d="M74.044,64.98l3.419.7c.005.1.016.194.017.3.016,1.972-.763,3.614-1.74,3.668s-1.78-1.5-1.8-3.472a6.957,6.957,0,0,1,.1-1.189" transform="translate(-23.778 -20.895)" fill="#3f3434"/>
        <path id="Trazado_1248448" data-name="Trazado 1248448" d="M60.213,64.964l-3.17.247c-.014.1-.033.193-.044.3-.2,1.978.349,3.729,1.229,3.913s1.759-1.271,1.961-3.248a7.782,7.782,0,0,0,.024-1.206" transform="translate(-18.315 -20.89)" fill="#3f3434"/>
      </g>
    </g>
  </g>
</svg>
