<svg xmlns="http://www.w3.org/2000/svg" width="145.631" height="88.438" viewBox="0 0 145.631 88.438">
  <g id="Grupo_1213229" data-name="Grupo 1213229" transform="translate(-312.781 -3863.558)">
    <g id="Grupo_1201016" data-name="Grupo 1201016">
      <g id="Rectángulo_410589" data-name="Rectángulo 410589" transform="translate(312.781 3886.804)" fill="#93795a" stroke="#695640" stroke-width="1">
        <rect width="145.631" height="48.544" rx="8" stroke="none"/>
        <rect x="0.5" y="0.5" width="144.631" height="47.544" rx="7.5" fill="none"/>
      </g>
    </g>
    <g id="horse_3689331" transform="translate(331.781 3857.556)">
      <g id="Grupo_1201400" data-name="Grupo 1201400" transform="translate(1.706 14.503)">
        <path id="Trazado_1247275" data-name="Trazado 1247275" d="M15.954,25H26.176A11.908,11.908,0,0,0,14.27,36.9V55.6A13.589,13.589,0,0,1,1,69.206a3.4,3.4,0,0,0,3.045-3.385V36.906A11.908,11.908,0,0,1,15.951,25Z" transform="translate(-1.003 -1.188)" fill="#656d78"/>
        <path id="Trazado_1247276" data-name="Trazado 1247276" d="M48.486,11.051,36.6,34.812h-6.8L41.7,11h6.684Z" transform="translate(19.175 -11)" fill="#656d78"/>
        <path id="Trazado_1247277" data-name="Trazado 1247277" d="M35.793,54h6.8v5.1h-6.8Z" transform="translate(23.38 19.137)" fill="#656d78"/>
      </g>
      <path id="Trazado_1247278" data-name="Trazado 1247278" d="M69.2,44.99,65.8,65.417H52.195l-3.4-20.427Z" transform="translate(34.197 27.326)" fill="#da4453"/>
      <path id="Trazado_1247279" data-name="Trazado 1247279" d="M65.8,36.412a3.412,3.412,0,0,0,3.4-3.4v5.069a3.412,3.412,0,0,1-3.4,3.4H52.195a3.412,3.412,0,0,1-3.4-3.4V33.01a3.412,3.412,0,0,0,3.4,3.4Z" transform="translate(34.197 18.929)" fill="#f6bb42"/>
      <path id="Trazado_1247280" data-name="Trazado 1247280" d="M69.2,34.076v1.752a3.412,3.412,0,0,1-3.4,3.4H52.195a3.412,3.412,0,0,1-3.4-3.4V32.392a3.412,3.412,0,0,1,3.4-3.4H65.8a3.412,3.412,0,0,1,3.4,3.4Z" transform="translate(34.197 16.112)" fill="#ffce54"/>
      <path id="Trazado_1247281" data-name="Trazado 1247281" d="M47.793,42H71.605v5.086H47.793Z" transform="translate(33.497 25.23)" fill="#ed5565"/>
      <path id="Trazado_1247282" data-name="Trazado 1247282" d="M11.793,54h6.82v5.1h-6.82Z" transform="translate(8.265 33.64)" fill="#656d78"/>
      <path id="Trazado_1247283" data-name="Trazado 1247283" d="M24.111,37.616h27.2L63.2,13.854,66.615,7l3.4,6.8,20.41,5.1-3.4,8.5H70L68.316,56.325a6.8,6.8,0,0,1-6.8,6.8V86.941h-6.8V63.129H28.771L20.692,76.787l.017,10.154h-6.82V64.829a5.092,5.092,0,0,1-5.086-5.1V49.522a11.908,11.908,0,0,1,11.9-11.906Z" transform="translate(6.17 0.7)" fill="#965353"/>
      <path id="Trazado_1247284" data-name="Trazado 1247284" d="M9.708,39.31a1.7,1.7,0,0,1-1.7-1.7A13.623,13.623,0,0,1,21.614,24a1.7,1.7,0,0,1,0,3.4A10.216,10.216,0,0,0,11.409,37.609a1.7,1.7,0,0,1-1.7,1.7Z" transform="translate(5.612 12.616)"/>
      <path id="Trazado_1247285" data-name="Trazado 1247285" d="M21.455,45.2a1.7,1.7,0,0,1-1.4-2.673,10.146,10.146,0,0,0,1.824-5.822,1.7,1.7,0,0,1,3.4,0,13.533,13.533,0,0,1-2.432,7.765A1.7,1.7,0,0,1,21.455,45.2Z" transform="translate(13.845 20.328)"/>
      <path id="Trazado_1247286" data-name="Trazado 1247286" d="M3.7,39.31a1.7,1.7,0,0,1-1.7-1.7A13.623,13.623,0,0,1,15.608,24a1.7,1.7,0,0,1,0,3.4A10.216,10.216,0,0,0,5.4,37.609a1.7,1.7,0,0,1-1.7,1.7Z" transform="translate(1.402 12.616)"/>
      <path id="Trazado_1247287" data-name="Trazado 1247287" d="M3.706,63.312a1.7,1.7,0,0,1-1.7-1.7V32.7a1.7,1.7,0,0,1,3.4,0v28.91a1.7,1.7,0,0,1-1.7,1.7Z" transform="translate(1.405 17.521)"/>
      <path id="Trazado_1247288" data-name="Trazado 1247288" d="M9.708,53.1a1.7,1.7,0,0,1-1.7-1.7V32.7a1.7,1.7,0,1,1,3.4,0V51.4a1.7,1.7,0,0,1-1.7,1.7Z" transform="translate(5.612 17.52)"/>
      <path id="Trazado_1247289" data-name="Trazado 1247289" d="M24.316,27.4H10.706a1.7,1.7,0,0,1,0-3.4h13.61a1.7,1.7,0,1,1,0,3.4Z" transform="translate(6.311 12.616)"/>
      <path id="Trazado_1247290" data-name="Trazado 1247290" d="M1.7,59.008a1.7,1.7,0,1,1,0-3.4A11.925,11.925,0,0,0,13.617,43.693a1.7,1.7,0,1,1,3.4,0A15.332,15.332,0,0,1,1.7,59.008Z" transform="translate(0.002 25.225)"/>
      <path id="Trazado_1247291" data-name="Trazado 1247291" d="M1.7,54.8a1.7,1.7,0,1,1,0-3.4,1.706,1.706,0,0,0,1.7-1.7,1.7,1.7,0,0,1,3.4,0A5.112,5.112,0,0,1,1.7,54.8Z" transform="translate(0.002 29.434)"/>
      <path id="Trazado_1247292" data-name="Trazado 1247292" d="M16.719,71.308a1.7,1.7,0,0,1-1.7-1.7L15,54.364a1.693,1.693,0,0,1,.238-.867l8.082-13.662a1.7,1.7,0,0,1,2.927,1.731L18.4,54.827l.015,14.778a1.7,1.7,0,0,1-1.7,1.7Z" transform="translate(10.515 23.128)"/>
      <path id="Trazado_1247293" data-name="Trazado 1247293" d="M12.707,70.607a1.7,1.7,0,0,1-1.7-1.7L11,41.7A1.7,1.7,0,0,1,12.7,40h0a1.7,1.7,0,0,1,1.7,1.7l.007,27.207a1.7,1.7,0,0,1-1.7,1.7Z" transform="translate(7.709 23.828)"/>
      <path id="Trazado_1247294" data-name="Trazado 1247294" d="M19.522,56.4H12.7a1.7,1.7,0,0,1,0-3.4h6.818a1.7,1.7,0,0,1,0,3.4Z" transform="translate(7.712 32.936)"/>
      <path id="Trazado_1247295" data-name="Trazado 1247295" d="M45.9,27.4h-27.2a1.7,1.7,0,0,1,0-3.4H45.9a1.7,1.7,0,0,1,0,3.4Z" transform="translate(11.92 12.616)"/>
      <path id="Trazado_1247296" data-name="Trazado 1247296" d="M34.7,40.02a1.7,1.7,0,0,1-1.52-2.462L48.487,6.942A1.7,1.7,0,0,1,51.53,8.464L36.219,39.079A1.7,1.7,0,0,1,34.7,40.02Z" transform="translate(23.126)"/>
      <path id="Trazado_1247297" data-name="Trazado 1247297" d="M30.7,37.216a1.7,1.7,0,0,1-1.52-2.462L41.087,10.942a1.7,1.7,0,1,1,3.043,1.521L32.22,36.276a1.7,1.7,0,0,1-1.523.94Z" transform="translate(20.324 2.803)"/>
      <path id="Trazado_1247298" data-name="Trazado 1247298" d="M47.1,16.207a1.7,1.7,0,0,1-1.523-.942l-3.4-6.8A1.7,1.7,0,0,1,45.22,6.944l3.4,6.8a1.7,1.7,0,0,1-1.52,2.46Z" transform="translate(29.435 0)"/>
      <path id="Trazado_1247299" data-name="Trazado 1247299" d="M66.111,18.511a1.7,1.7,0,0,1-.415-.051L45.282,13.352a1.7,1.7,0,0,1,.827-3.3l20.414,5.108a1.7,1.7,0,0,1-.412,3.35Z" transform="translate(30.835 2.804)"/>
      <path id="Trazado_1247300" data-name="Trazado 1247300" d="M55.7,24.911a1.7,1.7,0,0,1-1.58-2.332l3.4-8.5a1.7,1.7,0,0,1,3.159,1.262l-3.4,8.5a1.7,1.7,0,0,1-1.58,1.07Z" transform="translate(37.845 4.908)"/>
      <path id="Trazado_1247301" data-name="Trazado 1247301" d="M62.71,21.407H45.7a1.7,1.7,0,0,1,0-3.4H62.71a1.7,1.7,0,0,1,0,3.4Z" transform="translate(30.834 8.413)"/>
      <path id="Trazado_1247302" data-name="Trazado 1247302" d="M44.7,50.313c-.033,0-.066,0-.1,0a1.7,1.7,0,0,1-1.6-1.8l1.689-28.906a1.683,1.683,0,0,1,1.8-1.6,1.7,1.7,0,0,1,1.6,1.8L46.4,48.712a1.7,1.7,0,0,1-1.7,1.6Z" transform="translate(30.138 8.412)"/>
      <path id="Trazado_1247303" data-name="Trazado 1247303" d="M40.7,45.205a1.7,1.7,0,0,1,0-3.4,5.108,5.108,0,0,0,5.1-5.1,1.7,1.7,0,0,1,3.4,0,8.514,8.514,0,0,1-8.5,8.5Z" transform="translate(27.335 20.324)"/>
      <path id="Trazado_1247304" data-name="Trazado 1247304" d="M40.7,71.313a1.7,1.7,0,0,1-1.7-1.7V40.7a1.7,1.7,0,0,1,3.4,0V69.612a1.7,1.7,0,0,1-1.7,1.7Z" transform="translate(27.332 23.127)"/>
      <path id="Trazado_1247305" data-name="Trazado 1247305" d="M36.7,71.313a1.7,1.7,0,0,1-1.7-1.7V40.7a1.7,1.7,0,0,1,3.4,0V69.612a1.7,1.7,0,0,1-1.7,1.7Z" transform="translate(24.528 23.127)"/>
      <path id="Trazado_1247306" data-name="Trazado 1247306" d="M43.5,56.4H36.7a1.7,1.7,0,1,1,0-3.4H43.5a1.7,1.7,0,0,1,0,3.4Z" transform="translate(24.528 32.938)"/>
      <path id="Trazado_1247307" data-name="Trazado 1247307" d="M47.381,42.4H21.456a1.7,1.7,0,0,1,0-3.4H47.381a1.7,1.7,0,0,1,0,3.4Z" transform="translate(13.846 23.127)"/>
      <path id="Trazado_1247308" data-name="Trazado 1247308" d="M44.383,13.4H37.7a1.7,1.7,0,0,1,0-3.4h6.682a1.7,1.7,0,0,1,0,3.4Z" transform="translate(25.231 2.804)"/>
      <path id="Trazado_1247309" data-name="Trazado 1247309" d="M14.805,45.5a6.806,6.806,0,0,1-6.8-6.8,1.7,1.7,0,0,1,3.4,0,3.4,3.4,0,0,0,3.4,3.4,1.7,1.7,0,1,1,0,3.4Z" transform="translate(5.612 21.728)"/>
      <path id="Trazado_1247310" data-name="Trazado 1247310" d="M107.155,59.4H1.7a1.7,1.7,0,0,1,0-3.4H107.155a1.7,1.7,0,1,1,0,3.4Z" transform="translate(0 35.039)"/>
      <path id="Trazado_1247311" data-name="Trazado 1247311" d="M66.71,67.813H53.1a1.7,1.7,0,0,1-1.678-1.422l-3.4-20.417a1.7,1.7,0,0,1,1.678-1.98h20.41a1.7,1.7,0,0,1,1.678,1.98l-3.4,20.417a1.7,1.7,0,0,1-1.678,1.422Zm-12.165-3.4H65.269L68.1,47.4H51.71Z" transform="translate(33.642 26.628)"/>
      <path id="Trazado_1247312" data-name="Trazado 1247312" d="M72.514,49.492H48.7a1.7,1.7,0,0,1-1.7-1.7V42.7A1.7,1.7,0,0,1,48.7,41H72.514a1.7,1.7,0,0,1,1.7,1.7v5.088a1.7,1.7,0,0,1-1.7,1.7ZM50.4,46.091h20.41V44.4H50.4Z" transform="translate(32.941 24.531)"/>
      <path id="Trazado_1247313" data-name="Trazado 1247313" d="M66.711,41.621H53.1a5.108,5.108,0,0,1-5.1-5.1V33.1a5.108,5.108,0,0,1,5.1-5.1H66.711a5.108,5.108,0,0,1,5.1,5.1v3.422A5.108,5.108,0,0,1,66.711,41.621ZM53.1,31.4a1.7,1.7,0,0,0-1.7,1.7v3.422a1.7,1.7,0,0,0,1.7,1.7H66.711a1.7,1.7,0,0,0,1.7-1.7V33.1a1.7,1.7,0,0,0-1.7-1.7Z" transform="translate(33.642 15.414)"/>
      <path id="Trazado_1247314" data-name="Trazado 1247314" d="M66.711,44.609H53.1a5.108,5.108,0,0,1-5.1-5.1V32.683a1.7,1.7,0,0,1,3.4,0v6.823a1.7,1.7,0,0,0,1.7,1.7H66.711a1.7,1.7,0,0,0,1.7-1.7V32.683a1.7,1.7,0,0,1,3.4,0v6.823A5.108,5.108,0,0,1,66.711,44.609Z" transform="translate(33.642 17.508)"/>
      <path id="Trazado_1247315" data-name="Trazado 1247315" d="M22.725,47.4a1.7,1.7,0,1,1-.017-3.4h.017a1.7,1.7,0,0,1,0,3.4Z" transform="translate(14.729 26.628)"/>
      <path id="Trazado_1247316" data-name="Trazado 1247316" d="M27.725,23.4a1.7,1.7,0,1,1-.017-3.4h.017a1.7,1.7,0,0,1,0,3.4Z" transform="translate(18.233 9.807)"/>
      <path id="Trazado_1247317" data-name="Trazado 1247317" d="M15.725,14.4a1.7,1.7,0,1,1-.017-3.4h.017a1.7,1.7,0,1,1,0,3.4Z" transform="translate(9.823 3.499)"/>
      <path id="Trazado_1247318" data-name="Trazado 1247318" d="M33.725,47.4a1.7,1.7,0,1,1-.017-3.4h.017a1.7,1.7,0,0,1,0,3.4Z" transform="translate(22.439 26.628)"/>
      <path id="Trazado_1247319" data-name="Trazado 1247319" d="M27.7,57.2A1.7,1.7,0,0,1,26,55.5v-6.8a1.7,1.7,0,0,1,3.4,0v6.8a1.7,1.7,0,0,1-1.7,1.7Z" transform="translate(18.223 28.73)"/>
      <path id="Trazado_1247320" data-name="Trazado 1247320" d="M30.1,52.4H26.7a1.7,1.7,0,1,1,0-3.4h3.4a1.7,1.7,0,0,1,0,3.4Z" transform="translate(17.522 30.132)"/>
      <path id="Trazado_1247321" data-name="Trazado 1247321" d="M11.7,26.206a1.7,1.7,0,0,1-1.7-1.7V17.7a1.7,1.7,0,0,1,3.4,0v6.8a1.7,1.7,0,0,1-1.7,1.7Z" transform="translate(7.009 7.008)"/>
      <path id="Trazado_1247322" data-name="Trazado 1247322" d="M14.1,21.4H10.7a1.7,1.7,0,0,1,0-3.4h3.4a1.7,1.7,0,1,1,0,3.4Z" transform="translate(6.309 8.41)"/>
      <path id="Trazado_1247323" data-name="Trazado 1247323" d="M23.7,20.2A1.7,1.7,0,0,1,22,18.5v-6.8a1.7,1.7,0,1,1,3.4,0v6.8a1.7,1.7,0,0,1-1.7,1.7Z" transform="translate(15.42 2.798)"/>
      <path id="Trazado_1247324" data-name="Trazado 1247324" d="M26.1,15.4H22.7a1.7,1.7,0,0,1,0-3.4h3.4a1.7,1.7,0,0,1,0,3.4Z" transform="translate(14.719 4.2)"/>
    </g>
  </g>
</svg>
