<svg xmlns="http://www.w3.org/2000/svg" width="127" height="264.466" viewBox="0 0 127 264.466">
  <g id="Grupo_1213965" data-name="Grupo 1213965" transform="translate(-180.051 -14745.384)">
    <rect id="Rect치ngulo_411005" data-name="Rect치ngulo 411005" width="127" height="264.466" transform="translate(180.051 14745.384)" fill="#9f9d93"/>
    <g id="Grupo_1213703" data-name="Grupo 1213703" transform="translate(-252.449 10832)">
      <g id="Grupo_1213701" data-name="Grupo 1213701" transform="translate(443.701 4028.696)">
        <g id="Rect치ngulo_410589" data-name="Rect치ngulo 410589" fill="#93795a" stroke="#695640" stroke-width="1">
          <rect width="104.598" height="34.866" rx="8" stroke="none"/>
          <rect x="0.5" y="0.5" width="103.598" height="33.866" rx="7.5" fill="none"/>
        </g>
      </g>
      <g id="Layer_6" data-name="Layer 6" transform="translate(465.672 4003.108)">
        <path id="Trazado_1247134" data-name="Trazado 1247134" d="M53.306,15.4l.484-.969a14.652,14.652,0,0,0,1.546-6.551h0a14.64,14.64,0,0,0-.752-4.634L54.169,2h0a9.705,9.705,0,0,0-3.735,4.738L46,12.5l5.835,5.835" transform="translate(7.648 0.168)" fill="#7c6348"/>
        <path id="Trazado_1247135" data-name="Trazado 1247135" d="M49.1,10.252l-1.392-.836A9.946,9.946,0,0,0,42.6,8h0a9.951,9.951,0,0,0-3.692.71l-2.075.83a11.087,11.087,0,0,1-4.12.794h0A11.068,11.068,0,0,1,30.017,10l-3.341-.835,3.5,4.668-1.456.485a13.275,13.275,0,0,1-4.2.682h0a13.3,13.3,0,0,1-6.83-1.893L15,11.5l.817,2.437a8.766,8.766,0,0,0,6.185,5.733h0l-.294.368a14.571,14.571,0,0,1-11.376,5.468h0L15,29.007H10.82A3.985,3.985,0,0,1,8,27.84H8a3.985,3.985,0,0,0-2.817-1.167H2.167l4.217,5.27a2.067,2.067,0,0,1,.452,1.288h0a2.063,2.063,0,0,1-1.563,2l-3.106.776,2.409.964a7.952,7.952,0,0,1,4.594,4.871h0A10.906,10.906,0,0,1,3.6,44.826L1,45.346V58.183L50.016,26.673Z" transform="translate(0.13 1.17)" fill="#4c4c4c"/>
        <path id="Trazado_1247136" data-name="Trazado 1247136" d="M50.016,26.623,49.1,10.2l-1.392-.836A9.92,9.92,0,0,0,45.185,8.3a22.419,22.419,0,0,0-6.419,2.18l-1.167.608A55.87,55.87,0,0,0,9.535,45.933,26.12,26.12,0,0,0,1,52.158v5.975Z" transform="translate(0.13 1.22)" fill="#383838"/>
        <path id="Trazado_1247137" data-name="Trazado 1247137" d="M72.19,44.767A4.173,4.173,0,0,1,69.88,48.5l-2.6,1.307a10.012,10.012,0,0,1-4.423,1.039,4.662,4.662,0,0,1-4.668-4.668l-7-5.835a10.433,10.433,0,0,1-6.816-5.473l-1.354-2.7.549,1.926a46.085,46.085,0,0,1,1.786,12.733,46.27,46.27,0,0,1-2.379,14.641l-.55,1.674-.012.012.105.14a24.566,24.566,0,0,1,4,8.555H1V55.515l.747-.922A23.731,23.731,0,0,1,11.5,47.346,53.546,53.546,0,0,1,38.673,12.871l1.167-.607A20.024,20.024,0,0,1,49.071,10l8.811,1.47a10.549,10.549,0,0,1,4.248,4.762,22.028,22.028,0,0,1,1.891,8.94l1.867,3.361A31.443,31.443,0,0,1,69.7,40.787V40.8A4.415,4.415,0,0,1,72.19,44.767Z" transform="translate(0.13 1.504)" fill="#967a56"/>
        <path id="Trazado_1247138" data-name="Trazado 1247138" d="M69.2,40.8v-.012a31.443,31.443,0,0,0-3.816-12.254l-1.867-3.361a22.028,22.028,0,0,0-1.891-8.94,10.549,10.549,0,0,0-4.248-4.762L48.565,10a19.981,19.981,0,0,0-3.648.34,69.337,69.337,0,0,0-25.75,42.841h0A56.662,56.662,0,0,0,4.028,71.854H46.009a24.566,24.566,0,0,0-4-8.555l-.105-.14.012-.012.549-1.669a46.278,46.278,0,0,0,2.381-14.647A46.085,46.085,0,0,0,43.057,34.1l-.549-1.926,1.354,2.7a10.433,10.433,0,0,0,6.816,5.473l7,5.835a4.662,4.662,0,0,0,4.668,4.668,10.012,10.012,0,0,0,4.423-1.039l2.6-1.307a4.173,4.173,0,0,0,2.311-3.735A4.415,4.415,0,0,0,69.2,40.8Z" transform="translate(0.636 1.504)" fill="#b19367"/>
        <path id="Trazado_1247139" data-name="Trazado 1247139" d="M41,18.339l.934-5.135A15.657,15.657,0,0,1,50.336,2h0l.829,4.144A17.4,17.4,0,0,1,51.5,9.56h0a17.415,17.415,0,0,1-1.838,7.788l-.5.99" transform="translate(6.813 0.168)" fill="#b19367"/>
        <path id="Trazado_1247141" data-name="Trazado 1247141" d="M50.33,6.144,49.5,2,47.043,6.914a9.892,9.892,0,0,0,0,8.844l1.291,2.58.5-.991a17.414,17.414,0,0,0,1.5-11.2Z" transform="translate(7.648 0.168)" fill="#967a56"/>
        <path id="Trazado_1247143" data-name="Trazado 1247143" d="M25.465,63.748A17.307,17.307,0,0,1,15.326,49.89l-2.32.257A19.657,19.657,0,0,0,23.133,65.19h6.835l-3.728-1.1Z" transform="translate(2.136 8.168)" fill="#967a56"/>
        <path id="Trazado_1247146" data-name="Trazado 1247146" d="M24.517,65.88l.846.377.948-2.133-.845-.376A17.307,17.307,0,0,1,15.326,49.89l-2.32.257A19.652,19.652,0,0,0,24.517,65.88Z" transform="translate(2.136 8.168)"/>
        <path id="Trazado_1247148" data-name="Trazado 1247148" d="M70.92,41.578a32.51,32.51,0,0,0-3.88-12.1L65.318,26.37a22.991,22.991,0,0,0-1.994-9.1,11.6,11.6,0,0,0-1.015-1.8l.175-.35a15.815,15.815,0,0,0,.859-12.073L62.927,1.8a1.167,1.167,0,0,0-1.751-.6A10.835,10.835,0,0,0,58.62,3.568l-.327-1.634a1.167,1.167,0,0,0-1.665-.817A16.9,16.9,0,0,0,48.64,9.7l-.2-.117A11.232,11.232,0,0,0,38.593,8.8l-2.075.83a9.939,9.939,0,0,1-6.092.413l-3.338-.836a1.167,1.167,0,0,0-1.216,1.832L28.4,14.41a12.221,12.221,0,0,1-9.984-1.131l-2.684-1.608a1.167,1.167,0,0,0-1.707,1.369l.817,2.437a9.877,9.877,0,0,0,5.305,5.9,13.324,13.324,0,0,1-9.681,4.13,1.167,1.167,0,0,0-.7,2.1l1.867,1.4H10.95a2.8,2.8,0,0,1-1.992-.826,5.12,5.12,0,0,0-3.642-1.508H2.3a1.167,1.167,0,0,0-.911,1.9L5.6,33.843A.9.9,0,0,1,5.12,35.27l-3.106.777a1.167,1.167,0,0,0-.151,2.217l2.408.964A6.769,6.769,0,0,1,7.923,42.7,9.692,9.692,0,0,1,3.5,44.852l-2.6.521.467,2.287,2.6-.519a12.021,12.021,0,0,0,6.167-3.3,1.167,1.167,0,0,0,.282-1.194,9.1,9.1,0,0,0-4.427-5.2A3.23,3.23,0,0,0,7.43,32.384L4.725,29.01h.591a2.8,2.8,0,0,1,1.992.826,5.12,5.12,0,0,0,3.642,1.508h4.185a1.167,1.167,0,0,0,.7-2.1l-2.272-1.7a15.647,15.647,0,0,0,9.192-5.6l.294-.366a1.167,1.167,0,0,0-.629-1.861,7.557,7.557,0,0,1-5.148-4.394A14.588,14.588,0,0,0,29.219,16.6l1.456-.485a1.167,1.167,0,0,0,.565-1.809l-1.529-2.039.155.04a12.309,12.309,0,0,0,7.524-.511l2.075-.83a8.863,8.863,0,0,1,5.773-.245,21.221,21.221,0,0,0-5.808,2.013l-1.167.612A54.727,54.727,0,0,0,10.648,48,25.071,25.071,0,0,0,.961,55.364L.22,56.29l1.823,1.459.742-.934a22.709,22.709,0,0,1,9.283-6.886,1.167,1.167,0,0,0,.7-.8A52.382,52.382,0,0,1,39.34,15.415l1.167-.612A18.882,18.882,0,0,1,47.7,12.74c-.03.142-.077.279-.1.422L46.66,18.3l2.294.418.934-5.135a14.561,14.561,0,0,1,4.121-7.754l-.361.734a11.054,11.054,0,0,0,0,9.887l1.284,2.58a1.167,1.167,0,0,0,2.089,0l.495-.991a18.491,18.491,0,0,0,1.19-3.127,9.277,9.277,0,0,1,2.477,3.305,20.7,20.7,0,0,1,1.622,5.89l-.186,2.754q.312.26.6.546L65,30.6a30.188,30.188,0,0,1,3.47,10.131c-.189-.019-.375-.055-.567-.055H66.485v2.334H67.9a3.255,3.255,0,0,1,3.256,3.257,2.985,2.985,0,0,1-1.661,2.684L67.267,50.07l-2.182.85a8.7,8.7,0,0,1-2.1.265,3.5,3.5,0,0,1-3.5-3.5,1.167,1.167,0,0,0-.419-.9l-7-5.835a1.16,1.16,0,0,0-.467-.233,9.283,9.283,0,0,1-6.058-4.861l-1.342-2.7A1.167,1.167,0,0,0,42.027,34l.552,1.933a45.12,45.12,0,0,1,1.732,12.4,45.039,45.039,0,0,1-2.161,13.779,25.5,25.5,0,0,1-4.842-14.986,40.5,40.5,0,0,1,.784-7.916l.359-1.8-2.287-.467-.361,1.8a42.723,42.723,0,0,0-.83,8.378A27.825,27.825,0,0,0,40.331,63.6l1.375,1.889a23.494,23.494,0,0,1,3.808,8.155l2.264-.565a25.792,25.792,0,0,0-3.945-8.6l.375-1.125a47.382,47.382,0,0,0,2.438-15.018,47.428,47.428,0,0,0-.7-8.1,11.643,11.643,0,0,0,4.816,2.684l6.411,5.342a5.845,5.845,0,0,0,5.812,5.26,11.112,11.112,0,0,0,4.944-1.167l2.61-1.3a5.308,5.308,0,0,0,2.95-4.774,5.554,5.554,0,0,0-1.634-3.957A5.646,5.646,0,0,0,70.92,41.578ZM55.955,15.841l-.219-.436a8.72,8.72,0,0,1,0-7.8l.934-1.867.161.81a16.181,16.181,0,0,1,.319,3.181,16.357,16.357,0,0,1-1.194,6.113Zm3.305-3.416a18.492,18.492,0,0,0,.223-2.7,18.58,18.58,0,0,0-.21-2.633,8.488,8.488,0,0,1,1.961-2.964,13.335,13.335,0,0,1-.607,9.4,11.586,11.586,0,0,0-1.367-1.1Z" transform="translate(0)"/>
      </g>
    </g>
  </g>
</svg>
