<svg xmlns="http://www.w3.org/2000/svg" width="127" height="197.729" viewBox="0 0 127 197.729">
  <g id="Grupo_1213968" data-name="Grupo 1213968" transform="translate(-181.013 -16632.117)">
    <rect id="Rect치ngulo_411026" data-name="Rect치ngulo 411026" width="127" height="197.728" transform="translate(181.013 16632.117)" fill="#4d9686"/>
    <g id="Grupo_1213967" data-name="Grupo 1213967" transform="translate(194.051 16721)">
      <g id="Rect치ngulo_410589" data-name="Rect치ngulo 410589" fill="#60a697" stroke="#295e52" stroke-width="1">
        <rect width="104.598" height="34.866" rx="8" stroke="none"/>
        <rect x="0.5" y="0.5" width="103.598" height="33.866" rx="7.5" fill="none"/>
      </g>
    </g>
    <g id="planning_5284352" transform="translate(208.051 16700)">
      <g id="Grupo_1213896" data-name="Grupo 1213896" transform="translate(1.232 1.232)">
        <g id="Grupo_1213883" data-name="Grupo 1213883" transform="translate(32.037 4.929)">
          <path id="Trazado_1248954" data-name="Trazado 1248954" d="M44.251,23.988v8.12H39.322V11.161A1.236,1.236,0,0,0,38.09,9.929H27a2.472,2.472,0,0,0,2.464-2.464V5H41.786a2.472,2.472,0,0,1,2.464,2.464V23.988Z" transform="translate(-27 -5)" fill="#cf9e76"/>
        </g>
        <g id="Grupo_1213884" data-name="Grupo 1213884" transform="translate(0 4.929)">
          <path id="Trazado_1248955" data-name="Trazado 1248955" d="M15.786,9.929H7.161a1.236,1.236,0,0,0-1.232,1.232V67.842a1.236,1.236,0,0,0,1.232,1.232H44.127a1.236,1.236,0,0,0,1.232-1.232V41.966h4.929V71.539A2.472,2.472,0,0,1,47.824,74H3.464A2.472,2.472,0,0,1,1,71.539V7.464A2.472,2.472,0,0,1,3.464,5h9.858V7.464A2.472,2.472,0,0,0,15.786,9.929Z" transform="translate(-1 -5)" fill="#cf9e76"/>
        </g>
        <g id="Grupo_1213885" data-name="Grupo 1213885" transform="translate(12.322)">
          <path id="Trazado_1248956" data-name="Trazado 1248956" d="M33.18,5.929V8.393a2.472,2.472,0,0,1-2.464,2.464H13.464A2.472,2.472,0,0,1,11,8.393V3.464A2.472,2.472,0,0,1,13.464,1H30.715A2.472,2.472,0,0,1,33.18,3.464Z" transform="translate(-11 -1)" fill="#b4dd7f"/>
        </g>
        <g id="Grupo_1213886" data-name="Grupo 1213886" transform="translate(4.929 9.858)">
          <path id="Trazado_1248957" data-name="Trazado 1248957" d="M43.2,9H6.232A1.236,1.236,0,0,0,5,10.232V66.913a1.236,1.236,0,0,0,1.232,1.232H43.2a1.236,1.236,0,0,0,1.232-1.232V10.232A1.236,1.236,0,0,0,43.2,9Z" transform="translate(-5 -9)" fill="#e6e9ed"/>
        </g>
        <g id="Grupo_1213887" data-name="Grupo 1213887" transform="translate(24.644 46.824)">
          <path id="Trazado_1248958" data-name="Trazado 1248958" d="M33.322,40.232v4.929a1.236,1.236,0,0,1-1.232,1.232H22.232A1.236,1.236,0,0,1,21,45.161V40.232A1.236,1.236,0,0,1,22.232,39H32.09A1.236,1.236,0,0,1,33.322,40.232Z" transform="translate(-21 -39)" fill="#ffeaa7"/>
        </g>
        <g id="Grupo_1213888" data-name="Grupo 1213888" transform="translate(12.322 32.037)">
          <path id="Trazado_1248959" data-name="Trazado 1248959" d="M23.322,28.232v4.929a1.236,1.236,0,0,1-1.232,1.232H12.232A1.236,1.236,0,0,1,11,33.161V28.232A1.236,1.236,0,0,1,12.232,27H22.09A1.236,1.236,0,0,1,23.322,28.232Z" transform="translate(-11 -27)" fill="#ffeaa7"/>
        </g>
        <g id="Grupo_1213889" data-name="Grupo 1213889" transform="translate(12.322 17.251)">
          <path id="Trazado_1248960" data-name="Trazado 1248960" d="M33.18,16.232v4.929a1.236,1.236,0,0,1-1.232,1.232H12.232A1.236,1.236,0,0,1,11,21.161V16.232A1.236,1.236,0,0,1,12.232,15H31.947A1.236,1.236,0,0,1,33.18,16.232Z" transform="translate(-11 -15)" fill="#ffeaa7"/>
        </g>
        <g id="Grupo_1213890" data-name="Grupo 1213890" transform="translate(27.108 34.144)">
          <path id="Trazado_1248961" data-name="Trazado 1248961" d="M27.929,28.71v5.643L23,31.532Z" transform="translate(-23 -28.71)" fill="#969faa"/>
        </g>
        <g id="Grupo_1213891" data-name="Grupo 1213891" transform="translate(36.966 36.966)">
          <path id="Trazado_1248962" data-name="Trazado 1248962" d="M48.251,31v4.929H31V31Z" transform="translate(-31 -31)" fill="#75b1f2"/>
        </g>
        <g id="Grupo_1213892" data-name="Grupo 1213892" transform="translate(36.966 32.037)">
          <path id="Trazado_1248963" data-name="Trazado 1248963" d="M48.251,27v4.929H31V27H48.251Z" transform="translate(-31 -27)" fill="#ff826e"/>
        </g>
        <g id="Grupo_1213893" data-name="Grupo 1213893" transform="translate(54.217 32.037)">
          <path id="Trazado_1248964" data-name="Trazado 1248964" d="M47.464,27a4.929,4.929,0,1,1,0,9.858H45V27Z" transform="translate(-45 -27)" fill="#ccd1d9"/>
        </g>
        <g id="Grupo_1213894" data-name="Grupo 1213894" transform="translate(32.037 32.037)">
          <path id="Trazado_1248965" data-name="Trazado 1248965" d="M31.929,31.929v4.929H31.35a2.47,2.47,0,0,1-1.22-.32L27,34.751V29.107l3.13-1.787A2.47,2.47,0,0,1,31.35,27h.579Z" transform="translate(-27 -27)" fill="#ccd1d9"/>
        </g>
        <g id="Grupo_1213895" data-name="Grupo 1213895" transform="translate(49.288 16.019)">
          <path id="Trazado_1248966" data-name="Trazado 1248966" d="M65.644,31.251v7.393H63.093a1.235,1.235,0,0,0-.616,2.3l2.206,1.269-3.7,6.407-2.206-1.281a1.236,1.236,0,0,0-1.688,1.688l1.281,2.206-6.407,3.7L50.7,52.728a1.235,1.235,0,0,0-2.3.616v2.551H41V48a13.554,13.554,0,1,0,0-26.1V14h7.393v2.551a1.235,1.235,0,0,0,2.3.616l1.269-2.206,6.407,3.7-1.281,2.206a1.236,1.236,0,0,0,1.688,1.688l2.206-1.281,3.7,6.407-2.206,1.269a1.235,1.235,0,0,0,.616,2.3Z" transform="translate(-41 -14)" fill="#fcd770"/>
        </g>
      </g>
      <g id="Grupo_1213897" data-name="Grupo 1213897">
        <path id="Trazado_1248967" data-name="Trazado 1248967" d="M16,4h2.464V6.464H16Z" transform="translate(3.715 0.929)"/>
        <path id="Trazado_1248968" data-name="Trazado 1248968" d="M22,4h2.464V6.464H22Z" transform="translate(5.108 0.929)"/>
        <path id="Trazado_1248969" data-name="Trazado 1248969" d="M48,56h2.464v2.464H48Z" transform="translate(11.146 13.003)"/>
        <path id="Trazado_1248970" data-name="Trazado 1248970" d="M52,56h2.464v2.464H52Z" transform="translate(12.074 13.003)"/>
        <path id="Trazado_1248971" data-name="Trazado 1248971" d="M56,56h2.464v2.464H56Z" transform="translate(13.003 13.003)"/>
        <path id="Trazado_1248972" data-name="Trazado 1248972" d="M8,48h4.929v2.464H8Z" transform="translate(1.858 11.146)"/>
        <path id="Trazado_1248973" data-name="Trazado 1248973" d="M14,48h7.393v2.464H14Z" transform="translate(3.251 11.146)"/>
        <path id="Trazado_1248974" data-name="Trazado 1248974" d="M8,52H22.786v2.464H8Z" transform="translate(1.858 12.074)"/>
        <path id="Trazado_1248975" data-name="Trazado 1248975" d="M76.4,33.269H72.611l3.279-1.893-4.929-8.538-3.279,1.893,1.893-3.279-8.538-4.929L59.146,19.8V16.019H51.752V8.625a3.7,3.7,0,0,0-3.7-3.7H36.966V3.7a3.7,3.7,0,0,0-3.7-3.7H16.019a3.7,3.7,0,0,0-3.7,3.7V4.929H3.7A3.7,3.7,0,0,0,0,8.625V72.7a3.7,3.7,0,0,0,3.7,3.7H48.056a3.7,3.7,0,0,0,3.7-3.7V60.378h7.393V56.593l1.893,3.279,8.538-4.929-1.893-3.279,3.279,1.893,4.929-8.538-3.28-1.891H76.4ZM16.019,12.322H44.359V32.037H37.62a3.688,3.688,0,0,0-1.834.488l-8.678,4.958V34.5a2.467,2.467,0,0,0-2.464-2.464H22.18V27.108H34.5a2.467,2.467,0,0,0,2.464-2.464V19.715A2.467,2.467,0,0,0,34.5,17.251H14.786a2.467,2.467,0,0,0-2.464,2.464v4.929a2.467,2.467,0,0,0,2.464,2.464h4.929v4.929H14.786A2.467,2.467,0,0,0,12.322,34.5V39.43a2.467,2.467,0,0,0,2.464,2.464h4.929v7.393a2.467,2.467,0,0,0,2.464,2.464h2.464v2.464a2.467,2.467,0,0,0,2.464,2.464h9.858a2.467,2.467,0,0,0,2.464-2.464V49.288a2.467,2.467,0,0,0-2.464-2.464H27.108a2.467,2.467,0,0,0-2.464,2.464H22.18V41.895h2.464a2.467,2.467,0,0,0,2.464-2.464v-.518l8.677,4.958a3.7,3.7,0,0,0,1.835.488h6.739V69H7.393V12.322Zm38.2,22.18v2.464H39.43V34.5Zm2.464,0h1.232a3.7,3.7,0,0,1,0,7.393H56.681ZM30.825,38.2l1.212-.692v1.386ZM34.5,36.1l2.464-1.408v7.019L34.5,40.3ZM14.786,39.43V34.5h9.858V39.43Zm0-14.786V19.715H34.5v4.929ZM27.108,54.217V49.288h9.858v4.929ZM39.43,41.895V39.43H54.217v2.464Zm12.322,2.464h6.161a6.161,6.161,0,1,0,0-12.322H51.752V26.152a12.323,12.323,0,1,1,0,24.092Zm-3.7-36.966a1.234,1.234,0,0,1,1.232,1.232V32.037H46.824V12.322a2.467,2.467,0,0,0-2.464-2.464h-7.62a3.655,3.655,0,0,0,.227-1.232V7.393ZM14.786,3.7a1.234,1.234,0,0,1,1.232-1.232H33.269A1.234,1.234,0,0,1,34.5,3.7V8.625a1.234,1.234,0,0,1-1.232,1.232H16.019a1.234,1.234,0,0,1-1.232-1.232ZM48.056,73.932H3.7A1.234,1.234,0,0,1,2.464,72.7V8.625A1.234,1.234,0,0,1,3.7,7.393h8.625V8.625a3.655,3.655,0,0,0,.227,1.232H7.393a2.467,2.467,0,0,0-2.464,2.464V69a2.467,2.467,0,0,0,2.464,2.464H44.359A2.467,2.467,0,0,0,46.824,69V44.359h2.464V72.7A1.234,1.234,0,0,1,48.056,73.932ZM73.932,40.663H72.611a2.464,2.464,0,0,0-1.232,4.6l1.143.66L70.058,50.19l-1.145-.66A2.464,2.464,0,0,0,65.547,52.9l.66,1.143L61.939,56.5l-.66-1.143a2.463,2.463,0,0,0-4.6,1.232v1.321H51.752V52.771a14.965,14.965,0,0,0,2.464.213,14.786,14.786,0,0,0,0-29.573,14.965,14.965,0,0,0-2.464.213V18.483h4.929V19.8a2.464,2.464,0,0,0,4.6,1.232l.66-1.143,4.268,2.464-.66,1.145a2.464,2.464,0,0,0,3.366,3.366l1.143-.66,2.464,4.268-1.143.66a2.463,2.463,0,0,0,1.232,4.6h1.321Z"/>
      </g>
    </g>
  </g>
</svg>
