<svg xmlns="http://www.w3.org/2000/svg" width="145.631" height="88.091" viewBox="0 0 145.631 88.091">
  <g id="Grupo_1213228" data-name="Grupo 1213228" transform="translate(-312.781 -3863.558)">
    <g id="Grupo_1201016" data-name="Grupo 1201016">
      <g id="Rectángulo_410589" data-name="Rectángulo 410589" transform="translate(312.781 3886.804)" fill="#93795a" stroke="#695640" stroke-width="1">
        <rect width="145.631" height="48.544" rx="8" stroke="none"/>
        <rect x="0.5" y="0.5" width="144.631" height="47.544" rx="7.5" fill="none"/>
      </g>
    </g>
    <g id="vaccine_2811579" transform="translate(344.781 3863.558)">
      <circle id="Elipse_12437" data-name="Elipse 12437" cx="7" cy="7" r="7" transform="translate(74 7.09)" fill="#ffd56c"/>
      <circle id="Elipse_12438" data-name="Elipse 12438" cx="7" cy="7" r="7" transform="translate(37 0.09)" fill="#ffd56c"/>
      <ellipse id="Elipse_12439" data-name="Elipse 12439" cx="4" cy="4.5" rx="4" ry="4.5" transform="translate(50 16.09)" fill="#ffd56c"/>
      <path id="Trazado_1249040" data-name="Trazado 1249040" d="M65.528,60.376v2.753a1.38,1.38,0,0,1-1.376,1.376H39.376A1.38,1.38,0,0,1,38,63.129V60.376A1.38,1.38,0,0,1,39.376,59H64.152A1.38,1.38,0,0,1,65.528,60.376Z" transform="translate(14.304 22.209)" fill="#eceded"/>
      <path id="Trazado_1249041" data-name="Trazado 1249041" d="M65.528,60.376v2.753a1.38,1.38,0,0,1-1.376,1.376H39.376A1.38,1.38,0,0,1,38,63.129V61.753H60.023A1.38,1.38,0,0,0,61.4,60.376V59h2.753A1.38,1.38,0,0,1,65.528,60.376Z" transform="translate(14.304 22.209)" fill="#d3d3d3"/>
      <path id="Trazado_1249042" data-name="Trazado 1249042" d="M55.506,42V53.011a1.38,1.38,0,0,1-1.376,1.376H50V42Z" transform="translate(18.821 15.81)" fill="#d3d3d3"/>
      <path id="Trazado_1249043" data-name="Trazado 1249043" d="M58.517,38v5.506H42V38Z" transform="translate(15.81 14.304)" fill="#eceded"/>
      <path id="Trazado_1249044" data-name="Trazado 1249044" d="M58.517,28.506V43.646H42V24.376A1.38,1.38,0,0,1,43.376,23H57.141a1.38,1.38,0,0,1,1.376,1.376Z" transform="translate(15.81 8.658)" fill="#fc7963"/>
      <path id="Trazado_1249045" data-name="Trazado 1249045" d="M58.517,24.376v19.27H42v-.688a4.817,4.817,0,0,1,4.817-4.817,4.817,4.817,0,0,0,4.817-4.817V27.817A4.817,4.817,0,0,1,56.452,23h.688A1.38,1.38,0,0,1,58.517,24.376Z" transform="translate(15.81 8.658)" fill="#f94f33"/>
      <path id="Trazado_1249046" data-name="Trazado 1249046" d="M53.259,16.376v9.635H45V16.376A1.38,1.38,0,0,1,46.376,15h5.506A1.38,1.38,0,0,1,53.259,16.376Z" transform="translate(16.939 5.646)" fill="#eceded"/>
      <path id="Trazado_1249047" data-name="Trazado 1249047" d="M53.259,16.376v9.635H45V23.947a2.065,2.065,0,0,1,2.065-2.065,2.065,2.065,0,0,0,2.065-2.065V17.065A2.065,2.065,0,0,1,51.194,15h.688A1.38,1.38,0,0,1,53.259,16.376Z" transform="translate(16.939 5.646)" fill="#d3d3d3"/>
      <path id="Trazado_1249048" data-name="Trazado 1249048" d="M46,51h5.506V62.011H46Z" transform="translate(17.315 19.197)" fill="#686868"/>
      <path id="Trazado_1249049" data-name="Trazado 1249049" d="M46,42h5.506V54.388H46Z" transform="translate(17.315 15.81)" fill="#686868"/>
      <path id="Trazado_1249050" data-name="Trazado 1249050" d="M51.506,51V62.011H46V59.259a1.377,1.377,0,0,1,1.376-1.376,1.377,1.377,0,0,0,1.376-1.376V51Z" transform="translate(17.315 19.197)" fill="#4e4e4e"/>
      <path id="Trazado_1249051" data-name="Trazado 1249051" d="M48,42h2.753V54.388H48Z" transform="translate(18.068 15.81)" fill="#4e4e4e"/>
      <path id="Trazado_1249052" data-name="Trazado 1249052" d="M47.506,42V54.388H43.376A1.38,1.38,0,0,1,42,53.011V42Z" transform="translate(15.81 15.81)" fill="#eceded"/>
      <path id="Trazado_1249053" data-name="Trazado 1249053" d="M34.034,31H6.506A5.5,5.5,0,0,0,1,36.506V69.54a5.5,5.5,0,0,0,5.506,5.506H34.034A5.5,5.5,0,0,0,39.54,69.54V36.506A5.5,5.5,0,0,0,34.034,31ZM27.083,59.836A9.637,9.637,0,1,1,29.9,53.023,9.578,9.578,0,0,1,27.083,59.836Z" transform="translate(0.376 11.669)" fill="#eceded"/>
      <path id="Trazado_1249054" data-name="Trazado 1249054" d="M39.54,36.506V69.54a5.5,5.5,0,0,1-5.506,5.506H6.506A5.5,5.5,0,0,1,1,69.54V68.163H19.582A13.07,13.07,0,0,0,32.658,55.087V45.563A9.064,9.064,0,0,0,23.6,36.506H1A5.5,5.5,0,0,1,6.506,31H34.034A5.5,5.5,0,0,1,39.54,36.506Z" transform="translate(0.376 11.669)" fill="#d3d3d3"/>
      <path id="Trazado_1249055" data-name="Trazado 1249055" d="M34.281,21v2.753a2.761,2.761,0,0,1-2.753,2.753H6.753A2.761,2.761,0,0,1,4,23.753V21Z" transform="translate(1.506 7.905)" fill="#686868"/>
      <path id="Trazado_1249056" data-name="Trazado 1249056" d="M34.281,20.753v1.376H4V20.753A2.761,2.761,0,0,1,6.753,18H31.528A2.761,2.761,0,0,1,34.281,20.753Z" transform="translate(1.506 6.776)" fill="#fc7963"/>
      <path id="Trazado_1249057" data-name="Trazado 1249057" d="M7,25H29.023v8.259H7Z" transform="translate(2.635 9.41)" fill="#686868"/>
      <path id="Trazado_1249058" data-name="Trazado 1249058" d="M29.023,25v8.259H25.582a2.065,2.065,0,0,1-2.065-2.065,2.065,2.065,0,0,0-2.065-2.065H9.065A2.065,2.065,0,0,1,7,27.065V25Z" transform="translate(2.635 9.41)" fill="#4e4e4e"/>
      <path id="Trazado_1249059" data-name="Trazado 1249059" d="M24.448,42.822A9.637,9.637,0,1,1,17.635,40,9.578,9.578,0,0,1,24.448,42.822Zm-1.308,6.813a5.506,5.506,0,1,0-5.506,5.506A5.5,5.5,0,0,0,23.141,49.635Z" transform="translate(3.011 15.057)" fill="#fc7963"/>
      <circle id="Elipse_12440" data-name="Elipse 12440" cx="5.5" cy="5.5" r="5.5" transform="translate(15 59.09)" fill="#f94f33"/>
      <g id="Grupo_1213970" data-name="Grupo 1213970">
        <circle id="Elipse_12441" data-name="Elipse 12441" cx="1.5" cy="1.5" r="1.5" transform="translate(0 52.09)" fill="#33293f"/>
        <circle id="Elipse_12442" data-name="Elipse 12442" cx="1.5" cy="1.5" r="1.5" transform="translate(15 59.09)" fill="#33293f"/>
        <ellipse id="Elipse_12443" data-name="Elipse 12443" cx="1" cy="1.5" rx="1" ry="1.5" transform="translate(61 26.09)" fill="#33293f"/>
        <g id="Grupo_1213969" data-name="Grupo 1213969">
          <path id="Trazado_1249060" data-name="Trazado 1249060" d="M6.882,86.962H34.41a6.89,6.89,0,0,0,6.882-6.882V47.046a6.89,6.89,0,0,0-6.882-6.882H33.034V34.658a4.134,4.134,0,0,0,4.129-4.129V26.4a4.134,4.134,0,0,0-4.129-4.129H22.023V9.882h9.635a1.376,1.376,0,0,0,.973-2.35L28.5,3.4A1.376,1.376,0,0,0,26.555,5.35l1.78,1.78H20.646A1.376,1.376,0,0,0,19.27,8.506V22.27H8.259A4.134,4.134,0,0,0,4.129,26.4v4.129a4.134,4.134,0,0,0,4.129,4.129H30.281v5.506H11.011V38.787a1.376,1.376,0,0,0-2.753,0v1.376H6.882A6.89,6.89,0,0,0,0,47.046a1.376,1.376,0,0,0,2.753,0,4.134,4.134,0,0,1,4.129-4.129H34.41a4.134,4.134,0,0,1,4.129,4.129V80.08a4.134,4.134,0,0,1-4.129,4.129H6.882A4.134,4.134,0,0,1,2.753,80.08V58.057a1.376,1.376,0,0,0-2.753,0V80.08A6.89,6.89,0,0,0,6.882,86.962ZM8.259,25.023H33.034A1.378,1.378,0,0,1,34.41,26.4H6.882A1.378,1.378,0,0,1,8.259,25.023ZM6.882,30.528V29.152H34.41v1.376A1.378,1.378,0,0,1,33.034,31.9H8.259A1.378,1.378,0,0,1,6.882,30.528Z" transform="translate(0 1.129)"/>
          <path id="Trazado_1249061" data-name="Trazado 1249061" d="M47.141,30.281a2.756,2.756,0,0,0-2.753,2.753v28.9H33.376a1.376,1.376,0,0,0-.973,2.35l4.129,4.129a1.376,1.376,0,1,0,1.946-1.946l-1.78-1.78h7.689v4.129a2.756,2.756,0,0,0,2.753,2.753h2.753v8.259H41.635a2.756,2.756,0,0,0-2.753,2.753v2.753a2.756,2.756,0,0,0,2.753,2.753H66.411a2.756,2.756,0,0,0,2.753-2.753V82.585a2.756,2.756,0,0,0-2.753-2.753H58.152V71.574H60.9a2.756,2.756,0,0,0,2.753-2.753V33.034A2.756,2.756,0,0,0,60.9,30.281H59.528V22.023a2.756,2.756,0,0,0-2.753-2.753H55.4V1.376a1.376,1.376,0,0,0-2.753,0V19.27H51.27a2.756,2.756,0,0,0-2.753,2.753V23.4a1.376,1.376,0,1,0,2.753,0V22.023h5.506v8.259Zm0,38.54V59.186h2.753v9.635ZM55.4,59.186v9.635H52.646V59.186ZM66.411,85.338H41.635V82.585H66.411ZM55.4,79.832H52.646V71.574H55.4Zm2.753-11.011V59.186h2.754v9.635ZM60.9,35.787H58.152a1.376,1.376,0,1,0,0,2.753H60.9v2.753H55.4a1.376,1.376,0,1,0,0,2.753H60.9V46.8H58.152a1.376,1.376,0,1,0,0,2.753H60.9v1.376H55.4a1.376,1.376,0,0,0,0,2.753H60.9v2.753H47.141V53.68h2.753a1.376,1.376,0,0,0,0-2.753H47.141V33.034H60.9Z" transform="translate(12.045)"/>
          <path id="Trazado_1249062" data-name="Trazado 1249062" d="M36,16.129a1.376,1.376,0,0,0,1.376,1.376,1.259,1.259,0,0,1,1.376,1.376s0,0,0,.007a0,0,0,0,0,0,.006h0a1.377,1.377,0,0,0,2.753,0,1.264,1.264,0,0,1,1.376-1.39,1.376,1.376,0,0,0,0-2.753,1.259,1.259,0,0,1-1.376-1.376v-.012h0a1.377,1.377,0,0,0-2.753,0,1.264,1.264,0,0,1-1.376,1.39A1.376,1.376,0,0,0,36,16.129Z" transform="translate(13.551 4.517)"/>
          <path id="Trazado_1249063" data-name="Trazado 1249063" d="M5.753,50.141a1.376,1.376,0,0,0-2.753,0v2.753a1.376,1.376,0,0,0,2.753,0H8.6a10.947,10.947,0,0,0,2.228,5.364L7.837,61.25A1.376,1.376,0,1,0,9.783,63.2L12.774,60.2a10.947,10.947,0,0,0,5.365,2.228v2.849a1.376,1.376,0,0,0,0,2.753h2.753a1.376,1.376,0,1,0,0-2.753V62.433A10.947,10.947,0,0,0,26.257,60.2L29.248,63.2a1.376,1.376,0,1,0,1.946-1.946L28.2,58.259a10.947,10.947,0,0,0,2.228-5.364h2.851a1.376,1.376,0,0,0,2.753,0V50.142a1.376,1.376,0,1,0-2.753,0H30.433A10.947,10.947,0,0,0,28.2,44.778L31.2,41.786a1.376,1.376,0,0,0-1.946-1.946L26.26,42.832A10.947,10.947,0,0,0,20.895,40.6V37.753a1.376,1.376,0,1,0,0-2.753H18.142a1.376,1.376,0,0,0,0,2.753V40.6a10.947,10.947,0,0,0-5.365,2.228L9.786,39.837a1.376,1.376,0,1,0-1.946,1.946l2.992,2.992A10.947,10.947,0,0,0,8.6,50.139H5.753Zm13.764-6.882a8.259,8.259,0,1,1-8.259,8.259A8.267,8.267,0,0,1,19.517,43.259Z" transform="translate(1.129 13.175)" fill="#33293f"/>
          <path id="Trazado_1249064" data-name="Trazado 1249064" d="M16.882,55.764a6.882,6.882,0,0,0,0-13.764,1.376,1.376,0,0,0,0,2.753,4.129,4.129,0,1,1-4.129,4.129,1.376,1.376,0,1,0-2.753,0A6.89,6.89,0,0,0,16.882,55.764Z" transform="translate(3.764 15.81)" fill="#33293f"/>
          <path id="Trazado_1249065" data-name="Trazado 1249065" d="M28.376,8.259h1.032a3.1,3.1,0,0,1,3.1,3.1v1.032a1.376,1.376,0,1,0,2.753,0V11.355a3.1,3.1,0,0,1,3.1-3.1h1.032a1.376,1.376,0,1,0,0-2.753H38.355a3.1,3.1,0,0,1-3.1-3.1V1.376a1.376,1.376,0,1,0-2.753,0V2.409a3.1,3.1,0,0,1-3.1,3.1H28.376a1.376,1.376,0,1,0,0,2.753Zm5.506-2.084a5.833,5.833,0,0,0,.709.707,5.833,5.833,0,0,0-.709.707,5.833,5.833,0,0,0-.709-.707A5.833,5.833,0,0,0,33.882,6.175Z" transform="translate(10.163)"/>
          <path id="Trazado_1249066" data-name="Trazado 1249066" d="M66.388,10.506H65.355a3.1,3.1,0,0,1-3.1-3.1V6.376a1.376,1.376,0,0,0-2.753,0V7.409a3.1,3.1,0,0,1-3.1,3.1H55.376a1.376,1.376,0,1,0,0,2.753h1.032a3.1,3.1,0,0,1,3.1,3.1v1.032a1.376,1.376,0,1,0,2.753,0V16.355a3.1,3.1,0,0,1,3.1-3.1h1.032a1.376,1.376,0,1,0,0-2.753ZM60.882,12.59a5.736,5.736,0,0,0-.709-.707,5.833,5.833,0,0,0,.709-.707,5.736,5.736,0,0,0,.709.707A5.833,5.833,0,0,0,60.882,12.59Z" transform="translate(20.327 1.882)"/>
        </g>
      </g>
    </g>
  </g>
</svg>
