<svg xmlns="http://www.w3.org/2000/svg" width="127" height="231.563" viewBox="0 0 127 231.563">
  <g id="Grupo_1213958" data-name="Grupo 1213958" transform="translate(-181.013 -11106)">
    <rect id="Rectángulo_410966" data-name="Rectángulo 410966" width="127" height="231.564" transform="translate(181.013 11106)" fill="#4d9686"/>
    <g id="Page-1" transform="translate(208.452 11186.402)">
      <g id="_025---Electrodes" data-name="025---Electrodes">
        <g id="Icons" transform="translate(1.439 1.187)">
          <path id="Shape" d="M32.746,20H58.852A4.746,4.746,0,0,1,63.6,24.746V47.292a17.8,17.8,0,0,1-35.6,0V24.746A4.746,4.746,0,0,1,32.746,20Z" transform="translate(4.973 3.732)" fill="#ffdc00"/>
          <path id="Shape-2" data-name="Shape" d="M56.333,20h-3.56a4.746,4.746,0,0,1,4.746,4.746V47.292A17.8,17.8,0,0,1,41.5,65c.585.058,1.179.09,1.78.09a17.8,17.8,0,0,0,17.8-17.8V24.746A4.746,4.746,0,0,0,56.333,20Z" transform="translate(7.492 3.732)" fill="#fec108"/>
          <path id="Shape-3" data-name="Shape" d="M33.4,44h8.055a1.187,1.187,0,0,1,1.187,1.187v8.941a1.187,1.187,0,0,1-1.533,1.143,13.085,13.085,0,0,1-8.879-9.849A1.195,1.195,0,0,1,33.4,44Z" transform="translate(5.758 8.211)" fill="#ff9801"/>
          <path id="Shape-4" data-name="Shape" d="M55.413,45.424a13.085,13.085,0,0,1-8.879,9.849A1.187,1.187,0,0,1,45,54.128V45.187A1.187,1.187,0,0,1,46.187,44h8.055a1.195,1.195,0,0,1,1.171,1.424Z" transform="translate(8.145 8.211)" fill="#ff9801"/>
          <path id="Shape-5" data-name="Shape" d="M54.236,44h-3.56a1.195,1.195,0,0,1,1.171,1.424,13.053,13.053,0,0,1-6.821,8.97,1.187,1.187,0,0,0,1.5.875,13.085,13.085,0,0,0,8.879-9.849A1.195,1.195,0,0,0,54.236,44Z" transform="translate(8.15 8.211)" fill="#f57c00"/>
          <rect id="Rectangle-path" width="27" height="19" rx="1" transform="translate(37.159 28.411)" fill="#02a9f4"/>
          <path id="Shape-6" data-name="Shape" d="M53.56,24H50a1.187,1.187,0,0,1,1.187,1.187V41.8A1.187,1.187,0,0,1,50,42.986h3.56A1.187,1.187,0,0,0,54.746,41.8V25.187A1.187,1.187,0,0,0,53.56,24Z" transform="translate(9.078 4.479)" fill="#0377bc"/>
          <path id="Shape-7" data-name="Shape" d="M41.373,14H46.12a2.373,2.373,0,0,1,2.373,2.373V21.12H39V16.373A2.373,2.373,0,0,1,41.373,14Z" transform="translate(7.025 2.613)" fill="#607d8b"/>
          <path id="Shape-8" data-name="Shape" d="M45.56,14H42a2.373,2.373,0,0,1,2.373,2.373V21.12h3.56V16.373A2.373,2.373,0,0,0,45.56,14Z" transform="translate(7.585 2.613)" fill="#37474f"/>
          <rect id="Rectangle-path-2" data-name="Rectangle-path" width="21" height="12" rx="5" transform="translate(0.159 0.411)" fill="#7f8e94"/>
          <path id="Shape-9" data-name="Shape" d="M13.56,0H10a5.933,5.933,0,1,1,0,11.866h3.56A5.933,5.933,0,0,0,13.56,0Z" transform="translate(1.614)" fill="#545c60"/>
          <rect id="Rectangle-path-3" data-name="Rectangle-path" width="21" height="13" rx="5" transform="translate(0.159 18.411)" fill="#7f8e94"/>
          <path id="Shape-10" data-name="Shape" d="M13.56,16H10a5.933,5.933,0,1,1,0,11.866h3.56A5.933,5.933,0,0,0,13.56,16Z" transform="translate(1.614 2.986)" fill="#545c60"/>
          <rect id="Rectangle-path-4" data-name="Rectangle-path" width="21" height="13" rx="5" transform="translate(0.159 37.411)" fill="#7f8e94"/>
          <path id="Shape-11" data-name="Shape" d="M13.56,32H10a5.933,5.933,0,1,1,0,11.866h3.56A5.933,5.933,0,1,0,13.56,32Z" transform="translate(1.614 5.972)" fill="#545c60"/>
          <rect id="Rectangle-path-5" data-name="Rectangle-path" width="21" height="12" rx="5" transform="translate(0.159 56.411)" fill="#7f8e94"/>
          <path id="Shape-12" data-name="Shape" d="M13.56,48H10a5.933,5.933,0,1,1,0,11.866h3.56A5.933,5.933,0,1,0,13.56,48Z" transform="translate(1.614 8.957)" fill="#545c60"/>
        </g>
        <g id="Icons_copy">
          <path id="Shape-13" data-name="Shape" d="M65.264,23.732h-7.12v-3.56a3.56,3.56,0,0,0-3.56-3.56H53.4V15.426a3.56,3.56,0,0,0-3.56-3.56H29.665a5.94,5.94,0,0,0-5.933-5.933h-.107A7.127,7.127,0,0,0,16.613,0H7.12a7.12,7.12,0,0,0,0,14.239h9.493a7.127,7.127,0,0,0,7.013-5.933h.107a3.56,3.56,0,0,1,3.56,3.56v9.493a3.56,3.56,0,0,1-3.56,3.56h-.107a7.127,7.127,0,0,0-7.013-5.933H7.12a7.12,7.12,0,0,0,0,14.239h9.493a7.127,7.127,0,0,0,7.013-5.933h.107a5.871,5.871,0,0,0,3.56-1.217v14.27a3.56,3.56,0,0,1-3.56,3.56h-.107a7.127,7.127,0,0,0-7.013-5.933H7.12a7.12,7.12,0,0,0,0,14.239h9.493a7.127,7.127,0,0,0,7.013-5.933h.107a5.871,5.871,0,0,0,3.56-1.217v14.27a3.56,3.56,0,0,1-3.56,3.56h-.107a7.127,7.127,0,0,0-7.013-5.933H7.12a7.12,7.12,0,1,0,0,14.239h9.493a7.127,7.127,0,0,0,7.013-5.933h.107a5.94,5.94,0,0,0,5.933-5.933V14.239H49.838a1.187,1.187,0,0,1,1.187,1.187v1.187H49.838a3.56,3.56,0,0,0-3.56,3.56v3.56h-7.12a5.94,5.94,0,0,0-5.933,5.933V52.211a18.986,18.986,0,1,0,37.972,0V29.665A5.94,5.94,0,0,0,65.264,23.732ZM16.613,11.866H7.12a4.746,4.746,0,1,1,0-9.493h9.493a4.746,4.746,0,0,1,4.578,3.56H17.8a1.187,1.187,0,1,0,0,2.373H21.19A4.746,4.746,0,0,1,16.613,11.866Zm0,18.986H7.12a4.746,4.746,0,1,1,0-9.493h9.493a4.746,4.746,0,0,1,4.578,3.56H17.8a1.187,1.187,0,1,0,0,2.373H21.19A4.746,4.746,0,0,1,16.613,30.852Zm0,18.986H7.12a4.746,4.746,0,0,1,0-9.493h9.493A4.746,4.746,0,0,1,21.19,43.9H17.8a1.187,1.187,0,1,0,0,2.373H21.19A4.746,4.746,0,0,1,16.613,49.838Zm0,18.986H7.12a4.746,4.746,0,1,1,0-9.493h9.493a4.746,4.746,0,0,1,4.578,3.56H17.8a1.187,1.187,0,1,0,0,2.373H21.19A4.746,4.746,0,0,1,16.613,68.823ZM48.651,20.172a1.187,1.187,0,0,1,1.187-1.187h4.746a1.187,1.187,0,0,1,1.187,1.187v3.56h-7.12ZM68.823,52.211a16.613,16.613,0,1,1-33.225,0V29.665a3.56,3.56,0,0,1,3.56-3.56H65.264a3.56,3.56,0,0,1,3.56,3.56Z"/>
          <path id="Shape-14" data-name="Shape" d="M42.641,44H34.586a2.382,2.382,0,0,0-2.334,2.848,14.239,14.239,0,0,0,9.685,10.74,2.34,2.34,0,0,0,2.1-.356,2.4,2.4,0,0,0,.977-1.918V46.373A2.373,2.373,0,0,0,42.641,44Zm-8.057,2.373h8.057l.009,8.952A11.845,11.845,0,0,1,34.584,46.373Z" transform="translate(6.01 8.211)"/>
          <path id="Shape-15" data-name="Shape" d="M55.428,44H47.373A2.373,2.373,0,0,0,45,46.373v8.941a2.4,2.4,0,0,0,.977,1.923,2.338,2.338,0,0,0,2.1.356,14.239,14.239,0,0,0,9.687-10.746A2.383,2.383,0,0,0,55.428,44Zm.008,2.373a11.839,11.839,0,0,1-8.063,8.941V46.373h8.069Z" transform="translate(8.397 8.211)"/>
          <path id="Shape-16" data-name="Shape" d="M58.105,24H34.373A2.373,2.373,0,0,0,32,26.373V42.986a2.373,2.373,0,0,0,2.373,2.373H58.105a2.373,2.373,0,0,0,2.373-2.373V26.373A2.373,2.373,0,0,0,58.105,24ZM34.373,42.986V26.373H58.105V42.986Z" transform="translate(5.972 4.479)"/>
        </g>
        <g id="Highlights" transform="translate(42.718 33.24)">
          <path id="Shape-17" data-name="Shape" d="M1.187,3.558A1.187,1.187,0,0,1,.348,1.532L1.534.345A1.187,1.187,0,0,1,3.212,2.023L2.026,3.21a1.187,1.187,0,0,1-.839.348Z" transform="translate(0 -0.012)" fill="#f5f5f5"/>
          <path id="Shape-18" data-name="Shape" d="M1.187,10.677A1.187,1.187,0,0,1,.348,8.652L8.654.345a1.187,1.187,0,0,1,1.678,1.678L2.026,10.33a1.187,1.187,0,0,1-.839.348Z" transform="translate(0 -0.012)" fill="#f5f5f5"/>
        </g>
      </g>
    </g>
  </g>
</svg>
