<svg xmlns="http://www.w3.org/2000/svg" width="129.063" height="83.389" viewBox="0 0 129.063 83.389">
  <g id="Grupo_1213309" data-name="Grupo 1213309" transform="translate(-787.781 -2581.439)">
    <g id="Grupo_1201005" data-name="Grupo 1201005" transform="translate(0 26)">
      <g id="Rectángulo_410589" data-name="Rectángulo 410589" transform="translate(787.781 2575.623)" fill="#70d9c1" stroke="#4d9686" stroke-width="1">
        <rect width="129.063" height="43.021" rx="8" stroke="none"/>
        <rect x="0.5" y="0.5" width="128.063" height="42.021" rx="7.5" fill="none"/>
      </g>
    </g>
    <g id="visual_18145647" transform="translate(781.749 2570.308)">
      <g id="Grupo_1214058" data-name="Grupo 1214058" transform="translate(26.284 12.388)">
        <path id="Trazado_1249177" data-name="Trazado 1249177" d="M132.54,18.13h48.109a2.473,2.473,0,0,1,2.466,2.46V87.6a2.47,2.47,0,0,1-2.466,2.46H132.54a2.465,2.465,0,0,1-2.46-2.46V20.59a2.469,2.469,0,0,1,2.46-2.46Z" transform="translate(-112.454 -18.13)" fill="#bcd2d2" fill-rule="evenodd"/>
        <path id="Trazado_1249178" data-name="Trazado 1249178" d="M134.681,18.13H182.79a2.473,2.473,0,0,1,2.466,2.46V82.52c-10.6-2.735-22.309-10.174-32.467-21.585-11.678-13.114-18.707-28.556-20.1-41.791a2.482,2.482,0,0,1,1.991-1.014Z" transform="translate(-114.595 -18.13)" fill="#e6f4f4" fill-rule="evenodd"/>
        <path id="Trazado_1249179" data-name="Trazado 1249179" d="M331.046,382.377a19.4,19.4,0,0,0-32.056,0,19.4,19.4,0,0,0,32.056,0Z" transform="translate(-251.007 -309.968)" fill="#e6f4f4" fill-rule="evenodd"/>
        <path id="Trazado_1249180" data-name="Trazado 1249180" d="M299,421.02a19.4,19.4,0,0,0,32.056,0Z" transform="translate(-251.015 -348.611)" fill="#bcd2d2" fill-rule="evenodd"/>
        <path id="Trazado_1249181" data-name="Trazado 1249181" d="M350.232,373.911c-.189-.005-.377-.011-.566-.011s-.383.005-.57.011a8.433,8.433,0,1,0,1.136,0Z" transform="translate(-285.656 -309.96)" fill="#61cae6" fill-rule="evenodd"/>
        <path id="Trazado_1249182" data-name="Trazado 1249182" d="M360.937,373.911c-.189-.005-.377-.011-.566-.011s-.383.005-.57.011a5.1,5.1,0,0,0-5.521,6.159,7.35,7.35,0,1,0,6.657-6.159Z" transform="translate(-296.36 -309.96)" fill="#70ccd5" fill-rule="evenodd"/>
        <path id="Trazado_1249183" data-name="Trazado 1249183" d="M48.325,97.98h2.613a1.388,1.388,0,0,1,1.386,1.386v1.014a1.372,1.372,0,0,0,1.03,1.341,14.554,14.554,0,0,1,3.46,1.432,1.368,1.368,0,0,0,1.677-.219l.719-.719a1.391,1.391,0,0,1,1.961,0l1.849,1.849a1.391,1.391,0,0,1,0,1.961l-.724.719a1.381,1.381,0,0,0-.219,1.677,14.254,14.254,0,0,1,1.436,3.46,1.372,1.372,0,0,0,1.341,1.024h1.014a1.392,1.392,0,0,1,1.386,1.391v2.613a1.388,1.388,0,0,1-1.386,1.386H64.853a1.372,1.372,0,0,0-1.341,1.03,14.507,14.507,0,0,1-1.436,3.46,1.365,1.365,0,0,0,.225,1.671l.719.719a1.391,1.391,0,0,1,0,1.961l-1.849,1.849a1.391,1.391,0,0,1-1.961,0l-.719-.719a1.377,1.377,0,0,0-1.677-.219,14.191,14.191,0,0,1-3.46,1.432,1.377,1.377,0,0,0-1.03,1.341v1.014a1.392,1.392,0,0,1-1.386,1.391H48.325a1.392,1.392,0,0,1-1.386-1.391v-1.014a1.372,1.372,0,0,0-1.03-1.341,14.209,14.209,0,0,1-3.46-1.432,1.373,1.373,0,0,0-1.677.219l-.719.719a1.391,1.391,0,0,1-1.961,0l-1.844-1.849a1.391,1.391,0,0,1,0-1.961l.719-.719a1.369,1.369,0,0,0,.219-1.671,14.25,14.25,0,0,1-1.432-3.46,1.375,1.375,0,0,0-1.341-1.03H33.4a1.388,1.388,0,0,1-1.386-1.386V114.3A1.392,1.392,0,0,1,33.4,112.9h1.019a1.378,1.378,0,0,0,1.341-1.024,14.063,14.063,0,0,1,1.432-3.46,1.372,1.372,0,0,0-.219-1.677l-.719-.719a1.391,1.391,0,0,1,0-1.961l1.844-1.849a1.391,1.391,0,0,1,1.961,0l.719.719a1.37,1.37,0,0,0,1.677.219,14.691,14.691,0,0,1,3.46-1.432,1.371,1.371,0,0,0,1.03-1.341V99.366A1.388,1.388,0,0,1,48.325,97.98Z" transform="translate(-32.01 -83.629)" fill="#555" fill-rule="evenodd"/>
        <path id="Trazado_1249184" data-name="Trazado 1249184" d="M79.053,97.98h2.613a1.388,1.388,0,0,1,1.386,1.386v1.014a1.372,1.372,0,0,0,1.03,1.341,14.554,14.554,0,0,1,3.46,1.432,1.368,1.368,0,0,0,1.677-.219l.719-.719a1.391,1.391,0,0,1,1.961,0l1.849,1.849a1.391,1.391,0,0,1,0,1.961l-.724.719a1.381,1.381,0,0,0-.219,1.677,14.254,14.254,0,0,1,1.436,3.46A1.372,1.372,0,0,0,95.58,112.9h1.014A1.392,1.392,0,0,1,97.98,114.3v2.613a1.388,1.388,0,0,1-1.386,1.386H95.58a1.372,1.372,0,0,0-1.341,1.03,14.176,14.176,0,0,1-1.111,2.863,22.9,22.9,0,0,1-2.318.111c-11.788,0-21.34-8.58-21.34-19.166,0-.433.014-.861.045-1.289a1.38,1.38,0,0,1,1.269.372l.719.719a1.37,1.37,0,0,0,1.677.219,14.69,14.69,0,0,1,3.46-1.432,1.371,1.371,0,0,0,1.03-1.341V99.367A1.385,1.385,0,0,1,79.053,97.98Z" transform="translate(-62.738 -83.629)" fill="gray" fill-rule="evenodd"/>
        <path id="Trazado_1249185" data-name="Trazado 1249185" d="M87.647,144.27a9.3,9.3,0,1,1-9.3,9.3A9.3,9.3,0,0,1,87.647,144.27Z" transform="translate(-70.022 -121.6)" fill="#b3b4b4" fill-rule="evenodd"/>
        <path id="Trazado_1249186" data-name="Trazado 1249186" d="M102.54,160.121a9.3,9.3,0,0,1-15.645,9.694,9.3,9.3,0,0,1,15.645-9.694Z" transform="translate(-76.395 -131.878)" fill="#e6e6e6" fill-rule="evenodd"/>
        <path id="Trazado_1249187" data-name="Trazado 1249187" d="M140.534,168.99a2.374,2.374,0,1,1-2.374,2.374A2.371,2.371,0,0,1,140.534,168.99Z" transform="translate(-119.082 -141.877)" fill="#fff" fill-rule="evenodd"/>
        <path id="Trazado_1249188" data-name="Trazado 1249188" d="M171.61,46.96h22.2v6.892h-22.2Z" transform="translate(-146.521 -41.779)" fill="#ffe400" fill-rule="evenodd"/>
        <path id="Trazado_1249189" data-name="Trazado 1249189" d="M165.31,338.87h15.742v9.114H165.31Z" transform="translate(-141.353 -281.225)" fill="#ffe400" fill-rule="evenodd"/>
        <path id="Trazado_1249190" data-name="Trazado 1249190" d="M240.21,193.2h6.456v11.538H240.21Zm20.413-11.06h6.456v22.6h-6.456Zm-10.2,7.347h6.454V204.74h-6.454Z" transform="translate(-202.791 -152.663)" fill="#ffe400" fill-rule="evenodd"/>
        <path id="Trazado_1249191" data-name="Trazado 1249191" d="M278.568,182.14h3.224v22.6h-3.224ZM258.15,193.2h3.23v11.538h-3.23Zm10.21-3.713h3.23V204.74h-3.23Z" transform="translate(-217.507 -152.663)" fill="#ffc908" fill-rule="evenodd"/>
      </g>
      <path id="Trazado_1249192" data-name="Trazado 1249192" d="M61.465,65.759a1.258,1.258,0,1,1,0-2.516h.978V52.927A1.261,1.261,0,0,1,63.7,51.669h6.456a1.262,1.262,0,0,1,1.258,1.258V63.243h1.238V49.212a1.257,1.257,0,0,1,1.258-1.258h6.454a1.261,1.261,0,0,1,1.258,1.258V63.243h1.233V41.865a1.257,1.257,0,0,1,1.258-1.253H90.57a1.254,1.254,0,0,1,1.258,1.253V63.241h.978a1.258,1.258,0,0,1,0,2.516H61.465Zm3.5-2.518H68.9V54.183H64.961Zm10.208,0h3.938V50.47H75.169Zm10.2,0h3.938V43.123H85.374ZM62.118,31.568a1.258,1.258,0,0,1,0-2.516h8a1.258,1.258,0,1,1,0,2.516Zm0,5.176a1.258,1.258,0,0,1,0-2.516H75.466a1.258,1.258,0,0,1,0,2.516ZM77.535,73.09a1.258,1.258,0,1,1,0-2.516H90.913a1.258,1.258,0,1,1,0,2.516Zm-7.786,4.748a1.258,1.258,0,0,1,0-2.516h7.439a1.258,1.258,0,0,1,0,2.516Zm0-4.748a1.258,1.258,0,1,1,0-2.516h3.974a1.258,1.258,0,1,1,0,2.516ZM65.337,49.817a1.257,1.257,0,0,1-.647-2.43A31.423,31.423,0,0,0,83.009,33.969l-.505.55a1.254,1.254,0,0,1-1.844-1.7l3.474-3.774a1.261,1.261,0,0,1,2.124.478l1.528,4.9a1.257,1.257,0,0,1-2.4.749L85.336,35a33.959,33.959,0,0,1-20,14.822Zm-15.1,18.957H65.984a1.258,1.258,0,0,1,1.258,1.258v9.114A1.258,1.258,0,0,1,65.984,80.4H50.242a1.261,1.261,0,0,1-1.258-1.258V70.033A1.261,1.261,0,0,1,50.242,68.775Zm14.484,2.516H51.5v6.6H64.726ZM51.374,16.311h22.2a1.255,1.255,0,0,1,1.258,1.258v6.892a1.257,1.257,0,0,1-1.258,1.258h-22.2a1.258,1.258,0,0,1-1.258-1.258V17.57A1.253,1.253,0,0,1,51.374,16.311Zm20.943,2.511H52.632V23.2H72.317ZM43.91,33.8A10.555,10.555,0,1,1,33.355,44.356,10.555,10.555,0,0,1,43.91,33.8Zm5.681,4.871a8.039,8.039,0,1,0,0,11.371A8.038,8.038,0,0,0,49.591,38.671ZM42.6,25.481h.05V14.848a3.726,3.726,0,0,1,3.718-3.718H94.477A3.726,3.726,0,0,1,98.2,14.848v61.8a20.618,20.618,0,0,1,9.144,7.412,1.253,1.253,0,0,1,.014,1.441,20.653,20.653,0,0,1-34.072.075H46.37a3.726,3.726,0,0,1-3.718-3.718V63.236a2.648,2.648,0,0,1-2.7-2.649l-.025-1.1a.133.133,0,0,0-.072-.041,15.571,15.571,0,0,1-3.76-1.558l-.158.025c-.789.789-1.335,1.488-2.588,1.488v.005a2.637,2.637,0,0,1-1.869-.78v.005l-1.849-1.849a2.65,2.65,0,0,1,0-3.74l.764-.789a.147.147,0,0,0-.02-.086,15.725,15.725,0,0,1-.9-1.83h-.005a16.165,16.165,0,0,1-.658-1.93l-.12-.1c-1.116,0-2,.108-2.888-.775a2.64,2.64,0,0,1-.775-1.869V43.053a2.647,2.647,0,0,1,2.644-2.644l1.1-.025.7-2h-.005a15.375,15.375,0,0,1,.908-1.833l-.02-.158-.005.005c-.789-.789-1.494-1.341-1.494-2.593a2.658,2.658,0,0,1,.775-1.869L31.575,30a2.634,2.634,0,0,1,3.648.086l.789.758a.115.115,0,0,0,.086-.02,15.725,15.725,0,0,1,1.83-.9,16.167,16.167,0,0,1,1.93-.658l.1-.128h.005V28.127h-.005A2.649,2.649,0,0,1,42.6,25.481Zm2.568,0a2.643,2.643,0,0,1,2.69,2.644l.025,1.1a.145.145,0,0,0,.072.041,15.571,15.571,0,0,1,3.76,1.558l.164-.02h-.005c.789-.789,1.341-1.494,2.588-1.494a2.617,2.617,0,0,1,1.869.775l1.849,1.844a2.648,2.648,0,0,1,0,3.744l-.764.789a.183.183,0,0,0,.02.081A15.481,15.481,0,0,1,59,40.308l.128.1c1.111,0,2-.111,2.883.775a2.64,2.64,0,0,1,.775,1.869v2.613a2.647,2.647,0,0,1-2.644,2.644V48.3H59.127v.009L59,48.4a15.552,15.552,0,0,1-1.564,3.765l.025.158c.789.789,1.494,1.341,1.494,2.588a2.639,2.639,0,0,1-.775,1.869l-1.844,1.849a2.654,2.654,0,0,1-3.744,0l-.789-.764a.147.147,0,0,0-.086.02,15.341,15.341,0,0,1-3.76,1.558l-.1.128c0,1.116.108,2-.775,2.883a2.623,2.623,0,0,1-1.916.78V81.86a1.2,1.2,0,0,0,1.2,1.2h27.6a20.669,20.669,0,0,1,21.712-7.275V14.848a1.212,1.212,0,0,0-1.208-1.2H46.37a1.207,1.207,0,0,0-1.2,1.2ZM45.215,28H42.6l-.133.128v1.014h.005a2.635,2.635,0,0,1-1.961,2.552,13.713,13.713,0,0,0-1.619.55L37.361,33a2.645,2.645,0,0,1-3.194-.417c-.2-.2-.739-.855-.886-.733l-1.864,1.86v.183l.719.719v.005a2.628,2.628,0,0,1,.417,3.188,12.989,12.989,0,0,0-.755,1.538l-.005-.005a14.142,14.142,0,0,0-.545,1.619A2.633,2.633,0,0,1,28.7,42.918a4.735,4.735,0,0,0-1.105.041.128.128,0,0,0-.041.092v2.613c0,.4,1.508-.286,2.752.672a2.651,2.651,0,0,1,.947,1.416,12,12,0,0,0,.55,1.619h-.005l.758,1.533a2.636,2.636,0,0,1-.417,3.194c-.111.117-.755.7-.755.811a.149.149,0,0,0,.036.092l1.849,1.844v.005a.137.137,0,0,0,.092.036v.005c.255,0,.9-1.325,2.338-1.513a2.624,2.624,0,0,1,1.666.336,13.094,13.094,0,0,0,3.154,1.3,2.637,2.637,0,0,1,1.961,2.552,5.087,5.087,0,0,0,.036,1.105.128.128,0,0,0,.092.041h2.613c.4,0-.286-1.508.672-2.757a2.656,2.656,0,0,1,1.422-.942,13.072,13.072,0,0,0,3.149-1.3,2.639,2.639,0,0,1,3.194.413c.117.117.7.758.811.758a.114.114,0,0,0,.092-.041L56.4,55v-.183l-.719-.719v-.005a2.627,2.627,0,0,1-.417-3.188,12.95,12.95,0,0,0,1.3-3.154,2.635,2.635,0,0,1,2.557-1.961V45.8h1.014v0l.128-.128V43.053c0-.4-1.508.28-2.752-.672a2.685,2.685,0,0,1-.947-1.422,12.81,12.81,0,0,0-1.3-3.154,2.644,2.644,0,0,1,.417-3.194c.117-.111.755-.694.755-.811a.132.132,0,0,0-.036-.092l-1.851-1.844H54.37l-.719.719v-.005A2.632,2.632,0,0,1,50.457,33a13.142,13.142,0,0,0-3.149-1.31,2.633,2.633,0,0,1-1.966-2.552,5.1,5.1,0,0,0-.036-1.105A.126.126,0,0,0,45.215,28Zm44.53,49.6a7.33,7.33,0,1,0,.55-.009C90.112,77.588,89.928,77.592,89.745,77.6Zm8.708,1.927a9.683,9.683,0,0,1-.081,10.591,18.1,18.1,0,0,0,6.4-5.318A18.115,18.115,0,0,0,98.453,79.524ZM82.222,90.115a9.694,9.694,0,0,1-.086-10.591A18.166,18.166,0,0,0,75.813,84.8,18.117,18.117,0,0,0,82.222,90.115Z" transform="translate(0)"/>
    </g>
  </g>
</svg>
