<svg xmlns="http://www.w3.org/2000/svg" width="73.631" height="45.372" viewBox="0 0 73.631 45.372">
  <g id="Grupo_1213685" data-name="Grupo 1213685" transform="translate(-312.781 -3862.899)">
    <g id="Grupo_1201016" data-name="Grupo 1201016" transform="translate(312.781 3875.311)">
      <g id="Rectángulo_410589" data-name="Rectángulo 410589" fill="#93795a" stroke="#695640" stroke-width="1">
        <rect width="73.631" height="24.544" rx="4" stroke="none"/>
        <rect x="0.5" y="0.5" width="72.631" height="23.544" rx="3.5" fill="none"/>
      </g>
    </g>
    <g id="planner_7397206" transform="translate(324.537 3862.899)">
      <g id="Grupo_1214175" data-name="Grupo 1214175" transform="translate(0.732 0.732)">
        <g id="Grupo_1214163" data-name="Grupo 1214163" transform="translate(10.245 8.782)">
          <path id="Trazado_1249460" data-name="Trazado 1249460" d="M120,104v30.736a1.463,1.463,0,0,0,1.464,1.464H152.2a1.463,1.463,0,0,0,1.464-1.464V104Z" transform="translate(-120 -104)" fill="#f0d0b4"/>
        </g>
        <g id="Grupo_1214164" data-name="Grupo 1214164" transform="translate(10.245 1.464)">
          <path id="Trazado_1249461" data-name="Trazado 1249461" d="M152.2,24H121.464A1.463,1.463,0,0,0,120,25.464v5.854h33.663V25.464A1.463,1.463,0,0,0,152.2,24Z" transform="translate(-120 -24)" fill="#f29ed0"/>
        </g>
        <g id="Grupo_1214165" data-name="Grupo 1214165" transform="translate(33.663)">
          <path id="Trazado_1249462" data-name="Trazado 1249462" d="M378.927,9.464v3.659a.732.732,0,0,1-.732.732h-1.464a.732.732,0,0,1-.732-.732V8.732A.732.732,0,0,1,376.732,8H378.2a.732.732,0,0,1,.732.732Z" transform="translate(-376 -8)" fill="#aab2bd"/>
        </g>
        <g id="Grupo_1214166" data-name="Grupo 1214166" transform="translate(25.613)">
          <path id="Trazado_1249463" data-name="Trazado 1249463" d="M290.927,9.464v3.659a.732.732,0,0,1-.732.732h-1.464a.732.732,0,0,1-.732-.732V8.732A.732.732,0,0,1,288.732,8H290.2a.732.732,0,0,1,.732.732Z" transform="translate(-288 -8)" fill="#aab2bd"/>
        </g>
        <g id="Grupo_1214167" data-name="Grupo 1214167" transform="translate(17.563)">
          <path id="Trazado_1249464" data-name="Trazado 1249464" d="M202.927,9.464v3.659a.732.732,0,0,1-.732.732h-1.464a.732.732,0,0,1-.732-.732V8.732A.732.732,0,0,1,200.732,8H202.2a.732.732,0,0,1,.732.732Z" transform="translate(-200 -8)" fill="#aab2bd"/>
        </g>
        <g id="Grupo_1214168" data-name="Grupo 1214168" transform="translate(22.59 16.832)">
          <path id="Trazado_1249465" data-name="Trazado 1249465" d="M270.414,197.854v4.391h-.32a1.006,1.006,0,0,0-.712,1.718l.227.226-3.106,3.106-.226-.227a1.006,1.006,0,0,0-1.718.712v.32h-4.391v-.32a1.006,1.006,0,0,0-1.718-.712l-.226.227-3.106-3.106.227-.226a1.009,1.009,0,0,0-.4-1.669l.828-.414,2.945-1.472a3.659,3.659,0,1,0,0-.715l-2.945-1.472-.828-.414a1.008,1.008,0,0,0,.4-1.669l-.227-.226,3.106-3.106.226.227a1.006,1.006,0,0,0,1.718-.712V192h4.391v.32a1.006,1.006,0,0,0,1.718.712l.226-.227,3.106,3.106-.227.226a1.006,1.006,0,0,0,.712,1.718Z" transform="translate(-254.95 -192)" fill="#fcd770"/>
        </g>
        <g id="Grupo_1214169" data-name="Grupo 1214169" transform="translate(0 21.954)">
          <path id="Trazado_1249466" data-name="Trazado 1249466" d="M12.391,248v5.854H10.927a2.927,2.927,0,1,1,0-5.854Z" transform="translate(-8 -248)" fill="#ccd1d9"/>
        </g>
        <g id="Grupo_1214170" data-name="Grupo 1214170" transform="translate(7.318 24.881)">
          <path id="Trazado_1249467" data-name="Trazado 1249467" d="M101.173,280v2.927H88V280Z" transform="translate(-88 -280)" fill="#b4dd7f"/>
        </g>
        <g id="Grupo_1214171" data-name="Grupo 1214171" transform="translate(7.318 21.954)">
          <path id="Trazado_1249468" data-name="Trazado 1249468" d="M101.173,248v2.927H88V248h13.173Z" transform="translate(-88 -248)" fill="#f29ed0"/>
        </g>
        <g id="Grupo_1214172" data-name="Grupo 1214172" transform="translate(20.491 21.954)">
          <path id="Trazado_1249469" data-name="Trazado 1249469" d="M234.1,253.171l-1.058.529a1.464,1.464,0,0,1-.655.155H232V248h.386a1.464,1.464,0,0,1,.655.155l1.058.529.828.414v3.659Z" transform="translate(-232 -248)" fill="#ccd1d9"/>
        </g>
        <g id="Grupo_1214173" data-name="Grupo 1214173" transform="translate(4.391 21.954)">
          <path id="Trazado_1249470" data-name="Trazado 1249470" d="M58.927,250.927v2.927H56V248h2.927Z" transform="translate(-56 -248)" fill="#ffeaa7"/>
        </g>
        <g id="Grupo_1214174" data-name="Grupo 1214174" transform="translate(23.418 23.052)">
          <path id="Trazado_1249471" data-name="Trazado 1249471" d="M267.659,261.83l-.714.358L264,263.659V260l2.945,1.472Z" transform="translate(-264 -260)" fill="#969faa"/>
        </g>
      </g>
      <g id="Grupo_1214176" data-name="Grupo 1214176">
        <path id="Trazado_1249472" data-name="Trazado 1249472" d="M328,392h1.464v1.464H328Z" transform="translate(-297.996 -356.141)"/>
        <path id="Trazado_1249473" data-name="Trazado 1249473" d="M360,392h1.464v1.464H360Z" transform="translate(-327.069 -356.141)"/>
        <path id="Trazado_1249474" data-name="Trazado 1249474" d="M392,392h1.464v1.464H392Z" transform="translate(-356.141 -356.141)"/>
        <path id="Trazado_1249475" data-name="Trazado 1249475" d="M32,416h1.464v1.464H32Z" transform="translate(-29.073 -377.946)"/>
        <path id="Trazado_1249476" data-name="Trazado 1249476" d="M64,416h1.464v1.464H64Z" transform="translate(-58.146 -377.946)"/>
        <path id="Trazado_1249477" data-name="Trazado 1249477" d="M43.177,1.464H38.054A1.465,1.465,0,0,0,36.59,0H35.127a1.465,1.465,0,0,0-1.464,1.464H30A1.465,1.465,0,0,0,28.541,0H27.077a1.465,1.465,0,0,0-1.464,1.464H21.954A1.465,1.465,0,0,0,20.491,0H19.027a1.465,1.465,0,0,0-1.464,1.464H12.441a2.2,2.2,0,0,0-2.2,2.2v18.3H3.659a3.659,3.659,0,0,0,0,7.318h6.586V32.2H2.927v1.464H20.491V32.2H11.709V29.272h9.9a2.207,2.207,0,0,0,.982-.232l.667-.334a.3.3,0,0,1,.017.048.255.255,0,0,1-.074.254l-.744.744,4.14,4.14.744-.744a.275.275,0,0,1,.469.194v1.052h5.854V33.343a.275.275,0,0,1,.468-.194l.744.744,4.14-4.14-.744-.744a.274.274,0,0,1,.194-.469h1.052V22.686H38.465a.274.274,0,0,1-.194-.469l.744-.744-4.14-4.14-.744.744a.274.274,0,0,1-.469-.194V16.832H27.809v1.052a.274.274,0,0,1-.469.194l-.744-.744-4.14,4.14.744.744a.255.255,0,0,1,.074.254.3.3,0,0,1-.017.048l-.668-.334a2.207,2.207,0,0,0-.982-.232h-9.9V10.245h32.2v30a.733.733,0,0,1-.732.732H12.441a.733.733,0,0,1-.732-.732V36.59h7.318V35.127H2.927V36.59h7.318v3.659a2.2,2.2,0,0,0,2.2,2.2H43.177a2.2,2.2,0,0,0,2.2-2.2V3.659a2.2,2.2,0,0,0-2.2-2.2ZM7.318,27.809H5.854V23.418H7.318Zm1.464-1.464H20.491v1.464H8.782Zm11.709-1.464H8.782V23.418H20.491Zm-19.027.732a2.2,2.2,0,0,1,2.2-2.2h.732v4.391H3.659A2.2,2.2,0,0,1,1.464,25.613Zm24.709,0-1.291.645V24.968Zm-1.68-4.106,2.139-2.139A1.739,1.739,0,0,0,29.223,18.3h3.025a1.739,1.739,0,0,0,2.593,1.074l2.139,2.139A1.739,1.739,0,0,0,38.054,24.1v3.025a1.739,1.739,0,0,0-1.074,2.593l-2.139,2.139a1.739,1.739,0,0,0-2.593,1.074H29.223a1.739,1.739,0,0,0-2.593-1.074l-2.139-2.138a1.716,1.716,0,0,0,.2-1.31,1.746,1.746,0,0,0-.13-.357l2.015-1.008a4.391,4.391,0,1,0,0-2.863l-2.015-1.008a1.748,1.748,0,0,0,.13-.358,1.716,1.716,0,0,0-.2-1.309Zm3.418,3.338a2.927,2.927,0,1,1,0,1.535l1.535-.767Zm-4.492-.61v2.754l-1.464.732V23.5ZM35.127,1.464H36.59V5.854H35.127Zm-8.05,0h1.464V5.854H27.077Zm-8.05,0h1.464V5.854H19.027ZM11.709,8.782V3.659a.733.733,0,0,1,.732-.732h5.123V5.854a1.465,1.465,0,0,0,1.464,1.464h1.464a1.465,1.465,0,0,0,1.464-1.464V2.927h3.659V5.854a1.465,1.465,0,0,0,1.464,1.464h1.464A1.465,1.465,0,0,0,30,5.854V2.927h3.659V5.854a1.465,1.465,0,0,0,1.464,1.464H36.59a1.465,1.465,0,0,0,1.464-1.464V2.927h5.123a.733.733,0,0,1,.732.732V8.782Z"/>
        <path id="Trazado_1249478" data-name="Trazado 1249478" d="M112,480h35.127v1.464H112Z" transform="translate(-101.755 -436.092)"/>
        <path id="Trazado_1249479" data-name="Trazado 1249479" d="M160,144h1.464v1.464H160Z" transform="translate(-145.364 -130.827)"/>
        <path id="Trazado_1249480" data-name="Trazado 1249480" d="M192,144h1.464v1.464H192Z" transform="translate(-174.437 -130.827)"/>
        <path id="Trazado_1249481" data-name="Trazado 1249481" d="M224,144h1.464v1.464H224Z" transform="translate(-203.509 -130.827)"/>
        <path id="Trazado_1249482" data-name="Trazado 1249482" d="M416,128h4.391v1.464H416Z" transform="translate(-377.946 -116.291)"/>
        <path id="Trazado_1249483" data-name="Trazado 1249483" d="M416,160h4.391v1.464H416Z" transform="translate(-377.946 -145.364)"/>
        <path id="Trazado_1249484" data-name="Trazado 1249484" d="M432,192h2.927v1.464H432Z" transform="translate(-392.482 -174.437)"/>
        <path id="Trazado_1249485" data-name="Trazado 1249485" d="M25.232,155.378,24.2,154.343l-3.873,3.873-.946-.946-1.035,1.035,1.981,1.981Z" transform="translate(-16.665 -140.224)"/>
        <path id="Trazado_1249486" data-name="Trazado 1249486" d="M25.232,91.378,24.2,90.343l-3.873,3.873-.946-.946-1.035,1.035,1.981,1.981Z" transform="translate(-16.665 -82.079)"/>
        <path id="Trazado_1249487" data-name="Trazado 1249487" d="M25.232,27.378,24.2,26.343l-3.873,3.873-.946-.946-1.035,1.035,1.981,1.981Z" transform="translate(-16.665 -23.933)"/>
      </g>
    </g>
  </g>
</svg>
