<svg xmlns="http://www.w3.org/2000/svg" width="145.631" height="94.68" viewBox="0 0 145.631 94.68">
  <g id="Grupo_1213992" data-name="Grupo 1213992" transform="translate(-1042.183 -18348.254)">
    <g id="Grupo_1213259" data-name="Grupo 1213259" transform="translate(1042.183 18353.803)">
      <g id="Grupo_1201016" data-name="Grupo 1201016" transform="translate(0 23.246)">
        <g id="Rectángulo_410589" data-name="Rectángulo 410589" fill="#93795a" stroke="#695640" stroke-width="1">
          <rect width="145.631" height="48.544" rx="8" stroke="none"/>
          <rect x="0.5" y="0.5" width="144.631" height="47.544" rx="7.5" fill="none"/>
        </g>
      </g>
    </g>
    <g id="goals_3316380" transform="translate(1066.363 18347.254)">
      <g id="Grupo_1213991" data-name="Grupo 1213991" transform="translate(2.527 2.527)">
        <g id="Grupo_1213983" data-name="Grupo 1213983" transform="translate(0)">
          <path id="Trazado_1249094" data-name="Trazado 1249094" d="M50.867,26.433A24.433,24.433,0,1,1,26.433,2,24.427,24.427,0,0,1,50.867,26.433Z" transform="translate(-2 -2)" fill="#e6e9ed"/>
        </g>
        <g id="Grupo_1213984" data-name="Grupo 1213984" transform="translate(9.163 9.163)">
          <path id="Trazado_1249095" data-name="Trazado 1249095" d="M38.542,23.271A15.271,15.271,0,1,1,23.271,8,15.276,15.276,0,0,1,38.542,23.271Z" transform="translate(-8 -8)" fill="#ffeaa7"/>
        </g>
        <g id="Grupo_1213985" data-name="Grupo 1213985" transform="translate(15.271 15.271)">
          <circle id="Elipse_12448" data-name="Elipse 12448" cx="9.163" cy="9.163" r="9.163" fill="#fcd770"/>
        </g>
        <g id="Grupo_1213986" data-name="Grupo 1213986" transform="translate(45.813 73.3)">
          <path id="Trazado_1249096" data-name="Trazado 1249096" d="M35.054,50H65.6a9.163,9.163,0,1,0,0,18.325H35.054A3.063,3.063,0,0,1,32,65.271V53.054A3.063,3.063,0,0,1,35.054,50Z" transform="translate(-32 -50)" fill="#fc6e51"/>
        </g>
        <g id="Grupo_1213987" data-name="Grupo 1213987" transform="translate(45.813 48.867)">
          <path id="Trazado_1249097" data-name="Trazado 1249097" d="M35.054,34H65.6a9.163,9.163,0,1,0,0,18.325H35.054A3.063,3.063,0,0,1,32,49.271V37.054A3.063,3.063,0,0,1,35.054,34Z" transform="translate(-32 -34)" fill="#fc6e51"/>
        </g>
        <g id="Grupo_1213988" data-name="Grupo 1213988" transform="translate(70.246 73.3)">
          <path id="Trazado_1249098" data-name="Trazado 1249098" d="M64.615,53.833a9.056,9.056,0,0,1,1.71,5.33,9.164,9.164,0,1,1-1.71-5.33Z" transform="translate(-48 -50)" fill="#ff826e"/>
        </g>
        <g id="Grupo_1213989" data-name="Grupo 1213989" transform="translate(70.246 48.867)">
          <path id="Trazado_1249099" data-name="Trazado 1249099" d="M64.615,37.833a9.056,9.056,0,0,1,1.71,5.33,9.164,9.164,0,1,1-1.71-5.33Z" transform="translate(-48 -34)" fill="#ff826e"/>
        </g>
        <g id="Grupo_1213990" data-name="Grupo 1213990" transform="translate(70.246 15.271)">
          <path id="Trazado_1249100" data-name="Trazado 1249100" d="M69.379,12H51.054L48,21.163l3.054,9.163H69.379l-3.054-9.163Z" transform="translate(-48 -12)" fill="#b4dd7f"/>
        </g>
      </g>
      <path id="Trazado_1249101" data-name="Trazado 1249101" d="M52.843,28.488H71.672l3.054,9.163H96.27L92.707,26.96l3.563-10.69H74.726l-3.054,9.163H52.843a25.943,25.943,0,1,0-27.41,27.41V81.935a4.587,4.587,0,0,0,4.581,4.581h16.8V91.1a4.587,4.587,0,0,0,4.581,4.581H81.935a10.681,10.681,0,0,0,9.352-15.857l4.007-4.508-2.283-2.029L89.4,77.35a10.656,10.656,0,0,0-7.463-3.05H51.394a4.587,4.587,0,0,0-4.581,4.581v4.581h-16.8a1.53,1.53,0,0,1-1.527-1.527V62.083H46.813v4.581a4.587,4.587,0,0,0,4.581,4.581H81.935a10.681,10.681,0,0,0,9.352-15.857l4.007-4.508-2.283-2.029L89.4,52.916a10.656,10.656,0,0,0-7.463-3.05H51.394a4.587,4.587,0,0,0-4.581,4.581v4.581H28.488V52.843A25.951,25.951,0,0,0,52.843,28.488ZM87.366,79.636l-5.5,6.183-3.436-3.436-2.159,2.159,3.517,3.517a2.956,2.956,0,0,0,2.084.863h.086a2.962,2.962,0,0,0,2.115-.986l4.987-5.611a7.542,7.542,0,0,1,.507,2.665,7.659,7.659,0,1,1-2.205-5.354Zm-37.5-.754a1.53,1.53,0,0,1,1.527-1.527H74.468a10.658,10.658,0,0,0,0,15.271H51.394A1.53,1.53,0,0,1,49.867,91.1ZM87.366,55.2l-5.5,6.183L78.434,57.95l-2.159,2.159,3.517,3.517a2.956,2.956,0,0,0,2.084.863h.086a2.962,2.962,0,0,0,2.115-.986l4.987-5.611a7.542,7.542,0,0,1,.507,2.665A7.659,7.659,0,1,1,87.366,55.2Zm-37.5-.754a1.53,1.53,0,0,1,1.527-1.527H74.468a10.658,10.658,0,0,0,0,15.271H51.394a1.53,1.53,0,0,1-1.527-1.527Zm25.026-25.96h5.943L82.872,34.6H76.928Zm11.2,6.108-2.036-6.108H90L92.036,34.6ZM90,25.433H84.054l2.036-6.108h5.943ZM76.928,19.325h5.943l-2.036,6.108H74.893ZM4.054,26.96a22.892,22.892,0,0,1,45.735-1.527H43.68a16.8,16.8,0,1,0,0,3.054h6.108A22.892,22.892,0,0,1,4.054,26.96Zm33.474-1.527a10.69,10.69,0,1,0,0,3.054h3.086a13.744,13.744,0,1,1,0-3.054Zm-3.086,3.054a7.635,7.635,0,1,1,0-3.054H25.433v3.054Z" transform="translate(0)"/>
    </g>
  </g>
</svg>
