<svg xmlns="http://www.w3.org/2000/svg" width="129.063" height="82.279" viewBox="0 0 129.063 82.279">
  <g id="Grupo_1213310" data-name="Grupo 1213310" transform="translate(-787.781 -2579.859)">
    <g id="Grupo_1201005" data-name="Grupo 1201005" transform="translate(0 26)">
      <g id="Rectángulo_410589" data-name="Rectángulo 410589" transform="translate(787.781 2575.623)" fill="#70d9c1" stroke="#4d9686" stroke-width="1">
        <rect width="129.063" height="43.021" rx="8" stroke="none"/>
        <rect x="0.5" y="0.5" width="128.063" height="42.021" rx="7.5" fill="none"/>
      </g>
    </g>
    <g id="Layer_32" data-name="Layer 32" transform="translate(811.51 2578.859)">
      <path id="Trazado_1249142" data-name="Trazado 1249142" d="M7.991,2A3.991,3.991,0,0,0,4,5.991v7.983h7.983V2Z" transform="translate(0.33 0.33)" fill="#a5badb"/>
      <path id="Trazado_1249143" data-name="Trazado 1249143" d="M66.869,52.906V5.991A3.991,3.991,0,0,0,62.878,2H7a3.991,3.991,0,0,1,3.991,3.991V72.513A3.991,3.991,0,0,0,14.983,76.5H51.76Z" transform="translate(1.322 0.33)" fill="#c1cfe8"/>
      <path id="Trazado_1249144" data-name="Trazado 1249144" d="M64.228,52.906V5.991A3.991,3.991,0,0,0,60.237,2H14.993V40.072a21.8,21.8,0,0,0,21.8,21.8h21.7Z" transform="translate(3.963 0.33)" fill="#d7e0ef"/>
      <path id="Trazado_1249145" data-name="Trazado 1249145" d="M14,14H24.643V24.643H14Z" transform="translate(3.635 4.296)" fill="#e6e6e6"/>
      <path id="Trazado_1249146" data-name="Trazado 1249146" d="M14,26H24.643V36.643H14Z" transform="translate(3.635 8.261)" fill="#e6e6e6"/>
      <path id="Trazado_1249147" data-name="Trazado 1249147" d="M14,38H24.643V48.643H14Z" transform="translate(3.635 12.226)" fill="#e6e6e6"/>
      <path id="Trazado_1249148" data-name="Trazado 1249148" d="M14.993,14h9.322V24.643H14.993Z" transform="translate(3.963 4.296)" fill="#fff"/>
      <path id="Trazado_1249149" data-name="Trazado 1249149" d="M24.315,26H14.993v6.141a21.91,21.91,0,0,0,.47,4.5h8.853Z" transform="translate(3.963 8.261)" fill="#fff"/>
      <path id="Trazado_1249150" data-name="Trazado 1249150" d="M16.765,38a21.86,21.86,0,0,0,6.965,8.036V38Z" transform="translate(4.548 12.226)" fill="#fff"/>
      <path id="Trazado_1249151" data-name="Trazado 1249151" d="M13,60.643a3.991,3.991,0,0,0,3.991-3.991V50H51.582V60.643Z" transform="translate(3.304 16.191)" fill="#a5badb"/>
      <circle id="Elipse_12452" data-name="Elipse 12452" cx="14.635" cy="14.635" r="14.635" transform="translate(49.565 52.887)" fill="#8dbf00"/>
      <path id="Trazado_1249152" data-name="Trazado 1249152" d="M51.974,40a14.555,14.555,0,0,0-8.922,3.052,14.617,14.617,0,0,0,20.5,20.5A14.617,14.617,0,0,0,51.974,40Z" transform="translate(12.226 12.887)" fill="#a8d600"/>
      <path id="Trazado_1249153" data-name="Trazado 1249153" d="M41,54.313l3.991-3.991,3.991,3.991L58.3,45l3.991,3.991-13.3,13.3Z" transform="translate(12.556 14.539)" fill="#fff"/>
      <path id="Trazado_1249154" data-name="Trazado 1249154" d="M25,5H40.965V7.661H25Z" transform="translate(7.269 1.322)" fill="#c1cfe8"/>
      <path id="Trazado_1249155" data-name="Trazado 1249155" d="M21,9H47.609v2.661H21Z" transform="translate(5.948 2.643)" fill="#c1cfe8"/>
      <path id="Trazado_1249156" data-name="Trazado 1249156" d="M19.225,23.877a1.33,1.33,0,0,1-.94-.39L14.293,19.5l1.881-1.881,3.051,3.051L27.6,12.293l1.881,1.881-9.313,9.313a1.33,1.33,0,0,1-.941.39Z" transform="translate(3.732 3.732)" fill="#a8d600"/>
      <path id="Trazado_1249157" data-name="Trazado 1249157" d="M19.225,35.877a1.33,1.33,0,0,1-.94-.39L14.293,31.5l1.881-1.881,3.051,3.051L27.6,24.293l1.881,1.881-9.313,9.313a1.33,1.33,0,0,1-.941.39Z" transform="translate(3.732 7.697)" fill="#a8d600"/>
      <path id="Trazado_1249158" data-name="Trazado 1249158" d="M19.225,47.877a1.33,1.33,0,0,1-.94-.39L14.293,43.5l1.881-1.881,3.051,3.051L27.6,36.293l1.881,1.881-9.313,9.313a1.33,1.33,0,0,1-.941.39Z" transform="translate(3.732 11.662)" fill="#a8d600"/>
      <g id="Grupo_1214057" data-name="Grupo 1214057" transform="translate(34.93 19.626)">
        <path id="Trazado_1249159" data-name="Trazado 1249159" d="M27,15H42.965v2.661H27Z" transform="translate(-27 -15)" fill="#c1cfe8"/>
        <path id="Trazado_1249160" data-name="Trazado 1249160" d="M27,19H56.269v2.661H27Z" transform="translate(-27 -13.678)" fill="#c1cfe8"/>
        <path id="Trazado_1249161" data-name="Trazado 1249161" d="M27,27H42.965v2.661H27Z" transform="translate(-27 -11.035)" fill="#c1cfe8"/>
        <path id="Trazado_1249162" data-name="Trazado 1249162" d="M27,31H56.269v2.661H27Z" transform="translate(-27 -9.713)" fill="#c1cfe8"/>
        <path id="Trazado_1249163" data-name="Trazado 1249163" d="M27,39H42.965v2.661H27Z" transform="translate(-27 -7.07)" fill="#c1cfe8"/>
        <path id="Trazado_1249164" data-name="Trazado 1249164" d="M27,43H44.822v2.661H27Z" transform="translate(-27 -5.748)" fill="#c1cfe8"/>
      </g>
      <path id="Trazado_1249165" data-name="Trazado 1249165" d="M64.2,1H8.322A5.322,5.322,0,0,0,3,6.322V14.3a1.33,1.33,0,0,0,1.33,1.33h6.652V72.843A5.322,5.322,0,0,0,16.3,78.165h36.21A15.949,15.949,0,1,0,69.521,52.288V6.322A5.322,5.322,0,0,0,64.2,1ZM5.661,12.974V6.322a2.661,2.661,0,1,1,5.322,0v6.652Zm7.983,59.869V6.322a5.267,5.267,0,0,0-.74-2.661H64.2a2.661,2.661,0,0,1,2.661,2.661V51.6a15.726,15.726,0,0,0-14.708,5.28H34.93v2.661H50.273a15.847,15.847,0,0,0-1.828,5.322H20.3a1.33,1.33,0,0,0-1.33,1.33v6.652a2.661,2.661,0,0,1-5.322,0ZM20.886,75.5a5.267,5.267,0,0,0,.74-2.661V67.521H48.245A15.839,15.839,0,0,0,50.516,75.5ZM77.5,67.322a13.3,13.3,0,1,1-13.3-13.3,13.3,13.3,0,0,1,13.3,13.3Z" transform="translate(0)"/>
      <path id="Trazado_1249166" data-name="Trazado 1249166" d="M14.33,26.538H24.974a1.33,1.33,0,0,0,1.33-1.33V17.776l3.6-3.6-1.881-1.881-1.812,1.812a1.33,1.33,0,0,0-1.239-.871H14.33A1.33,1.33,0,0,0,13,14.564V25.207a1.33,1.33,0,0,0,1.33,1.33Zm9.313-2.661H15.661v-3.44l3.051,3.051a1.33,1.33,0,0,0,1.881,0l3.051-3.051Zm0-7.983v.78l-3.991,3.991L16.6,17.615l-.941.941V15.894Z" transform="translate(3.304 3.732)"/>
      <path id="Trazado_1249167" data-name="Trazado 1249167" d="M25,5H40.965V7.661H25Z" transform="translate(7.269 1.322)"/>
      <path id="Trazado_1249168" data-name="Trazado 1249168" d="M21,9H47.609v2.661H21Z" transform="translate(5.948 2.643)"/>
      <path id="Trazado_1249169" data-name="Trazado 1249169" d="M14.33,38.538H24.974a1.33,1.33,0,0,0,1.33-1.33V29.776l3.6-3.6-1.881-1.881-1.812,1.812a1.33,1.33,0,0,0-1.239-.871H14.33A1.33,1.33,0,0,0,13,26.564V37.207a1.33,1.33,0,0,0,1.33,1.33Zm9.313-2.661H15.661v-3.44l3.051,3.051a1.33,1.33,0,0,0,1.881,0l3.051-3.051Zm0-7.983v.78l-3.991,3.991L16.6,29.615l-.941.941V27.894Z" transform="translate(3.304 7.697)"/>
      <path id="Trazado_1249170" data-name="Trazado 1249170" d="M26.3,49.207V41.776l3.6-3.6-1.881-1.881-1.812,1.812a1.33,1.33,0,0,0-1.239-.871H14.33A1.33,1.33,0,0,0,13,38.564V49.207a1.33,1.33,0,0,0,1.33,1.33H24.974A1.33,1.33,0,0,0,26.3,49.207Zm-2.661-9.313v.78l-3.991,3.991L16.6,41.615l-.941.941V39.894Zm-3.991,7.983H15.661v-3.44l3.051,3.051a1.33,1.33,0,0,0,1.881,0l3.051-3.051v3.44Z" transform="translate(3.304 11.662)"/>
      <path id="Trazado_1249171" data-name="Trazado 1249171" d="M46.262,49.561a1.33,1.33,0,0,0-1.881,0L40.39,53.553a1.33,1.33,0,0,0,0,1.881l7.983,7.983a1.33,1.33,0,0,0,1.881,0l13.3-13.3a1.33,1.33,0,0,0,0-1.881L59.567,44.24a1.33,1.33,0,0,0-1.881,0l-8.372,8.372Zm12.364-2.5,2.11,2.11L49.313,60.595l-6.1-6.1,2.11-2.11,3.051,3.051a1.33,1.33,0,0,0,1.881,0Z" transform="translate(12.226 14.159)"/>
      <path id="Trazado_1249172" data-name="Trazado 1249172" d="M27,15H42.965v2.661H27Z" transform="translate(7.93 4.626)"/>
      <path id="Trazado_1249173" data-name="Trazado 1249173" d="M27,19H56.269v2.661H27Z" transform="translate(7.93 5.948)"/>
      <path id="Trazado_1249174" data-name="Trazado 1249174" d="M27,27H42.965v2.661H27Z" transform="translate(7.93 8.591)"/>
      <path id="Trazado_1249175" data-name="Trazado 1249175" d="M27,31H56.269v2.661H27Z" transform="translate(7.93 9.913)"/>
      <path id="Trazado_1249176" data-name="Trazado 1249176" d="M27,39H42.965v2.661H27Z" transform="translate(7.93 12.556)"/>
    </g>
  </g>
</svg>
