<svg xmlns="http://www.w3.org/2000/svg" width="129.063" height="88.185" viewBox="0 0 129.063 88.185">
  <g id="Grupo_1213313" data-name="Grupo 1213313" transform="translate(-787.781 -2572.907)">
    <g id="Grupo_1201005" data-name="Grupo 1201005" transform="translate(0 26)">
      <g id="Rectángulo_410589" data-name="Rectángulo 410589" transform="translate(787.781 2575.623)" fill="#70d9c1" stroke="#4d9686" stroke-width="1">
        <rect width="129.063" height="43.021" rx="8" stroke="none"/>
        <rect x="0.5" y="0.5" width="128.063" height="42.021" rx="7.5" fill="none"/>
      </g>
    </g>
    <g id="optimization_17756837_1_" data-name="optimization_17756837 (1)" transform="translate(794.445 2543.795)">
      <g id="Grupo_1214060" data-name="Grupo 1214060" transform="translate(19.091 30.585)">
        <path id="Trazado_1249221" data-name="Trazado 1249221" d="M25.58,96.72H88.158v73.706H25.58Z" transform="translate(-25.58 -85.284)" fill="#fedc97" fill-rule="evenodd"/>
        <path id="Trazado_1249222" data-name="Trazado 1249222" d="M144.229,43.116h-2.793c.325-8.378-10.316-8.4-10.322,0h-2.788a4.51,4.51,0,0,0-4.6,4.39v1.531a4.505,4.505,0,0,0,4.6,4.384h15.9a4.5,4.5,0,0,0,4.59-4.384V47.506A4.5,4.5,0,0,0,144.229,43.116Z" transform="translate(-104.989 -36.826)" fill="#99f" fill-rule="evenodd"/>
        <path id="Trazado_1249223" data-name="Trazado 1249223" d="M56.16,254.53H72.445v9.986H56.16Z" transform="translate(-50.321 -212.962)" fill="#9ff" fill-rule="evenodd"/>
        <path id="Trazado_1249224" data-name="Trazado 1249224" d="M56.16,151.2H72.445v9.986H56.16Z" transform="translate(-50.321 -129.362)" fill="#9ff" fill-rule="evenodd"/>
        <path id="Trazado_1249225" data-name="Trazado 1249225" d="M224,252.941v-2.215a2.307,2.307,0,0,1,2.307-2.3h.319a2.279,2.279,0,0,0,2.213-1.667,18.336,18.336,0,0,1,1.526-3.685,2.27,2.27,0,0,0-.384-2.738l-.227-.227a2.3,2.3,0,0,1,0-3.257l1.558-1.564a2.3,2.3,0,0,1,3.257,0l.227.227a2.277,2.277,0,0,0,2.744.39,18.291,18.291,0,0,1,3.685-1.531,2.269,2.269,0,0,0,1.661-2.213v-.319a2.311,2.311,0,0,1,2.307-2.3H247.4a2.307,2.307,0,0,1,2.307,2.3v.319a2.269,2.269,0,0,0,1.661,2.213,18.294,18.294,0,0,1,3.691,1.531,2.272,2.272,0,0,0,2.738-.39l.227-.227a2.3,2.3,0,0,1,3.257,0l1.564,1.564a2.309,2.309,0,0,1,0,3.254l-.227.233a2.268,2.268,0,0,0-.389,2.738,17.948,17.948,0,0,1,1.526,3.685,2.284,2.284,0,0,0,2.213,1.667h.319a2.307,2.307,0,0,1,2.307,2.3v2.213a2.307,2.307,0,0,1-2.307,2.3h-.319a2.285,2.285,0,0,0-2.213,1.661,17.928,17.928,0,0,1-1.526,3.691,2.272,2.272,0,0,0,.389,2.738l.227.227a2.309,2.309,0,0,1,0,3.257l-1.564,1.564a2.3,2.3,0,0,1-3.257,0l-.227-.227a2.272,2.272,0,0,0-2.738-.39,18.342,18.342,0,0,1-3.691,1.531,2.267,2.267,0,0,0-1.661,2.209v.325a2.307,2.307,0,0,1-2.307,2.3h-2.209a2.311,2.311,0,0,1-2.307-2.3V271.5a2.271,2.271,0,0,0-1.661-2.209,18.247,18.247,0,0,1-3.685-1.531,2.279,2.279,0,0,0-2.744.39l-.227.227a2.3,2.3,0,0,1-3.257,0l-1.558-1.564a2.3,2.3,0,0,1,0-3.257l.227-.227a2.269,2.269,0,0,0,.384-2.738,18.077,18.077,0,0,1-1.526-3.691,2.283,2.283,0,0,0-2.213-1.661h-.319A2.308,2.308,0,0,1,224,252.941Z" transform="translate(-186.114 -192.744)" fill="#fbb13c" fill-rule="evenodd"/>
        <path id="Trazado_1249226" data-name="Trazado 1249226" d="M288.525,281.68a12.335,12.335,0,1,1-12.335,12.335A12.335,12.335,0,0,1,288.525,281.68Z" transform="translate(-228.339 -234.928)" fill="#fff" fill-rule="evenodd"/>
        <path id="Trazado_1249227" data-name="Trazado 1249227" d="M301.763,232.17l-7.962,9.541-5.77-5.316-6.809,8.319a12.355,12.355,0,0,1-3.112-5.585l9.434-11.21,5.953,5.493,5.006-6.29,6.116-7.685-4.174-3.361,15.367-5.948-2.534,16.281-4.015-3.231Z" transform="translate(-229.892 -177.04)" fill="#3c6" fill-rule="evenodd"/>
        <path id="Trazado_1249228" data-name="Trazado 1249228" d="M107.89,392.49h20.745v9.986H107.89Z" transform="translate(-92.174 -324.58)" fill="#9ff" fill-rule="evenodd"/>
      </g>
      <path id="Trazado_1249229" data-name="Trazado 1249229" d="M54.027,100.07H36.335V107H54.027Zm-19.22-3.059h8.844V91.524H33.108a1.523,1.523,0,0,1-1.526-1.655l-.027-6.16H24.93A1.527,1.527,0,0,1,23.4,82.183V72.2a1.524,1.524,0,0,1,1.526-1.526h6.614v-6.69H24.93A1.524,1.524,0,0,1,23.4,62.456V52.47a1.524,1.524,0,0,1,1.526-1.526H41.215a1.524,1.524,0,0,1,1.526,1.526v9.986a1.524,1.524,0,0,1-1.526,1.526H34.6v6.69h6.614A1.524,1.524,0,0,1,42.741,72.2v9.986a1.527,1.527,0,0,1-1.526,1.526H34.6l.017,4.762H45.177A1.529,1.529,0,0,1,46.709,90v7.015h8.844a1.527,1.527,0,0,1,1.526,1.526v9.986a1.524,1.524,0,0,1-1.526,1.526H34.807a1.524,1.524,0,0,1-1.526-1.526V98.537a1.527,1.527,0,0,1,1.526-1.526ZM90.075,89.2l-5.906,7.074a1.522,1.522,0,0,1-2.2.147l-.006.006-4.579-4.222-4.865,5.948A10.808,10.808,0,0,0,90.075,89.2Zm-21.58-.254,7.086-8.417a1.524,1.524,0,0,1,2.192-.141l4.752,4.378,3.059-3.838a10.82,10.82,0,0,0-17.089,8.018Zm18.981-10.4,2.4-3.021a3.778,3.778,0,0,1-2.576-.407,17.025,17.025,0,0,0-3.378-1.407,3.809,3.809,0,0,1-2.771-3.67c0-.374.038-.714-.346-.968a.773.773,0,0,0-.428-.13H78.173a.781.781,0,0,0-.779.773,3.906,3.906,0,0,1-.764,2.625,3.821,3.821,0,0,1-2,1.369,16.931,16.931,0,0,0-3.378,1.407,3.82,3.82,0,0,1-4.558-.643c-.239-.244-.4-.454-.773-.454a.774.774,0,0,0-.546.221L63.809,75.81a.776.776,0,0,0,0,1.1l-.006.006a3.846,3.846,0,0,1,1.321,2.4,3.788,3.788,0,0,1-.443,2.381,16.771,16.771,0,0,0-1.4,3.378A3.807,3.807,0,0,1,59.6,87.837c-.336,0-.605-.038-.871.227a.773.773,0,0,0-.227.546v2.213a.781.781,0,0,0,.779.773,3.9,3.9,0,0,1,2.62.769,3.815,3.815,0,0,1,1.375,2,17.2,17.2,0,0,0,.605,1.726l.8,1.655a3.813,3.813,0,0,1-.643,4.552c-.239.239-.454.4-.454.773a.779.779,0,0,0,.227.552l1.564,1.564a.781.781,0,0,0,1.094,0h.006a3.9,3.9,0,0,1,2.4-1.321,3.859,3.859,0,0,1,2.381.443,16.467,16.467,0,0,0,3.378,1.407A3.807,3.807,0,0,1,77.4,109.39a1.029,1.029,0,0,0,.233.867.763.763,0,0,0,.546.227h2.209a.776.776,0,0,0,.773-.773,3.911,3.911,0,0,1,.769-2.625,3.82,3.82,0,0,1,2-1.369,17.073,17.073,0,0,0,3.378-1.407,3.8,3.8,0,0,1,4.552.649,1.043,1.043,0,0,0,.779.449.785.785,0,0,0,.546-.221l1.564-1.564a.786.786,0,0,0,0-1.1v-.006a3.865,3.865,0,0,1-1.316-2.4c-.244-1.72.649-2.511,1.207-3.956l.638-1.8a3.814,3.814,0,0,1,3.676-2.767c.336,0,.605.038.867-.227a.78.78,0,0,0,.239-.546h-.006V88.608a.781.781,0,0,0-.779-.773,3.886,3.886,0,0,1-2.62-.769c-1.283-.964-1.31-2.041-1.888-3.49L92.662,86.1a13.995,13.995,0,1,1-5.186-7.548Zm2.581-6.585-1.369-1.1a1.527,1.527,0,0,1,.46-2.631L104.46,62.3a1.522,1.522,0,0,1,2.045,1.711l-2.522,16.22a1.531,1.531,0,0,1-2.457.959l-2.858-2.3-1.732,2.079a19.258,19.258,0,0,1,1.26,3.254c.174.59.649.563,1.071.563a3.834,3.834,0,0,1,3.832,3.826v2.213h-.006a3.828,3.828,0,0,1-3.826,3.832c-.422,0-.9-.032-1.071.558a19.7,19.7,0,0,1-1.652,4c-.292.531.044.844.351,1.153H96.9a3.835,3.835,0,0,1,0,5.417l-1.564,1.564a3.829,3.829,0,0,1-5.493-.086l-.147-.147-.006.006a.742.742,0,0,0-.926-.136,19.24,19.24,0,0,1-4,1.655c-.59.168-.558.649-.558,1.071a3.837,3.837,0,0,1-1.018,2.6v3.458a1.531,1.531,0,0,1-1.526,1.526H19.086a1.531,1.531,0,0,1-1.526-1.526V42.065a1.527,1.527,0,0,1,1.526-1.526H36.362a6.077,6.077,0,0,1,6.068-5.148H43.8c1.228-8.4,12.254-8.346,13.2,0h1.321A6.078,6.078,0,0,1,64.4,40.54H81.671A1.527,1.527,0,0,1,83.2,42.065V67.124a3.84,3.84,0,0,1,1.018,2.6c0,.422-.032.9.558,1.071a19.215,19.215,0,0,1,4,1.655c.531.292.85-.05,1.159-.357l-.006-.006c.04-.042.09-.086.132-.122ZM82.859,93.1l6.862-8.231a2,2,0,0,1,.141-.168L93.9,79.856c1.029-1.293,2.354-2.755,3.366-4.042a1.529,1.529,0,0,1,2.144-.233l1.965,1.587,1.72-11.074L92.648,70.141l2.116,1.7a1.525,1.525,0,0,1,.244,2.144L83.892,87.954a1.529,1.529,0,0,1-2.23.174l-4.785-4.416L69,93.074a10.665,10.665,0,0,0,1.419,2.835l5.635-6.891a1.526,1.526,0,0,1,2.213-.151Zm-2.721,20.448H78.173a3.838,3.838,0,0,1-3.832-3.832c0-.422.032-.9-.558-1.071a19.215,19.215,0,0,1-4-1.655c-.531-.292-.85.05-1.159.357l.006.006a3.835,3.835,0,0,1-5.417,0l-1.564-1.564a3.835,3.835,0,0,1,0-5.417c.3-.3.655-.611.357-1.153a21.486,21.486,0,0,1-.936-1.953,18.926,18.926,0,0,1-.714-2.045c-.174-.59-.649-.558-1.071-.558a3.836,3.836,0,0,1-3.832-3.832V88.616a3.831,3.831,0,0,1,3.832-3.826c.422,0,.9.027,1.071-.563a19.332,19.332,0,0,1,1.652-4c.292-.531-.05-.844-.357-1.153a3.835,3.835,0,0,1,0-5.417l1.564-1.564a3.835,3.835,0,0,1,5.417,0c.3.3.611.661,1.153.363a19.112,19.112,0,0,1,4-1.655c.59-.168.558-.649.558-1.071A3.837,3.837,0,0,1,78.175,65.9H80.14V43.591H64.4a6.082,6.082,0,0,1-6.072,5.163h-15.9a6.082,6.082,0,0,1-6.072-5.163H20.617V114.24H80.138ZM47.106,76.071a1.526,1.526,0,1,1,0-3.051h8.839a1.526,1.526,0,1,1,0,3.051Zm0,5.287a1.526,1.526,0,1,1,0-3.051h8.839a1.526,1.526,0,0,1,0,3.051Zm0-25.015a1.526,1.526,0,1,1,0-3.051h8.839a1.526,1.526,0,0,1,0,3.051Zm0,5.287a1.526,1.526,0,1,1,0-3.051h8.839a1.526,1.526,0,0,1,0,3.051ZM33.076,73.723H26.458V80.65H39.692V73.723Zm6.614-19.73H26.458v6.933H39.692V53.993ZM58.325,38.449H55.538a1.523,1.523,0,0,1-1.516-1.7c.162-3.593-2.576-5.434-5.012-4.26-1.272.617-2.274,2.083-2.274,4.428a1.52,1.52,0,0,1-1.522,1.522v.011H42.426a2.973,2.973,0,0,0-3.068,2.858v1.529A2.974,2.974,0,0,0,42.426,45.7h15.9a2.973,2.973,0,0,0,3.068-2.858V41.307A2.968,2.968,0,0,0,58.325,38.449Z"/>
    </g>
  </g>
</svg>
