<svg id="comprobado" xmlns="http://www.w3.org/2000/svg" width="105.558" height="107.41" viewBox="0 0 105.558 107.41">
  <ellipse id="Elipse_12456" data-name="Elipse 12456" cx="52.779" cy="53.705" rx="52.779" ry="53.705" transform="translate(0 0)" fill="#32ba7c"/>
  <path id="Trazado_1249230" data-name="Trazado 1249230" d="M188.8,195.435l26.222,26.222a50.962,50.962,0,0,0,37.8-49.226v-1.448L232.235,152Z" transform="translate(-147.268 -116.016)" fill="#0aa06e"/>
  <g id="Grupo_1214065" data-name="Grupo 1214065" transform="translate(18.916 27.903)">
    <path id="Trazado_1249231" data-name="Trazado 1249231" d="M120.35,221.881a6.023,6.023,0,0,1,0,8.365l-4.665,4.665a6.023,6.023,0,0,1-8.365,0L86.889,214.32a6.023,6.023,0,0,1,0-8.365l4.665-4.665a6.023,6.023,0,0,1,8.365,0Z" transform="translate(-85.2 -184.639)" fill="#fff"/>
    <path id="Trazado_1249232" data-name="Trazado 1249232" d="M201.481,126.889a6.023,6.023,0,0,1,8.365,0l4.665,4.665a6.023,6.023,0,0,1,0,8.365L179.12,175.15a6.023,6.023,0,0,1-8.365,0l-4.665-4.665a6.023,6.023,0,0,1,0-8.365Z" transform="translate(-148.474 -125.2)" fill="#fff"/>
  </g>
</svg>
