<svg xmlns="http://www.w3.org/2000/svg" width="107.818" height="107.814" viewBox="0 0 107.818 107.814">
  <g id="circulo-no-disponible" transform="translate(0 -0.004)">
    <path id="Trazado_1249236" data-name="Trazado 1249236" d="M53.91,0a53.908,53.908,0,1,0,53.908,53.908A53.967,53.967,0,0,0,53.91,0ZM41.769,70.492h-9l-7.649-14.33C23,52.336,20.608,48.9,18.906,43.007H18.7c.263,5.89-.485,10.9-.485,16.748V70.492H10.358V35.154H21.085l7.441,13.187A124.215,124.215,0,0,1,34.37,60.676h.108c-.479-5.89-.562-10.113-.562-15.531V35.154h7.853V70.492ZM51,72.455H45.631L57.008,33.191h5.361Zm36.239-1.963-2.762-9.816H74.219l-2.55,9.816H63.322l10.9-35.338H84.844L96.009,70.492h-8.77ZM79.271,41.044h-.11c-.532,1.963-1.064,4.454-1.649,6.524l-2.124,7.219H83.3l-2.23-7.219C80.435,45.445,79.8,43.007,79.271,41.044Z" fill="#010002"/>
  </g>
</svg>
