<svg xmlns="http://www.w3.org/2000/svg" width="127" height="275.063" viewBox="0 0 127 275.063">
  <g id="Grupo_1214088" data-name="Grupo 1214088" transform="translate(-601.051 -25915)">
    <rect id="Rect치ngulo_411091" data-name="Rect치ngulo 411091" width="127" height="275.063" transform="translate(601.051 25915)" fill="#4d9686"/>
    <g id="Grupo_1214067" data-name="Grupo 1214067" transform="translate(612.051 26036)">
      <g id="Rect치ngulo_410589" data-name="Rect치ngulo 410589" fill="#60a697" stroke="#295e52" stroke-width="1">
        <rect width="104.598" height="34.866" rx="8" stroke="none"/>
        <rect x="0.5" y="0.5" width="103.598" height="33.866" rx="7.5" fill="none"/>
      </g>
    </g>
    <g id="camera_4227178" transform="translate(630.686 26018.307)">
      <g id="Color" transform="translate(3.444 3.772)">
        <g id="Grupo_1214086" data-name="Grupo 1214086">
          <g id="Grupo_1214078" data-name="Grupo 1214078" transform="translate(14.93)">
            <g id="Grupo_1214068" data-name="Grupo 1214068">
              <path id="Trazado_1249237" data-name="Trazado 1249237" d="M23.458,3.693H43.446L64.082,24.3v34.27A6.258,6.258,0,0,1,57.821,64.8H23.458A6.259,6.259,0,0,1,17.2,58.568V9.923a6.259,6.259,0,0,1,6.261-6.23Z" transform="translate(-17.197 -3.693)" fill="#eceaed" fill-rule="evenodd"/>
              <path id="Trazado_1249238" data-name="Trazado 1249238" d="M17.2,48.861V24.184H35.179a4.054,4.054,0,0,1,4.041,4.041v16.6a4.055,4.055,0,0,1-4.041,4.041Z" transform="translate(-17.197 -2.067)" fill="#d7d2d9" fill-rule="evenodd"/>
              <path id="Trazado_1249239" data-name="Trazado 1249239" d="M41.516,3.693,62.152,24.3H47.779a6.261,6.261,0,0,1-6.264-6.231V3.693Z" transform="translate(-15.267 -3.693)" fill="#d7d2d9" fill-rule="evenodd"/>
              <path id="Trazado_1249240" data-name="Trazado 1249240" d="M17.2,32.357h11.2V51.914H17.2Z" transform="translate(-17.197 -1.418)" fill="#f2f2f2" fill-rule="evenodd"/>
              <path id="Trazado_1249241" data-name="Trazado 1249241" d="M17.2,32.357h11.2V48.212H17.2Z" transform="translate(-17.197 -1.418)" fill="#eceaed" fill-rule="evenodd"/>
            </g>
            <g id="Grupo_1214077" data-name="Grupo 1214077" transform="translate(5.275 23.535)">
              <g id="Grupo_1214069" data-name="Grupo 1214069" transform="translate(0)">
                <path id="Trazado_1249242" data-name="Trazado 1249242" d="M25.63,25.5H55.211a3.548,3.548,0,0,1,3.548,3.548V55.11a3.548,3.548,0,0,1-3.548,3.548H25.63a3.567,3.567,0,0,1-3.546-3.548V29.046A3.567,3.567,0,0,1,25.63,25.5Z" transform="translate(-22.084 -25.498)" fill="#8aaed9" fill-rule="evenodd"/>
                <path id="Trazado_1249243" data-name="Trazado 1249243" d="M25.63,25.5H37.876a4.147,4.147,0,0,1,.957,2.623v16.6a4.055,4.055,0,0,1-4.041,4.041H22.084V29.046A3.567,3.567,0,0,1,25.63,25.5Z" transform="translate(-22.084 -25.498)" fill="#6c9ad0" fill-rule="evenodd"/>
              </g>
              <g id="Grupo_1214070" data-name="Grupo 1214070" transform="translate(0 7.403)">
                <path id="Trazado_1249244" data-name="Trazado 1249244" d="M22.084,51.915V32.357h27.73a2.843,2.843,0,0,1,2.806,2.838v13.88a2.845,2.845,0,0,1-2.806,2.84H22.084Z" transform="translate(-22.084 -32.357)" fill="#a7c3e3" fill-rule="evenodd"/>
                <path id="Trazado_1249245" data-name="Trazado 1249245" d="M22.084,48.213V32.357h16.75V44.171a4.055,4.055,0,0,1-4.041,4.041H22.084Z" transform="translate(-22.084 -32.357)" fill="#8aaed9" fill-rule="evenodd"/>
              </g>
              <g id="Grupo_1214071" data-name="Grupo 1214071" transform="translate(20.512 4.596)">
                <path id="Trazado_1249246" data-name="Trazado 1249246" d="M44.419,29.756a3.347,3.347,0,0,1,0,6.693,3.347,3.347,0,0,1,0-6.693Z" transform="translate(-41.088 -29.756)" fill="#ffaf19" fill-rule="evenodd"/>
                <path id="Trazado_1249247" data-name="Trazado 1249247" d="M47.688,32.357a3.324,3.324,0,1,1-6.6.555,3.463,3.463,0,0,1,.062-.555Z" transform="translate(-41.088 -29.55)" fill="#ffbc42" fill-rule="evenodd"/>
              </g>
              <g id="Grupo_1214076" data-name="Grupo 1214076" transform="translate(0 11.189)">
                <g id="Grupo_1214074" data-name="Grupo 1214074" transform="translate(7.772 4.405)">
                  <g id="Grupo_1214072" data-name="Grupo 1214072">
                    <path id="Trazado_1249248" data-name="Trazado 1249248" d="M58.188,49.029v4.935a3.541,3.541,0,0,1-3.517,3.548H29.285l16.5-16.687a3.054,3.054,0,0,1,4.288,0Z" transform="translate(-29.285 -39.945)" fill="#469895" fill-rule="evenodd"/>
                    <path id="Trazado_1249249" data-name="Trazado 1249249" d="M34.973,51.313,45.337,40.825a3.054,3.054,0,0,1,4.288,0L51.6,42.859v5.614a2.845,2.845,0,0,1-2.806,2.84Z" transform="translate(-28.834 -39.945)" fill="#6bacaa" fill-rule="evenodd"/>
                  </g>
                  <g id="Grupo_1214073" data-name="Grupo 1214073" transform="translate(1.079 3.995)">
                    <path id="Trazado_1249250" data-name="Trazado 1249250" d="M55.857,56.972a3.307,3.307,0,0,1-1.265.247H31.519a4.183,4.183,0,0,0-1.234-1.111L42.653,43.647Z" transform="translate(-30.285 -43.647)" fill="#218380" fill-rule="evenodd"/>
                    <path id="Trazado_1249251" data-name="Trazado 1249251" d="M34.973,51.019l7.308-7.372L49.5,50.926a2.623,2.623,0,0,1-.708.093Z" transform="translate(-29.913 -43.647)" fill="#469895" fill-rule="evenodd"/>
                  </g>
                </g>
                <g id="Grupo_1214075" data-name="Grupo 1214075">
                  <path id="Trazado_1249252" data-name="Trazado 1249252" d="M50.154,57.836H25.6a3.541,3.541,0,0,1-3.517-3.548V39.729l2.93-2.962a3,3,0,0,1,4.288,0Z" transform="translate(-22.084 -35.865)" fill="#469895" fill-rule="evenodd"/>
                  <path id="Trazado_1249253" data-name="Trazado 1249253" d="M22.084,51.637V39.729l2.93-2.962a3,3,0,0,1,4.288,0L44.016,51.636H22.084Z" transform="translate(-22.084 -35.865)" fill="#6bacaa" fill-rule="evenodd"/>
                  <path id="Trazado_1249254" data-name="Trazado 1249254" d="M22.084,47.934V39.729l2.93-2.962a3,3,0,0,1,4.288,0l9.006,9.1a4.007,4.007,0,0,1-3.517,2.068Z" transform="translate(-22.084 -35.865)" fill="#469895" fill-rule="evenodd"/>
                </g>
              </g>
            </g>
          </g>
          <g id="Grupo_1214085" data-name="Grupo 1214085" transform="translate(0 12.894)">
            <g id="Grupo_1214079" data-name="Grupo 1214079" transform="translate(7.805)">
              <path id="Trazado_1249255" data-name="Trazado 1249255" d="M10.6,21.438V19.494a3.877,3.877,0,0,1,3.855-3.855h9.316a3.9,3.9,0,0,1,3.855,3.855v1.944L19.541,23.1Z" transform="translate(-10.596 -15.639)" fill="#726378" fill-rule="evenodd"/>
              <path id="Trazado_1249256" data-name="Trazado 1249256" d="M10.6,21.187V19.243a2.3,2.3,0,0,1,.029-.432H27.592c0,.154.031.308.031.432v1.944l-8.082,1.665Z" transform="translate(-10.596 -15.387)" fill="#56445d" fill-rule="evenodd"/>
            </g>
            <g id="Grupo_1214080" data-name="Grupo 1214080" transform="translate(0 5.799)">
              <path id="Trazado_1249257" data-name="Trazado 1249257" d="M7.406,21.012H31.959A4.054,4.054,0,0,1,36,25.053v16.6a4.055,4.055,0,0,1-4.039,4.041H7.406a4.055,4.055,0,0,1-4.041-4.041v-16.6a4.054,4.054,0,0,1,4.041-4.041Z" transform="translate(-3.365 -21.012)" fill="#ffaf19" fill-rule="evenodd"/>
              <path id="Trazado_1249258" data-name="Trazado 1249258" d="M7.406,21.012h.4V32.025A1.9,1.9,0,0,1,5.9,33.9H3.365V25.053a4.054,4.054,0,0,1,4.041-4.041Z" transform="translate(-3.365 -21.012)" fill="#ffbc42" fill-rule="evenodd"/>
              <path id="Trazado_1249259" data-name="Trazado 1249259" d="M3.736,42.891a4.034,4.034,0,0,1-.371-1.727V27.1h26.4a1.825,1.825,0,0,1,1.82,1.822V41.074a1.823,1.823,0,0,1-1.82,1.82H3.736Z" transform="translate(-3.365 -20.529)" fill="#ffbc42" fill-rule="evenodd"/>
              <path id="Trazado_1249260" data-name="Trazado 1249260" d="M29.491,23.383a1.62,1.62,0,0,1,1.6,1.636,1.594,1.594,0,0,1-1.6,1.6,1.622,1.622,0,0,1-1.636-1.6A1.647,1.647,0,0,1,29.491,23.383Z" transform="translate(-1.421 -20.824)" fill="#ffd485" fill-rule="evenodd"/>
            </g>
            <g id="Grupo_1214081" data-name="Grupo 1214081" transform="translate(0 9.933)">
              <path id="Trazado_1249261" data-name="Trazado 1249261" d="M3.365,41V24.842h4.07A2.474,2.474,0,0,1,9.9,27.308v11.26a2.449,2.449,0,0,1-2.468,2.437H3.365Z" transform="translate(-3.365 -24.842)" fill="#56445d" fill-rule="evenodd"/>
              <path id="Trazado_1249262" data-name="Trazado 1249262" d="M3.365,33.6V24.842h4.07a1.6,1.6,0,0,1,.371.029v6.85A1.9,1.9,0,0,1,5.9,33.6Z" transform="translate(-3.365 -24.842)" fill="#726378" fill-rule="evenodd"/>
              <path id="Trazado_1249263" data-name="Trazado 1249263" d="M3.365,40.825V27.1H9.9V38.389a2.449,2.449,0,0,1-2.468,2.437H3.365Z" transform="translate(-3.365 -24.663)" fill="#726378" fill-rule="evenodd"/>
              <path id="Trazado_1249264" data-name="Trazado 1249264" d="M3.365,33.422V27.1H7.807v4.444A1.9,1.9,0,0,1,5.9,33.422Z" transform="translate(-3.365 -24.663)" fill="#8e8293" fill-rule="evenodd"/>
            </g>
            <g id="Grupo_1214084" data-name="Grupo 1214084" transform="translate(7.896 9.716)">
              <g id="Grupo_1214082" data-name="Grupo 1214082">
                <path id="Trazado_1249265" data-name="Trazado 1249265" d="M19.1,24.641a8.421,8.421,0,1,1-8.42,8.422A8.413,8.413,0,0,1,19.1,24.641Z" transform="translate(-10.68 -24.641)" fill="#56445d" fill-rule="evenodd"/>
                <path id="Trazado_1249266" data-name="Trazado 1249266" d="M19.1,24.641a8.453,8.453,0,0,1,3.177.617,8.316,8.316,0,0,1,.8,3.577,8.457,8.457,0,0,1-11.629,7.8,8.524,8.524,0,0,1-.772-3.577A8.414,8.414,0,0,1,19.1,24.641Z" transform="translate(-10.68 -24.641)" fill="#726378" fill-rule="evenodd"/>
              </g>
              <g id="Grupo_1214083" data-name="Grupo 1214083" transform="translate(3.794 3.826)">
                <path id="Trazado_1249267" data-name="Trazado 1249267" d="M18.822,28.186a4.612,4.612,0,1,1-4.627,4.6A4.606,4.606,0,0,1,18.822,28.186Z" transform="translate(-14.195 -28.186)" fill="#726378" fill-rule="evenodd"/>
                <path id="Trazado_1249268" data-name="Trazado 1249268" d="M18.822,28.186a4.63,4.63,0,0,1,3.826,2.035,8.47,8.47,0,0,1-6.2,6.51,4.592,4.592,0,0,1,2.374-8.544Z" transform="translate(-14.195 -28.186)" fill="#8e8293" fill-rule="evenodd"/>
              </g>
            </g>
          </g>
        </g>
      </g>
      <g id="Outline" transform="translate(2.365 2.693)">
        <g id="Grupo_1214087" data-name="Grupo 1214087">
          <path id="Trazado_1249269" data-name="Trazado 1249269" d="M64.925,23.613,44.288,3.008a1.082,1.082,0,0,0-.763-.315H23.538A7.333,7.333,0,0,0,16.2,10v2.347h2.159V10a5.171,5.171,0,0,1,5.182-5.15H43.078l20,19.974V58.648A5.172,5.172,0,0,1,57.9,63.8H23.538a5.174,5.174,0,0,1-5.182-5.152V50.382H16.2v8.266a7.334,7.334,0,0,0,7.341,7.311H57.9a7.334,7.334,0,0,0,7.341-7.311V24.378a1.086,1.086,0,0,0-.316-.765Z" transform="translate(-1.267 -2.693)"/>
          <path id="Trazado_1249270" data-name="Trazado 1249270" d="M40.516,7.693V17.748a7.335,7.335,0,0,0,7.343,7.311H57.914V22.9H47.859a5.175,5.175,0,0,1-5.184-5.152V7.693Z" transform="translate(0.663 -2.296)"/>
          <path id="Trazado_1249271" data-name="Trazado 1249271" d="M44.5,37.608a4.426,4.426,0,1,0-4.41-4.41A4.415,4.415,0,0,0,44.5,37.608Zm0-6.693A2.3,2.3,0,0,1,46.75,33.2,2.254,2.254,0,0,1,44.5,35.449,2.227,2.227,0,0,1,42.247,33.2,2.27,2.27,0,0,1,44.5,30.915Z" transform="translate(0.629 -0.625)"/>
          <path id="Trazado_1249272" data-name="Trazado 1249272" d="M36.083,45.256,49.132,58.442H27.195a2.5,2.5,0,0,1-2.466-2.468v-6.4H22.57v6.4A4.631,4.631,0,0,0,27.195,60.6H56.776A4.632,4.632,0,0,0,61.4,55.973V29.908a4.632,4.632,0,0,0-4.627-4.627H39.317v2.159h17.46a2.471,2.471,0,0,1,2.468,2.468v18.5l-6.28-6.352a4.148,4.148,0,0,0-5.808.015l-3.763,3.8L44.93,47.4l3.758-3.8a1.98,1.98,0,0,1,2.758,0l7.8,7.89v4.491a2.471,2.471,0,0,1-2.468,2.468H52.17L37.056,43.169a5.071,5.071,0,0,0,.1-1.015v-16.6a5.125,5.125,0,0,0-5.118-5.12H29.357v-.865a5,5,0,0,0-4.935-4.935H15.106a4.94,4.94,0,0,0-4.935,4.935v.865H7.485a5.126,5.126,0,0,0-5.12,5.12v16.6a5.126,5.126,0,0,0,5.12,5.12H32.039A5.094,5.094,0,0,0,36.083,45.256ZM12.329,19.574A2.813,2.813,0,0,1,15.1,16.8h9.316A2.813,2.813,0,0,1,27.2,19.574v.865H12.329Zm-7.8,22.58V26.731H7.515A1.389,1.389,0,0,1,8.9,28.118v11.26a1.376,1.376,0,0,1-1.389,1.358H6.682v2.159h.832a3.536,3.536,0,0,0,3.548-3.517V37.661a9.5,9.5,0,1,0,0-7.611V28.117a3.551,3.551,0,0,0-3.548-3.546H4.705A2.959,2.959,0,0,1,7.485,22.6H32.039A2.964,2.964,0,0,1,35,25.558v16.6a2.964,2.964,0,0,1-2.96,2.962H7.485a2.964,2.964,0,0,1-2.962-2.961Zm7.9-8.3A7.342,7.342,0,1,1,19.762,41.2,7.35,7.35,0,0,1,12.421,33.856Z" transform="translate(-2.365 -1.745)"/>
          <path id="Trazado_1249273" data-name="Trazado 1249273" d="M22,32.86h2.159a5.681,5.681,0,0,0-5.675-5.675v2.159A3.522,3.522,0,0,1,22,32.86Z" transform="translate(-1.086 -0.749)"/>
          <path id="Trazado_1249274" data-name="Trazado 1249274" d="M32.254,25.1a2.7,2.7,0,1,0-2.683,2.683A2.7,2.7,0,0,0,32.254,25.1Zm-2.683.526a.542.542,0,0,1-.557-.525.572.572,0,0,1,.557-.557.541.541,0,0,1,.525.557A.513.513,0,0,1,29.571,25.623Z" transform="translate(-0.421 -1.13)"/>
        </g>
      </g>
    </g>
  </g>
</svg>
