<svg xmlns="http://www.w3.org/2000/svg" width="129.063" height="87.541" viewBox="0 0 129.063 87.541">
  <g id="Grupo_1213325" data-name="Grupo 1213325" transform="translate(-787.781 -2579.363)">
    <g id="Grupo_1201005" data-name="Grupo 1201005" transform="translate(0 26)">
      <g id="Rectángulo_410589" data-name="Rectángulo 410589" transform="translate(787.781 2575.623)" fill="#70d9c1" stroke="#4d9686" stroke-width="1">
        <rect width="129.063" height="43.021" rx="8" stroke="none"/>
        <rect x="0.5" y="0.5" width="128.063" height="42.021" rx="7.5" fill="none"/>
      </g>
    </g>
    <g id="feed_4089390" transform="translate(803.667 2579.363)">
      <g id="Grupo_1214102" data-name="Grupo 1214102" transform="translate(1.412 1.412)">
        <g id="Grupo_1214091" data-name="Grupo 1214091" transform="translate(42.359 67.774)">
          <path id="Trazado_1249302" data-name="Trazado 1249302" d="M47.943,50.412v1.412A14.086,14.086,0,0,1,42.3,63.12,2.832,2.832,0,0,0,39.472,60.3H31V50.412A1.416,1.416,0,0,1,32.412,49h14.12A1.416,1.416,0,0,1,47.943,50.412Z" transform="translate(-31 -49)" fill="#dfb28b"/>
        </g>
        <g id="Grupo_1214092" data-name="Grupo 1214092" transform="translate(0 67.774)">
          <path id="Trazado_1249303" data-name="Trazado 1249303" d="M37.711,50.412V60.3H32.063a2.832,2.832,0,0,0-2.824,2.824,2.844,2.844,0,0,0,2.824,2.824H15.12A14.125,14.125,0,0,1,1,51.824V50.412A1.416,1.416,0,0,1,2.412,49H22.179a1.416,1.416,0,0,1,1.412,1.412v4.236a2.832,2.832,0,0,0,2.824,2.824,2.844,2.844,0,0,0,2.824-2.824V50.412A1.416,1.416,0,0,1,30.651,49H36.3A1.416,1.416,0,0,1,37.711,50.412Z" transform="translate(-1 -49)" fill="#dfb28b"/>
        </g>
        <g id="Grupo_1214093" data-name="Grupo 1214093" transform="translate(28.239 67.774)">
          <path id="Trazado_1249304" data-name="Trazado 1249304" d="M43.591,60.3a2.832,2.832,0,0,1,2.824,2.824,2.844,2.844,0,0,1-2.824,2.824H23.824A2.844,2.844,0,0,1,21,63.12,2.832,2.832,0,0,1,23.824,60.3h5.648V50.412A1.416,1.416,0,0,0,28.06,49h8.472a1.416,1.416,0,0,0-1.412,1.412V60.3Z" transform="translate(-21 -49)" fill="#69d6f4"/>
        </g>
        <g id="Grupo_1214094" data-name="Grupo 1214094" transform="translate(21.179 67.774)">
          <path id="Trazado_1249305" data-name="Trazado 1249305" d="M16,49h8.472a1.416,1.416,0,0,0-1.412,1.412v4.236a2.844,2.844,0,0,1-2.824,2.824,2.832,2.832,0,0,1-2.824-2.824V50.412A1.416,1.416,0,0,0,16,49Z" transform="translate(-16 -49)" fill="#69d6f4"/>
        </g>
        <g id="Grupo_1214095" data-name="Grupo 1214095" transform="translate(22.591 11.296)">
          <path id="Trazado_1249306" data-name="Trazado 1249306" d="M37.487,19.632l.692,2.076A17.462,17.462,0,0,0,30.752,24.6,16.641,16.641,0,0,0,17,13.236l2.951-1.765A17.173,17.173,0,0,1,28.846,9a16.756,16.756,0,0,1,8.472,2.287h.014a13.786,13.786,0,0,0-.565,3.911,13.952,13.952,0,0,0,.72,4.434Z" transform="translate(-17 -9)" fill="#969faa"/>
        </g>
        <g id="Grupo_1214096" data-name="Grupo 1214096" transform="translate(11.296 2.824)">
          <path id="Trazado_1249307" data-name="Trazado 1249307" d="M65.944,20.028l5.182-4.321V3l-1,1.2A45.091,45.091,0,0,1,56.936,15a12.264,12.264,0,0,0,.071-1.257v-5.1H55.594a9.882,9.882,0,0,0-9.884,9.884v5.648H41.475a17.462,17.462,0,0,0-7.427,2.894c-.282.2-.565.4-.833.607a17.487,17.487,0,0,0-5.422,7.144L24.6,42.577l-2.894,7.017h-3.29A9.406,9.406,0,0,0,9,59.012a9.349,9.349,0,0,0,3.77,7.526l1.878,1.412h14.12l2.3-1.384c.141-.085.268-.155.409-.24a22.364,22.364,0,0,1,9.9-2.909H41.5A22.3,22.3,0,0,0,61.186,49.086l9.94-3.728V39.711l-2.683-.678A3.886,3.886,0,0,1,66.3,37.649a3.942,3.942,0,0,1-.819-2.4,3.965,3.965,0,0,0-.649-2.174l-.635-.946a9.143,9.143,0,0,1,1.751-12.1Z" transform="translate(-9 -3)" fill="#ccd1d9"/>
        </g>
        <g id="Grupo_1214097" data-name="Grupo 1214097" transform="translate(42.359 2.824)">
          <path id="Trazado_1249308" data-name="Trazado 1249308" d="M47.943,3V8.648H46.531a9.882,9.882,0,0,0-9.884,9.884v5.648H32.412L31.72,22.1A13.952,13.952,0,0,1,31,17.67a13.786,13.786,0,0,1,.565-3.911A14,14,0,0,1,42.691,3.875Z" transform="translate(-31 -3)" fill="#aab2bd"/>
        </g>
        <g id="Grupo_1214098" data-name="Grupo 1214098" transform="translate(64.95 15.531)">
          <path id="Trazado_1249309" data-name="Trazado 1249309" d="M55.472,12V36l-2.683-.678a3.886,3.886,0,0,1-2.146-1.384,3.942,3.942,0,0,1-.819-2.4,3.965,3.965,0,0,0-.649-2.174l-.635-.946a9.143,9.143,0,0,1,1.751-12.1Z" transform="translate(-47 -12)" fill="#969faa"/>
        </g>
        <g id="Grupo_1214099" data-name="Grupo 1214099" transform="translate(36.711 33.887)">
          <path id="Trazado_1249310" data-name="Trazado 1249310" d="M32.648,25h2.824a5.64,5.64,0,0,1-5.648,5.648H27A5.64,5.64,0,0,1,32.648,25Z" transform="translate(-27 -25)" fill="#969faa"/>
        </g>
        <g id="Grupo_1214100" data-name="Grupo 1214100" transform="translate(16.943 53.654)">
          <ellipse id="Elipse_12461" data-name="Elipse 12461" cx="3" cy="2.5" rx="3" ry="2.5" transform="translate(-0.355 0.476)" fill="#969faa"/>
        </g>
        <g id="Grupo_1214101" data-name="Grupo 1214101" transform="translate(73.421)">
          <path id="Trazado_1249311" data-name="Trazado 1249311" d="M64.3,2.412V84.305a1.416,1.416,0,0,1-1.412,1.412H54.412A1.416,1.416,0,0,1,53,84.305V2.412A1.416,1.416,0,0,1,54.412,1h8.472A1.416,1.416,0,0,1,64.3,2.412Z" transform="translate(-53 -1)" fill="#d3a06c"/>
        </g>
      </g>
      <g id="Grupo_1214103" data-name="Grupo 1214103" transform="translate(0 0)">
        <path id="Trazado_1249312" data-name="Trazado 1249312" d="M84.717,0H76.245a2.827,2.827,0,0,0-2.824,2.824v.9l-.669.8a43.617,43.617,0,0,1-10.626,9.217V2.57l-6.9,1.149A15.338,15.338,0,0,0,43.536,13.01a18.848,18.848,0,0,0-17.311.953l-2.95,1.769a1.412,1.412,0,0,0,.551,2.612,15.228,15.228,0,0,1,12.22,9.521A18.848,18.848,0,0,0,30.19,35.52l-5.721,13.9H22.121a10.805,10.805,0,0,0-7.75,18.355H2.824A2.827,2.827,0,0,0,0,70.6V72.01A15.55,15.55,0,0,0,15.531,87.541H52.242a4.234,4.234,0,0,0,4.164-3.521,15.387,15.387,0,0,0,5.72-12.01V70.6A2.827,2.827,0,0,0,59.3,67.774H45.182A2.827,2.827,0,0,0,42.359,70.6v4.236h2.824V70.6H59.3V72.01a12.576,12.576,0,0,1-3.612,8.852,4.226,4.226,0,0,0-3.448-1.792h-7.06v2.824h7.06a1.412,1.412,0,1,1,0,2.824H32.475a1.412,1.412,0,1,1,0-2.824h7.06V70.6A2.816,2.816,0,0,0,37.6,67.93a21.3,21.3,0,0,1,7.689-1.869A23.731,23.731,0,0,0,65.972,51.426l7.449-2.794V84.717a2.827,2.827,0,0,0,2.824,2.824h8.472a2.827,2.827,0,0,0,2.824-2.824V2.824A2.827,2.827,0,0,0,84.717,0Zm-11.3,39.138L72.49,38.9A2.494,2.494,0,0,1,70.6,36.482a5.3,5.3,0,0,0-.894-2.951l-.63-.945a7.742,7.742,0,0,1,1.487-10.244l2.861-2.385ZM32.6,14.519A11.015,11.015,0,0,1,30.3,17.5a18.013,18.013,0,0,0-2.575-1.138A15.576,15.576,0,0,1,32.6,14.519Zm.178,4.542a13.943,13.943,0,0,0,3.095-4.891,15.679,15.679,0,0,1,6.019,1.2,11,11,0,0,1-5.881,6.813,18.227,18.227,0,0,0-3.233-3.119Zm4.829,5.5a13.814,13.814,0,0,0,4.84-4.117,15.382,15.382,0,0,0,.7,3.336l.184.551a18.792,18.792,0,0,0-4.873,1.932,17.574,17.574,0,0,0-.856-1.7ZM22.121,52.242H24.6l8.65,14.83-1.171.7H31.063A2.827,2.827,0,0,0,28.239,70.6v4.236a1.412,1.412,0,1,1-2.824,0V70.6a2.827,2.827,0,0,0-2.824-2.824h-.827l1.826-1.826-2-2-3.37,3.37-.9-.678a8,8,0,0,1,4.8-14.4Zm14.59,26.827H32.475a4.238,4.238,0,0,0-3.994,5.648H15.531A12.722,12.722,0,0,1,2.824,72.01V70.6H22.591v4.236a4.236,4.236,0,0,0,8.472,0V70.6h5.648ZM67.072,48a23.733,23.733,0,0,0,.7-5.638H64.95A20.937,20.937,0,0,1,45.009,63.247a23.828,23.828,0,0,0-9.289,2.445L26.987,50.722l1.967-4.778,4.607,3.072A10.8,10.8,0,0,0,47.628,47.2l7.067-7.951a7.048,7.048,0,0,0,1.783-4.691v-3.5H53.654v3.5a4.236,4.236,0,0,1-1.07,2.814l-7.067,7.951a7.978,7.978,0,0,1-10.389,1.339l-5.077-3.386L32.8,36.6a16.122,16.122,0,0,1,12.579-9.785l1.675-.239-1.228-3.687A12.576,12.576,0,0,1,55.69,6.5L59.3,5.9v2.57a11.309,11.309,0,0,0-11.3,11.3H50.83A8.48,8.48,0,0,1,59.3,11.3v3.692A9.773,9.773,0,0,1,53.13,24.1l1.048,2.621a12.561,12.561,0,0,0,7.752-9.593A46.4,46.4,0,0,0,73.42,8.048v8.233l-4.671,3.891a10.57,10.57,0,0,0-2.025,13.98l.63.945a2.5,2.5,0,0,1,.419,1.385A5.313,5.313,0,0,0,71.8,41.644l1.617.405v3.567Zm9.173,36.721V2.824h8.472V84.717Z" transform="translate(0 0)"/>
        <path id="Trazado_1249313" data-name="Trazado 1249313" d="M16.236,46.472A4.236,4.236,0,1,0,12,42.236,4.241,4.241,0,0,0,16.236,46.472Zm0-5.648a1.412,1.412,0,1,1-1.412,1.412A1.413,1.413,0,0,1,16.236,40.824Z" transform="translate(4.943 15.654)"/>
        <path id="Trazado_1249314" data-name="Trazado 1249314" d="M26,31.06v1.412h4.236a7.068,7.068,0,0,0,7.06-7.06V24H33.06A7.068,7.068,0,0,0,26,31.06Zm4.236-1.412H29.065a4.244,4.244,0,0,1,3.994-2.824H34.23A4.244,4.244,0,0,1,30.236,29.648Z" transform="translate(10.711 9.887)"/>
      </g>
    </g>
  </g>
</svg>
