<svg xmlns="http://www.w3.org/2000/svg" width="129.063" height="94.242" viewBox="0 0 129.063 94.242">
  <g id="Grupo_1213329" data-name="Grupo 1213329" transform="translate(-787.781 -2572.907)">
    <g id="Grupo_1201005" data-name="Grupo 1201005" transform="translate(0 26)">
      <g id="Rectángulo_410589" data-name="Rectángulo 410589" transform="translate(787.781 2575.623)" fill="#70d9c1" stroke="#4d9686" stroke-width="1">
        <rect width="129.063" height="43.021" rx="8" stroke="none"/>
        <rect x="0.5" y="0.5" width="128.063" height="42.021" rx="7.5" fill="none"/>
      </g>
    </g>
    <g id="gloves_11422915" transform="translate(805.186 2572.907)">
      <path id="Trazado_1249333" data-name="Trazado 1249333" d="M75.352,98.136H58.911a2.779,2.779,0,0,1,0-5.559h21.2l1.34.736-6.3-4A3.112,3.112,0,0,1,78.3,83.941l14.961,8.636h11.78a1.951,1.951,0,0,1,1.973,1.922v18.407a1.922,1.922,0,0,1-1.922,1.922H64.9a2.79,2.79,0,0,1-.022-5.581H58.9a2.779,2.779,0,0,1,0-5.559h-2.12a2.776,2.776,0,1,1,0-5.551Z" transform="translate(-14.242 -22.028)" fill="#e1f2f6"/>
      <path id="Trazado_1249334" data-name="Trazado 1249334" d="M104.537,90.623H93.124l-14.615-8.43a4.565,4.565,0,0,0-4.661,7.827l.92.582H58.387a4.256,4.256,0,0,0-4.248,4.278,4.167,4.167,0,0,0,.353,1.686,4.248,4.248,0,0,0,0,7.723,4.248,4.248,0,0,0,3.895,5.949h1.936a4.2,4.2,0,0,0-.2,1.3,4.256,4.256,0,0,0,4.248,4.248h40.163a3.4,3.4,0,0,0,3.394-3.394V93.988A3.416,3.416,0,0,0,104.537,90.623Zm.449,21.771a.449.449,0,0,1-.449.449H64.373a1.3,1.3,0,1,1,0-2.606H75.7a1.473,1.473,0,0,0,0-2.945H58.373a1.311,1.311,0,0,1,0-2.614H74.828a1.473,1.473,0,0,0,0-2.945H56.252a1.3,1.3,0,0,1,0-2.606H74.828a1.473,1.473,0,0,0,0-2.945H58.387a1.311,1.311,0,0,1,0-2.614H79.246l.272.14a9.866,9.866,0,0,0,9.807,8.938,1.473,1.473,0,0,0,0-2.945,6.914,6.914,0,0,1-6.906-6.906h0a1.209,1.209,0,0,0,0-.169.559.559,0,0,0,0-.118.861.861,0,0,0-.044-.147.626.626,0,0,0-.044-.125.6.6,0,0,0-.074-.133.8.8,0,0,0-.059-.11c0-.044-.066-.081-.1-.118l-.088-.1-.1-.088-.118-.1-6.339-4.02a1.623,1.623,0,1,1,1.583-2.835L92,93.376a1.473,1.473,0,0,0,.736.191h11.78a.479.479,0,0,1,.479.449Z" transform="translate(-13.718 -21.546)" fill="#404040"/>
      <path id="Trazado_1249335" data-name="Trazado 1249335" d="M91.2,11.969c-1.333,0-2.386,1.473-3.681,3.991a7.8,7.8,0,0,1-5.978,4.322c-4.97.663-8.622-1.347-9.616-4.292-.567-1.7-2.327-8.975.663-11.3S85.541,2,91.2,2s15.616.331,18.613,2.658,1.23,9.571.663,11.3c-.994,2.989-4.653,4.985-9.638,4.322a7.834,7.834,0,0,1-6.023-4.292C93.545,13.449,92.492,12,91.13,12" transform="translate(-18.696 -0.527)" fill="#e3f2fd"/>
      <path id="Trazado_1249336" data-name="Trazado 1249336" d="M102.092,21.352a15.136,15.136,0,0,1-2.056-.14,9.218,9.218,0,0,1-7.1-5.154c-1.355-2.7-2.032-3.159-2.327-3.173s-.965.471-2.319,3.173a9.225,9.225,0,0,1-7.1,5.154c-5.419.736-9.932-1.414-11.228-5.316,0-.1-3.136-9.571,1.156-12.929C73.672,1,80.225,0,90.614,0h.044c10.4,0,16.934,1,19.482,2.945,4.292,3.343,1.185,12.833,1.156,12.929-1.1,3.416-4.7,5.478-9.2,5.478ZM90.724,9.969c2.312.074,3.726,2.511,4.867,4.8a6.361,6.361,0,0,0,4.859,3.519c3.976.537,7.208-.8,8.047-3.321s1.693-8.209-.169-9.675-8.5-2.349-17.692-2.349S74.85,3.821,72.951,5.294s-1.031,7.112-.177,9.675,4.072,3.851,8.047,3.321a6.361,6.361,0,0,0,4.859-3.519c1.149-2.29,2.562-4.727,4.874-4.8Z" transform="translate(-18.158 0)" fill="#404040"/>
      <path id="Trazado_1249337" data-name="Trazado 1249337" d="M15.463,21.879s-.736-6.626,0-11.044S19.144,2,25.034,2s8.835,4.477,9.571,8.835,0,11.044,0,11.044" transform="translate(-3.992 -0.527)" fill="#fff"/>
      <path id="Trazado_1249338" data-name="Trazado 1249338" d="M8.244,65.423,2,65.077,2.3,36.3a7.687,7.687,0,0,1,6.325-6.361L14.215,29H28.94l5.618.942a7.694,7.694,0,0,1,6.3,6.361l.162,28.773-6.133.346" transform="translate(-0.527 -7.648)" fill="#fff"/>
      <path id="Trazado_1249339" data-name="Trazado 1249339" d="M36.349,43l.736,61.11H10.58L11.316,43" transform="translate(-2.79 -11.341)" fill="#fff"/>
      <ellipse id="Elipse_12474" data-name="Elipse 12474" cx="4.418" cy="6.626" rx="4.418" ry="6.626" transform="translate(16.625 8.099)" fill="#bdbcbc"/>
      <path id="Trazado_1249340" data-name="Trazado 1249340" d="M41.783,28.648a1.2,1.2,0,0,0,0-.228,9.167,9.167,0,0,0-7.51-7.576L32.2,20.5a47.507,47.507,0,0,0-.11-10.433C31.291,5.419,27.978,0,21.043,0S10.794,5.419,10,10.065A47.441,47.441,0,0,0,9.9,20.5l-2.084.346a9.167,9.167,0,0,0-7.5,7.576v.221L0,57.429A1.473,1.473,0,0,0,1.392,58.9l5.331.295-.4,33.574A1.473,1.473,0,0,0,7.79,94.242H34.3a1.473,1.473,0,0,0,1.473-1.473L35.341,59.2l5.213-.295a1.473,1.473,0,0,0,1.414-1.473Zm-28.862-18.1c.331-1.782,1.76-7.606,8.121-7.606s7.819,5.824,8.1,7.606a44.552,44.552,0,0,1,.1,9.454l-.611-.125a1.355,1.355,0,0,0-.243,0H25.615a10.153,10.153,0,0,0,1.318-5.154c0-2,0-8.1-5.89-8.1s-5.89,6.1-5.89,8.1a10.153,10.153,0,0,0,1.311,5.154H13.687a1.355,1.355,0,0,0-.243,0l-.618.1a44.014,44.014,0,0,1,.1-9.432Zm5.154,4.175c0-4.756,1.392-5.154,2.945-5.154s2.945.4,2.945,5.154c0,3.041-1.554,5.154-2.945,5.154S18.1,17.766,18.1,14.725ZM2.945,56.037,3.232,28.8A6.214,6.214,0,0,1,8.3,23.752l5.515-.928H19.57V45H9.837L10,31.659a1.473,1.473,0,0,0-2.945,0l-.3,24.591Zm6.84-8.1H19.57V91.3H9.262ZM22.515,91.3V47.946h9.763L32.8,91.3ZM35.341,56.251l-.309-24.591a1.473,1.473,0,1,0-2.945,0l.162,13.326H22.515V22.824h5.75l5.5.92a6.221,6.221,0,0,1,5.073,5.043l.177,27.242Z" fill="#404040"/>
      <path id="Trazado_1249341" data-name="Trazado 1249341" d="M92.72,39.3c3.9,0,8.283,2.437,11.692,3.409,2.341.67,4.513,4.7,4.418,7.709s-3.07,11.375-3.946,12.259c-2.363,2.422-8.276,4.418-12.178,4.418s-9.785-1.958-12.17-4.418c-.854-.869-3.895-9.571-3.895-12.664,0-2.945,2.069-6.538,4.418-7.3C83.958,41.737,88.825,39.3,92.72,39.3Z" transform="translate(-20.212 -10.365)" fill="#fff"/>
      <g id="Grupo_1214118" data-name="Grupo 1214118" transform="translate(50.802 26.728)">
        <path id="Trazado_1249342" data-name="Trazado 1249342" d="M112.44,43.082c0-3.394-1.281-5.073-2.356-5.89a4.329,4.329,0,0,0-3.77-.736c-1.951.56-3.232,2.525-3.917,3.932-.942-.287-1.966-.685-3.048-1.1-2.687-1.045-5.736-2.209-8.644-2.209-3.188,0-6.788,1.414-9.682,2.555-.736.28-1.392.545-1.988.736-.692-1.4-1.973-3.357-3.91-3.91a4.329,4.329,0,0,0-3.77.736C70.281,38,69,39.68,69,43.082c0,4.845,5.5,13.606,6.17,14.659a19.021,19.021,0,0,0,2.312,5.154c2.805,2.864,9.189,4.845,13.223,4.845s10.455-1.981,13.253-4.83a20.284,20.284,0,0,0,2.43-5.323C107.337,56.047,112.44,47.742,112.44,43.082Zm-5.316-3.814a1.414,1.414,0,0,1,1.185.28,4.481,4.481,0,0,1,1.185,3.534,14.188,14.188,0,0,1-1.325,4.83,11.427,11.427,0,0,0-3.188-6.118C105.475,40.77,106.277,39.511,107.124,39.268Zm-33.993.28a1.414,1.414,0,0,1,1.185-.28c.847.243,1.649,1.473,2.143,2.525a10.9,10.9,0,0,0-3.181,6.118,14.056,14.056,0,0,1-1.333-4.83C71.945,41.381,72.365,40.129,73.13,39.547ZM90.705,64.794c-3.681,0-9.063-1.892-11.088-3.91-.736-1.045-3.5-8.9-3.5-11.662,0-2.327,1.73-5.36,3.372-5.89.78-.265,1.671-.611,2.621-.987C84.763,41.3,88.077,40,90.705,40c2.356,0,5.007,1.031,7.576,2.025,1.3.508,2.533.994,3.681,1.325a1.605,1.605,0,0,1,.4.184l.118.066a8,8,0,0,1,2.864,6.008c-.059,2.724-2.9,10.411-3.541,11.265-1.951,2.01-7.355,3.924-11.1,3.924Z" transform="translate(-69 -36.302)" fill="#404040"/>
        <path id="Trazado_1249343" data-name="Trazado 1249343" d="M95.374,64.037a58.431,58.431,0,0,1-7.451-.928,1.473,1.473,0,1,1,.53-2.894,58.718,58.718,0,0,0,6.921.876,58.718,58.718,0,0,0,6.921-.876,1.473,1.473,0,1,1,.53,2.894A58.43,58.43,0,0,1,95.374,64.037Z" transform="translate(-73.654 -42.599)" fill="#404040"/>
        <path id="Trazado_1249344" data-name="Trazado 1249344" d="M95.374,52.5a60.242,60.242,0,0,1-7.451-.92,1.473,1.473,0,1,1,.53-2.894,59.184,59.184,0,0,0,6.921.869,59.184,59.184,0,0,0,6.921-.869,1.473,1.473,0,1,1,.53,2.894,60.241,60.241,0,0,1-7.451.92Z" transform="translate(-73.654 -39.558)" fill="#404040"/>
      </g>
    </g>
  </g>
</svg>
