<svg xmlns="http://www.w3.org/2000/svg" width="73.631" height="48.363" viewBox="0 0 73.631 48.363">
  <g id="Grupo_1213687" data-name="Grupo 1213687" transform="translate(-312.781 -3861.734)">
    <g id="Grupo_1201016" data-name="Grupo 1201016" transform="translate(312.781 3875.311)">
      <g id="Rectángulo_410589" data-name="Rectángulo 410589" fill="#93795a" stroke="#695640" stroke-width="1">
        <rect width="73.631" height="24.544" rx="4" stroke="none"/>
        <rect x="0.5" y="0.5" width="72.631" height="23.544" rx="3.5" fill="none"/>
      </g>
    </g>
    <g id="FILLED_OUTLINE" transform="translate(287.61 3845.733)">
      <rect id="Rectángulo_411694" data-name="Rectángulo 411694" width="35.053" height="44.613" rx="2" transform="translate(43.983 16.797)" fill="#7950ea"/>
      <path id="Trazado_1249509" data-name="Trazado 1249509" d="M112,56h28.68V94.24H112Z" transform="translate(-64.83 -36.016)" fill="#8b74f7"/>
      <g id="Grupo_1214197" data-name="Grupo 1214197" transform="translate(60.713 22.374)">
        <path id="Trazado_1249510" data-name="Trazado 1249510" d="M248,80h11.95v1.593H248Z" transform="translate(-248 -80)" fill="#f9cb58"/>
        <path id="Trazado_1249511" data-name="Trazado 1249511" d="M248,216h7.967v1.593H248Z" transform="translate(-248 -202.457)" fill="#f9cb58"/>
        <path id="Trazado_1249512" data-name="Trazado 1249512" d="M248,320h7.17v1.593H248Z" transform="translate(-248 -296.1)" fill="#f9cb58"/>
        <path id="Trazado_1249513" data-name="Trazado 1249513" d="M248,112h9.56v1.593H248Z" transform="translate(-248 -108.813)" fill="#f9cb58"/>
        <path id="Trazado_1249514" data-name="Trazado 1249514" d="M248,184h11.95v1.593H248Z" transform="translate(-248 -173.643)" fill="#f9cb58"/>
      </g>
      <rect id="Rectángulo_411695" data-name="Rectángulo 411695" width="6.373" height="6.373" rx="3.187" transform="translate(51.153 23.17)" fill="#eab849"/>
      <path id="Trazado_1249515" data-name="Trazado 1249515" d="M0,0H5.633V1.593H0Z" transform="translate(52.977 26.592) rotate(-45)" fill="#f4f4f4"/>
      <rect id="Rectángulo_411696" data-name="Rectángulo 411696" width="6.373" height="6.373" rx="3.187" transform="translate(51.153 33.527)" fill="#eab849"/>
      <path id="Trazado_1249516" data-name="Trazado 1249516" d="M0,0H5.633V1.593H0Z" transform="translate(52.976 36.948) rotate(-45)" fill="#f4f4f4"/>
      <rect id="Rectángulo_411697" data-name="Rectángulo 411697" width="6.373" height="6.373" rx="3.187" transform="translate(51.153 43.883)" fill="#eab849"/>
      <path id="Trazado_1249517" data-name="Trazado 1249517" d="M269.112,191.524a1.69,1.69,0,0,0-2.39,0L248,210.246v2.39h2.39l18.722-18.722A1.69,1.69,0,0,0,269.112,191.524Z" transform="translate(-187.287 -157.599)" fill="#eab849"/>
      <path id="Trazado_1249518" data-name="Trazado 1249518" d="M416,193.516l2.39,2.39,1.992-1.992a1.69,1.69,0,0,0-2.39-2.39Z" transform="translate(-338.557 -157.599)" fill="#d3a039"/>
      <path id="Trazado_1249519" data-name="Trazado 1249519" d="M277.483,264.763l-.282-.141a1.593,1.593,0,0,1-.767-2.017l2.242-5.6a1.593,1.593,0,0,1,1.479-1h4.264a4.78,4.78,0,0,1,4.033,2.214l4.168,6.55,5.577,5.577v9.56l-9.89-9.89a1.593,1.593,0,0,0-1.127-.467h-1.73a4.78,4.78,0,0,1-2.868-.956l-3.472-2.6a1.763,1.763,0,0,1,1.933-2.942l3.464,1.979A1.423,1.423,0,0,0,286.4,263l-.946-1.419-2.39-2.39Z" transform="translate(-212.787 -216.1)" fill="#f9cea0"/>
      <path id="Trazado_1249520" data-name="Trazado 1249520" d="M0,0H6.76V3.38H0Z" transform="translate(69.47 43.884) rotate(-45)" fill="#eab849"/>
      <path id="Trazado_1249521" data-name="Trazado 1249521" d="M60.623,206.679l-.04-.03a1.969,1.969,0,0,0-2.639.251l-5.371,5.913a.8.8,0,0,1-1.386-.536V200l-1.912,1.434A3.187,3.187,0,0,0,48,203.983v25.493h7.17v-8.1a5.44,5.44,0,0,1,1.593-3.847,5.44,5.44,0,0,0,1.593-3.847v-.356a1.592,1.592,0,0,1,.369-1.02l2.246-2.693a2.033,2.033,0,0,0-.348-2.931Z" transform="translate(-7.204 -165.677)" fill="#f9cea0"/>
      <path id="Trazado_1249522" data-name="Trazado 1249522" d="M74.393,52.647h-1.73a4.008,4.008,0,0,1-2.39-.8l-3.472-2.6a.967.967,0,0,1,1.06-1.613l3.464,1.979a2.22,2.22,0,0,0,2.948-3.158l-.584-.876L75.666,43.6l3.541,5.565L84.846,54.8l1.127-1.127-5.515-5.515-.625-.982V39.433l2.555-2.555a2.487,2.487,0,0,0-2.555-4.114V18.39A2.393,2.393,0,0,0,77.443,16H45.576a2.393,2.393,0,0,0-2.39,2.39V33.925L41.593,35.12A4,4,0,0,0,40,38.307V63.8h1.593V38.307a2.4,2.4,0,0,1,.956-1.912l.637-.478V46.6a1.593,1.593,0,0,0,2.773,1.071l1.995-2.2h.013v-.014l3.364-3.7a1.167,1.167,0,0,1,1.571-.15l.041.03a1.237,1.237,0,0,1,.492.853,1.22,1.22,0,0,1-.278.931L50.91,46.117a2.394,2.394,0,0,0-.554,1.53V48A4.613,4.613,0,0,1,49,51.287,6.2,6.2,0,0,0,47.17,55.7v8.1h1.593V62.207h28.68a2.393,2.393,0,0,0,2.39-2.39V59.35l5.013,5.013,1.127-1.127-9.89-9.89a2.374,2.374,0,0,0-1.69-.7Zm-8.548-2.126.37.278L62.773,54.24H61.51V52.977l3.512-3.512A2.558,2.558,0,0,0,65.845,50.521ZM64.387,46.8l2.241-5.6a.793.793,0,0,1,.74-.5h4.168l-6.967,6.967A.8.8,0,0,1,64.387,46.8Zm3.985-.687,9.071-9.071,1.263,1.263-8.711,8.711-1.344-.768a2.546,2.546,0,0,0-.279-.135Zm4.575,1.223a.626.626,0,0,1-.832.891l-.686-.392,1.11-1.11Zm5.293-2.662-1.419-2.23,1.419-1.419Zm2.39-10.449a.893.893,0,0,1,.632,1.525L79.833,37.18,78.57,35.917,80,34.489a.887.887,0,0,1,.632-.262ZM44.78,46.6V18.39a.8.8,0,0,1,.8-.8H77.443a.8.8,0,0,1,.8.8v15.6l-1.593,1.593v-16.4H46.373v25.66Zm7.17,1.046a.8.8,0,0,1,.184-.51l2.049-2.457h1.75a.8.8,0,0,1,.8.8v3.187a.8.8,0,0,1-.8.8H52.746a.8.8,0,0,1-.8-.8Zm-1.827,4.766a6.238,6.238,0,0,0,1.254-1.793,2.376,2.376,0,0,0,1.37.433h3.187a2.393,2.393,0,0,0,2.39-2.39V45.477a2.393,2.393,0,0,0-2.39-2.39H55a2.842,2.842,0,0,0,.016-.778,2.808,2.808,0,0,0-.749-1.612h1.665a2.393,2.393,0,0,0,2.39-2.39V36.714H56.73v1.593a.8.8,0,0,1-.8.8H52.746a.8.8,0,0,1-.8-.8V35.12a.8.8,0,0,1,.8-.8H54.34V32.73H52.746a2.393,2.393,0,0,0-2.39,2.39v3.187a2.383,2.383,0,0,0,.722,1.709,2.776,2.776,0,0,0-.927.672l-2.184,2.4V20.78H75.053v16.4l-2.085,2.085a5.556,5.556,0,0,0-1.335-.162H67.368a2.379,2.379,0,0,0-2.219,1.5l-2.241,5.6c-.008.021-.014.043-.022.064H60.713v1.593h2.159a2.412,2.412,0,0,0,.572.922l-3.528,3.528v3.517h3.517l4.07-4.07,1.814,1.361a5.611,5.611,0,0,0,3.346,1.115h1.73a.791.791,0,0,1,.563.233l.1.1v2.857H48.763V55.7a4.613,4.613,0,0,1,1.36-3.283Zm28.117,7.4a.8.8,0,0,1-.8.8H48.763V59.02H76.646V56.163l1.593,1.593Z"/>
      <path id="Trazado_1249523" data-name="Trazado 1249523" d="M151.967,83.983h-1.593v1.593a.8.8,0,0,1-.8.8H146.39a.8.8,0,0,1-.8-.8V82.39a.8.8,0,0,1,.8-.8h1.593V80H146.39A2.393,2.393,0,0,0,144,82.39v3.187a2.393,2.393,0,0,0,2.39,2.39h3.187a2.393,2.393,0,0,0,2.39-2.39Z" transform="translate(-93.644 -57.626)"/>
      <path id="Trazado_1249524" data-name="Trazado 1249524" d="M0,0H5.633V1.593H0Z" transform="translate(52.977 26.591) rotate(-45)"/>
      <path id="Trazado_1249525" data-name="Trazado 1249525" d="M248,80h11.95v1.593H248Z" transform="translate(-187.287 -57.626)"/>
      <path id="Trazado_1249526" data-name="Trazado 1249526" d="M0,0H5.633V1.593H0Z" transform="translate(52.976 36.948) rotate(-45)"/>
      <path id="Trazado_1249527" data-name="Trazado 1249527" d="M248,216h7.967v1.593H248Z" transform="translate(-187.287 -180.083)"/>
      <path id="Trazado_1249528" data-name="Trazado 1249528" d="M248,112h9.56v1.593H248Z" transform="translate(-187.287 -86.44)"/>
      <path id="Trazado_1249529" data-name="Trazado 1249529" d="M248,184h11.95v1.593H248Z" transform="translate(-187.287 -151.27)"/>
    </g>
  </g>
</svg>
