<svg xmlns="http://www.w3.org/2000/svg" width="145.631" height="88.439" viewBox="0 0 145.631 88.439">
  <g id="Grupo_1213083" data-name="Grupo 1213083" transform="translate(-312.781 -3863.557)">
    <g id="Grupo_1201016" data-name="Grupo 1201016">
      <g id="Rect치ngulo_410589" data-name="Rect치ngulo 410589" transform="translate(312.781 3886.804)" fill="#93795a" stroke="#695640" stroke-width="1">
        <rect width="145.631" height="48.544" rx="8" stroke="none"/>
        <rect x="0.5" y="0.5" width="144.631" height="47.544" rx="7.5" fill="none"/>
      </g>
    </g>
    <g id="eco-friendly_17607983" transform="translate(261.874 3749.295)">
      <path id="Trazado_1248449" data-name="Trazado 1248449" d="M429.692,682.594q-.175.213-.365.41a6.847,6.847,0,0,1-8.222,1.247l-18.059-9.905a1.553,1.553,0,1,1,1.49-2.724l18.059,9.908a3.739,3.739,0,0,0,4.69-.9l.014-.017a1.614,1.614,0,0,1,.127-.138,1.553,1.553,0,0,1,2.265,2.122Z" transform="translate(-289.681 -493.272)"/>
      <path id="Trazado_1248450" data-name="Trazado 1248450" d="M298.591,567.96A6.92,6.92,0,0,1,293.1,574.7l-34.451,7.177a19.469,19.469,0,0,1-14.241-2.5l-16.383-10.1-7.4,4.478-.75.459a1.553,1.553,0,1,1-1.6-2.659l2.358-1.427,6.6-4a1.551,1.551,0,0,1,1.62.007l17.2,10.6a16.365,16.365,0,0,0,11.975,2.1l34.451-7.178a3.789,3.789,0,0,0-1.525-7.423l-25.157,5.089-.509.1a1.553,1.553,0,0,1-1.528-2.485l.014-.017a3.74,3.74,0,0,0-.982-5.566l-22.884-13.7a10.986,10.986,0,0,0-11.777.337l-7.5,5.1-.678.459a1.554,1.554,0,0,1-1.746-2.57l2.341-1.591,5.84-3.968a14.05,14.05,0,0,1,7.376-2.407,14.281,14.281,0,0,1,3.252.256,14,14,0,0,1,4.492,1.72l22.811,13.668.065.04a6.845,6.845,0,0,1,3.22,7.094l22.721-4.6a6.921,6.921,0,0,1,8.271,6.767Z" transform="translate(-126.146 -379.595)"/>
      <path id="Trazado_1248451" data-name="Trazado 1248451" d="M94.393,575.763a3.783,3.783,0,0,0-3.687-2.973H78.774A3.783,3.783,0,0,0,75,576.564v24.9a3.783,3.783,0,0,0,3.774,3.773H90.706a3.783,3.783,0,0,0,3.774-3.773v-24.9A3.762,3.762,0,0,0,94.393,575.763Zm-3.022,25.7a.675.675,0,0,1-.665.666H78.774a.675.675,0,0,1-.666-.666v-24.9a.675.675,0,0,1,.666-.666H90.706a.675.675,0,0,1,.666.666Z" transform="translate(0 -405.961)"/>
      <rect id="Rect치ngulo_411635" data-name="Rect치ngulo 411635" width="13.263" height="26.23" transform="translate(78.108 169.937)" fill="red"/>
      <path id="Trazado_1248452" data-name="Trazado 1248452" d="M319.733,591.949a3.8,3.8,0,0,1-3.017,3.7l-34.451,7.178a16.365,16.365,0,0,1-11.975-2.1l-17.2-10.6a1.551,1.551,0,0,0-1.62-.007l-6.6,4v-17.03l7.5-5.1a10.986,10.986,0,0,1,11.777-.337l22.888,13.7a3.74,3.74,0,0,1,.982,5.566l-.014.017a3.739,3.739,0,0,1-4.69.9l-18.059-9.908a1.553,1.553,0,1,0-1.49,2.724l18.055,9.91a6.847,6.847,0,0,0,8.222-1.247l25.149-5.094a3.795,3.795,0,0,1,4.542,3.721Z" transform="translate(-150.396 -403.584)" fill="#f9c38f"/>
      <path id="Trazado_1248453" data-name="Trazado 1248453" d="M368.619,312.128c-.249.146-.5.3-.743.459q-.5.32-.982.668a21.7,21.7,0,0,0-9,16.821q-.029.819,0,1.646v.011q.027.729.105,1.454a21.3,21.3,0,0,0,.564,3.121q.115.459.257.917a1.554,1.554,0,0,1-2.972.908q-.315-1.032-.538-2.081a24.644,24.644,0,0,1-.522-4.184v-.089a24.8,24.8,0,0,1,10.274-21.027l.015-.01c.639-.459,1.3-.9,1.975-1.289a1.554,1.554,0,1,1,1.571,2.681Z" transform="translate(-247.7 -172.624)"/>
      <path id="Trazado_1248454" data-name="Trazado 1248454" d="M559.153,282.913a1.553,1.553,0,0,1-1.552,1.525h-.538a1.553,1.553,0,0,1-1.553-1.534,1.6,1.6,0,0,1,.026-.307c.014-.052.026-.1.039-.157v-.013a1.533,1.533,0,0,1,.271-.511,1.552,1.552,0,0,1,1.195-.586h.586a1.558,1.558,0,0,1,1.455,1.095,1.314,1.314,0,0,1,.039.164A1.431,1.431,0,0,1,559.153,282.913Z" transform="translate(-425.423 -147.915)"/>
      <path id="Trazado_1248455" data-name="Trazado 1248455" d="M630.282,334.768a24.68,24.68,0,0,1-9.986,16.177c-.659.477-1.339.917-2.022,1.315l-.033.019c-.027.017-.055.034-.084.049l-.023.013a24.717,24.717,0,0,1-3.65,1.72,23.991,23.991,0,0,1-2.316.741,1.514,1.514,0,0,1-.4.053,1.553,1.553,0,0,1-.4-3.055q.332-.087.66-.188a21.629,21.629,0,0,0,3.585-1.432q.5-.257.989-.538l.036-.022a20.638,20.638,0,0,0,1.754-1.132l.085-.06a21.75,21.75,0,0,0,3.1-32.54q-.4-.425-.819-.825l-.034-.031q-.729-.695-1.521-1.316c-.544-.429-1.111-.831-1.693-1.2-.244-.158-.492-.31-.743-.459a1.555,1.555,0,1,1,1.565-2.687,23.336,23.336,0,0,1,1.992,1.3,24.569,24.569,0,0,1,2.5,2.073l.037.033a24.947,24.947,0,0,1,3.048,3.494,24.671,24.671,0,0,1,4.374,18.5Z" transform="translate(-473.854 -172.55)"/>
      <path id="Trazado_1248456" data-name="Trazado 1248456" d="M641.768,386.274a21.593,21.593,0,0,1-8.737,14.152l-.085.06-2.055-8.2a5.7,5.7,0,0,0-1.964-3.051l-1.314-1.042a2.561,2.561,0,0,1-.167-3.857l2.293-2.178a5.687,5.687,0,0,0,.688-7.423,2.558,2.558,0,0,1,.7-3.655l5-3.192a21.77,21.77,0,0,1,5.646,18.384Z" transform="translate(-488.409 -224.551)" fill="#29abe2"/>
      <path id="Trazado_1248457" data-name="Trazado 1248457" d="M613.167,339.885l-1.055.674-5,3.189a2.558,2.558,0,0,0-.7,3.655,5.687,5.687,0,0,1-.688,7.423L603.436,357a2.561,2.561,0,0,0,.169,3.86l1.314,1.048a5.7,5.7,0,0,1,1.964,3.051l2.056,8.2.527,2.1a1.552,1.552,0,0,1-.647,1.673l-.033.019c-.028.017-.055.034-.084.049l-.023.013a1.488,1.488,0,0,1-.338.128,1.553,1.553,0,0,1-1.886-1.129l-.3-1.167-2.293-9.133a2.57,2.57,0,0,0-.886-1.376l-1.314-1.048a5.669,5.669,0,0,1-.371-8.539l2.293-2.178a2.57,2.57,0,0,0,.313-3.353,5.668,5.668,0,0,1,1.544-8.093l4.3-2.745,1.756-1.121a1.553,1.553,0,0,1,1.87.15l.037.033a1.557,1.557,0,0,1-.229,2.436Z" transform="translate(-464.4 -197.222)"/>
      <path id="Trazado_1248458" data-name="Trazado 1248458" d="M383.416,311.867l-.267,1.5-.136.758-.335,1.866a4.487,4.487,0,0,1-3.241,3.525l-.718.193a1.353,1.353,0,0,0-.982,1.05l-.606,3.078a4.462,4.462,0,0,1-6.649,2.981,1.36,1.36,0,0,0-2.006.863l-.542,2.264A4.471,4.471,0,0,1,364,333.349l-5.858.546-1.514.141c-.049,0-.1.007-.146.007a1.553,1.553,0,0,1-1.545-1.41v-.147a1.553,1.553,0,0,1,1.41-1.544l1.692-.152,5.676-.528a1.36,1.36,0,0,0,1.195-1.032l.542-2.265a4.471,4.471,0,0,1,6.6-2.824,1.331,1.331,0,0,0,.688.19,1.368,1.368,0,0,0,1.338-1.1l.608-3.078a4.437,4.437,0,0,1,3.225-3.45l.719-.194a1.364,1.364,0,0,0,.987-1.072l.595-3.335.14-.78a1.555,1.555,0,0,1,1.8-1.254l.073.015.071.018c.048.014.094.029.139.046a1.537,1.537,0,0,1,.5.314l.014.013A1.553,1.553,0,0,1,383.416,311.867Z" transform="translate(-247.847 -173.337)"/>
      <path id="Trazado_1248459" data-name="Trazado 1248459" d="M561.183,134.676c-.014-.054-.026-.109-.039-.164a8.028,8.028,0,0,1-.2-1.834,11.787,11.787,0,0,1-.072,1.321,9.84,9.84,0,0,1-.554,2.378,1.546,1.546,0,0,1-.658.147h-.538a1.55,1.55,0,0,1-.659-.147,8.028,8.028,0,0,0,.927,1.785,7.331,7.331,0,0,0,.459.6l.14-.78a1.554,1.554,0,0,1,1.8-1.254l.073.015.071.018c.048.014.094.029.139.046.042-.026.084-.054.125-.081A5.19,5.19,0,0,1,561.183,134.676Zm19.069-19.068a1.553,1.553,0,0,0-1.81-1.322c-.514.091-12.617,2.293-17.035,8.345a20.007,20.007,0,0,0-2.013,3.415,16.228,16.228,0,0,0-1.543,6.076c-.007.164-.01.328-.011.49v.108a12.2,12.2,0,0,0,.072,1.277,9.835,9.835,0,0,0,.555,2.375,8.028,8.028,0,0,0,.927,1.785,7.338,7.338,0,0,0,1.642,1.707l.079.06.029.021a7.317,7.317,0,0,0,1.505.839,8.046,8.046,0,0,0,3.1.592,11.069,11.069,0,0,0,3.8-.72,14.017,14.017,0,0,0,1.59-.7,16.494,16.494,0,0,0,2.69-1.739c.042-.033.085-.066.126-.1a19.751,19.751,0,0,0,3.548-3.741C581.911,128.333,580.328,116.129,580.252,115.608Zm-5.266,16.938c-2.684,3.677-6.519,5.847-9.515,5.708a4.552,4.552,0,0,1-2.522-.837,3.788,3.788,0,0,1-.344-.285l-.014-.013a3.97,3.97,0,0,1-.377-.4,5.192,5.192,0,0,1-1.02-2.048c-.014-.054-.026-.109-.039-.164a8.021,8.021,0,0,1-.2-1.834c0-.138,0-.277.009-.418a14.6,14.6,0,0,1,2.961-7.788c2.825-3.87,10.13-5.982,13.413-6.764.072.942.141,2.216.141,3.646C577.478,125.035,577.021,129.758,574.986,132.546Z" transform="translate(-427.487)"/>
      <path id="Trazado_1248460" data-name="Trazado 1248460" d="M412.069,366.987l2.293,9.133a21.634,21.634,0,0,1-3.593,1.441L387.956,363.9a14,14,0,0,0-4.492-1.72,21.3,21.3,0,0,1-.564-3.121l5.858-.546a4.471,4.471,0,0,0,3.928-3.407l.543-2.269a1.36,1.36,0,0,1,2.01-.855A4.462,4.462,0,0,0,401.888,349l.606-3.078a1.353,1.353,0,0,1,.982-1.05l.718-.193a4.487,4.487,0,0,0,3.241-3.525l.335-1.866a8.046,8.046,0,0,0,3.1.592,11.068,11.068,0,0,0,3.8-.72,14.028,14.028,0,0,0,1.59-.7q.874.559,1.693,1.2l-4.3,2.745a5.668,5.668,0,0,0-1.544,8.093,2.57,2.57,0,0,1-.313,3.353l-2.293,2.178a5.669,5.669,0,0,0,.371,8.539l1.314,1.048A2.57,2.57,0,0,1,412.069,366.987Z" transform="translate(-272.602 -198.495)" fill="#009245"/>
      <path id="Trazado_1248461" data-name="Trazado 1248461" d="M601.549,147.962c0,3.685-.459,8.408-2.492,11.2-2.684,3.677-6.518,5.847-9.515,5.708,3.484-2.538,5.847-5.28,7.046-8.177a8.587,8.587,0,0,0,.7-5.02l-3.021.729v-.014a6.174,6.174,0,0,1-.663,3.378c-.824,1.841-2.764,4.6-7.32,7.573a5.191,5.191,0,0,1-1.02-2.047,1.314,1.314,0,0,0-.039-.164,8.024,8.024,0,0,1-.2-1.834c0-.138,0-.277.009-.418A14.6,14.6,0,0,1,588,151.084c2.825-3.87,10.13-5.982,13.413-6.764C601.481,145.259,601.549,146.533,601.549,147.962Z" transform="translate(-451.558 -26.612)" fill="#8cc63f"/>
      <path id="Trazado_1248462" data-name="Trazado 1248462" d="M592.894,213.44c-1.2,2.9-3.562,5.639-7.046,8.177q-1.223.888-2.626,1.745l-.052.028a1.529,1.529,0,0,1-.753.2,1.554,1.554,0,0,1-.888-.279l-.029-.021-.079-.06a1.574,1.574,0,0,1-.333-.386,1.555,1.555,0,0,1,.519-2.136q.444-.271.86-.54c.042-.026.084-.054.125-.081,4.556-2.973,6.5-5.732,7.32-7.573a6.2,6.2,0,0,0,.663-3.378v.014l3.028-.727A8.675,8.675,0,0,1,592.894,213.44Z" transform="translate(-447.869 -83.363)"/>
      <path id="Trazado_1248463" data-name="Trazado 1248463" d="M406.8,136.4a1.556,1.556,0,0,1-.894-1.387,1.593,1.593,0,0,1,.026-.307,5.177,5.177,0,0,1-1.018,2.043q.473.31.985.621a1.553,1.553,0,0,1,.522,2.136c-.02.032-.04.063-.061.093a.418.418,0,0,1-.037.048c-.014.016-.026.034-.041.052l-.026.031a.442.442,0,0,1-.045.048.6.6,0,0,1-.047.047c-.024.024-.049.046-.074.068a7.344,7.344,0,0,0,1.642-1.707,8.022,8.022,0,0,1-.931-1.785Zm2.469-4.25a16.256,16.256,0,0,0-1.542-6.076,20,20,0,0,0-2.014-3.415c-4.416-6.05-16.521-8.254-17.033-8.345a1.555,1.555,0,0,0-1.811,1.318c-.07.52-1.657,12.725,2.757,18.77a19.684,19.684,0,0,0,3.554,3.743,16.458,16.458,0,0,0,2.817,1.84,14.055,14.055,0,0,0,1.586.7,11.068,11.068,0,0,0,3.8.72,7.72,7.72,0,0,0,4.595-1.431c1.315-.95.018-.011.026-.018l.079-.06a7.344,7.344,0,0,0,1.642-1.707,8.091,8.091,0,0,0,.927-1.784,9.833,9.833,0,0,0,.554-2.378,11.8,11.8,0,0,0,.08-1.323C409.289,132.518,409.28,132.336,409.272,132.151Zm-7.887,6.136c-2.958,0-6.643-2.15-9.246-5.715-2.828-3.869-2.61-11.485-2.351-14.851,3.9.917,10.791,3.173,13.419,6.772a14.6,14.6,0,0,1,2.961,7.788c0,.122.008.242.008.36v.108a7.987,7.987,0,0,1-.2,1.788v.013c-.013.053-.025.105-.039.157a5.177,5.177,0,0,1-1.018,2.043,4.152,4.152,0,0,1-.739.694,4.552,4.552,0,0,1-2.522.837C401.568,138.285,401.476,138.287,401.384,138.287ZM406.8,136.4a1.556,1.556,0,0,1-.894-1.387,1.593,1.593,0,0,1,.026-.307,5.177,5.177,0,0,1-1.018,2.043q.473.31.985.621a1.553,1.553,0,0,1,.522,2.136c-.02.032-.04.063-.061.093a.417.417,0,0,1-.037.048c-.014.016-.026.034-.041.052l-.026.031a.442.442,0,0,1-.045.048.594.594,0,0,1-.047.047c-.024.024-.049.046-.074.068a7.344,7.344,0,0,0,1.642-1.707A8.024,8.024,0,0,1,406.8,136.4Z" transform="translate(-275.822 -0.026)"/>
      <path id="Trazado_1248464" data-name="Trazado 1248464" d="M430.183,159.129v.108a7.988,7.988,0,0,1-.2,1.788v.013c-.013.053-.025.105-.039.157a5.177,5.177,0,0,1-1.018,2.043c-4.556-2.973-6.5-5.732-7.32-7.573a6.2,6.2,0,0,1-.663-3.378.129.129,0,0,0,0,.014l-3.021-.729a8.61,8.61,0,0,0,.7,5.02c1.2,2.9,3.562,5.639,7.047,8.177-.091,0-.182.007-.274.007-2.958,0-6.643-2.15-9.246-5.715-2.836-3.869-2.618-11.485-2.359-14.851,3.9.917,10.791,3.173,13.419,6.772a14.6,14.6,0,0,1,2.961,7.788C430.18,158.891,430.183,159.011,430.183,159.129Z" transform="translate(-299.83 -26.514)" fill="#8cc63f"/>
      <path id="Trazado_1248465" data-name="Trazado 1248465" d="M404.174,323.387l-.6,3.344a1.364,1.364,0,0,1-.987,1.072l-.719.194a4.437,4.437,0,0,0-3.225,3.45l-.608,3.078a1.368,1.368,0,0,1-1.338,1.1,1.331,1.331,0,0,1-.688-.19,4.471,4.471,0,0,0-6.607,2.81l-.542,2.265a1.36,1.36,0,0,1-1.195,1.032l-5.667.533a21.7,21.7,0,0,1,9-16.817q.482-.344.982-.668a14.069,14.069,0,0,0,1.586.7,11.068,11.068,0,0,0,3.8.72,7.72,7.72,0,0,0,4.595-1.431c1.315-.95.018-.011.026-.018l.079-.06a7.346,7.346,0,0,0,1.642-1.707A7.354,7.354,0,0,0,404.174,323.387Z" transform="translate(-271.805 -184.622)" fill="#29abe2"/>
      <path id="Trazado_1248466" data-name="Trazado 1248466" d="M462.512,222.827c-.019.032-.04.063-.061.093a.414.414,0,0,1-.037.048c-.014.016-.026.034-.041.052l-.026.031a.445.445,0,0,1-.045.048.61.61,0,0,1-.047.047c-.024.024-.049.046-.075.068l-.079.06c-.008.007-.018.013-.026.018h0a1.552,1.552,0,0,1-1.7.052q-1.406-.854-2.626-1.745c-3.485-2.538-5.847-5.28-7.047-8.177a8.61,8.61,0,0,1-.7-5.02l3.021.729s0-.009,0-.014a6.176,6.176,0,0,0,.663,3.378c.824,1.841,2.764,4.6,7.32,7.573q.474.31.985.621a1.553,1.553,0,0,1,.52,2.138Z" transform="translate(-331.911 -83.345)"/>
    </g>
  </g>
</svg>
