<svg xmlns="http://www.w3.org/2000/svg" width="145.631" height="95.439" viewBox="0 0 145.631 95.439">
  <g id="Grupo_1213084" data-name="Grupo 1213084" transform="translate(-312.781 -3867.699)">
    <g id="Grupo_1201016" data-name="Grupo 1201016">
      <g id="Rectángulo_410589" data-name="Rectángulo 410589" transform="translate(312.781 3886.804)" fill="#93795a" stroke="#695640" stroke-width="1">
        <rect width="145.631" height="48.544" rx="8" stroke="none"/>
        <rect x="0.5" y="0.5" width="144.631" height="47.544" rx="7.5" fill="none"/>
      </g>
    </g>
    <g id="statistics_975248" transform="translate(337.18 3867.699)">
      <g id="Grupo_1213863" data-name="Grupo 1213863" transform="translate(47.358 46.901)">
        <path id="Trazado_1248467" data-name="Trazado 1248467" d="M267.806,245.726a33.342,33.342,0,1,0-.038.019A.059.059,0,0,1,267.806,245.726Zm12.807,22.007v-7.768l-12.941-6.89-12.578,6.89v7.94a18,18,0,0,0,10.784,16.472l1.737.763,1.966-.859a17.956,17.956,0,0,0,8-6.623A17.61,17.61,0,0,0,280.613,267.733Z" transform="translate(-244.463 -245.726)" fill="#fdc75b"/>
        <path id="Trazado_1248468" data-name="Trazado 1248468" d="M325.844,291.2v7.768a17.965,17.965,0,0,1-10.994,16.567l-1.966.859-1.737-.763a18,18,0,0,1-10.784-16.472v-7.94l12.578-6.89Z" transform="translate(-289.694 -276.958)" fill="#fdc75b"/>
      </g>
      <g id="Grupo_1213864" data-name="Grupo 1213864" transform="translate(9.757 37.167)">
        <path id="Trazado_1248469" data-name="Trazado 1248469" d="M315.1,194.726v9.734a23.086,23.086,0,0,0-12.1,3.4l-.038-.057V194.726Z" transform="translate(-254.196 -194.726)" fill="#ed664c"/>
        <rect id="Rectángulo_411636" data-name="Rectángulo 411636" width="12.139" height="28.974" transform="translate(24.393 6.108)" fill="#ed664c"/>
        <rect id="Rectángulo_411637" data-name="Rectángulo 411637" width="12.139" height="20.843" transform="translate(0 14.239)" fill="#ed664c"/>
      </g>
      <path id="Trazado_1248470" data-name="Trazado 1248470" d="M10.79,32.242a1.847,1.847,0,0,0,1.317-.534L30.793,13.785,50.185,29.055a1.893,1.893,0,0,0,2.348,0L80.343,7.468l-1.05,13.7a1.9,1.9,0,0,0,1.756,2.042H81.2a1.913,1.913,0,0,0,1.909-1.756L84.5,3.421a1.929,1.929,0,0,0-.458-1.393,1.831,1.831,0,0,0-1.317-.649L63.3,0a1.913,1.913,0,0,0-.267,3.817L77.5,4.853,51.369,25.142,31.862,9.777a1.914,1.914,0,0,0-2.5.115L9.473,28.959a1.9,1.9,0,0,0-.057,2.691A1.881,1.881,0,0,0,10.79,32.242Z" transform="translate(-6.492)"/>
      <path id="Trazado_1248471" data-name="Trazado 1248471" d="M72.648,194.941v-7.883a1.906,1.906,0,0,0-1.985-1.832H58.524a1.85,1.85,0,0,0-1.909,1.832v12.12a24.72,24.72,0,0,0-7.806,8.4c-.21.344-.4.725-.592,1.107V193.147a1.867,1.867,0,0,0-1.928-1.832H34.15a1.888,1.888,0,0,0-1.966,1.832v26.989h-8.4V201.278a1.919,1.919,0,0,0-1.89-1.947H9.757a1.857,1.857,0,0,0-1.813,1.947v18.858H2.772a1.909,1.909,0,0,0,0,3.817H45.755a25.255,25.255,0,1,0,26.893-29.012Zm-3.817-5.917v5.917a26.372,26.372,0,0,0-8.4,2.1v-8.016ZM36,195.132h8.4v25H36Zm-24.24,8.016h8.207v16.987H11.762V203.148ZM70.7,241.532A21.464,21.464,0,0,1,49.267,220.1a21.356,21.356,0,0,1,21.4-21.358H70.7a21.4,21.4,0,1,1,0,42.793Z" transform="translate(0 -149.873)"/>
      <path id="Trazado_1248472" data-name="Trazado 1248472" d="M318.326,281.355l-12.941-6.89a1.858,1.858,0,0,0-1.813.019l-12.6,6.89a1.937,1.937,0,0,0-1.012,1.68v7.94A19.93,19.93,0,0,0,301.911,309.2l1.756.763a1.82,1.82,0,0,0,.763.153,2.094,2.094,0,0,0,.763-.153l1.966-.84a20.078,20.078,0,0,0,8.856-7.31,19.761,19.761,0,0,0,3.34-10.994v-7.768A1.9,1.9,0,0,0,318.326,281.355Zm-2.787,9.448a15.965,15.965,0,0,1-2.691,8.875,16.173,16.173,0,0,1-7.158,5.917h-.019l-1.2.515-1.012-.42a16.07,16.07,0,0,1-9.677-14.7V284.18l10.708-5.86,11.051,5.86Z" transform="translate(-233.92 -221.895)"/>
      <path id="Trazado_1248473" data-name="Trazado 1248473" d="M332.018,342.278a1.909,1.909,0,1,0-2.9,2.481l3.4,3.989a1.924,1.924,0,0,0,1.451.668,1.885,1.885,0,0,0,1.2-.42l7.921-6.451a1.912,1.912,0,1,0-2.424-2.958l-6.47,5.268Z" transform="translate(-265.229 -274.42)"/>
    </g>
  </g>
</svg>
