<svg xmlns="http://www.w3.org/2000/svg" width="127" height="193.008" viewBox="0 0 127 193.008">
  <g id="Grupo_1214157" data-name="Grupo 1214157" transform="translate(-180.051 -30478)">
    <rect id="Rect치ngulo_411452" data-name="Rect치ngulo 411452" width="127" height="193.008" transform="translate(180.051 30478)" fill="#9f9d93"/>
    <g id="Grupo_1214150" data-name="Grupo 1214150" transform="translate(192.051 30557)">
      <g id="Rect치ngulo_410589" data-name="Rect치ngulo 410589" fill="#918e80" stroke="#5f5f5c" stroke-width="1">
        <rect width="104.598" height="34.866" rx="8" stroke="none"/>
        <rect x="0.5" y="0.5" width="103.598" height="33.866" rx="7.5" fill="none"/>
      </g>
    </g>
    <g id="assessment_6014308" transform="translate(194.435 30532.996)">
      <g id="Grupo_1214156" data-name="Grupo 1214156" transform="translate(18.468 1.229)">
        <g id="Grupo_1214151" data-name="Grupo 1214151">
          <path id="Trazado_1249444" data-name="Trazado 1249444" d="M81.142,50.352A3.415,3.415,0,0,1,84.55,53.76v62.709a3.415,3.415,0,0,1-3.408,3.408H28.657a3.415,3.415,0,0,1-3.408-3.408V53.76a3.415,3.415,0,0,1,3.408-3.408H81.142Z" transform="translate(-25.249 -43.862)" fill="#837683" fill-rule="evenodd"/>
          <path id="Trazado_1249445" data-name="Trazado 1249445" d="M361.248,119.878h4.4a3.415,3.415,0,0,0,3.408-3.408V53.761a3.415,3.415,0,0,0-3.408-3.408h-4.4Z" transform="translate(-309.754 -43.862)" fill="#685e68" fill-rule="evenodd"/>
          <path id="Trazado_1249446" data-name="Trazado 1249446" d="M104.47,81.287H57.717a1.536,1.536,0,0,0-1.533,1.533V139.8a1.536,1.536,0,0,0,1.533,1.533H104.47A1.536,1.536,0,0,0,106,139.8V82.82a1.535,1.535,0,0,0-1.533-1.533Z" transform="translate(-51.443 -70.056)" fill="#eceff1" fill-rule="evenodd"/>
          <path id="Trazado_1249447" data-name="Trazado 1249447" d="M361.248,141.331h1.533c.048,0,.1,0,.143-.007a1.536,1.536,0,0,0,1.389-1.526V82.82a1.536,1.536,0,0,0-1.389-1.526q-.071-.007-.143-.007h-1.533Z" transform="translate(-309.754 -70.056)" fill="#d1d1d6" fill-rule="evenodd"/>
          <path id="Trazado_1249448" data-name="Trazado 1249448" d="M134.634,12.433h4.858a1.5,1.5,0,0,0,1.408-.926,5.8,5.8,0,0,1,10.646,0,1.5,1.5,0,0,0,1.408.926h4.858a1.535,1.535,0,0,1,1.533,1.532v5.8a1.535,1.535,0,0,1-1.533,1.532H134.634a1.535,1.535,0,0,1-1.533-1.532v-5.8A1.535,1.535,0,0,1,134.634,12.433Z" transform="translate(-116.572 -8.002)" fill="#e3a76f" fill-rule="evenodd"/>
          <path id="Trazado_1249449" data-name="Trazado 1249449" d="M156.278,44.238H133.1a1.535,1.535,0,0,0,1.533,1.532h23.177a1.535,1.535,0,0,0,1.533-1.532v-5.8a1.536,1.536,0,0,0-1.533-1.533v5.8a1.535,1.535,0,0,1-1.533,1.532Z" transform="translate(-116.572 -32.48)" fill="#c48958" fill-rule="evenodd"/>
        </g>
        <g id="Grupo_1214152" data-name="Grupo 1214152" transform="translate(12.344 20.917)">
          <path id="Trazado_1249450" data-name="Trazado 1249450" d="M107.752,144.484H113.7a1.968,1.968,0,0,1,1.962,1.963v5.947a1.968,1.968,0,0,1-1.962,1.963h-5.947a1.968,1.968,0,0,1-1.962-1.963v-5.947A1.968,1.968,0,0,1,107.752,144.484Z" transform="translate(-105.79 -144.484)" fill="#fe646f" fill-rule="evenodd"/>
          <path id="Trazado_1249451" data-name="Trazado 1249451" d="M115.457,145.61a1.969,1.969,0,0,1,1.16,1.79v5.947a1.968,1.968,0,0,1-1.962,1.963h-5.947a1.969,1.969,0,0,1-1.79-1.16,1.944,1.944,0,0,0,.8.173h5.947a1.968,1.968,0,0,0,1.962-1.962v-5.947A1.946,1.946,0,0,0,115.457,145.61Z" transform="translate(-106.744 -145.437)" fill="#fd4755" fill-rule="evenodd"/>
        </g>
        <g id="Grupo_1214153" data-name="Grupo 1214153" transform="translate(12.344 37.598)">
          <path id="Trazado_1249452" data-name="Trazado 1249452" d="M107.752,253.326H113.7a1.968,1.968,0,0,1,1.962,1.962v5.947A1.968,1.968,0,0,1,113.7,263.2h-5.947a1.968,1.968,0,0,1-1.962-1.962v-5.947a1.968,1.968,0,0,1,1.962-1.962Z" transform="translate(-105.79 -253.326)" fill="#6cf5c2" fill-rule="evenodd"/>
          <path id="Trazado_1249453" data-name="Trazado 1249453" d="M115.457,254.452a1.969,1.969,0,0,1,1.16,1.79v5.947a1.968,1.968,0,0,1-1.962,1.962h-5.947a1.969,1.969,0,0,1-1.79-1.16,1.944,1.944,0,0,0,.8.173h5.947a1.968,1.968,0,0,0,1.962-1.962v-5.947A1.946,1.946,0,0,0,115.457,254.452Z" transform="translate(-106.744 -254.279)" fill="#00e499" fill-rule="evenodd"/>
        </g>
        <g id="Grupo_1214154" data-name="Grupo 1214154" transform="translate(12.344 54.278)">
          <path id="Trazado_1249454" data-name="Trazado 1249454" d="M107.752,362.167H113.7a1.968,1.968,0,0,1,1.962,1.963v5.947a1.968,1.968,0,0,1-1.962,1.962h-5.947a1.968,1.968,0,0,1-1.962-1.962V364.13A1.968,1.968,0,0,1,107.752,362.167Z" transform="translate(-105.79 -362.167)" fill="#8ac9fe" fill-rule="evenodd"/>
          <path id="Trazado_1249455" data-name="Trazado 1249455" d="M115.457,363.293a1.969,1.969,0,0,1,1.16,1.79v5.947a1.968,1.968,0,0,1-1.962,1.962h-5.947a1.969,1.969,0,0,1-1.79-1.16,1.944,1.944,0,0,0,.8.173h5.947a1.968,1.968,0,0,0,1.962-1.962V364.1A1.947,1.947,0,0,0,115.457,363.293Z" transform="translate(-106.744 -363.12)" fill="#60b7ff" fill-rule="evenodd"/>
        </g>
        <g id="Grupo_1214155" data-name="Grupo 1214155" transform="translate(46.63 13.487)">
          <path id="Trazado_1249456" data-name="Trazado 1249456" d="M329.509,126.746,346.3,97.659a3.312,3.312,0,0,1,4.516-1.21l1.145.661a3.312,3.312,0,0,1,1.21,4.516L336.38,130.713,330.694,134a.79.79,0,0,1-1.185-.684Z" transform="translate(-329.509 -96.007)" fill="#e3a76f" fill-rule="evenodd"/>
          <path id="Trazado_1249457" data-name="Trazado 1249457" d="M367.142,106.621a3.315,3.315,0,0,1,.527,3.992L350.875,139.7l-4.247,2.452Z" transform="translate(-344.004 -104.994)" fill="#c48958" fill-rule="evenodd"/>
          <path id="Trazado_1249458" data-name="Trazado 1249458" d="M329.509,303.142v-6.566l6.871,3.967-5.686,3.283a.79.79,0,0,1-1.185-.684Z" transform="translate(-329.509 -265.837)" fill="#685e68" fill-rule="evenodd"/>
        </g>
      </g>
      <path id="Trazado_1249459" data-name="Trazado 1249459" d="M47.641,57.772a1.226,1.226,0,0,1,1.226-1.226H62.89a1.226,1.226,0,1,1,0,2.452H48.867A1.226,1.226,0,0,1,47.641,57.772Zm0,5.344a1.226,1.226,0,0,1,1.226-1.226h7.011a1.226,1.226,0,0,1,0,2.452H48.867a1.226,1.226,0,0,1-1.226-1.226Zm0-23.721a1.226,1.226,0,0,1,1.226-1.226H62.89a1.226,1.226,0,1,1,0,2.452H48.867A1.226,1.226,0,0,1,47.641,39.394Zm0,5.346a1.226,1.226,0,0,1,1.226-1.226h7.011a1.226,1.226,0,0,1,0,2.452H48.867a1.227,1.227,0,0,1-1.226-1.226Zm0-20.331a1.226,1.226,0,0,1,1.226-1.226H62.89a1.226,1.226,0,1,1,0,2.452H48.867A1.226,1.226,0,0,1,47.641,24.409Zm0,5.346a1.226,1.226,0,0,1,1.226-1.226h7.011a1.226,1.226,0,0,1,0,2.452H48.867a1.227,1.227,0,0,1-1.226-1.226ZM87.7,19.434,71.52,47.46,70.208,46.7,87.388,16.944A2.075,2.075,0,0,1,87.7,19.434Zm-11.156,54.4V43.664l-2.29,3.965V72.5a1.226,1.226,0,0,1-1.226,1.226H23.209A1.226,1.226,0,0,1,21.983,72.5V12.461a1.226,1.226,0,0,1,1.226-1.226H33.771V8.945h-11.9a2.186,2.186,0,0,0-2.183,2.182V73.836a2.186,2.186,0,0,0,2.183,2.182H74.36a2.185,2.185,0,0,0,2.182-2.182Zm-15.3-58.089H35a1.227,1.227,0,0,1-1.226-1.226v-.834H24.435v57.59H71.8V50.646L65.71,54.164A1.226,1.226,0,0,1,63.871,53.1V45.168a1.211,1.211,0,0,1,.166-.613L71.8,31.1V13.687H62.465v.834a1.228,1.228,0,0,1-1.226,1.226ZM36.223,6.885h6.262a1.227,1.227,0,0,0,1.193-.938,4.568,4.568,0,0,1,8.88,0,1.225,1.225,0,0,0,1.192.938h6.264v6.409H36.223ZM74.36,8.945H62.465v2.29H73.027a1.226,1.226,0,0,1,1.226,1.226v14.4l2.29-3.963V11.128A2.186,2.186,0,0,0,74.36,8.945ZM66.323,47.29l3.194,1.844-3.194,1.844Zm16.633-30.6L66.772,44.719l1.312.757L85.262,15.718a2.075,2.075,0,0,0-2.307.975Zm5.213-2.224-1.15-.66a4.536,4.536,0,0,0-6.19,1.658l-1.835,3.179V11.128A4.639,4.639,0,0,0,74.36,6.493H62.466V5.659a1.227,1.227,0,0,0-1.226-1.226H54.645a7.024,7.024,0,0,0-13.055,0H35a1.226,1.226,0,0,0-1.226,1.226v.834h-11.9a4.641,4.641,0,0,0-4.635,4.635V73.836a4.639,4.639,0,0,0,4.635,4.634H74.36a4.638,4.638,0,0,0,4.634-4.634V39.418L89.824,20.66a4.539,4.539,0,0,0-1.656-6.192ZM49.65,5.978a1.533,1.533,0,1,0-1.533,1.533A1.535,1.535,0,0,0,49.65,5.978ZM39.457,63.417a.746.746,0,0,1-.736.736H32.773a.746.746,0,0,1-.735-.736V57.47a.746.746,0,0,1,.735-.736h5.948a.746.746,0,0,1,.736.736v1.111l-1.826,1.657-2.061-2.061a1.226,1.226,0,1,0-1.735,1.733L36.724,62.8a1.223,1.223,0,0,0,1.69.041l1.042-.946v1.525Zm4.323-8.76a1.226,1.226,0,1,1,1.648,1.816l-3.519,3.192v3.752a3.191,3.191,0,0,1-3.188,3.188H32.773a3.191,3.191,0,0,1-3.188-3.188V57.47a3.192,3.192,0,0,1,3.188-3.188h5.948a3.193,3.193,0,0,1,3.035,2.213Zm-4.323-7.92a.746.746,0,0,1-.736.735H32.773a.746.746,0,0,1-.735-.735V40.789a.746.746,0,0,1,.735-.737h5.948a.746.746,0,0,1,.736.737V41.9l-1.826,1.657-2.061-2.063a1.227,1.227,0,1,0-1.735,1.735l2.889,2.887a1.227,1.227,0,0,0,1.69.041l1.042-.947v1.527Zm4.323-8.76a1.226,1.226,0,1,1,1.648,1.816l-3.519,3.192v3.752a3.191,3.191,0,0,1-3.188,3.188H32.773a3.191,3.191,0,0,1-3.188-3.188V40.789A3.193,3.193,0,0,1,32.773,37.6h5.948a3.194,3.194,0,0,1,3.035,2.215ZM39.457,24.109v1.109l-1.826,1.657-2.061-2.061a1.227,1.227,0,1,0-1.735,1.735l2.889,2.887a1.225,1.225,0,0,0,1.69.04l1.042-.946v1.525a.746.746,0,0,1-.736.737H32.773a.746.746,0,0,1-.735-.737V24.109a.746.746,0,0,1,.735-.737h5.948A.746.746,0,0,1,39.457,24.109Zm-9.872,0a3.192,3.192,0,0,1,3.188-3.189h5.948a3.2,3.2,0,0,1,3.035,2.213L43.78,21.3a1.226,1.226,0,1,1,1.648,1.814L41.909,26.3v3.75a3.192,3.192,0,0,1-3.188,3.189H32.773a3.193,3.193,0,0,1-3.188-3.189Z" fill-rule="evenodd"/>
    </g>
  </g>
</svg>
