<svg xmlns="http://www.w3.org/2000/svg" xmlns:xlink="http://www.w3.org/1999/xlink" width="107.838" height="107.838" viewBox="0 0 107.838 107.838">
  <defs>
    <filter id="Trazado_896985" x="0" y="0" width="107.838" height="107.838" filterUnits="userSpaceOnUse">
      <feOffset dy="3" input="SourceAlpha"/>
      <feGaussianBlur stdDeviation="3" result="blur"/>
      <feFlood flood-opacity="0.161"/>
      <feComposite operator="in" in2="blur"/>
      <feComposite in="SourceGraphic"/>
    </filter>
  </defs>
  <g id="Grupo_1213870" data-name="Grupo 1213870" transform="translate(-195.934 -3924.046)">
    <g id="Grupo_1212404" data-name="Grupo 1212404" transform="translate(0 1118.776)">
      <g id="Grupo_1212198" data-name="Grupo 1212198" transform="translate(-0.957 -15123.73)">
        <g id="Grupo_1200012" data-name="Grupo 1200012" transform="translate(205.891 17935)">
          <g id="Grupo_1198723" data-name="Grupo 1198723" transform="translate(0 0)">
            <g id="Grupo_1198139" data-name="Grupo 1198139">
              <g id="Grupo_1111318" data-name="Grupo 1111318" transform="translate(0)">
                <g id="Grupo_1109826" data-name="Grupo 1109826" transform="translate(0 0)">
                  <g id="Grupo_1098742" data-name="Grupo 1098742" transform="translate(0)">
                    <g transform="matrix(1, 0, 0, 1, -9, -6)" filter="url(#Trazado_896985)">
                      <g id="Trazado_896985-2" data-name="Trazado 896985" transform="translate(9 6)" fill="#fff4e4" opacity="0.859">
                        <path d="M 44.91888809204102 88.83787536621094 C 38.98943710327148 88.83787536621094 33.23787689208984 87.67681884765625 27.82398796081543 85.38693237304688 C 22.59427642822266 83.17494201660156 17.89730072021484 80.00809478759766 13.86355018615723 75.97434234619141 C 9.829788208007812 71.94058227539062 6.662938117980957 67.24361419677734 4.450950622558594 62.0139045715332 C 2.161063194274902 56.60001754760742 1.000000596046448 50.84845352172852 1.000000596046448 44.91900253295898 C 1.000000596046448 38.98942947387695 2.161063194274902 33.23786544799805 4.450950622558594 27.82397842407227 C 6.662938117980957 22.59426689147949 9.829788208007812 17.89730453491211 13.86355018615723 13.86354160308838 C 17.89730072021484 9.829791069030762 22.59427642822266 6.662941455841064 27.82398796081543 4.450953960418701 C 33.23787689208984 2.16106653213501 38.98943710327148 1.000004053115845 44.91888809204102 1.000004053115845 C 50.84833908081055 1.000004053115845 56.59989929199219 2.16106653213501 62.01378631591797 4.450953960418701 C 67.24349975585938 6.662941455841064 71.94047546386719 9.829791069030762 75.97422790527344 13.86354160308838 C 80.00798797607422 17.89730453491211 83.17483520507812 22.59426689147949 85.38682556152344 27.82397842407227 C 87.67671203613281 33.23786544799805 88.83777618408203 38.98942947387695 88.83777618408203 44.91888046264648 C 88.83777618408203 50.84845352172852 87.67671203613281 56.60001754760742 85.38682556152344 62.0139045715332 C 83.17483520507812 67.24361419677734 80.00798797607422 71.94058227539062 75.97422790527344 75.97434234619141 C 71.94047546386719 80.00809478759766 67.24349975585938 83.17494201660156 62.01378631591797 85.38693237304688 C 56.59989929199219 87.67681884765625 50.84833908081055 88.83787536621094 44.91888809204102 88.83787536621094 Z" stroke="none"/>
                        <path d="M 44.91888809204102 1.999992370605469 C 39.12399291992188 1.999992370605469 33.50350189208984 3.134490966796875 28.21352767944336 5.371955871582031 C 23.10301971435547 7.533515930175781 18.51288604736328 10.62841033935547 14.57064819335938 14.57064819335938 C 10.62841033935547 18.51288604736328 7.533515930175781 23.10301971435547 5.371955871582031 28.21352767944336 C 3.134490966796875 33.50348663330078 1.999992370605469 39.12398147583008 1.999992370605469 44.91900634765625 C 1.999992370605469 50.71390151977539 3.134490966796875 56.33439636230469 5.371955871582031 61.62435531616211 C 7.533515930175781 66.73486328125 10.62841033935547 71.32499694824219 14.57064819335938 75.26723480224609 C 18.51288604736328 79.20947265625 23.10301971435547 82.30435180664062 28.21352767944336 84.46591186523438 C 33.50350189208984 86.70338439941406 39.12399291992188 87.83787536621094 44.91888809204102 87.83787536621094 C 50.71378326416016 87.83787536621094 56.33427429199219 86.70338439941406 61.62423706054688 84.46591186523438 C 66.73475646972656 82.30435180664062 71.32487487792969 79.20947265625 75.26711273193359 75.26723480224609 C 79.2093505859375 71.32499694824219 82.30424499511719 66.73486328125 84.46580505371094 61.62435531616211 C 86.70327758789062 56.33439636230469 87.8377685546875 50.71390151977539 87.8377685546875 44.91887664794922 C 87.8377685546875 39.12398147583008 86.70327758789062 33.50348663330078 84.46580505371094 28.21352767944336 C 82.30424499511719 23.10301971435547 79.2093505859375 18.51288604736328 75.26711273193359 14.57064819335938 C 71.32487487792969 10.62841033935547 66.73475646972656 7.533515930175781 61.62423706054688 5.371955871582031 C 56.33427429199219 3.134490966796875 50.71378326416016 1.999992370605469 44.91888809204102 1.999992370605469 M 44.91888809204102 -7.62939453125e-06 C 69.72689819335938 -7.62939453125e-06 89.8377685546875 20.11087799072266 89.8377685546875 44.91887664794922 L 89.8377685546875 44.91900634765625 C 89.8377685546875 69.72702026367188 69.72689819335938 89.83787536621094 44.91888809204102 89.83787536621094 C 20.11087799072266 89.83787536621094 -7.62939453125e-06 69.72702026367188 -7.62939453125e-06 44.91900634765625 L -7.62939453125e-06 44.91887664794922 C -7.62939453125e-06 20.11087799072266 20.11087799072266 -7.62939453125e-06 44.91888809204102 -7.62939453125e-06 Z" stroke="none" fill="#7e4b00"/>
                      </g>
                    </g>
                    <g id="Rectángulo_400907" data-name="Rectángulo 400907" transform="translate(0)" fill="none" stroke="#7e4b00" stroke-width="2">
                      <rect width="89.838" height="89.838" rx="44.919" stroke="none"/>
                      <rect x="1" y="1" width="87.838" height="87.838" rx="43.919" fill="none"/>
                    </g>
                  </g>
                </g>
              </g>
            </g>
          </g>
        </g>
      </g>
    </g>
    <g id="check_16057724" transform="translate(221.041 3948.605)">
      <path id="Trazado_1248497" data-name="Trazado 1248497" d="M51.862,45.41l-1.768,3.536H43.905l-.884,11.51a12.4,12.4,0,0,1-11.2-7.072l1.476-.009,2.652-.009,4.862-9.725,1.326-2.652,1.768,2.652Z" transform="translate(-3.168 -4.755)" fill="#965353"/>
      <path id="Trazado_1248498" data-name="Trazado 1248498" d="M33.49,53.715l4.862-9.725H41l-4.862,9.725-2.652.009Z" transform="translate(-3.362 -5.103)" fill="#656d78"/>
      <path id="Trazado_1248499" data-name="Trazado 1248499" d="M42.873,34.97a12.395,12.395,0,0,1-.009,24.789l.884-11.51h6.188L51.7,44.712l-7.957-1.768L41.98,40.292l-1.326,2.652H38l-4.862,9.725v.009l-1.476.009a12.392,12.392,0,0,1,11.2-17.717Z" transform="translate(-3.011 -4.057)" fill="#87bcf4"/>
      <path id="Trazado_1248500" data-name="Trazado 1248500" d="M42.935.99V31.03h-.009a12.356,12.356,0,0,0-2.643.283V3.642H31L32.326.99Z" transform="translate(-3.073 -0.117)" fill="#656d78"/>
      <path id="Trazado_1248501" data-name="Trazado 1248501" d="M30.761.99,29.435,3.642l-.442.884H19.268l-.442-.884L17.5.99Z" transform="translate(-1.508 -0.117)" fill="#ffce54"/>
      <path id="Trazado_1248502" data-name="Trazado 1248502" d="M8.152,40.773H27.858a12.5,12.5,0,0,0-.283,2.652H5.5V.99H16.109l1.326,2.652H8.152Z" transform="translate(-0.116 -0.117)" fill="#656d78"/>
      <path id="Trazado_1248503" data-name="Trazado 1248503" d="M18.225,4.874h9.725l.442-.884h9.283V31.661a12.405,12.405,0,0,0-9.468,9.459H8.5V3.99h9.283Z" transform="translate(-0.464 -0.465)" fill="#e6e9ed"/>
      <path id="Trazado_1248504" data-name="Trazado 1248504" d="M19.149,5.284a.884.884,0,0,1-.792-.489L16.589,1.259A.884.884,0,0,1,18.171.468L19.939,4a.884.884,0,0,1-.79,1.279Z" transform="translate(-1.391)"/>
      <path id="Trazado_1248505" data-name="Trazado 1248505" d="M30.379,5.284A.884.884,0,0,1,29.589,4L31.357.468a.884.884,0,1,1,1.582.791L31.171,4.8a.884.884,0,0,1-.792.489Z" transform="translate(-2.898 0)"/>
      <path id="Trazado_1248506" data-name="Trazado 1248506" d="M29.1,5.748H19.38a.884.884,0,1,1,0-1.768H29.1a.884.884,0,1,1,0,1.768Z" transform="translate(-1.623 -0.464)"/>
      <path id="Trazado_1248507" data-name="Trazado 1248507" d="M40.163,4.748H30.88a.884.884,0,1,1,0-1.768h9.283a.884.884,0,1,1,0,1.768Z" transform="translate(-2.956 -0.348)"/>
      <path id="Trazado_1248508" data-name="Trazado 1248508" d="M17.663,4.748H8.38a.884.884,0,0,1,0-1.768h9.283a.884.884,0,0,1,0,1.768Z" transform="translate(-0.348 -0.348)"/>
      <path id="Trazado_1248509" data-name="Trazado 1248509" d="M27.482,44.182H5.38A.884.884,0,0,1,4.5,43.3V.864A.884.884,0,0,1,5.38-.021H39.858a.884.884,0,0,1,.884.884V30.922a.884.884,0,1,1-1.768,0V1.748H6.264V42.414H27.482a.884.884,0,0,1,0,1.768Z" transform="translate(0 0)"/>
      <path id="Trazado_1248510" data-name="Trazado 1248510" d="M28.116,41.878H8.38a.884.884,0,0,1-.884-.884V3.864a.884.884,0,1,1,1.768,0V40.11H28.116a.884.884,0,1,1,0,1.768Z" transform="translate(-0.348 -0.348)"/>
      <path id="Trazado_1248511" data-name="Trazado 1248511" d="M41.38,32.439a.884.884,0,0,1-.884-.884V3.864a.884.884,0,0,1,1.768,0V31.555a.884.884,0,0,1-.884.884Z" transform="translate(-4.174 -0.348)"/>
      <path id="Trazado_1248512" data-name="Trazado 1248512" d="M15.268,39.633a.88.88,0,0,1-.641-.275l-.839-.883a.884.884,0,0,1,1.281-1.217l.839.883a.884.884,0,0,1-.641,1.493Z" transform="translate(-1.049 -4.29)"/>
      <path id="Trazado_1248513" data-name="Trazado 1248513" d="M15.378,39.4a.884.884,0,0,1-.625-1.509l2.654-2.653a.884.884,0,1,1,1.25,1.25L16,39.142a.881.881,0,0,1-.625.259Z" transform="translate(-1.159 -4.058)"/>
      <path id="Trazado_1248514" data-name="Trazado 1248514" d="M31.337,36.75H23.38a.884.884,0,1,1,0-1.768h7.957a.884.884,0,1,1,0,1.768Z" transform="translate(-2.087 -4.058)"/>
      <path id="Trazado_1248515" data-name="Trazado 1248515" d="M27.8,39.749H23.38a.884.884,0,0,1,0-1.768H27.8a.884.884,0,0,1,0,1.768Z" transform="translate(-2.087 -4.406)"/>
      <path id="Trazado_1248516" data-name="Trazado 1248516" d="M15.268,31.637a.88.88,0,0,1-.641-.275l-.839-.883a.884.884,0,1,1,1.281-1.217l.839.883a.884.884,0,0,1-.641,1.493Z" transform="translate(-1.049 -3.363)"/>
      <path id="Trazado_1248517" data-name="Trazado 1248517" d="M15.378,31.4a.884.884,0,0,1-.625-1.509l2.654-2.653a.884.884,0,1,1,1.25,1.25L16,31.146a.881.881,0,0,1-.625.259Z" transform="translate(-1.159 -3.131)"/>
      <path id="Trazado_1248518" data-name="Trazado 1248518" d="M34.873,28.753H23.38a.884.884,0,0,1,0-1.768H34.873a.884.884,0,1,1,0,1.768Z" transform="translate(-2.087 -3.131)"/>
      <path id="Trazado_1248519" data-name="Trazado 1248519" d="M27.8,31.753H23.38a.884.884,0,0,1,0-1.768H27.8a.884.884,0,0,1,0,1.768Z" transform="translate(-2.087 -3.479)"/>
      <path id="Trazado_1248520" data-name="Trazado 1248520" d="M15.268,15.633a.88.88,0,0,1-.641-.275l-.839-.883a.884.884,0,1,1,1.281-1.217l.839.883a.884.884,0,0,1-.641,1.493Z" transform="translate(-1.049 -1.508)"/>
      <path id="Trazado_1248521" data-name="Trazado 1248521" d="M15.378,15.4a.884.884,0,0,1-.625-1.509l2.654-2.653a.884.884,0,0,1,1.25,1.25L16,15.142a.881.881,0,0,1-.625.259Z" transform="translate(-1.159 -1.275)"/>
      <path id="Trazado_1248522" data-name="Trazado 1248522" d="M34.873,12.75H23.38a.884.884,0,0,1,0-1.768H34.873a.884.884,0,1,1,0,1.768Z" transform="translate(-2.087 -1.276)"/>
      <path id="Trazado_1248523" data-name="Trazado 1248523" d="M27.8,15.749H23.38a.884.884,0,0,1,0-1.768H27.8a.884.884,0,0,1,0,1.768Z" transform="translate(-2.087 -1.623)"/>
      <path id="Trazado_1248524" data-name="Trazado 1248524" d="M15.268,23.641a.88.88,0,0,1-.641-.275l-.839-.883a.884.884,0,0,1,1.281-1.217l.839.883a.884.884,0,0,1-.641,1.493Z" transform="translate(-1.049 -2.436)"/>
      <path id="Trazado_1248525" data-name="Trazado 1248525" d="M15.378,23.408a.884.884,0,0,1-.625-1.509l2.654-2.653a.884.884,0,1,1,1.25,1.25L16,23.15a.881.881,0,0,1-.625.259Z" transform="translate(-1.159 -2.204)"/>
      <path id="Trazado_1248526" data-name="Trazado 1248526" d="M34.873,20.757H23.38a.884.884,0,1,1,0-1.768H34.873a.884.884,0,1,1,0,1.768Z" transform="translate(-2.087 -2.204)"/>
      <path id="Trazado_1248527" data-name="Trazado 1248527" d="M27.8,23.756H23.38a.884.884,0,0,1,0-1.768H27.8a.884.884,0,0,1,0,1.768Z" transform="translate(-2.087 -2.552)"/>
      <path id="Trazado_1248528" data-name="Trazado 1248528" d="M42.745,60.515A13.276,13.276,0,1,1,56.022,47.238,13.276,13.276,0,0,1,42.745,60.515Zm0-24.785A11.508,11.508,0,1,0,54.253,47.238,11.508,11.508,0,0,0,42.745,35.73Z" transform="translate(-2.895 -3.94)"/>
      <path id="Trazado_1248529" data-name="Trazado 1248529" d="M31.706,55.763A.884.884,0,0,1,31.7,54l4.13-.014h0a.884.884,0,1,1,0,1.768l-4.13.014Z" transform="translate(-3.052 -6.261)"/>
      <path id="Trazado_1248530" data-name="Trazado 1248530" d="M36.377,54.126a.884.884,0,0,1-.79-1.279L41.776,40.47a.884.884,0,0,1,1.582.791L37.169,53.638a.884.884,0,0,1-.792.489Z" transform="translate(-3.594 -4.638)"/>
      <path id="Trazado_1248531" data-name="Trazado 1248531" d="M45.147,44.4a.883.883,0,0,1-.736-.394l-1.768-2.652a.884.884,0,1,1,1.471-.981l1.768,2.652a.884.884,0,0,1-.735,1.374Z" transform="translate(-4.406 -4.638)"/>
      <path id="Trazado_1248532" data-name="Trazado 1248532" d="M53.336,46.518a.919.919,0,0,1-.193-.021l-7.957-1.768A.884.884,0,1,1,45.57,43l7.957,1.768a.884.884,0,0,1-.191,1.747Z" transform="translate(-4.637 -4.986)"/>
      <path id="Trazado_1248533" data-name="Trazado 1248533" d="M52.377,50.286a.884.884,0,0,1-.79-1.279l1.768-3.536a.884.884,0,1,1,1.582.791L53.169,49.8a.884.884,0,0,1-.792.489Z" transform="translate(-5.449 -5.218)"/>
      <path id="Trazado_1248534" data-name="Trazado 1248534" d="M51.567,50.75H45.378a.884.884,0,0,1,0-1.768h6.188a.884.884,0,0,1,0,1.768Z" transform="translate(-4.637 -5.681)"/>
      <path id="Trazado_1248535" data-name="Trazado 1248535" d="M44.37,62.277l-.069,0a.884.884,0,0,1-.813-.95L44.38,49.8a.874.874,0,0,1,.95-.813.884.884,0,0,1,.813.95l-.892,11.527a.884.884,0,0,1-.881.816Z" transform="translate(-4.52 -5.681)"/>
      <path id="Trazado_1248536" data-name="Trazado 1248536" d="M33.377,54.474a.884.884,0,0,1-.79-1.279L37.45,43.47a.884.884,0,1,1,1.582.791l-4.862,9.725a.884.884,0,0,1-.792.489Z" transform="translate(-3.246 -4.986)"/>
      <path id="Trazado_1248537" data-name="Trazado 1248537" d="M41.53,44.75H38.878a.884.884,0,0,1,0-1.768H41.53a.884.884,0,0,1,0,1.768Z" transform="translate(-3.884 -4.986)"/>
    </g>
  </g>
</svg>
